<?xml version="1.0" encoding="UTF-8"?>
<svg width="176px" height="30px" viewBox="0 0 176 30" version="1.1" xmlns="http://www.w3.org/2000/svg" xmlns:xlink="http://www.w3.org/1999/xlink">
    <!-- Generator: Sketch 52.6 (67491) - http://www.bohemiancoding.com/sketch -->
    <title>logo-ag</title>
    <desc>Created with Sketch.</desc>
    <g id="Diversos" stroke="none" stroke-width="1" fill="none" fill-rule="evenodd">
        <g id="Login---01" transform="translate(-832.000000, -567.000000)" fill="#3B495B">
            <g id="Login" transform="translate(731.000000, 259.000000)">
                <g id="Btn-Autenticcao-Gov" transform="translate(0.000000, 299.000000)">
                    <g id="logo-ag" transform="translate(101.000000, 9.000000)">
                        <g id="Group-4">
                            <path d="M15.7894737,29.993617 L15.7765368,29.993617 L15.7765368,30 L15.5695466,30 C6.97298346,30 0,23.2851064 0,15 C0,6.7212766 6.97298346,0 15.5695466,0 L15.5824835,0 L15.5889519,0 L15.7894737,0 L15.7894737,5.8787234 L15.7765368,5.8787234 L15.5889519,5.8787234 C10.3559801,5.88510638 6.1256172,9.95744681 6.1256172,14.9942553 C6.1256172,20.0368085 10.3624485,24.1085106 15.5954203,24.1085106 L15.7894737,24.1085106 L15.7894737,29.993617 Z" id="Shape"></path>
                            <path d="M18.012827,17.9991025 C17.8173674,18.096449 17.6829889,18.1578947 17.4020157,18.1578947 C15.9055278,18.1578947 15.7894737,16.5209537 15.7894737,16.5209537 L15.7894737,13.7455412 L15.8261224,13.4279566 L15.862771,13.4210526 L18.9473684,13.4210526 L18.9473684,16.1550411 C18.9473684,16.1557315 18.8557467,17.5917658 18.012827,17.9991025 Z" id="Shape"></path>
                            <path d="M25.9075639,17.9991025 C25.7121042,18.096449 25.5777257,18.1578947 25.2906444,18.1578947 C23.8002647,18.1578947 23.6842105,16.5209537 23.6842105,16.5209537 L23.6842105,13.7455412 L23.7208592,13.4279566 L23.7575079,13.4210526 L26.8421053,13.4210526 L26.8421053,16.1550411 C26.8421053,16.1557315 26.7504836,17.5917658 25.9075639,17.9991025 Z" id="Shape"></path>
                            <path d="M21.7525196,22.8272869 C21.6059249,22.8706034 21.5265194,22.8947368 21.343276,22.8947368 C19.8528963,22.8947368 19.7368421,21.4405409 19.7368421,21.4405409 L19.7368421,18.9473684 L19.7673827,19.2190246 L19.9017612,19.2066485 L22.8947368,19.2066485 L22.8947368,21.6620737 C22.8947368,21.6633114 22.7847908,22.5550119 21.7525196,22.8272869 Z" id="Shape"></path>
                            <path d="M21.9540873,17.9991025 C21.7586277,18.096449 21.6181411,18.1578947 21.343276,18.1578947 C19.8528963,18.1578947 19.7368421,16.5209537 19.7368421,16.5209537 L19.7368421,13.7455412 L19.7673827,13.4279566 L19.9017612,13.4210526 L22.8947368,13.4210526 L22.8947368,16.1550411 C22.8947368,16.1557315 22.797007,17.5986698 21.9540873,17.9991025 Z" id="Shape"></path>
                            <path d="M21.7525196,12.5706628 C21.6059249,12.6072125 21.5265194,12.6315789 21.343276,12.6315789 C19.8528963,12.6315789 19.7368421,11.2000487 19.7368421,11.2000487 L19.7368421,8.75121832 L19.7673827,8.70248538 L19.9017612,8.68421053 L22.8947368,8.68421053 L22.8947368,11.1086745 C22.8947368,11.1086745 22.7847908,12.2959308 21.7525196,12.5706628 Z" id="Shape"></path>
                        </g>
                        <g id="Group" transform="translate(35.000000, 6.000000)" fill-rule="nonzero">
                            <path d="M8.79334682,15.1000435 L7.90089017,12.5854348 L3.84693642,12.5854348 L2.9552948,15.1000435 L0.620236994,15.1000435 L4.98308671,3.39686957 L6.76636994,3.39686957 L11.1292197,15.1000435 L8.79334682,15.1000435 Z M5.72802312,6.14278261 L6.01980347,6.14278261 L4.49488439,10.630087 L7.25131214,10.630087 L5.72802312,6.14278261 Z" id="Shape"></path>
                            <path d="M15.8172659,15.1983478 C13.4015202,15.1983478 11.5041329,13.5387391 11.5041329,11.0571739 L11.5041329,3.39769565 L13.6924855,3.39769565 L13.6924855,10.877087 C13.6924855,12.2905217 14.6004277,13.062913 15.8164509,13.062913 C17.033289,13.062913 17.9567168,12.2896957 17.9567168,10.877087 L17.9567168,3.39769565 L20.1466997,3.39769565 L20.1466994,11.0571739 C20.1475145,13.5387391 18.2338266,15.1983478 15.8172659,15.1983478 Z" id="Shape"></path>
                            <polygon id="Shape" points="25.970896 5.35386957 25.970896 15.1000435 23.7809133 15.1000435 23.7809133 5.35386957 20.6186012 5.35386957 20.6186012 3.39769565 29.1323931 3.39769565 29.1323931 5.35386957"></polygon>
                            <polygon id="Shape" points="29.8162023 15.1000435 29.8162023 3.39769565 37.6323295 3.39769565 37.6323295 5.43647826 32.0053699 5.43647826 32.0053699 8.23113043 36.8058902 8.23113043 36.8058902 10.1707826 32.0053699 10.1707826 32.0053699 13.0637391 37.6323295 13.0637391 37.6323295 15.1008696 29.8162023 15.1008696"></polygon>
                            <polygon id="Shape" points="45.824185 15.1000435 40.6031098 7.07956522 40.9103757 7.07956522 40.9103757 15.1000435 38.7212081 15.1000435 38.7212081 3.39769565 40.7000983 3.39769565 45.9211734 11.419 45.6302081 11.419 45.6302081 3.39769565 47.8193757 3.39769565 47.8193757 15.1008696 45.824185 15.1008696"></polygon>
                            <polygon id="Shape" points="53.8538497 5.35386957 53.8538497 15.1000435 51.6646821 15.1000435 51.6646821 5.35386957 48.5015549 5.35386957 48.5015549 3.39769565 57.0161618 3.39769565 57.0161618 5.35386957"></polygon>
                            <polygon id="Shape" points="57.6991561 15.1000435 57.6991561 3.39769565 59.8883237 3.39769565 59.8883237 15.1008696 57.6991561 15.1008696"></polygon>
                            <path d="M65.7117052,15.1983478 C63.7980173,15.1983478 62.4850058,14.0971739 61.9006301,13.0455652 C61.5265318,12.3557826 61.3814566,12.027 61.3814566,9.24804348 C61.3814566,6.4533913 61.5265318,6.12626087 61.9006301,5.43565217 C62.4850058,4.39973913 63.7980173,3.29773913 65.7117052,3.29773913 C68.0133468,3.29773913 69.6034682,4.85986957 70.0256532,7.06221739 L67.7541676,7.06221739 C67.4632023,6.12626087 66.7166358,5.43565217 65.7117052,5.43565217 C64.9651387,5.43565217 64.4141792,5.7636087 64.1052832,6.175 C63.6676127,6.71691304 63.5706243,7.03 63.5706243,9.24886957 C63.5706243,11.4512174 63.6676127,11.7643043 64.1052832,12.3227391 C64.4141792,12.7184348 64.9651387,13.062913 65.7117052,13.062913 C66.6033468,13.062913 67.2684104,12.568913 67.7712832,11.5173043 L70.0256532,11.5173043 C69.5064798,13.9996957 67.7867688,15.1983478 65.7117052,15.1983478 Z" id="Shape"></path>
                            <path d="M77.5361445,15.1000435 L76.6445029,12.5854348 L72.5897341,12.5854348 L71.6964624,15.1000435 L69.3614046,15.1000435 L73.7250694,3.39686957 L75.5083526,3.39686957 L79.8720173,15.1000435 L77.5361445,15.1000435 Z M74.4700058,6.14278261 L74.7626012,6.14278261 L73.2376821,10.630087 L75.9949249,10.630087 L74.4700058,6.14278261 Z" id="Shape"></path>
                            <path d="M85.1273237,15.2322174 L84.4956763,16.0698696 L84.317185,15.7245652 C84.430474,15.6923478 84.5926647,15.6584783 84.7866416,15.6584783 C85.8241734,15.6584783 86.4403353,16.3168696 86.4403353,17.0892609 C86.4403353,18.24 85.4028035,18.8141304 84.2177514,18.8141304 C83.6830925,18.8141304 83.0669306,18.6175217 82.3040636,18.354 L82.7751503,17.2701739 C83.2780231,17.451087 83.6504913,17.565087 84.007474,17.565087 C84.4133584,17.565087 84.7369249,17.4502609 84.7369249,17.1049565 C84.7369249,16.8257391 84.4614451,16.7431304 84.1541792,16.7431304 C83.9756879,16.7431304 83.8297977,16.7753478 83.5046012,16.9397391 L82.8884393,16.4135217 L83.7482948,15.247087 C82.1915896,15.0323043 81.104341,14.031087 80.5851676,13.1265217 C80.2126994,12.4367391 80.0659942,12.1079565 80.0659942,9.29678261 C80.0659942,6.46908696 80.2126994,6.14113043 80.5851676,5.45052174 C81.1695434,4.39891304 82.4825549,3.29691304 84.3962428,3.29691304 C86.6995145,3.29691304 88.2880058,4.87473913 88.7101908,7.09526087 L86.4403353,7.09526087 C86.1493699,6.14195652 85.4028035,5.45134783 84.3962428,5.45134783 C83.6513064,5.45134783 83.0987168,5.79665217 82.7914509,6.19069565 C82.3537803,6.75078261 82.2567919,7.04569565 82.2567919,9.29843478 C82.2567919,11.533 82.3537803,11.8295652 82.7914509,12.388 C83.0987168,12.7828696 83.6513064,13.1446957 84.3962428,13.1446957 C85.2895145,13.1446957 85.952948,12.6506957 86.4558208,11.599087 L88.7101908,11.599087 C88.2415491,13.8179565 86.8788208,14.9860435 85.1273237,15.2322174 Z" id="Shape"></path>
                            <path d="M96.2214971,15.1000435 L95.3298555,12.5854348 L91.2750867,12.5854348 L90.3834451,15.1000435 L88.0483873,15.1000435 L92.410422,3.39686957 L94.1945202,3.39686957 L98.5565549,15.1000435 L96.2214971,15.1000435 Z M94.4047977,2.57573913 C93.5783584,2.57573913 92.7193179,2.08256522 92.0697399,2.08256522 C91.9075491,2.08256522 91.6157688,2.16517391 91.6157688,2.65752174 L90.1723526,2.65752174 C90.3679595,1.425 91.1626127,0.734391304 92.2482312,0.734391304 C93.06,0.734391304 93.7894509,1.24408696 94.4545145,1.24408696 C94.6802775,1.24408696 94.9239711,1.16147826 95.0388902,0.652608696 L96.4488902,0.652608696 C96.2051965,1.75378261 95.6053353,2.57573913 94.4047977,2.57573913 Z M93.1569884,6.14278261 L93.4479538,6.14278261 L91.9246647,10.630087 L94.6802775,10.630087 L93.1569884,6.14278261 Z" id="Shape"></path>
                            <path d="M106.894301,13.0455652 C106.309925,14.0971739 104.996913,15.1983478 103.083225,15.1983478 C101.169538,15.1983478 99.856526,14.0971739 99.2721503,13.0455652 C98.8996821,12.3557826 98.7529769,12.027 98.7529769,9.24804348 C98.7529769,6.4533913 98.8996821,6.12626087 99.2721503,5.43565217 C99.856526,4.39973913 101.169538,3.29773913 103.083225,3.29773913 C104.996913,3.29773913 106.309925,4.39973913 106.894301,5.43565217 C107.266769,6.12626087 107.42896,6.4533913 107.42896,9.24804348 C107.429775,12.027 107.266769,12.3566087 106.894301,13.0455652 Z M104.689647,6.175 C104.380751,5.76443478 103.829792,5.43565217 103.083225,5.43565217 C102.336659,5.43565217 101.785699,5.7636087 101.476803,6.175 C101.039133,6.71691304 100.942145,7.03 100.942145,9.24886957 C100.942145,11.4512174 101.039133,11.7643043 101.476803,12.3227391 C101.785699,12.7184348 102.336659,13.062913 103.083225,13.062913 C103.829792,13.062913 104.380751,12.7176087 104.689647,12.3227391 C105.127318,11.7643043 105.240607,11.4512174 105.240607,9.24886957 C105.240607,7.03 105.127318,6.71691304 104.689647,6.175 Z" id="Shape"></path>
                            <polygon id="Shape" points="108.825104 15.1000435 108.825104 13.423913 110.916468 13.423913 110.916468 15.1000435 108.825104 15.1000435"></polygon>
                            <path d="M116.642861,15.1983478 C114.729173,15.1983478 113.416162,14.0971739 112.831786,13.0455652 C112.459318,12.3557826 112.312613,12.027 112.312613,9.24804348 C112.312613,6.4533913 112.459318,6.12626087 112.831786,5.43565217 C113.416162,4.39973913 114.729173,3.29773913 116.642861,3.29773913 C118.946133,3.29773913 120.534624,4.85986957 120.956809,7.06221739 L118.686954,7.06221739 C118.395988,6.12626087 117.649422,5.43565217 116.642861,5.43565217 C115.897925,5.43565217 115.345335,5.7636087 115.038069,6.175 C114.600399,6.71691304 114.50341,7.03 114.50341,9.24886957 C114.50341,11.4512174 114.600399,11.7643043 115.038069,12.3227391 C115.345335,12.7184348 115.897925,13.062913 116.642861,13.062913 C117.860514,13.062913 118.799428,12.1583478 118.799428,10.877087 L118.799428,10.5152609 L116.448069,10.5152609 L116.448069,8.45995652 L120.98941,8.45995652 L120.98941,10.9753913 C120.990225,13.3256087 119.077353,15.1983478 116.642861,15.1983478 Z" id="Shape"></path>
                            <path d="M130.235913,13.0455652 C129.651538,14.0971739 128.338526,15.1983478 126.423208,15.1983478 C124.50952,15.1983478 123.196509,14.0971739 122.612133,13.0455652 C122.239665,12.3557826 122.09296,12.027 122.09296,9.24804348 C122.09296,6.4533913 122.239665,6.12626087 122.612133,5.43565217 C123.196509,4.39973913 124.50952,3.29773913 126.423208,3.29773913 C128.338526,3.29773913 129.651538,4.39973913 130.235913,5.43565217 C130.608382,6.12626087 130.770572,6.4533913 130.770572,9.24804348 C130.770572,12.027 130.608382,12.3566087 130.235913,13.0455652 Z M128.02963,6.175 C127.720734,5.76443478 127.169775,5.43565217 126.423208,5.43565217 C125.678272,5.43565217 125.125682,5.7636087 124.818416,6.175 C124.380746,6.71691304 124.283757,7.03 124.283757,9.24886957 C124.283757,11.4512174 124.380746,11.7643043 124.818416,12.3227391 C125.125682,12.7184348 125.678272,13.062913 126.423208,13.062913 C127.169775,13.062913 127.720734,12.7176087 128.02963,12.3227391 C128.467301,11.7643043 128.58059,11.4512174 128.58059,9.24886957 C128.58059,7.03 128.467301,6.71691304 128.02963,6.175 Z" id="Shape"></path>
                            <polygon id="Shape" points="136.609439 15.1000435 134.92396 15.1000435 130.966994 3.39686957 133.286566 3.39686957 135.913405 11.9766087 135.620809 11.9766087 138.247647 3.39686957 140.56722 3.39686957"></polygon>
                        </g>
                    </g>
                </g>
            </g>
        </g>
    </g>
</svg>