<?xml version="1.0" encoding="UTF-8"?>
<svg width="24px" height="24px" viewBox="0 0 24 24" version="1.1" xmlns="http://www.w3.org/2000/svg" xmlns:xlink="http://www.w3.org/1999/xlink">
    <!-- Generator: Sketch 52.6 (67491) - http://www.bohemiancoding.com/sketch -->
    <title>Group 2</title>
    <desc>Created with Sketch.</desc>
    <g id="Suporte" stroke="none" stroke-width="1" fill="none" fill-rule="evenodd">
        <g id="Ajuda---01" transform="translate(-961.000000, -287.000000)" fill="#009EFF" fill-rule="nonzero">
            <g id="Group-10" transform="translate(431.000000, 200.000000)">
                <g id="Group-7" transform="translate(0.000000, 71.000000)">
                    <g id="Group-2" transform="translate(530.000000, 16.000000)">
                        <g id="search-(3)" transform="translate(0.000000, 0.000000)">
                            <path d="M23.634,21.3477943 L17.8234286,15.54624 C19.3174286,13.84128 20.136,11.6960914 20.136,9.46285714 C20.136,4.24512 15.714,0 10.2788571,0 C4.84371429,0 0.421714286,4.24512 0.421714286,9.46285714 C0.421714286,14.6805943 4.84371429,18.9257143 10.2788571,18.9257143 C12.3192857,18.9257143 14.2637143,18.3349029 15.9261429,17.2133486 L21.7808571,23.0589257 C22.0255714,23.3029029 22.3547143,23.43744 22.7074286,23.43744 C23.0412857,23.43744 23.358,23.3152457 23.5984286,23.0930743 C24.1092857,22.6211657 24.1255714,21.8386286 23.634,21.3477943 Z M10.2788571,2.46857143 C14.2962857,2.46857143 17.5645714,5.60612571 17.5645714,9.46285714 C17.5645714,13.3195886 14.2962857,16.4571429 10.2788571,16.4571429 C6.26142857,16.4571429 2.99314286,13.3195886 2.99314286,9.46285714 C2.99314286,5.60612571 6.26142857,2.46857143 10.2788571,2.46857143 Z" id="Shape"></path>
                        </g>
                    </g>
                </g>
            </g>
        </g>
    </g>
</svg>