<?xml version="1.0" encoding="UTF-8"?>
<svg width="64px" height="64px" viewBox="0 0 64 64" version="1.1" xmlns="http://www.w3.org/2000/svg" xmlns:xlink="http://www.w3.org/1999/xlink">
    <!-- Generator: Sketch 52.6 (67491) - http://www.bohemiancoding.com/sketch -->
    <title>Group 13</title>
    <desc>Created with Sketch.</desc>
    <g id="Suporte" stroke="none" stroke-width="1" fill="none" fill-rule="evenodd">
        <g id="Ajuda---01" transform="translate(-383.000000, -2140.000000)">
            <g id="Group-13" transform="translate(383.000000, 2140.000000)">
                <circle id="Oval-Copy" fill="#FFFFFF" fill-rule="nonzero" cx="32" cy="32" r="32"></circle>
                <g id="media-play-symbol-copy" transform="translate(24.000000, 18.000000)" fill="#E0119D">
                    <path d="M0.72802974,0.192416357 C0.949516729,0.0642379182 1.19739777,0 1.44565056,0 C1.6932342,0 1.94104089,0.0642379182 2.16349442,0.192416357 L19.2724907,12.6236431 C19.7158364,12.879777 19.9904089,13.3539777 19.9904089,13.8666914 C19.9904089,14.3793309 19.7165799,14.8534572 19.2724907,15.1092937 L2.16349442,27.5410409 C1.71947955,27.7968773 1.17211896,27.7968773 0.728401487,27.5410409 C0.284312268,27.2843123 0.0101858736,26.8099628 0.0101858736,26.2976208 L0.0101858736,1.43531599 C0.0101858736,0.922899628 0.283866171,0.448773234 0.72802974,0.192416357 Z" id="Path"></path>
                </g>
            </g>
        </g>
    </g>
</svg>