<?xml version="1.0" encoding="UTF-8"?>
<svg width="1440px" height="217px" viewBox="0 0 1440 217" version="1.1" xmlns="http://www.w3.org/2000/svg" xmlns:xlink="http://www.w3.org/1999/xlink">
    <!-- Generator: Sketch 52.5 (67469) - http://www.bohemiancoding.com/sketch -->
    <title>ActivoBank</title>
    <desc>Created with Sketch.</desc>
    <g id="Homepage" stroke="none" stroke-width="1" fill="none" fill-rule="evenodd" opacity="0.0540364583">
        <g id="01---Homepage---Não-Cliente-" transform="translate(0.000000, -1436.000000)" fill="#617283">
            <g id="Destaques" transform="translate(-56.000000, 900.000000)">
                <path d="M159.125715,750 L146.165715,716.52 L64.355715,716.52 L51.125715,750 L0.365715,750 L81.635715,560.73 L132.395715,560.73 L211.775715,750 L159.125715,750 Z M79.205715,678.72 L131.585715,678.72 L105.665715,611.22 L79.205715,678.72 Z M313.218572,657.12 C306.738572,647.67 297.018572,642 284.598572,642 C267.318572,642 255.438572,656.31 255.438572,677.37 C255.438572,698.7 267.318572,712.74 284.598572,712.74 C297.288572,712.74 307.278572,707.61 313.218572,696.27 L348.588572,716.52 C336.978572,738.93 313.218572,751.62 282.168572,751.62 C237.078572,751.62 207.108572,722.19 207.108572,677.64 C207.108572,632.28 237.348572,602.31 282.708572,602.31 C312.138572,602.31 335.358572,615 348.048572,636.87 L313.218572,657.12 Z M452.731429,708.42 L461.911429,742.44 C451.381429,748.65 436.801429,752.16 422.491429,752.16 C394.141429,752.43 373.621429,735.69 373.621429,705.45 L373.621429,642.81 L353.371429,642.81 L353.371429,610.95 L373.621429,610.95 L373.621429,570.45 L421.411429,570.45 L421.411429,610.95 L459.211429,610.95 L459.211429,642.81 L421.411429,642.81 L421.411429,697.89 C421.411429,708.69 426.271429,713.55 434.641429,713.28 C439.501429,713.28 445.711429,711.39 452.731429,708.42 Z M505.034286,536.7 C519.884286,536.7 530.414286,547.23 530.414286,562.35 C530.414286,577.47 519.884286,588 505.034286,588 C490.184286,588 479.654286,577.47 479.654286,562.35 C479.654286,547.23 490.184286,536.7 505.034286,536.7 Z M481.004286,603.93 L528.794286,603.93 L528.794286,750 L481.004286,750 L481.004286,603.93 Z M541.947143,603.93 L591.357143,603.93 L621.867143,705.45 L652.647143,603.93 L700.707143,603.93 L645.897143,750 L596.487143,750 L541.947143,603.93 Z M775.96,602.31 C824.02,602.31 855.88,632.01 855.88,676.83 C855.88,721.92 824.02,751.62 775.96,751.62 C727.9,751.62 696.31,721.92 696.31,676.83 C696.31,632.01 727.9,602.31 775.96,602.31 Z M775.96,641.19 C757.33,641.19 744.64,655.77 744.64,677.64 C744.64,699.24 757.33,713.82 775.96,713.82 C794.86,713.82 807.55,699.24 807.55,677.64 C807.55,655.77 794.86,641.19 775.96,641.19 Z M966.502857,560.73 C1009.43286,560.73 1036.70286,579.36 1036.70286,608.52 C1036.70286,628.23 1024.01286,644.16 1004.03286,649.56 C1028.06286,654.42 1042.91286,673.05 1042.91286,697.35 C1042.91286,729.75 1014.56286,750 970.012857,750 L876.592857,750 L876.592857,560.73 L966.502857,560.73 Z M963.802857,636.06 C977.302857,636.06 985.942857,629.04 985.942857,617.16 C985.942857,605.82 977.302857,599.34 963.802857,599.34 L925.732857,599.34 L925.732857,636.06 L963.802857,636.06 Z M963.802857,711.66 C981.082857,711.66 991.882857,704.1 991.882857,691.14 C991.882857,679.26 981.082857,671.7 963.802857,671.7 L925.732857,671.7 L925.732857,711.66 L963.802857,711.66 Z M1131.93571,602.04 C1172.16571,602.04 1195.65571,621.48 1195.92571,654.96 L1195.92571,750 L1148.67571,750 L1148.67571,733.53 C1139.22571,745.68 1124.37571,752.16 1104.66571,752.16 C1073.34571,752.16 1054.71571,733.26 1054.71571,706.53 C1054.71571,678.72 1074.42571,662.79 1110.60571,662.25 L1148.67571,662.25 L1148.67571,660.63 C1148.67571,646.86 1139.22571,638.76 1120.86571,638.76 C1108.71571,638.76 1092.78571,642.81 1077.12571,650.37 L1063.89571,617.97 C1086.84571,607.71 1107.90571,602.04 1131.93571,602.04 Z M1119.51571,719.49 C1133.82571,719.49 1145.70571,711.66 1148.67571,700.59 L1148.67571,687.9 L1120.05571,687.9 C1106.55571,687.9 1099.80571,692.76 1099.80571,703.02 C1099.80571,713.01 1107.09571,719.49 1119.51571,719.49 Z M1320.85857,602.04 C1352.71857,602.04 1373.77857,623.64 1373.77857,657.93 L1373.77857,750 L1325.98857,750 L1325.98857,671.7 C1325.98857,655.23 1316.26857,644.97 1301.14857,644.97 C1284.94857,645.24 1274.41857,656.31 1272.52857,672.78 L1272.52857,750 L1224.46857,750 L1224.46857,603.93 L1272.52857,603.93 L1272.52857,627.69 C1282.78857,610.95 1299.52857,602.04 1320.85857,602.04 Z M1497.63143,750 L1466.85143,694.92 L1452.00143,710.31 L1452.00143,750 L1403.94143,750 L1403.94143,549.66 L1452.00143,549.66 L1452.00143,653.34 L1498.71143,603.93 L1553.25143,603.93 L1499.79143,660.36 L1554.33143,750 L1497.63143,750 Z" id="ActivoBank"></path>
            </g>
        </g>
    </g>
</svg>