<?xml version="1.0" encoding="UTF-8"?>
<svg width="1440px" height="301px" viewBox="0 0 1440 301" version="1.1" xmlns="http://www.w3.org/2000/svg" xmlns:xlink="http://www.w3.org/1999/xlink">
    <!-- Generator: Sketch 52.5 (67469) - http://www.bohemiancoding.com/sketch -->
    <title>Combined Shape</title>
    <desc>Created with Sketch.</desc>
    <g id="Page-1" stroke="none" stroke-width="1" fill="none" fill-rule="evenodd">
        <g id="Desktop-HD" transform="translate(0.000000, -574.000000)" fill="#FFFFFF">
            <path d="M1440,757 L1440,875 L0,875 L0,574.266247 C43.8505542,770.887397 240.576439,820.663033 249.180421,787.08072 C252.687444,773.392415 261.234238,764.724875 272.145185,760.817261 C276.379404,759.07928 281.004629,758.122699 285.84902,758.122699 C288.438303,758.122699 290.964976,758.395976 293.402798,758.915781 C303.560932,760.608721 312.360004,766.630738 319.925242,780.108857 C326.445149,791.724631 329.048733,799.938584 343,801.30937 C430.562038,809.912802 789.216604,712.94827 1025.20238,712.94827 C1278.51517,712.94827 1335.11928,739.349693 1440,757 Z M286,818 C299.807119,818 311,806.807119 311,793 C311,779.192881 299.807119,768 286,768 C272.192881,768 261,779.192881 261,793 C261,806.807119 272.192881,818 286,818 Z M293.98175,797.02325 L286.517,804.48725 C286.196,804.82025 285.6605,804.82025 285.33875,804.48725 L277.87475,797.02325 C277.54175,796.70225 277.54175,796.166 277.87475,795.833 C278.19575,795.51125 278.732,795.51125 279.065,795.833 L285.089,801.86825 L285.089,781.95275 C285.089,781.4885 285.47,781.1195 285.93425,781.1195 C286.3985,781.1195 286.7675,781.4885 286.76825,781.95275 L286.76825,801.86825 L292.8035,795.833 C293.1245,795.51125 293.66,795.51125 293.98175,795.833 C294.31475,796.166 294.31475,796.7015 293.98175,797.02325 Z" id="Combined-Shape"></path>
        </g>
    </g>
</svg>