<?xml version="1.0" encoding="UTF-8"?>
<svg width="767px" height="355px" viewBox="0 0 767 355" version="1.1" xmlns="http://www.w3.org/2000/svg" xmlns:xlink="http://www.w3.org/1999/xlink">
    <!-- Generator: Sketch 52.6 (67491) - http://www.bohemiancoding.com/sketch -->
    <title>BottomCurve Copy</title>
    <desc>Created with Sketch.</desc>
    <g id="BottomCurve-Copy" stroke="none" stroke-width="1" fill="none" fill-rule="evenodd">
        <path d="M767,165.640189 L767,355 L0,355 L0,3 C57.8186063,300.947244 307.992159,339.568035 321.944172,285.105083 C330.332536,252.360344 355.780357,234.922461 385.470405,234.922461 C409.20668,234.922461 434.625683,249.404333 446.272813,285.105083 C469.261923,355.571232 570.358359,233.958491 767,165.640189 Z" id="Combined-Shape" fill="#FFFFFF"></path>
        <g id="Dropdown" transform="translate(341.000000, 257.000000)" fill-rule="nonzero">
            <circle id="Oval-2" fill="#0093D3" cx="42.5" cy="42.5" r="42.5"></circle>
            <g id="right-arrow" transform="translate(41.862500, 41.862500) rotate(-270.000000) translate(-41.862500, -41.862500) translate(21.462500, 26.562500)" fill="#FFFFFF">
                <path d="M27.036375,1.283925 C26.4894,0.717825 25.57905,0.717825 25.01295,1.283925 C24.465975,1.8309 24.465975,2.74125 25.01295,3.28695 L35.272875,13.546875 L1.416525,13.546875 C0.6273,13.54815 0,14.17545 0,14.964675 C0,15.7539 0.6273,16.4016 1.416525,16.4016 L35.272875,16.4016 L25.01295,26.6424 C24.465975,27.2085 24.465975,28.120125 25.01295,28.665825 C25.57905,29.231925 26.490675,29.231925 27.036375,28.665825 L39.725175,15.977025 C40.291275,15.43005 40.291275,14.5197 39.725175,13.974 L27.036375,1.283925 Z" id="Shape"></path>
            </g>
        </g>
    </g>
</svg>