<?xml version="1.0" encoding="UTF-8"?>
<svg width="229px" height="238px" viewBox="0 0 229 238" version="1.1" xmlns="http://www.w3.org/2000/svg" xmlns:xlink="http://www.w3.org/1999/xlink">
    <!-- Generator: Sketch 52.5 (67469) - http://www.bohemiancoding.com/sketch -->
    <title>meditation copy 2</title>
    <desc>Created with Sketch.</desc>
    <g id="Homepage" stroke="none" stroke-width="1" fill="none" fill-rule="evenodd">
        <g id="01---Homepage---Não-Cliente-" transform="translate(-955.000000, -284.000000)" fill-rule="nonzero" stroke="#E0119D" stroke-width="6">
            <g id="Group-52" transform="translate(-86.000000, -64.000000)">
                <g id="Group-44">
                    <g id="meditation-copy-2" transform="translate(1044.000000, 351.000000)">
                        <ellipse id="Oval" cx="112" cy="27.5" rx="28" ry="27.5"></ellipse>
                        <path d="M165.446662,212 L131,224.768589 L148.130019,231.117893 C155.5023,233.82341 163.456741,230.074651 166.137649,223.025533 C167.564641,219.264246 167.142444,215.324982 165.446662,212 Z" id="Shape"></path>
                        <path d="M46.8998042,163.859894 C39.682252,161.242809 31.6107429,164.794781 28.8932897,171.864115 C26.182392,178.934303 29.8495116,186.812049 37.0801747,189.468871 L52.1677651,195 L92,180.394316 L46.8998042,163.859894 Z" id="Shape"></path>
                        <path d="M194.11192,171.947417 C191.410709,164.811003 183.389166,161.226192 176.215905,163.868222 L65.0249332,205.270376 C57.8377732,207.952515 54.1935917,215.903619 56.8878537,223.040033 C59.5517113,230.075527 67.4551114,233.821206 74.7838689,231.119228 L185.974841,189.717074 C193.162435,187.035366 196.806616,179.083831 194.11192,171.947417 Z" id="Shape"></path>
                        <path d="M209.063044,121.307412 L175.86619,121.307412 L151.843039,73.6460166 C149.346426,68.6975444 144.26783,65.8783022 139.033741,66.0040339 L111.5,66.0040339 L83.9649523,66.0040339 C78.7317339,65.8783022 73.6596717,68.6979765 71.1573963,73.6460166 L47.1342453,121.307412 L13.9373911,121.307412 C6.24066189,121.307412 0,127.498079 0,135.133149 C0,142.768218 6.24066189,148.958885 13.9373911,148.958885 L55.75,148.958885 C61.0311296,148.958885 65.856231,146.001813 68.217386,141.316903 L83.6247822,110.748972 L83.6247822,162.63167 L111.499129,173 L139.375218,162.628645 L139.375218,110.748972 L154.782614,141.316903 C157.144205,146.002245 161.969306,148.958885 167.25,148.958885 L209.062609,148.958885 C216.759338,148.958885 223,142.768218 223,135.133149 C223,127.498079 216.759774,121.307412 209.063044,121.307412 Z" id="Shape"></path>
                    </g>
                </g>
            </g>
        </g>
    </g>
</svg>