<?xml version="1.0" encoding="UTF-8"?>
<svg width="263px" height="175px" viewBox="0 0 263 175" version="1.1" xmlns="http://www.w3.org/2000/svg" xmlns:xlink="http://www.w3.org/1999/xlink">
    <!-- Generator: Sketch 52.5 (67469) - http://www.bohemiancoding.com/sketch -->
    <title>boost</title>
    <desc>Created with Sketch.</desc>
    <defs>
        <rect id="path-1" x="0" y="0" width="256.8902" height="153.627869" rx="12"></rect>
    </defs>
    <g id="boost" stroke="none" stroke-width="1" fill="none" fill-rule="evenodd">
        <g id="cartaoBoost" transform="translate(0.000000, 5.000000)">
            <g id="Boost-Card-Copy" transform="translate(131.932827, 150.862695) rotate(-60.000000) translate(-131.932827, -150.862695) translate(2.932827, 73.362695)">
                <g id="Base-Card" transform="translate(0.011545, -0.002538)">
                    <g id="path-2-link" fill="#000000">
                        <rect id="path-2" x="0" y="0" width="256.8902" height="153.627869" rx="12"></rect>
                    </g>
                    <g id="path-2-link" fill="#009EFF">
                        <rect id="path-2" x="0" y="0" width="256.8902" height="153.627869" rx="12"></rect>
                    </g>
                </g>
                <g id="Boost-Clipped" transform="translate(0.011545, -0.002538)">
                    <mask id="mask-2" fill="white">
                        <use xlink:href="#path-1"></use>
                    </mask>
                    <g id="path-2"></g>
                    <g id="Boost" mask="url(#mask-2)">
                        <g transform="translate(-16.907258, -33.915493)" id="Oval-+-Rectangle-Mask">
                            <g transform="translate(0.053071, 0.061102)">
                                <g id="Group" transform="translate(188.971774, 126.000000) scale(-1, 1) translate(-188.971774, -126.000000) translate(0.471774, -0.000000)">
                                    <g id="Mask" transform="translate(102.866935, 15.897887)">
                                        <g id="path-5-link" fill="#000000">
                                            <rect id="path-5" x="0" y="0" width="258.758065" height="171.697183"></rect>
                                        </g>
                                        <g id="path-5-link" fill="#009FFF">
                                            <rect id="path-5" x="0" y="0" width="258.758065" height="171.697183"></rect>
                                        </g>
                                    </g>
                                    <polygon id="Rectangle" fill="#8F23B3" transform="translate(146.840172, 187.493633) rotate(180.000000) translate(-146.840172, -187.493633) " points="0.0672823992 123.257073 293.613062 123.257073 293.613062 251.730193 0.0672823992 182.556552"></polygon>
                                    <polygon id="Rectangle" fill="#D10074" transform="translate(229.314420, 65.018894) scale(-1, 1) translate(-229.314420, -65.018894) " points="82.5415298 0.782333975 376.08731 0.782333975 376.08731 129.255454 82.5415298 60.0818126"></polygon>
                                    <polygon id="Rectangle" fill="#E17900" transform="translate(146.752596, 65.018894) scale(-1, 1) translate(-146.752596, -65.018894) " points="156.986516 0.782333975 210.963663 0.782333975 210.963663 129.255454 82.5415288 98.9929624"></polygon>
                                </g>
                            </g>
                        </g>
                    </g>
                </g>
                <g id="logo" transform="translate(136.012240, 11.968465)" fill="#FFFFFF">
                    <path d="M4.79977539,2.40578405 L4.26693757,2.40578405 L2.62222429,9.21790809 L6.44448868,9.21790809 L4.79977539,2.40578405 Z M8.37756577,16.9589206 L7.4662745,16.9589206 C7.11130595,16.9589206 6.79984222,16.6494287 6.79984222,16.2206792 L6.79984222,11.6236921 L2.26687074,11.6236921 L2.26687074,16.2206792 C2.26687074,16.6494287 1.95540701,16.9589206 1.60005346,16.9589206 L0.688762186,16.9589206 C0.311078729,16.9589206 0,16.6494287 0,16.2206792 L0,10.3374436 L0.0223299087,10.194252 L2.40008019,0.524073027 C2.46668492,0.214581081 2.75543375,0 3.06651247,0 L5.99981549,0 C6.31089422,0 6.60002803,0.214581081 6.66701776,0.524073027 L9.04438306,10.194252 L9.06671297,10.3374436 L9.06671297,16.2206792 C9.06671297,16.6494287 8.75563423,16.9589206 8.37756577,16.9589206 Z" id="Shape" fill-rule="nonzero"></path>
                    <path d="M16.8946046,16.9589206 L16.3495805,16.9589206 C13.9965352,16.9589206 12.0889506,15.1971784 12.0889506,13.0288503 L12.0889506,8.87259452 C12.0889506,6.72657185 13.9965352,4.98791782 16.3495805,4.98791782 L16.8946046,4.98791782 C19.248079,4.98791782 21.1556636,6.72657185 21.1556636,8.87259452 C21.1556636,9.27918051 20.8084789,9.57306508 20.4123708,9.57306508 L19.3965659,9.57306508 C18.975567,9.57306508 18.6537023,9.27918051 18.6537023,8.87259452 C18.6537023,7.99172344 17.8610569,7.26933871 16.8946046,7.26933871 L16.3495805,7.26933871 C15.3835573,7.26933871 14.5909119,7.99172344 14.5909119,8.87259452 L14.5909119,13.0288503 C14.5909119,13.9097214 15.3835573,14.6551942 16.3495805,14.6551942 L16.8946046,14.6551942 C17.8610569,14.6551942 18.6537023,13.9097214 18.6537023,13.0288503 C18.6537023,12.6449611 18.975567,12.3283797 19.3965659,12.3283797 L20.4123708,12.3283797 C20.8084789,12.3283797 21.1556636,12.6449611 21.1556636,13.0288503 C21.1556636,15.1971784 19.248079,16.9589206 16.8946046,16.9589206 Z" id="Shape"></path>
                    <path d="M28.1655504,16.9589206 C25.9060593,16.9589206 24.0934914,15.1294119 24.0934914,12.8776775 L24.0934914,7.62322419 L22.8693455,7.62322419 C22.4929676,7.62322419 22.1630762,7.29487166 22.1630762,6.8966223 L22.1630762,5.95829804 C22.1630762,5.55923593 22.4929676,5.23047702 22.8693455,5.23047702 L24.0934914,5.23047702 L24.0934914,0.680274924 C24.0934914,0.305189049 24.399324,0 24.7997608,0 L25.7645607,0 C26.1409387,0 26.4940734,0.305189049 26.4940734,0.680274924 L26.4940734,5.23047702 L30.5428891,5.23047702 C30.9425104,5.23047702 31.271994,5.55923593 31.271994,5.95829804 L31.271994,6.8966223 C31.271994,7.29487166 30.9425104,7.62322419 30.5428891,7.62322419 L26.4940734,7.62322419 L26.4940734,12.8776775 C26.4940734,13.7924319 27.2239939,14.5665798 28.1655504,14.5665798 C29.0834559,14.5665798 29.8362119,13.7924319 29.8362119,12.8776775 L29.8362119,12.4083122 C29.8362119,12.0096564 30.1656955,11.6813039 30.5428891,11.6813039 L31.507689,11.6813039 C31.907718,11.6813039 32.2372017,12.0096564 32.2372017,12.4083122 L32.2372017,12.8776775 C32.2372017,15.1294119 30.4013905,16.9589206 28.1655504,16.9589206 Z" id="Shape"></path>
                    <path d="M49.7798912,16.5278873 C49.7121341,16.743404 49.4183893,16.9589206 49.1469691,16.9589206 L47.5646638,16.9589206 C47.2936352,16.9589206 46.9991071,16.743404 46.93135,16.5278873 L43.3598049,6.86923161 C43.2015744,6.39487092 43.5176438,5.98550139 44.0154433,5.98550139 L45.235855,5.98550139 C45.484559,5.98550139 45.80102,6.1793543 45.8914935,6.41616113 L48.3558164,14.0918398 L51.0688434,6.41616113 C51.1589251,6.1793543 51.4526699,5.98550139 51.7240902,5.98550139 L52.6965812,5.98550139 C53.1935975,5.98550139 53.5100585,6.39487092 53.3518279,6.86923161 L49.7798912,16.5278873 Z" id="Shape"></path>
                    <path d="M61.9723236,8.87259452 C61.9723236,7.99172344 61.1796406,7.26933871 60.2135718,7.26933871 L59.6685218,7.26933871 C58.7024529,7.26933871 57.9097701,7.99172344 57.9097701,8.87259452 L57.9097701,13.0288503 C57.9097701,13.9097214 58.7024529,14.6551942 59.6685218,14.6551942 L60.2135718,14.6551942 C61.1796406,14.6551942 61.9723236,13.9097214 61.9723236,13.0288503 L61.9723236,8.87259452 Z M60.2135718,16.9589206 L59.6685218,16.9589206 C57.314936,16.9589206 55.4076903,15.1971784 55.4076903,13.0288503 L55.4076903,8.87259452 C55.4076903,6.72657185 57.314936,4.98791782 59.6685218,4.98791782 L60.2135718,4.98791782 C62.5667284,4.98791782 64.4744033,6.72657185 64.4744033,8.87259452 L64.4744033,13.0288503 C64.4744033,15.1971784 62.5667284,16.9589206 60.2135718,16.9589206 Z" id="Shape" fill-rule="nonzero"></path>
                    <path d="M83.4742417,11.0409227 C82.4495473,11.5606014 81.6699303,11.5832982 80.8231583,11.9671874 C80.1550806,12.2379838 79.8208489,12.779968 79.8208489,13.2546445 L79.8208489,13.6158369 C79.8208489,14.045511 80.1550806,14.6551942 80.9570826,14.6551942 L81.4028537,14.6551942 C82.5163164,14.6551942 83.4742417,13.999726 83.4742417,13.0288503 L83.4742417,11.0409227 Z M85.9694018,16.7104296 L85.5012457,16.7104296 C84.9223223,16.7104296 84.4101679,16.4619387 84.0311661,16.0776582 C83.2511632,16.6200337 82.315623,16.9589206 81.4028537,16.9589206 L80.9570826,16.9589206 C79.0632311,16.9589206 77.5707665,15.5810677 77.5707665,13.7289295 L77.5707665,13.2546445 C77.5707665,10.9963116 79.3530788,10.2954498 80.8455433,9.84386152 C81.2241593,9.73116012 83.4742417,9.39188191 83.4742417,8.55601313 C83.4742417,7.76592929 82.8949324,7.26933871 81.8926229,7.26933871 L81.6475453,7.26933871 C80.7787742,7.26933871 80.0659265,7.99172344 80.0659265,8.87259452 C80.0659265,9.27918051 79.7536938,9.57306508 79.3754638,9.57306508 L78.4843076,9.57306508 C78.1056917,9.57306508 77.793459,9.27918051 77.793459,8.87259452 C77.793459,6.72657185 79.5086161,4.98791782 81.6475453,4.98791782 L81.8926229,4.98791782 C83.8752427,4.98791782 85.7243242,6.36577081 85.7243242,8.66949719 L85.7243242,14.1809091 C85.7243242,14.2936105 85.8358635,14.4063119 85.9694018,14.4063119 C86.3256327,14.4063119 86.6374794,14.722502 86.6374794,15.1067825 L86.6374794,16.0103505 C86.6374794,16.4169364 86.3256327,16.7104296 85.9694018,16.7104296 Z" id="Shape" fill-rule="nonzero"></path>
                    <path d="M97.9611332,16.9589206 L96.9724108,16.9589206 C96.5773499,16.9589206 96.207114,16.659206 96.207114,16.2440013 L96.207114,8.95494094 C96.207114,8.05539738 95.4409611,7.31769971 94.4526667,7.31769971 L93.9587335,7.31769971 C92.9952642,7.31769971 92.1798892,8.05539738 92.1798892,8.95494094 L92.1798892,16.2440013 C92.1798892,16.659206 91.8584474,16.9589206 91.4385614,16.9589206 L90.4258699,16.9589206 C90.030381,16.9589206 89.6597171,16.659206 89.6597171,16.2440013 L89.6597171,5.91023971 C89.6597171,5.54139088 90.030381,5.2184983 90.4258699,5.2184983 L91.4385614,5.2184983 C91.6363059,5.2184983 91.8584474,5.28763248 91.9821447,5.42590084 C92.5749501,5.12618618 93.2422308,4.98791782 93.9587335,4.98791782 L94.4526667,4.98791782 C96.7999193,4.98791782 98.7264301,6.76342741 98.7264301,8.95494094 L98.7264301,16.2440013 C98.7264301,16.659206 98.4054163,16.9589206 97.9611332,16.9589206 Z" id="Shape"></path>
                    <path d="M110.101931,16.9589206 L108.905088,16.9589206 C108.747074,16.9589206 108.4991,16.8161417 108.386065,16.6733627 L104.638302,11.7429497 L104.028928,12.3619336 L104.028928,16.2206792 C104.028928,16.6494287 103.735193,16.9589206 103.351499,16.9589206 L102.425706,16.9589206 C102.064697,16.9589206 101.748668,16.6494287 101.748668,16.2206792 L101.748668,0.690786021 C101.748668,0.309904601 102.064697,0 102.425706,0 L103.351499,0 C103.735193,0 104.028928,0.309904601 104.028928,0.690786021 L104.028928,8.93235018 L107.731321,5.04967057 C107.821671,4.93082567 108.069644,4.83550215 108.228049,4.83550215 L109.514461,4.83550215 C110.192281,4.83550215 110.485626,5.5737436 109.988896,6.07346993 L106.263818,10.0040176 L110.64364,15.7679956 C111.027333,16.2916559 110.73399,16.9589206 110.101931,16.9589206 Z" id="Shape"></path>
                    <path d="M39.4887719,3.38212797 L37.5857961,3.38212797 C37.1864765,3.38212797 36.8575772,3.04870199 36.8575772,2.64388652 L36.8575772,0.690786021 C36.8575772,0.309904601 37.1864765,0 37.5857961,0 L39.4887719,0 C39.8884986,0 40.1937888,0.309904601 40.1937888,0.690786021 L40.1937888,2.64388652 C40.1937888,3.04870199 39.8884986,3.38212797 39.4887719,3.38212797 Z M42.6137228,16.9589206 L34.9802458,16.9589206 C34.580519,16.9589206 34.2520267,16.6494287 34.2520267,16.2206792 L34.2520267,15.2678566 C34.2520267,14.8626285 34.580519,14.5292025 34.9802458,14.5292025 L37.5857961,14.5292025 L37.5857961,7.26480759 L35.9437417,7.26480759 C35.5444221,7.26480759 35.2155227,6.9313816 35.2155227,6.52615348 L35.2155227,5.54980955 C35.2155227,5.16851548 35.5444221,4.83550215 35.9437417,4.83550215 L39.253902,4.83550215 C39.6304266,4.83550215 39.982121,5.16851548 39.982121,5.54980955 L39.982121,14.5292025 L42.6137228,14.5292025 C42.9898403,14.5292025 43.3187398,14.8626285 43.3187398,15.2678566 L43.3187398,16.2206792 C43.3187398,16.6494287 42.9898403,16.9589206 42.6137228,16.9589206 Z" id="Shape" fill-rule="nonzero"></path>
                    <path d="M73.1026641,11.3852895 C73.1026641,10.4323557 72.3333597,9.69393518 71.3953664,9.69393518 L68.9420891,9.69393518 L68.9420891,14.5295583 L71.3953664,14.5295583 C72.3333597,14.5295583 73.1026641,13.7911378 73.1026641,12.8382041 L73.1026641,11.3852895 Z M72.8381766,4.09720262 C72.8381766,3.16778281 72.0930302,2.40584834 71.1308789,2.40584834 L68.9420891,2.40584834 L68.9420891,7.2645729 L71.1308789,7.2645729 C72.0930302,7.2645729 72.8381766,6.47871195 72.8381766,5.5501172 L72.8381766,4.09720262 Z M71.3953664,16.9589206 L67.2106335,16.9589206 C66.8261895,16.9589206 66.4892284,16.649114 66.4892284,16.2209126 L66.4892284,0.690980102 C66.4892284,0.309394076 66.8261895,0 67.2106335,0 L71.1308789,0 C73.4392087,0 75.2910374,1.81016161 75.2910374,4.09720262 L75.2910374,5.5501172 C75.2910374,6.64537223 74.8824355,7.59789346 74.2085132,8.33672651 C75.0269665,9.09866098 75.5559413,10.1943285 75.5559413,11.3852895 L75.5559413,12.8382041 C75.5559413,15.1013186 73.6799548,16.9589206 71.3953664,16.9589206 Z" id="Shape" fill-rule="nonzero"></path>
                </g>
                <path d="M210.646224,134.480173 C209.62778,133.900418 208.455237,133.436429 207.135572,133.12017 L207.176337,132.878727 L212.323873,132.878727 L212.323873,132.878714 C213.017056,132.904531 213.577576,133.12362 213.770776,133.857961 L214.850862,139.000567 C214.872399,139.064197 214.892647,139.127697 214.911573,139.191023 L215.239313,140.852435 L218.314763,132.676076 L218.314778,132.676081 L221.642307,132.676076 L216.696712,144.642977 L213.373,144.647078 L210.646224,134.480173 Z M221.642307,144.647078 L223.580084,132.676076 L226.679369,132.676076 L224.740331,144.647078 L221.642307,144.647078 Z M236.753473,133.163116 L236.753495,133.163115 L236.29842,135.676412 L235.997445,135.542845 C235.377834,135.307886 234.582728,135.082124 233.484702,135.09856 C232.170376,135.09856 231.56214,135.613941 231.562073,136.096135 C231.554448,136.639351 232.273244,136.997045 233.446714,137.533835 C235.383589,138.361564 236.278089,139.365374 236.265382,140.684871 C236.239337,143.092121 233.948324,144.64689 230.419155,144.647078 C228.913607,144.632471 227.463643,144.35192 226.679369,144.028044 L227.150565,141.43181 L227.583166,141.616451 C228.685738,142.04946 229.399654,142.225032 230.743406,142.225157 C231.708399,142.225157 232.743754,141.869666 232.751982,141.092693 C232.758204,140.584993 232.318911,140.222137 231.012078,139.654111 C229.738551,139.099375 228.05162,138.169687 228.070281,136.503327 C228.090062,134.24898 230.42704,132.675761 233.744323,132.676076 C235.046009,132.676076 236.08832,132.92772 236.753473,133.163116 Z M244.329898,132.676089 L244.329902,132.676076 L246.827621,144.646819 L243.963928,144.647078 C243.963928,144.647078 243.680885,143.271449 243.588423,142.852254 C243.138405,142.852254 239.990562,142.847116 239.636328,142.847116 C239.51645,143.171084 238.98651,144.646818 238.98651,144.646818 L235.746082,144.646818 L240.329111,133.669927 C240.653592,132.889882 241.206462,132.676089 241.945116,132.676089 L244.329898,132.676089 Z M240.447063,140.363562 L243.096986,140.363751 C242.969226,139.783194 242.358207,137.014533 242.358207,137.014533 L242.142177,136.014945 C241.980901,136.450348 241.700194,137.15251 241.718891,137.121841 C241.718891,137.121841 240.711106,139.695277 240.447062,140.36356 L240.447063,140.363562 Z" id="VISA" fill="#FFFFFF" fill-rule="nonzero"></path>
                <path d="M236.048472,43.7095536 L233.276895,44.9597215 C233.099405,45.0409005 232.935558,45.1518252 232.796278,45.2897882 L228.279215,49.7668228 L212.727882,47.9236438 C212.446669,47.891262 212.162694,47.9859905 211.963331,48.1861715 L211.097607,49.0437063 C210.638799,49.4981727 210.780579,50.2662034 211.372988,50.5283848 L222.51682,55.4747046 L219.316097,58.6451488 L213.727167,58.6465747 C213.48144,58.6466374 213.246609,58.7440579 213.071826,58.9144565 L212.604826,59.3797428 C212.140557,59.8396196 212.293256,60.6157608 212.893858,60.8698538 L217.60858,62.8699519 L219.627811,67.5400129 C219.884309,68.1349289 220.670596,68.2862051 221.132163,67.826329 L221.601866,67.361042 C221.77665,67.1879119 221.872269,66.955304 221.872331,66.7119025 L221.873744,61.1758714 L225.074468,58.0054271 L230.068104,69.0464925 C230.332793,69.6332659 231.108163,69.7737 231.566943,69.3192606 L232.432667,68.4617258 C232.634762,68.2615442 232.730393,67.9829603 232.697701,67.7044092 L230.834104,52.3002776 L235.353897,47.8232423 C235.493206,47.6852792 235.605161,47.5256875 235.687116,47.3471722 L236.949216,44.6018229 C237.214254,44.036496 236.624632,43.4497785 236.048472,43.7095536 Z" id="Shape" fill="#FFFFFF" transform="translate(223.920133, 56.617374) rotate(30.000000) translate(-223.920133, -56.617374) "></path>
                <path d="M209.553356,61.8476427 C179.330979,69.8283111 155.824686,83.4619532 139.034478,102.748569" id="Path-2-small" stroke="#FFFFFF" stroke-width="2" stroke-dasharray="3,4"></path>
            </g>
        </g>
    </g>
</svg>