<?xml version="1.0" encoding="UTF-8"?>
<svg width="339px" height="240px" viewBox="0 0 339 240" version="1.1" xmlns="http://www.w3.org/2000/svg" xmlns:xlink="http://www.w3.org/1999/xlink">
    <!-- Generator: Sketch 52.6 (67491) - http://www.bohemiancoding.com/sketch -->
    <title>Group 19</title>
    <desc>Created with Sketch.</desc>
    <g id="Cartoes" stroke="none" stroke-width="1" fill="none" fill-rule="evenodd">
        <g id="04---Cartão-Crédito---01" transform="translate(-908.000000, -877.000000)">
            <g id="Group-19" transform="translate(908.000000, 877.293706)">
                <g id="diamond-(2)" transform="translate(42.797203, 36.853147)" fill="#FFFFFF">
                    <path d="M3.85374034,72.927615 L102.636654,195.558814 C102.809883,195.773864 103.124645,195.807767 103.339695,195.634538 C103.506431,195.500227 103.569148,195.274662 103.49567,195.073561 L58.1567671,70.9866032 C57.8685277,70.1977277 57.1181193,69.6729816 56.2782345,69.6729816 L5.41126882,69.6729816 C4.30669932,69.6729816 3.41126882,70.5684121 3.41126882,71.6729816 C3.41126882,72.1294312 3.56740189,72.5721484 3.85374034,72.927615 Z" id="Path"></path>
                    <path d="M67.866207,72.3593493 L114.945829,201.212703 C115.324899,202.25019 116.473246,202.783943 117.510733,202.404872 C118.060237,202.204098 118.494281,201.772789 118.698525,201.224565 L166.703596,72.3712108 C167.089217,71.3361408 166.562735,70.1844429 165.527665,69.7988215 C165.304281,69.7155986 165.067818,69.6729816 164.829435,69.6729816 L69.7447435,69.6729816 C68.640174,69.6729816 67.7447435,70.5684121 67.7447435,71.6729816 C67.7447435,71.9071168 67.7858555,72.1394335 67.866207,72.3593493 Z" id="Path"></path>
                    <path d="M129.863434,198.823183 L231.271635,72.9275829 C231.964532,72.0673694 231.828895,70.8083244 230.968682,70.1154272 C230.61322,69.829105 230.170516,69.6729816 229.71408,69.6729816 L178.323243,69.6729816 C177.487957,69.6729816 176.740639,70.1920802 176.449057,70.9748197 L129.005499,198.334992 C128.909103,198.593763 129.040734,198.881683 129.299505,198.978079 C129.501226,199.053223 129.7284,198.990824 129.863434,198.823183 Z" id="Path"></path>
                    <path d="M190.594421,0.505785124 L130.851385,0.505785124 C129.746816,0.505785124 128.851385,1.40121562 128.851385,2.50578512 C128.851385,2.9651247 129.009498,3.41046518 129.299153,3.76696589 L170.262825,54.1840901 C170.959356,55.041364 172.218964,55.1716719 173.076238,54.475141 C173.353094,54.2501963 173.564749,53.9552977 173.689264,53.6210136 L192.468628,3.20388938 C192.85418,2.16879364 192.327621,1.01713084 191.292525,0.631578504 C191.069178,0.548386159 190.832759,0.505785124 190.594421,0.505785124 Z" id="Path"></path>
                    <path d="M162.028455,57.7658314 L119.114865,4.95364907 C118.418296,4.09640654 117.158682,3.96615529 116.30144,4.66272476 C116.194699,4.74945952 116.097189,4.84697359 116.010459,4.95371877 L73.1008068,57.7659011 C72.4042758,58.6231749 72.5345836,59.8827826 73.3918575,60.5793135 C73.7483582,60.8689687 74.1936987,61.027082 74.6530383,61.027082 L160.47628,61.027082 C161.580849,61.027082 162.47628,60.1316515 162.47628,59.027082 C162.47628,58.5677115 162.318145,58.1223431 162.028455,57.7658314 Z" id="Path"></path>
                    <path d="M104.2783,0.505785124 L44.4685681,0.505785124 C43.3639986,0.505785124 42.4685681,1.40121562 42.4685681,2.50578512 C42.4685681,2.73994509 42.5096889,2.97228593 42.5900569,3.19222199 L61.1450317,53.9699848 C61.5241403,55.0074579 62.6725067,55.5411678 63.7099798,55.1620592 C64.0490104,55.0381722 64.3481941,54.8248426 64.5758035,54.5446932 L105.830561,3.76693033 C106.527072,2.9096405 106.396735,1.65003585 105.539446,0.953524586 C105.18295,0.663887551 104.737624,0.505785124 104.2783,0.505785124 Z" id="Path"></path>
                    <path d="M32.2365725,9.45018621 L1.91257372,57.9670602 C1.32713983,58.903725 1.61186874,60.1376298 2.54853354,60.7230637 C2.86640207,60.9217377 3.23370633,61.027082 3.60855536,61.027082 L51.6567961,61.027082 C52.7613656,61.027082 53.6567961,60.1316515 53.6567961,59.027082 C53.6567961,58.7929779 53.6156949,58.5606915 53.5353644,58.3408012 L35.8111224,9.82392725 C35.4320999,8.78642265 34.2837779,8.25261737 33.2462733,8.63163978 C32.8279577,8.78445933 32.4726159,9.07252863 32.2365725,9.45018621 Z" id="Path"></path>
                    <path d="M233.217025,57.9670722 L202.840805,9.36588178 C202.255377,8.42921285 201.021475,8.14447522 200.084806,8.72990249 C199.710883,8.96360787 199.424676,9.31433529 199.270705,9.72752929 L181.160118,58.3287197 C180.774423,59.3637623 181.300823,60.5154976 182.335866,60.9011925 C182.559288,60.9844479 182.795798,61.027082 183.034228,61.027082 L231.521036,61.027082 C232.625606,61.027082 233.521036,60.1316515 233.521036,59.027082 C233.521036,58.6522378 233.415694,58.284938 233.217025,57.9670722 Z" id="Path"></path>
                </g>
                <path d="M17.8329349,86.7211051 C14.5500531,75.4736197 11.9756471,72.9794095 0.56797149,70.0040895 C11.8934308,66.7453637 14.4083098,64.1872402 17.4066112,52.862473 C20.6889461,64.1102115 23.2632061,66.6048199 34.6724856,69.5807194 C23.3411208,72.8382129 20.8284295,75.3953236 17.8329349,86.7211051 Z" id="Path" fill="#009EFF"></path>
                <path d="M287.531881,138.626711 C290.730734,149.895811 293.289756,152.40943 304.672471,155.468837 C293.321209,158.643615 290.788824,161.184103 287.709674,172.486632 C284.511872,161.21595 281.953589,158.701907 270.566498,155.645988 C281.920346,152.469728 284.451196,149.929141 287.531881,138.626711 Z" id="Path" fill="#009EFF"></path>
                <path d="M321.903894,0.374237972 C325.102747,11.6433383 327.661769,14.1569574 339.044484,17.2163642 C327.693222,20.3911421 325.160837,22.9316302 322.081687,34.2341588 C318.883885,22.9634775 316.325602,20.4494347 304.938511,17.3935154 C316.292359,14.2172548 318.823209,11.6766683 321.903894,0.374237972 Z" id="Path-Copy-3" fill="#009EFF"></path>
            </g>
        </g>
    </g>
</svg>