<?xml version="1.0" encoding="UTF-8"?>
<svg width="180px" height="126px" viewBox="0 0 180 126" version="1.1" xmlns="http://www.w3.org/2000/svg" xmlns:xlink="http://www.w3.org/1999/xlink">
    <!-- Generator: Sketch 52.6 (67491) - http://www.bohemiancoding.com/sketch -->
    <title>Group 19 Copy</title>
    <desc>Created with Sketch.</desc>
    <g id="Homepage" stroke="none" stroke-width="1" fill="none" fill-rule="evenodd" opacity="0.145438058">
        <g id="Cartão-Crédito-Full" transform="translate(-134.000000, -645.000000)" fill="#FFFFFF">
            <g id="Group-19-Copy" transform="translate(134.000000, 645.625000)">
                <g id="diamond-(2)" transform="translate(22.657343, 19.564024)">
                    <path d="M3.26510716,40.2394548 L53.445005,102.704771 C53.6179457,102.920053 53.932662,102.954377 54.1479435,102.781436 C54.3149248,102.647296 54.3779202,102.421698 54.3045909,102.220454 L31.0140362,38.3021863 C30.7262716,37.5124492 29.9754301,36.9869069 29.1348987,36.9869069 L4.82431327,36.9869069 C3.71974377,36.9869069 2.82431327,37.8823374 2.82431327,38.9869069 C2.82431327,39.4424382 2.97981975,39.8843212 3.26510716,40.2394548 Z" id="Path"></path>
                    <path d="M36.3877741,39.6716169 L59.9776522,104.41248 C60.3558071,105.450302 61.5036824,105.985067 62.5415035,105.606912 C63.0923521,105.406197 63.5273923,104.973892 63.7315781,104.424321 L87.7851645,39.6834576 C88.1698588,38.6480426 87.6423455,37.4968166 86.6069306,37.1121223 C86.3840365,37.0293091 86.1481609,36.9869069 85.9103799,36.9869069 L38.2669154,36.9869069 C37.1623459,36.9869069 36.2669154,37.8823374 36.2669154,38.9869069 C36.2669154,39.2204494 36.3078196,39.4521872 36.3877741,39.6716169 Z" id="Path"></path>
                    <path d="M69.6610216,104.415572 L121.213096,40.2394227 C121.904842,39.3782827 121.76752,38.1194203 120.90638,37.427675 C120.551252,37.1424037 120.109382,36.9869069 119.653864,36.9869069 L95.0615062,36.9869069 C94.2255655,36.9869069 93.477806,37.5068087 93.1866966,38.2904235 L68.8025112,103.928322 C68.706347,104.187179 68.8382356,104.474981 69.0970928,104.571145 C69.2989576,104.646137 69.5261606,104.583458 69.6610216,104.415572 Z" id="Path"></path>
                    <path d="M99.5507622,0.268503326 L71.244391,0.268503326 C70.1398215,0.268503326 69.244391,1.16393383 69.244391,2.26850333 C69.244391,2.72692265 69.4018724,3.17142819 69.6904699,3.52760192 L89.0991404,27.4808828 C89.7945213,28.3390897 91.0539532,28.4710862 91.9121601,27.7757053 C92.190497,27.5501767 92.4031492,27.2540281 92.5278924,26.9182101 L101.425593,2.9649292 C101.810219,1.92948867 101.282629,0.778297785 100.247188,0.393672398 C100.02433,0.310889572 99.7884984,0.268503326 99.5507622,0.268503326 Z" id="Path"></path>
                    <path d="M84.5416528,29.137938 L63.7929695,3.53322893 C63.0975499,2.67505328 61.8381122,2.54311338 60.9799365,3.23853291 C60.8716865,3.32625296 60.7728992,3.42504467 60.685184,3.53329867 L39.9384043,29.1380077 C39.2430233,29.9962146 39.3750198,31.2556464 40.2332266,31.9510274 C40.5894004,32.239625 41.033906,32.3971064 41.4923253,32.3971064 L82.9877884,32.3971064 C84.0923579,32.3971064 84.9877884,31.5016759 84.9877884,30.3971064 C84.9877884,29.9386562 84.8302858,29.4941227 84.5416528,29.137938 Z" id="Path"></path>
                    <path d="M53.2360886,0.268503326 L24.8854632,0.268503326 C23.7808937,0.268503326 22.8854632,1.16393383 22.8854632,2.26850333 C22.8854632,2.50207049 22.926376,2.73383238 23.006347,2.9532823 L31.801657,27.0886755 C32.17985,28.1264828 33.327745,28.6612058 34.3655522,28.2830128 C34.7061101,28.1589082 35.0065394,27.9445866 35.2347232,27.6629596 L54.7900385,3.52756633 C55.4853998,2.66934349 55.3533745,1.4099147 54.4951516,0.714553408 C54.1389835,0.425973895 53.6944922,0.268503326 53.2360886,0.268503326 Z" id="Path"></path>
                    <path d="M16.0438064,6.65738842 L1.90603855,29.3391728 C1.32175796,30.2765575 1.60800534,31.5101109 2.54538999,32.0943915 C2.86279274,32.2922316 3.22931127,32.3971064 3.60332359,32.3971064 L26.0045538,32.3971064 C27.1091233,32.3971064 28.0045538,31.5016759 28.0045538,30.3971064 C28.0045538,30.163595 27.9636604,29.9318875 27.8837267,29.7124833 L19.6202645,7.03069886 C19.2421575,5.99286028 18.0943069,5.4580421 17.0564683,5.83614904 C16.6366574,5.98909518 16.2801509,6.27821167 16.0438064,6.65738842 Z" id="Path"></path>
                    <path d="M122.574355,29.3391848 L108.400635,6.59936388 C107.816361,5.66197511 106.58281,5.37571902 105.645421,5.959993 C105.269975,6.19400842 104.982716,6.54590497 104.828607,6.96060199 L96.378103,29.7004229 C95.9933353,30.7358106 96.520767,31.887074 97.5561547,32.2718416 C97.7790875,32.3546873 98.0150096,32.3971064 98.2528382,32.3971064 L120.877062,32.3971064 C121.981632,32.3971064 122.877062,31.5016759 122.877062,30.3971064 C122.877062,30.0230989 122.77219,29.6565849 122.574355,29.3391848 Z" id="Path"></path>
                </g>
                <path d="M9.44096553,46.0371491 C7.70296927,40.0662593 6.34004847,38.7421718 0.300690789,37.1626803 C6.2965222,35.4327387 7.6279287,34.074722 9.21526475,28.062806 C10.9529715,34.0338302 12.315815,35.358129 18.3560218,36.9379282 C12.3570639,38.6672156 11.0268156,40.0246946 9.44096553,46.0371491 Z" id="Path"></path>
                <path d="M152.222761,73.5919882 C153.916271,79.5743526 155.271048,80.9087436 161.29719,82.5328738 C155.287699,84.2182504 153.947024,85.5669052 152.316886,91.5670155 C150.623932,85.5838117 149.269547,84.2491959 143.241087,82.6269171 C149.251948,80.9407533 150.59181,79.5920463 152.222761,73.5919882 Z" id="Path"></path>
                <path d="M170.419709,0.198669624 C172.113219,6.18103401 173.467996,7.51542497 179.494138,9.13955516 C173.484647,10.8249318 172.143972,12.1735866 170.513834,18.1736968 C168.82088,12.1904931 167.466495,10.8558773 161.438035,9.23359844 C167.448896,7.54743468 168.788758,6.19872772 170.419709,0.198669624 Z" id="Path-Copy-3"></path>
            </g>
        </g>
    </g>
</svg>