<?xml version="1.0" encoding="UTF-8"?>
<svg width="100px" height="102px" viewBox="0 0 100 102" version="1.1" xmlns="http://www.w3.org/2000/svg" xmlns:xlink="http://www.w3.org/1999/xlink">
    <!-- Generator: Sketch 52.6 (67491) - http://www.bohemiancoding.com/sketch -->
    <title>percentage (1) copy 2</title>
    <desc>Created with Sketch.</desc>
    <g id="Homepage" stroke="none" stroke-width="1" fill="none" fill-rule="evenodd" opacity="0.153869048">
        <g id="Cartão-Boost" transform="translate(-197.000000, -645.000000)" fill="#FFFFFF">
            <g id="percentage-(1)-copy-2" transform="translate(197.000000, 645.000000)">
                <ellipse id="Oval" cx="36.4922917" cy="42.2524049" rx="4.25" ry="4.25521472"></ellipse>
                <ellipse id="Oval" cx="63.4922917" cy="59.5235706" rx="4.25" ry="4.25521472"></ellipse>
                <path d="M98.5339583,56.5198896 L96.9922917,54.4131411 C95.325625,52.1186626 95.2839583,49.0106871 96.9297917,46.6744908 L98.4297917,44.5468834 C100.721458,41.2928957 99.6589583,36.7665153 96.138125,34.8683558 L93.8464583,33.637681 C91.3464583,32.3027117 89.9714583,29.5076196 90.450625,26.6916687 L90.888125,24.1260245 C91.5547917,20.2045521 88.6172917,16.5751043 84.638125,16.4082331 L82.0339583,16.3039387 C79.200625,16.1787853 76.7422917,14.2597669 75.950625,11.5272515 L75.2214583,9.02418405 C74.1172917,5.18614724 69.9089583,3.20455215 66.2422917,4.78982822 L63.8464583,5.81191411 C61.2422917,6.93829448 58.200625,6.27080982 56.3047917,4.14320245 L54.575625,2.20332515 C51.9297917,-0.758638037 47.2839583,-0.737779141 44.6589583,2.28676074 L42.950625,4.24749693 C41.075625,6.39596319 38.0547917,7.10516564 35.4297917,6.02050307 L33.013125,5.01927607 C29.325625,3.49657669 25.1589583,5.56160736 24.0964583,9.39964417 L23.4089583,11.9235706 C22.6589583,14.6769448 20.2422917,16.637681 17.4089583,16.7836933 L14.8047917,16.9297055 C10.825625,17.1591534 7.950625,20.830319 8.67979167,24.7517914 L9.15895833,27.3174356 C9.67979167,30.1125276 8.34645833,32.9284785 5.86729167,34.3051656 L3.59645833,35.5775583 C0.117291667,37.5174356 -0.882708333,42.0646748 1.47145833,45.2769448 L3.013125,47.3836933 C4.67979167,49.6781718 4.72145833,52.7861472 3.075625,55.1223436 L1.575625,57.2499509 C-0.716041667,60.5039387 0.346458333,65.030319 3.86729167,66.9284785 L6.15895833,68.1591534 C8.65895833,69.4941227 10.0339583,72.2892147 9.55479167,75.1051656 L9.11729167,77.6708098 C8.450625,81.5922822 11.388125,85.2217301 15.3672917,85.3886012 L17.9714583,85.4928957 C20.8047917,85.6180491 23.263125,87.5370675 24.0547917,90.2695828 L24.7839583,92.7726503 C25.888125,96.6106871 30.0964583,98.5922822 33.763125,97.0070061 L36.1589583,95.9849202 C38.763125,94.8585399 41.8047917,95.5260245 43.700625,97.6536319 L45.4297917,99.5935092 C48.0964583,102.555472 52.7422917,102.534613 55.3464583,99.5100736 L57.0547917,97.5493374 C58.9297917,95.4008712 61.950625,94.6916687 64.575625,95.7763313 L66.9922917,96.7775583 C70.6797917,98.3002577 74.8464583,96.235227 75.9089583,92.3971902 L76.5964583,89.8732638 C77.3464583,87.1198896 79.763125,85.1591534 82.5964583,85.0131411 L85.200625,84.8671288 C89.1797917,84.637681 92.0547917,80.9665153 91.325625,77.0450429 L90.8464583,74.4793988 C90.325625,71.6843067 91.6589583,68.8683558 94.138125,67.4916687 L96.4089583,66.2192761 C99.888125,64.3002577 100.888125,59.7530184 98.5339583,56.5198896 Z M26.2214583,42.2524049 C26.2214583,36.5787853 30.8047917,31.9898282 36.4714583,31.9898282 C42.138125,31.9898282 46.7214583,36.5787853 46.7214583,42.2524049 C46.7214583,47.9260245 42.138125,52.5149816 36.4714583,52.5149816 C30.8047917,52.5149816 26.2214583,47.9051656 26.2214583,42.2524049 Z M38.450625,68.7223436 C37.575625,69.7861472 35.9922917,69.9321595 34.9297917,69.0560859 C33.8672917,68.1800123 33.7214583,66.5947362 34.5964583,65.5309325 L61.4922917,33.0953497 C62.3672917,32.031546 63.950625,31.8855337 65.013125,32.7616074 C66.075625,33.637681 66.2214583,35.2229571 65.3464583,36.2867607 L38.450625,68.7223436 Z M63.4922917,69.7861472 C57.825625,69.7861472 53.2422917,65.1971902 53.2422917,59.5235706 C53.2422917,53.8499509 57.825625,49.2609939 63.4922917,49.2609939 C69.1589583,49.2609939 73.7422917,53.8499509 73.7422917,59.5235706 C73.7422917,65.1971902 69.1589583,69.7861472 63.4922917,69.7861472 Z" id="Shape" fill-rule="nonzero"></path>
            </g>
        </g>
    </g>
</svg>