<?xml version="1.0" encoding="UTF-8"?>
<svg width="220px" height="224px" viewBox="0 0 220 224" version="1.1" xmlns="http://www.w3.org/2000/svg" xmlns:xlink="http://www.w3.org/1999/xlink">
    <!-- Generator: Sketch 52.6 (67491) - http://www.bohemiancoding.com/sketch -->
    <title>Group 9</title>
    <desc>Created with Sketch.</desc>
    <g id="Cartoes" stroke="none" stroke-width="1" fill="none" fill-rule="evenodd">
        <g id="04---Cartão-Boost---02" transform="translate(-910.000000, -904.000000)">
            <g id="Group-9" transform="translate(910.000000, 904.000000)">
                <rect id="Rectangle" fill="#009EFF" fill-rule="nonzero" x="47.52" y="49.28" width="126.72" height="120.56"></rect>
                <g id="percentage-(1)-copy-3" fill="#FFFFFF">
                    <ellipse id="Oval" cx="80.2830417" cy="92.9552908" rx="9.35" ry="9.36147239"></ellipse>
                    <ellipse id="Oval" cx="139.683042" cy="130.951855" rx="9.35" ry="9.36147239"></ellipse>
                    <path d="M216.774708,124.343757 L213.383042,119.70891 C209.716375,114.661058 209.624708,107.823512 213.245542,102.68388 L216.545542,98.0031436 C221.587208,90.8443706 219.249708,80.8863337 211.503875,76.7103828 L206.462208,74.0028982 C200.962208,71.0659656 197.937208,64.9167632 198.991375,58.7216712 L199.953875,53.077254 C201.420542,44.4500147 194.958042,36.4652294 186.203875,36.0981129 L180.474708,35.868665 C174.241375,35.5933276 168.833042,31.3714871 167.091375,25.3599534 L165.487208,19.8532049 C163.058042,11.4095239 153.799708,7.05001472 145.733042,10.5376221 L140.462208,12.786211 C134.733042,15.2642479 128.041375,13.7957816 123.870542,9.1150454 L120.066375,4.84731534 C114.245542,-1.66900368 104.024708,-1.62311411 98.2497083,5.03087362 L94.491375,9.34449325 C90.366375,14.071119 83.7205417,15.6313644 77.9455417,13.2451067 L72.628875,11.0424074 C64.516375,7.69246871 55.3497083,12.2355362 53.0122083,20.6792172 L51.4997083,26.2318552 C49.8497083,32.2892785 44.5330417,36.6028982 38.2997083,36.9241252 L32.5705417,37.2453521 C23.816375,37.7501374 17.491375,45.8267018 19.0955417,54.4539411 L20.1497083,60.0983583 C21.2955417,66.2475607 18.3622083,72.4426528 12.9080417,75.4713644 L7.91220833,78.2706282 C0.258041667,82.5383583 -1.94195833,92.5422847 3.23720833,99.6092785 L6.628875,104.244125 C10.2955417,109.291978 10.3872083,116.129524 6.766375,121.269156 L3.466375,125.949892 C-1.57529167,133.108665 0.762208333,143.066702 8.50804167,147.242653 L13.5497083,149.950137 C19.0497083,152.88707 22.0747083,159.036272 21.0205417,165.231364 L20.0580417,170.875782 C18.591375,179.503021 25.053875,187.487806 33.8080417,187.854923 L39.5372083,188.084371 C45.7705417,188.359708 51.178875,192.581548 52.9205417,198.593082 L54.5247083,204.099831 C56.953875,212.543512 66.2122083,216.903021 74.278875,213.415413 L79.5497083,211.166825 C85.278875,208.688788 91.9705417,210.157254 96.141375,214.83799 L99.9455417,219.10572 C105.812208,225.622039 116.033042,225.57615 121.762208,218.922162 L125.520542,214.608542 C129.645542,209.881917 136.291375,208.321671 142.066375,210.707929 L147.383042,212.910628 C155.495542,216.260567 164.662208,211.717499 166.999708,203.273818 L168.512208,197.72118 C170.162208,191.663757 175.478875,187.350137 181.712208,187.02891 L187.441375,186.707683 C196.195542,186.202898 202.520542,178.126334 200.916375,169.499094 L199.862208,163.854677 C198.716375,157.705475 201.649708,151.510383 207.103875,148.481671 L212.099708,145.682407 C219.753875,141.460567 221.953875,131.45664 216.774708,124.343757 Z M57.6872083,92.9552908 C57.6872083,80.4733276 67.7705417,70.3776221 80.2372083,70.3776221 C92.703875,70.3776221 102.787208,80.4733276 102.787208,92.9552908 C102.787208,105.437254 92.703875,115.53296 80.2372083,115.53296 C67.7705417,115.53296 57.6872083,105.391364 57.6872083,92.9552908 Z M84.591375,151.189156 C82.666375,153.529524 79.1830417,153.850751 76.8455417,151.923389 C74.5080417,149.996027 74.1872083,146.50842 76.1122083,144.168052 L135.283042,72.8097693 C137.208042,70.4694012 140.691375,70.1481742 143.028875,72.0755362 C145.366375,74.0028982 145.687208,77.4905055 143.762208,79.8308736 L84.591375,151.189156 Z M139.683042,153.529524 C127.216375,153.529524 117.133042,143.433818 117.133042,130.951855 C117.133042,118.469892 127.216375,108.374187 139.683042,108.374187 C152.149708,108.374187 162.233042,118.469892 162.233042,130.951855 C162.233042,143.433818 152.149708,153.529524 139.683042,153.529524 Z" id="Shape" fill-rule="nonzero"></path>
                </g>
            </g>
        </g>
    </g>
</svg>