<?xml version="1.0" encoding="UTF-8"?>
<svg width="182px" height="99px" viewBox="0 0 182 99" version="1.1" xmlns="http://www.w3.org/2000/svg" xmlns:xlink="http://www.w3.org/1999/xlink">
    <!-- Generator: Sketch 52.6 (67491) - http://www.bohemiancoding.com/sketch -->
    <title>air-transport (2)</title>
    <desc>Created with Sketch.</desc>
    <g id="Cartoes" stroke="none" stroke-width="1" fill="none" fill-rule="evenodd" opacity="0.201613653">
        <g id="04---Cartão-Boost---02" transform="translate(-767.000000, -3226.000000)" fill="#FFFFFF" fill-rule="nonzero">
            <g id="Group-6-Copy-2" transform="translate(731.000000, 3180.000000)">
                <g id="air-transport-(2)">
                    <g transform="translate(36.000000, 46.000000)" id="Shape">
                        <path d="M182,16.9770588 C182,48.1152941 30.2221111,82.485 18.7293464,82.485 C12.2858922,82.485 4.97526144,81.0161765 4.97526144,75.1411765 C4.97526144,73.1782353 7.26602288,70.3411765 11.2857843,66.9208824 L11.2813235,66.9232353 L0.627186275,48.2008824 C-0.815431373,45.6661765 0.328313725,42.455 3.05831373,41.3738235 L4.88931699,40.6488235 C8.20784314,39.3347059 11.9427092,39.5305882 15.1018366,41.1844118 L34.4435,51.3114706 C41.9741961,46.8938235 50.5168954,42.2685294 59.5208399,37.7147059 L21.8286993,13.5297059 C18.8468137,11.6161765 18.878634,7.28852941 21.8884739,5.41852941 L24.971768,3.50264706 C30.1034542,0.314117647 36.3420098,-0.627647059 42.2016961,0.900882353 L104.905454,17.2585294 C124.45618,9.58382353 142.132484,4.34558824 152.595105,4.34558824 C155.38934,4.34558824 158.187739,4.41882353 160.888297,4.60970588 L141.952268,13.0641176 L141.499052,19.3635294 L170.729085,6.07441176 C177.735788,7.72705882 182,10.8114706 182,16.9770588 Z M105.718209,70.7282353 L129.106993,97.0058824 C130.532363,98.6073529 132.853755,99.0894118 134.80966,98.1902941 L137.942023,96.7502941 C143.654206,94.1244118 147.018529,88.1702941 146.286961,81.9829412 L143.358902,57.2223529 C143.177497,55.6902941 141.605516,54.7205882 140.13435,55.2329412 L106.735565,66.8688235 C105.110056,67.4355882 104.578925,69.4485294 105.718209,70.7282353 Z"></path>
                    </g>
                </g>
            </g>
        </g>
    </g>
</svg>