<?xml version="1.0" encoding="UTF-8"?>
<svg width="137px" height="120px" viewBox="0 0 137 120" version="1.1" xmlns="http://www.w3.org/2000/svg" xmlns:xlink="http://www.w3.org/1999/xlink">
    <!-- Generator: Sketch 52.6 (67491) - http://www.bohemiancoding.com/sketch -->
    <title>coin-stack (1)</title>
    <desc>Created with Sketch.</desc>
    <g id="Cartoes" stroke="none" stroke-width="1" fill="none" fill-rule="evenodd" opacity="0.198497954">
        <g id="04---Cartão-Boost---02" transform="translate(-552.000000, -3006.000000)" fill="#FFFFFF">
            <g id="Group-3-Copy-2" transform="translate(331.000000, 2976.000000)">
                <g id="coin-stack-(1)">
                    <g transform="translate(221.000000, 30.000000)" id="Path">
                        <path d="M39.7647612,69.5384873 C43.6109851,69.5384873 47.3287289,69.2939795 50.8467662,68.8388395 L50.8467662,30.888479 C47.3290697,30.4336743 43.6109851,30.1891665 39.7647612,30.1891665 C17.8035249,30.1891665 0.00034079602,38.1358377 0.00034079602,47.9389569 L0.00034079602,51.7883616 C0.00034079602,61.5911454 17.8035249,69.5384873 39.7647612,69.5384873 Z"></path>
                        <path d="M39.7647612,89.3546872 C43.6109851,89.3546872 47.3287289,89.1101794 50.8467662,88.6557102 L50.8467662,77.5317793 C47.3280473,77.9865839 43.6120075,78.2344457 39.7647612,78.2344457 C20.5949851,78.2344457 4.59495274,72.1791045 0.836654229,64.1200738 C0.289335821,65.2939795 0.00034079602,66.5094751 0.00034079602,67.7554922 L0.00034079602,71.6048969 C0.00034079602,81.4080161 17.8035249,89.3546872 39.7647612,89.3546872 Z"></path>
                        <path d="M50.8464254,98.2133154 L50.8464254,97.34865 C47.3277065,97.8034546 43.6116667,98.0513165 39.7644204,98.0513165 C20.5946443,98.0513165 4.59461194,91.9959752 0.836313433,83.9369445 C0.288995025,85.1105148 0,86.3260104 0,87.5720275 L0,91.4214322 C0,101.224887 17.8031841,109.171558 39.7644204,109.171558 C44.1562587,109.171558 48.3804254,108.852926 52.330592,108.265974 C51.3514851,106.294818 50.8464254,104.215999 50.8464254,102.062385 L50.8464254,98.2133154 Z"></path>
                        <path d="M97.099602,0.127117223 C75.1383657,0.127117223 57.3351816,8.07378836 57.3351816,17.8769076 L57.3351816,21.7263123 C57.3351816,31.5294315 75.1383657,39.4761026 97.099602,39.4761026 C119.060498,39.4761026 136.864022,31.5294315 136.864022,21.7263123 L136.864022,17.8769076 C136.864022,8.07378836 119.060498,0.127117223 97.099602,0.127117223 Z"></path>
                        <path d="M97.099602,48.1723964 C77.9298259,48.1723964 61.9297935,42.1173906 58.171495,34.0580245 C57.6241766,35.2315948 57.3351816,36.4470904 57.3351816,37.6934429 L57.3351816,41.5428476 C57.3351816,51.3459668 75.1383657,59.2926379 97.099602,59.2926379 C119.060498,59.2926379 136.864022,51.3459668 136.864022,41.5428476 L136.864022,37.6934429 C136.864022,36.4470904 136.575027,35.2315948 136.027709,34.0580245 C132.26941,42.1173906 116.269378,48.1723964 97.099602,48.1723964 Z"></path>
                        <path d="M97.099602,67.9892671 C77.9298259,67.9892671 61.9297935,61.9339259 58.171495,53.8748952 C57.6241766,55.0484655 57.3351816,56.2639611 57.3351816,57.5103136 L57.3351816,61.3597183 C57.3351816,71.1631729 75.1383657,79.109844 97.099602,79.109844 C119.060498,79.109844 136.864022,71.1631729 136.864022,61.3597183 L136.864022,57.5103136 C136.864022,56.2639611 136.575027,55.0484655 136.027709,53.8748952 C132.26941,61.9342613 116.269378,67.9892671 97.099602,67.9892671 Z"></path>
                        <path d="M97.099602,88.8757337 C77.9298259,88.8757337 61.9297935,82.8203924 58.171495,74.7613617 C57.6241766,75.9352675 57.3351816,77.1504276 57.3351816,78.3964447 L57.3351816,82.2461848 C57.3351816,92.049304 75.1383657,99.9959752 97.099602,99.9959752 C119.060498,99.9959752 136.864022,92.049304 136.864022,82.2461848 L136.864022,78.3964447 C136.864022,77.1504276 136.575027,75.9345967 136.027709,74.7613617 C132.26941,82.820057 116.269378,88.8757337 97.099602,88.8757337 Z"></path>
                        <path d="M97.099602,108.692269 C77.9298259,108.692269 61.9297935,102.637263 58.171495,94.5782324 C57.6241766,95.7521382 57.3351816,96.9679691 57.3351816,98.2133154 L57.3351816,102.06272 C57.3351816,111.865839 75.1383657,119.81251 97.099602,119.81251 C119.060498,119.81251 136.864022,111.865839 136.864022,102.06272 L136.864022,98.21298 C136.864022,96.9669629 136.575027,95.751132 136.027709,94.577897 C132.26941,102.636928 116.269378,108.692269 97.099602,108.692269 Z"></path>
                    </g>
                </g>
            </g>
        </g>
    </g>
</svg>