<?xml version="1.0" encoding="UTF-8"?>
<svg width="120px" height="113px" viewBox="0 0 120 113" version="1.1" xmlns="http://www.w3.org/2000/svg" xmlns:xlink="http://www.w3.org/1999/xlink">
    <!-- Generator: Sketch 52.6 (67491) - http://www.bohemiancoding.com/sketch -->
    <title>shopping-cart</title>
    <desc>Created with Sketch.</desc>
    <g id="Cartoes" stroke="none" stroke-width="1" fill="none" fill-rule="evenodd" opacity="0.254464286">
        <g id="04---Cartão-Boost---02" transform="translate(-363.000000, -3223.000000)" fill="#FFFFFF" fill-rule="nonzero">
            <g id="Group-5-Copy" transform="translate(331.000000, 3180.000000)">
                <g id="shopping-cart">
                    <g transform="translate(32.000000, 43.000000)" id="Shape">
                        <path d="M117.421488,19.4454545 C115.264463,16.8173554 111.991736,15.3545455 108.595041,15.3545455 L34.8842975,15.3545455 C32.7768595,15.3545455 30.768595,15.9495868 29.0330579,17.0157025 L25.2644628,3.85041322 C24.6446281,1.69338843 22.6859504,0.205785124 20.4545455,0.205785124 L14.7272727,0.205785124 L3.79338843,0.205785124 C1.7107438,0.205785124 0,1.89173554 0,3.99917355 L0,4.39586777 C0,6.4785124 1.68595041,8.1892562 3.79338843,8.1892562 L18.1239669,8.1892562 L25.4380165,34.0487603 L35.5041322,69.7264463 C29.7768595,71.1644628 25.5371901,76.346281 25.5371901,82.4950413 C25.5371901,89.4619835 30.9669421,95.1892562 37.8347107,95.6355372 C37.2644628,97.2719008 36.9917355,99.0818182 37.1404959,100.941322 C37.6363636,107.238843 42.768595,112.321488 49.0661157,112.742975 C56.5785124,113.263636 62.8512397,107.28843 62.8512397,99.9 C62.8512397,98.4123967 62.6033058,96.9991736 62.1322314,95.6603306 L77.2066116,95.6603306 C76.5867769,97.4206612 76.338843,99.3793388 76.5619835,101.387603 C77.2561983,107.486777 82.2892562,112.296694 88.4380165,112.742975 C95.9504132,113.263636 102.247934,107.313223 102.247934,99.9 C102.247934,92.7347107 96.2975207,87.007438 89.1570248,87.007438 L38.8016529,87.007438 C36.3471074,87.007438 34.2644628,85.0983471 34.1652893,82.668595 C34.0661157,80.0900826 36.1239669,77.9826446 38.677686,77.9826446 L46.2396694,77.9826446 L87.2231405,77.9826446 L98.7520661,77.9826446 C103.859504,77.9826446 108.322314,74.4867769 109.561983,69.5280992 L119.578512,29.2140496 C120.446281,25.7429752 119.652893,22.1975207 117.421488,19.4454545 Z M89.3801653,95.6355372 C91.7107438,95.6355372 93.6198347,97.5446281 93.6198347,99.8752066 C93.6198347,102.205785 91.7107438,104.114876 89.3801653,104.114876 C87.0495868,104.114876 85.1404959,102.205785 85.1404959,99.8752066 C85.1404959,97.5446281 87.0247934,95.6355372 89.3801653,95.6355372 Z M49.9834711,95.6355372 C52.3140496,95.6355372 54.2231405,97.5446281 54.2231405,99.8752066 C54.2231405,102.205785 52.3140496,104.114876 49.9834711,104.114876 C47.6528926,104.114876 45.7438017,102.205785 45.7438017,99.8752066 C45.7438017,97.5446281 47.6280992,95.6355372 49.9834711,95.6355372 Z M34.4132231,33.9991736 L32.4793388,27.1809917 C32.1818182,26.1396694 32.6033058,25.3710744 32.9008264,24.9991736 C33.1735537,24.6272727 33.8181818,24.007438 34.8842975,24.007438 L42.9669421,24.007438 L45.1735537,34.0239669 L34.4132231,34.0239669 L34.4132231,33.9991736 Z M36.8429752,42.6272727 L47.0578512,42.6272727 L49.0909091,51.9 L39.446281,51.9 L36.8429752,42.6272727 Z M46.2396694,69.3049587 C45.1239669,69.3049587 44.1322314,68.561157 43.8347107,67.4702479 L41.8760331,60.5280992 L50.9752066,60.5280992 L52.9090909,69.2801653 L46.2396694,69.2801653 L46.2396694,69.3049587 Z M67.8347107,69.3049587 L61.7355372,69.3049587 L59.8016529,60.5528926 L67.8099174,60.5528926 L67.8099174,69.3049587 L67.8347107,69.3049587 Z M67.8347107,51.9 L57.9173554,51.9 L55.8842975,42.6272727 L67.8347107,42.6272727 L67.8347107,51.9 Z M67.8347107,33.9991736 L54,33.9991736 L51.7933884,23.9826446 L67.8347107,23.9826446 L67.8347107,33.9991736 Z M83.3057851,69.3049587 L76.4876033,69.3049587 L76.4876033,60.5528926 L85.1404959,60.5528926 L83.3057851,69.3049587 Z M86.9752066,51.9 L76.4876033,51.9 L76.4876033,42.6272727 L88.9338843,42.6272727 L86.9752066,51.9 Z M76.4876033,33.9991736 L76.4876033,23.9826446 L92.8512397,23.9826446 L90.7438017,33.9991736 L76.4876033,33.9991736 Z M101.206612,67.4206612 C100.933884,68.5363636 99.9421488,69.3297521 98.7768595,69.3297521 L92.1322314,69.3297521 L93.9917355,60.577686 L102.917355,60.577686 L101.206612,67.4206612 Z M105.049587,51.9 L95.8016529,51.9 L97.7603306,42.6272727 L107.355372,42.6272727 L105.049587,51.9 Z M111.198347,27.0818182 L109.487603,33.9743802 L99.5702479,33.9743802 L101.677686,23.9578512 L108.768595,23.9578512 C109.834711,23.9578512 110.454545,24.5528926 110.727273,24.9247934 C111.024793,25.2966942 111.471074,26.0652893 111.198347,27.0818182 Z"></path>
                    </g>
                </g>
            </g>
        </g>
    </g>
</svg>