<?xml version="1.0" encoding="UTF-8"?>
<svg width="220px" height="235px" viewBox="0 0 220 235" version="1.1" xmlns="http://www.w3.org/2000/svg" xmlns:xlink="http://www.w3.org/1999/xlink">
    <!-- Generator: Sketch 52.6 (67491) - http://www.bohemiancoding.com/sketch -->
    <title>Group 21</title>
    <desc>Created with Sketch.</desc>
    <g id="Cartoes" stroke="none" stroke-width="1" fill="none" fill-rule="evenodd">
        <g id="04---Cartão-Crédito---01" transform="translate(-375.000000, -1322.000000)">
            <g id="Group-21" transform="translate(341.000000, 1282.000000)">
                <g id="Group-20" transform="translate(170.000000, 176.644951) rotate(-9.000000) translate(-170.000000, -176.644951) translate(23.257329, 22.149837)">
                    <g id="pizza" transform="translate(146.678754, 154.380787) rotate(-30.000000) translate(-146.678754, -154.380787) translate(47.004487, 33.664174)">
                        <path d="M83.5675581,79.1561194 C83.5675581,75.3268734 80.4527373,72.2120525 76.6234908,72.2120525 C72.7942447,72.2120525 69.6794239,75.3268734 69.6794239,79.1561194 C69.6794239,82.9853654 72.7942447,86.1001863 76.6234908,86.1001863 C80.4527373,86.1001863 83.5675581,82.9853654 83.5675581,79.1561194 Z" id="Path" fill="#FFFFFF"></path>
                        <path d="M106.715672,123.136435 C102.886426,123.136435 99.7716051,126.253092 99.7716051,130.082338 C99.7716051,133.911584 102.886426,137.026405 106.715672,137.026405 C110.544919,137.026405 113.661576,133.911584 113.661576,130.082338 C113.661576,126.253092 110.544919,123.136435 106.715672,123.136435 Z" id="Path" fill="#FFFFFF"></path>
                        <path d="M125.685592,58.8859086 C117.255741,56.9905695 108.535712,56.0282074 99.7716051,56.0282074 C91.9294562,56.0282074 84.1258751,56.8032393 76.5316626,58.3239183 C76.5628841,58.3239183 76.5922692,58.3220818 76.6234908,58.3220818 C88.1112293,58.3220818 97.4556919,67.6683808 97.4556919,79.1542829 C97.4556919,90.642021 88.1112293,99.9883205 76.6234908,99.9883205 C65.1357522,99.9883205 55.7894532,90.642021 55.7894532,79.1542829 C55.7894532,70.7538166 60.7922669,63.5030426 67.9714146,60.2100747 L28.2794881,69.1413093 C25.910314,69.6739141 23.4897164,69.954909 21.0727913,69.9806212 L79.2240723,226.893395 C82.392154,235.446296 90.6512042,241.19292 99.7716051,241.19292 C108.892007,241.19292 117.14922,235.446296 120.319138,226.893395 L178.470419,69.9806212 C176.053494,69.954909 173.632897,69.6739141 171.265559,69.1413093 L125.685592,58.8859086 Z M109.310744,176.659562 L100.052601,185.917706 C96.7779981,188.630318 93.5052321,188.630318 90.2306296,185.917706 C87.5198544,183.20693 87.5198544,178.810184 90.2306296,176.097572 L99.4906102,166.837591 C102.203222,164.126816 106.599969,164.126816 109.310744,166.837591 C112.023356,169.550204 112.023356,173.94695 109.310744,176.659562 Z M106.715672,150.914539 C95.2279339,150.914539 85.8834714,141.56824 85.8834714,130.082338 C85.8834714,118.5946 95.2279339,109.248301 106.715672,109.248301 C118.203411,109.248301 127.54971,118.5946 127.54971,130.082338 C127.54971,141.56824 118.203411,150.914539 106.715672,150.914539 Z M137.088849,88.6952585 C133.816083,91.4078706 130.541481,91.4078706 127.268715,88.6952585 L118.008735,79.4371143 C115.297959,76.7245022 115.297959,72.3277565 118.008735,69.6151439 C120.721347,66.9043682 125.118093,66.9043682 127.830705,69.6151439 L137.088849,78.8751245 C139.801461,81.5859002 139.801461,85.9844823 137.088849,88.6952585 Z" id="Shape" fill="#E0119D" fill-rule="nonzero"></path>
                        <path d="M183.313451,15.6034893 L131.783001,4.00923002 C122.251208,1.86411755 112.471479,0.699732632 102.667875,0.506893015 C100.739477,0.457305631 98.8055701,0.457305631 96.8753361,0.506893015 C87.0717311,0.699732632 77.2920019,1.86411755 67.7602095,4.00923002 L16.2297592,15.6034893 C6.81183392,17.7228896 0.235080819,25.9452089 0.235080819,35.598215 C0.235080819,40.4779785 1.99635051,45.2640772 5.18463411,48.9610903 C10.885344,54.9519778 17.5667814,57.1613703 25.2271103,55.5911038 L70.8089139,45.3357031 C80.281936,43.2052832 90.0267708,42.1382367 99.7716051,42.1382367 C109.51644,42.1382367 119.261274,43.2052832 128.734297,45.3357031 L174.314263,55.5911038 C181.976429,57.1613703 188.657867,54.9519778 194.358577,48.9610903 C197.54686,45.2640772 199.308129,40.4779785 199.308129,35.598215 C199.308129,25.9452089 192.731376,17.7228896 183.313451,15.6034893 Z" id="Path" fill="#FFFFFF"></path>
                    </g>
                </g>
                <path d="M120.065008,201.641162 L126.272193,202.703212 C126.502252,202.7438 126.730298,202.79507 126.955593,202.856853 C136.483121,204.877425 140.275226,211.530618 138.331908,222.816432 C136.796495,231.733338 136.47421,241.159776 137.365052,251.095745 L137.365041,251.095746 C137.728462,255.149141 134.737146,258.729679 130.683751,259.093099 C130.464955,259.112716 130.245392,259.122539 130.025719,259.122539 L129.145407,259.12254 C125.063307,259.12254 121.730833,255.857825 121.646989,251.776585 C121.306984,235.226354 119.771767,223.359665 117.041339,216.176518 C115.853818,213.052415 114.931586,210.356654 114.274642,208.089236 L114.274644,208.089235 C113.490031,205.381168 115.049298,202.549791 117.757365,201.765178 C118.506987,201.547988 119.296426,201.505563 120.065008,201.641162 Z" id="Rectangle" fill="#E0119D" fill-rule="nonzero"></path>
                <path d="M158.985735,212.334935 L176.198051,213.548787 C179.779008,213.801325 182.477226,216.908987 182.224688,220.489945 C182.150006,221.548936 181.817075,222.573516 181.254996,223.474131 C176.532036,231.041696 173.636751,236.386309 172.569141,239.50797 C171.509674,242.605821 171.220893,246.523897 171.702798,251.262197 L171.702798,251.262197 C171.990629,254.092276 169.92973,256.61984 167.099651,256.907671 C166.926488,256.925282 166.752544,256.934105 166.578487,256.934105 L166.578487,256.934105 C163.842303,256.934105 161.624187,254.715989 161.624187,251.979805 C161.624187,251.848455 161.629411,251.717157 161.639846,251.586222 C162.052191,246.412215 160.982544,240.381172 158.43091,233.493092 C156.898793,229.357174 155.089949,225.607601 153.004379,222.244374 L153.004382,222.244372 C151.112507,219.1935 152.052059,215.186611 155.102932,213.294735 C156.26415,212.574652 157.622758,212.238815 158.985735,212.334935 Z" id="Rectangle-Copy" fill="#E0119D" fill-rule="nonzero" transform="translate(167.134326, 234.626466) rotate(3.000000) translate(-167.134326, -234.626466) "></path>
            </g>
        </g>
    </g>
</svg>