<?xml version="1.0" encoding="UTF-8"?>
<svg width="122px" height="132px" viewBox="0 0 122 132" version="1.1" xmlns="http://www.w3.org/2000/svg" xmlns:xlink="http://www.w3.org/1999/xlink">
    <!-- Generator: Sketch 52.6 (67491) - http://www.bohemiancoding.com/sketch -->
    <title>Group 22 Copy</title>
    <desc>Created with Sketch.</desc>
    <g id="Homepage" stroke="none" stroke-width="1" fill="none" fill-rule="evenodd" opacity="0.15">
        <g id="Cartão-Crédito-Full" transform="translate(-59.000000, -873.000000)" fill="#FFFFFF">
            <g id="Group-22-Copy" transform="translate(135.711380, 949.531806) rotate(1.000000) translate(-135.711380, -949.531806) translate(40.711380, 850.642917)">
                <g id="Group-20" transform="translate(94.680676, 98.889251) rotate(-9.000000) translate(-94.680676, -98.889251) translate(12.458454, 12.778140)">
                    <g id="pizza" transform="translate(81.723634, 85.993930) rotate(-30.000000) translate(-81.723634, -85.993930) translate(26.168078, 18.771708)">
                        <path d="M46.5781415,44.1193331 C46.5781415,41.985022 44.8420304,40.2489109 42.7077191,40.2489109 C40.573408,40.2489109 38.8372969,41.985022 38.8372969,44.1193331 C38.8372969,46.2536441 40.573408,47.9897552 42.7077191,47.9897552 C44.8420304,47.9897552 46.5781415,46.2536441 46.5781415,44.1193331 Z" id="Path"></path>
                        <path d="M59.4802311,68.6326897 C57.3459201,68.6326897 55.609809,70.3698244 55.609809,72.5041355 C55.609809,74.6384465 57.3459201,76.3745577 59.4802311,76.3745577 C61.6145425,76.3745577 63.3516771,74.6384465 63.3516771,72.5041355 C63.3516771,70.3698244 61.6145425,68.6326897 59.4802311,68.6326897 Z" id="Path"></path>
                        <path d="M70.0535165,32.8213035 C65.354961,31.7648962 60.4946688,31.2285034 55.609809,31.2285034 C51.2388218,31.2285034 46.8893312,31.6604838 42.6565367,32.5080663 C42.6739387,32.5080663 42.6903171,32.5070427 42.7077191,32.5070427 C49.1106525,32.5070427 54.3189858,37.7163996 54.3189858,44.1183095 C54.3189858,50.5212427 49.1106525,55.7305998 42.7077191,55.7305998 C36.3047856,55.7305998 31.0954287,50.5212427 31.0954287,44.1183095 C31.0954287,39.4361323 33.8838525,35.3947605 37.8853019,33.5593553 L15.7621693,38.5373674 C14.4416601,38.8342259 13.092489,38.9908443 11.7453648,39.0051756 L44.1572081,126.46382 C45.9230052,131.23096 50.5263611,134.433962 55.609809,134.433962 C60.6932571,134.433962 65.2955894,131.23096 67.0624099,126.46382 L99.4742531,39.0051756 C98.1271292,38.9908443 96.7779581,38.8342259 95.4584725,38.5373674 L70.0535165,32.8213035 Z M60.9266494,98.464934 L55.7664277,103.625156 C53.9412589,105.137087 52.1171137,105.137087 50.291945,103.625156 C48.7810372,102.114248 48.7810372,99.6636284 50.291945,98.1516968 L55.4531905,92.9904513 C56.9651221,91.4795435 59.4157414,91.4795435 60.9266494,92.9904513 C62.438581,94.5023831 62.438581,96.9530021 60.9266494,98.464934 Z M59.4802311,84.1154023 C53.077298,84.1154023 47.8689646,78.9060453 47.8689646,72.5041355 C47.8689646,66.1012023 53.077298,60.8918451 59.4802311,60.8918451 C65.8831646,60.8918451 71.0925215,66.1012023 71.0925215,72.5041355 C71.0925215,78.9060453 65.8831646,84.1154023 59.4802311,84.1154023 Z M76.4093619,49.4361735 C74.585217,50.9481051 72.7600482,50.9481051 70.935903,49.4361735 L65.7746578,44.2759515 C64.2637497,42.7640199 64.2637497,40.3134009 65.7746578,38.8014691 C67.2865894,37.2905611 69.7372086,37.2905611 71.2491402,38.8014691 L76.4093619,43.9627146 C77.9212935,45.4736226 77.9212935,47.9252652 76.4093619,49.4361735 Z" id="Shape" fill-rule="nonzero"></path>
                        <path d="M102.173619,8.69693396 L73.4520359,2.23462893 C68.1392901,1.03900524 62.6883517,0.390010744 57.2241059,0.282527516 C56.1492728,0.254888941 55.071369,0.254888941 53.9955123,0.282527516 C48.5312662,0.390010744 43.0803278,1.03900524 37.7675823,2.23462893 L9.04599869,8.69693396 C3.79671934,9.87822642 0.131027254,14.4611095 0.131027254,19.8414161 C0.131027254,22.5612552 1.11270807,25.2288884 2.8897652,27.2894966 C6.0671761,30.6286441 9.79121619,31.8600956 14.0608622,30.9848745 L39.466842,25.2688105 C44.7468307,24.081376 50.17832,23.4866352 55.609809,23.4866352 C61.0412982,23.4866352 66.4727872,24.081376 71.7527762,25.2688105 L97.1577322,30.9848745 C101.428402,31.8600956 105.152442,30.6286441 108.329853,27.2894966 C110.10691,25.2288884 111.088591,22.5612552 111.088591,19.8414161 C111.088591,14.4611095 107.422899,9.87822642 102.173619,8.69693396 Z" id="Path"></path>
                    </g>
                </g>
                <g id="Group-21" transform="translate(62.962963, 112.839506)" fill-rule="nonzero">
                    <g id="Group-17">
                        <path d="M3.3405181,0.0432766371 L7.02941864,0.694104629 C7.15595408,0.716429008 7.28189494,0.742001402 7.4071165,0.770796486 C12.5513304,1.95372438 14.5896117,5.64537887 13.5219603,11.8457599 C12.6661664,16.8157803 12.4865333,22.0697979 12.9830611,27.6078129 L12.9830766,27.6078115 C13.1856372,29.8670681 11.5183557,31.8627653 9.25909916,32.0653259 C9.13714872,32.0762597 9.01477033,32.0817349 8.89233071,32.0817349 L8.89233071,32.0817349 C6.34910236,32.0817349 4.27099479,30.0514465 4.2117995,27.5089072 C4.00282739,18.5336692 3.15063543,12.078988 1.65521262,8.14486406 C0.993320022,6.40357222 0.479292964,4.90102807 0.113131446,3.63723159 L0.11315447,3.63722492 C-0.324163226,2.12783483 0.544923159,0.549716368 2.05431324,0.112398672 C2.47212816,-0.0086554275 2.91213593,-0.0323019191 3.3405181,0.0432766371 Z" id="Rectangle"></path>
                        <path d="M28.6053734,6.24220081 L29.9368801,6.33610435 C33.5178358,6.58864183 36.216052,9.6963021 35.9635145,13.2772578 C35.894429,14.2568836 35.6042655,15.2081211 35.1148189,16.0595209 C33.8308169,18.2930618 32.9921056,19.9850075 32.598685,21.135358 C32.00817,22.8620069 31.8472111,25.0458232 32.1158085,27.686807 L32.11583,27.6868048 C32.2762586,29.2642196 31.1275643,30.6730201 29.5501495,30.8334487 C29.4536334,30.8432647 29.3566818,30.8481822 29.2596678,30.8481822 L29.2596678,30.8481822 C27.7345977,30.8481822 26.4982841,29.6118686 26.4982841,28.0867985 C26.4982841,28.0135879 26.5011956,27.9404061 26.5070116,27.8674269 C26.7368408,24.983585 26.1406506,21.6220556 24.7184438,17.7828389 C24.2604697,16.5465474 23.7581343,15.37219 23.2114376,14.2597666 L23.2114753,14.2597481 C21.853885,11.4973108 22.9927385,8.15736847 25.7551758,6.79977817 C26.6392687,6.36529376 27.6227266,6.17290223 28.6053734,6.24220081 Z" id="Rectangle-Copy" transform="translate(29.309365, 18.538287) rotate(3.000000) translate(-29.309365, -18.538287) "></path>
                    </g>
                </g>
            </g>
        </g>
    </g>
</svg>