<?xml version="1.0" encoding="UTF-8"?>
<svg width="320px" height="214px" viewBox="0 0 320 214" version="1.1" xmlns="http://www.w3.org/2000/svg" xmlns:xlink="http://www.w3.org/1999/xlink">
    <!-- Generator: Sketch 52.6 (67491) - http://www.bohemiancoding.com/sketch -->
    <title>Group 2 Copy 2</title>
    <desc>Created with Sketch.</desc>
    <defs>
        <linearGradient x1="-45.6366358%" y1="-61.7705382%" x2="95.4797094%" y2="92.5412274%" id="linearGradient-1">
            <stop stop-color="#009EFF" offset="0%"></stop>
            <stop stop-color="#8F23B3" offset="100%"></stop>
        </linearGradient>
        <path d="M0.167039523,165.26254 C0.167039523,173.017947 7.49291573,179.387721 16.4653244,179.387721 L302.842655,179.387721 C311.791201,179.387721 319.14094,173.038628 319.14094,165.26254 L319.14094,130.158787 C312.38777,130.158787 306.923192,125.422819 306.923192,119.570072 C306.923192,113.717325 312.38777,108.981357 319.14094,108.981357 L319.14094,14.7042506 C319.14094,6.94884415 311.815063,0.579070346 302.842655,0.579070346 L16.4414616,0.579070346 C7.49291573,0.579070346 0.143176734,6.92816306 0.143176734,14.7042506 L0.143176734,108.981357 C6.89634601,108.981357 12.3609247,113.717325 12.3609247,119.570072 C12.3609247,125.422819 6.89634601,130.158787 0.143176734,130.158787 L0.143176734,165.26254 L0.167039523,165.26254 Z" id="path-2"></path>
    </defs>
    <g id="Cartoes" stroke="none" stroke-width="1" fill="none" fill-rule="evenodd">
        <g id="04---Cartão-Crédito---01" transform="translate(-889.000000, -2408.000000)">
            <g id="Group-7" transform="translate(231.000000, 2408.000000)">
                <g id="Group-18">
                    <g id="Group-2-Copy-2" transform="translate(658.000000, 0.000000)">
                        <g id="Untitled-1">
                            <path d="M9.37807606,201.207855 C10.6666667,208.880537 18.9709172,214.257619 27.8478747,213.14084 L287.355705,177.383246 C296.208799,176.266468 302.413125,169.069451 301.124534,161.376087 L296.709918,135.131792 C290.028337,135.979717 283.824012,131.967586 282.8695,126.176883 C281.891126,120.386179 310.383296,115.009098 317.064877,114.181854 L299.955257,12.38956 C298.666667,4.71687795 290.362416,-0.660203828 281.485459,0.456574696 L21.9776286,36.2348496 C13.1245339,37.3516281 6.9202088,44.5486453 8.2087994,52.2420085 L25.3184191,154.034303 C32,153.186378 38.2043251,157.198509 39.1588367,162.989212 C40.137211,168.779915 11.645041,174.156997 4.9634601,174.984241 L9.37807606,201.207855 Z" id="Path" fill="#FFFFFF" opacity="0.153297061"></path>
                            <g id="Oval" transform="translate(0.000000, 17.539150)">
                                <mask id="mask-3" fill="white">
                                    <use xlink:href="#path-2"></use>
                                </mask>
                                <use id="Mask" fill="url(#linearGradient-1)" xlink:href="#path-2"></use>
                                <circle fill="#FFFFFF" opacity="0.12125651" mask="url(#mask-3)" cx="13.9597315" cy="-6.44295302" r="83.7583893"></circle>
                            </g>
                            <path d="M0.167039523,182.80169 C0.167039523,190.557097 7.49291573,196.92687 16.4653244,196.92687 L302.842655,196.92687 C311.791201,196.92687 319.14094,190.577778 319.14094,182.80169 L319.14094,147.697937 C312.38777,147.697937 306.923192,142.961969 306.923192,137.109222 C306.923192,131.256475 312.38777,126.520507 319.14094,126.520507 L319.14094,32.2434004 C319.14094,24.487994 311.815063,18.1182202 302.842655,18.1182202 L16.4414616,18.1182202 C7.49291573,18.1182202 0.143176734,24.467313 0.143176734,32.2434004 L0.143176734,126.520507 C6.89634601,126.520507 12.3609247,131.256475 12.3609247,137.109222 C12.3609247,142.961969 6.89634601,147.697937 0.143176734,147.697937 L0.143176734,182.80169 L0.167039523,182.80169 Z" id="Path"></path>
                            <g id="Group" transform="translate(23.385533, 136.176982)" stroke="#E6E6E6" stroke-linecap="round" stroke-linejoin="round">
                                <path d="M0.69202088,2.00606513 L4.27143922,2.00606513" id="Path"></path>
                                <path d="M8.37583893,2.00606513 L268.766592,2.00606513" id="Path" stroke-dasharray="2.9759,3.9679"></path>
                                <path d="M269.196122,2.00606513 L272.775541,2.00606513" id="Path"></path>
                            </g>
                        </g>
                        <path d="M92.7593301,159.424 L89.0673301,176.376 C88.9893301,176.714 88.6513301,177 88.2873301,177 L86.3893301,177 C86.0253301,177 85.6873301,176.714 85.6093301,176.376 L81.9433301,159.424 C81.8133301,158.93 82.1773301,158.488 82.6973301,158.488 L83.7893301,158.488 C84.1273301,158.488 84.4913301,158.748 84.5433301,159.112 L87.3513301,173.152 L90.1593301,159.112 C90.2113301,158.748 90.5753301,158.488 90.9133301,158.488 L92.0053301,158.488 C92.5253301,158.488 92.8893301,158.93 92.7593301,159.424 Z M105.86333,176.194 C105.86333,176.662 105.49933,177 105.05733,177 L103.99133,177 C103.57533,177 103.21133,176.662 103.21133,176.194 L103.21133,171.176 L97.90733,171.176 L97.90733,176.194 C97.90733,176.662 97.54333,177 97.12733,177 L96.06133,177 C95.61933,177 95.25533,176.662 95.25533,176.194 L95.25533,169.772 L95.28133,169.616 L98.06333,159.06 C98.14133,158.722 98.47933,158.488 98.84333,158.488 L102.27533,158.488 C102.63933,158.488 102.97733,158.722 103.05533,159.06 L105.83733,169.616 L105.86333,169.772 L105.86333,176.194 Z M102.79533,168.55 L100.87133,161.114 L100.24733,161.114 L98.32333,168.55 L102.79533,168.55 Z M119.07133,176.194 C119.07133,176.662 118.70733,177 118.26533,177 L110.85533,177 C110.41333,177 110.07533,176.662 110.07533,176.194 L110.07533,159.242 C110.07533,158.826 110.41333,158.488 110.85533,158.488 L111.92133,158.488 C112.33733,158.488 112.72733,158.826 112.72733,159.242 L112.72733,174.348 L118.26533,174.348 C118.70733,174.348 119.07133,174.712 119.07133,175.154 L119.07133,176.194 Z M132.01933,176.194 C132.01933,176.662 131.65533,177 131.21333,177 L123.25733,177 C122.84133,177 122.47733,176.662 122.47733,176.194 L122.47733,159.242 C122.47733,158.826 122.84133,158.488 123.25733,158.488 L131.21333,158.488 C131.65533,158.488 132.01933,158.826 132.01933,159.242 L132.01933,160.334 C132.01933,160.75 131.65533,161.114 131.21333,161.114 L125.12933,161.114 L125.12933,166.418 L130.66733,166.418 C131.10933,166.418 131.47333,166.756 131.47333,167.224 L131.47333,168.264 C131.47333,168.68 131.10933,169.07 130.66733,169.07 L125.12933,169.07 L125.12933,174.348 L131.21333,174.348 C131.65533,174.348 132.01933,174.712 132.01933,175.154 L132.01933,176.194 Z M158.95533,176.194 C158.95533,176.662 158.59133,177 158.14933,177 L149.15333,177 C148.71133,177 148.34733,176.662 148.34733,176.194 L148.34733,175.154 C148.34733,174.712 148.71133,174.348 149.15333,174.348 L152.58533,174.348 L152.58533,162.752 L151.20733,164.364 C150.92133,164.702 150.42733,164.754 150.08933,164.442 L149.30933,163.74 C148.94533,163.48 148.91933,162.96 149.20533,162.648 L152.53333,158.748 C152.66333,158.592 152.97533,158.488 153.13133,158.488 L154.43133,158.488 C154.89933,158.488 155.23733,158.826 155.23733,159.242 L155.23733,174.348 L158.14933,174.348 C158.59133,174.348 158.95533,174.712 158.95533,175.154 L158.95533,176.194 Z M184.773329,166.678 C184.773329,169.174 182.771329,171.176 180.275329,171.176 L177.909329,171.176 L177.909329,176.194 C177.909329,176.662 177.545329,177 177.103329,177 L176.037329,177 C175.621329,177 175.257329,176.662 175.257329,176.194 L175.257329,159.242 C175.257329,158.826 175.621329,158.488 176.037329,158.488 L180.275329,158.488 C182.771329,158.488 184.773329,160.464 184.773329,162.96 L184.773329,166.678 Z M182.121329,166.678 L182.121329,162.96 C182.121329,161.946 181.315329,161.114 180.275329,161.114 L177.909329,161.114 L177.909329,168.55 L180.275329,168.55 C181.315329,168.55 182.121329,167.692 182.121329,166.678 Z M197.903329,172.762 C197.903329,175.258 195.875329,177.286 193.405329,177.286 L192.625329,177.286 C190.155329,177.286 188.127329,175.258 188.127329,172.762 L188.127329,162.7 C188.127329,160.23 190.155329,158.202 192.625329,158.202 L193.405329,158.202 C195.875329,158.202 197.903329,160.23 197.903329,162.7 L197.903329,172.762 Z M195.251329,172.762 L195.251329,162.7 C195.251329,161.686 194.445329,160.854 193.405329,160.854 L192.625329,160.854 C191.585329,160.854 190.779329,161.686 190.779329,162.7 L190.779329,172.762 C190.779329,173.776 191.585329,174.634 192.625329,174.634 L193.405329,174.634 C194.445329,174.634 195.251329,173.776 195.251329,172.762 Z M212.073329,176.194 C212.073329,176.662 211.709329,177 211.267329,177 L208.277329,177 C207.965329,177 207.601329,176.766 207.523329,176.48 L204.013329,164.546 C203.805329,163.896 203.415329,161.452 203.415329,161.452 L202.791329,161.452 C202.791329,161.452 203.025329,163.896 203.025329,164.546 L203.025329,176.194 C203.025329,176.662 202.661329,177 202.219329,177 L201.179329,177 C200.737329,177 200.373329,176.662 200.373329,176.194 L200.373329,159.242 C200.373329,158.826 200.737329,158.488 201.179329,158.488 L204.169329,158.488 C204.481329,158.488 204.845329,158.696 204.923329,158.982 L208.433329,170.916 C208.641329,171.592 209.031329,174.036 209.031329,174.036 L209.655329,174.036 C209.655329,174.036 209.421329,171.592 209.421329,170.916 L209.421329,159.268 C209.421329,158.826 209.785329,158.488 210.227329,158.488 L211.267329,158.488 C211.709329,158.488 212.073329,158.826 212.073329,159.268 L212.073329,176.194 Z M224.735329,160.334 C224.735329,160.75 224.371329,161.114 223.929329,161.114 L220.757329,161.114 L220.757329,176.194 C220.757329,176.662 220.393329,177 219.951329,177 L218.911329,177 C218.469329,177 218.105329,176.662 218.105329,176.194 L218.105329,161.114 L214.933329,161.114 C214.491329,161.114 214.127329,160.75 214.127329,160.334 L214.127329,159.242 C214.127329,158.826 214.491329,158.488 214.933329,158.488 L223.929329,158.488 C224.371329,158.488 224.735329,158.826 224.735329,159.242 L224.735329,160.334 Z M237.527329,172.762 C237.527329,175.258 235.499329,177.286 233.029329,177.286 L232.249329,177.286 C229.779329,177.286 227.751329,175.258 227.751329,172.762 L227.751329,162.7 C227.751329,160.23 229.779329,158.202 232.249329,158.202 L233.029329,158.202 C235.499329,158.202 237.527329,160.23 237.527329,162.7 L237.527329,172.762 Z M234.875329,172.762 L234.875329,162.7 C234.875329,161.686 234.069329,160.854 233.029329,160.854 L232.249329,160.854 C231.209329,160.854 230.403329,161.686 230.403329,162.7 L230.403329,172.762 C230.403329,173.776 231.209329,174.634 232.249329,174.634 L233.029329,174.634 C234.069329,174.634 234.875329,173.776 234.875329,172.762 Z" id="VALE-1-PONTO" fill="#FFFFFF"></path>
                        <path d="M79.6926436,67.512 L70.3326436,67.512 L68.3166436,72 L66.4686436,72 L74.1486436,55.2 L75.9006436,55.2 L83.5806436,72 L81.7086436,72 L79.6926436,67.512 Z M79.0446436,66.072 L75.0126436,57.048 L70.9806436,66.072 L79.0446436,66.072 Z M97.5246436,72.12 C96.2766374,72.12 95.1606485,71.8480027 94.1766436,71.304 C93.1926387,70.7599973 92.4206464,69.9960049 91.8606436,69.012 C91.3006408,68.0279951 91.0206436,66.9200062 91.0206436,65.688 C91.0206436,64.4559938 91.3006408,63.3520049 91.8606436,62.376 C92.4206464,61.3999951 93.1926387,60.6400027 94.1766436,60.096 C95.1606485,59.5519973 96.2766374,59.28 97.5246436,59.28 C98.612649,59.28 99.5846393,59.4919979 100.440644,59.916 C101.296648,60.3400021 101.972641,60.9599959 102.468644,61.776 L101.196644,62.64 C100.780642,62.0159969 100.252647,61.5480016 99.6126436,61.236 C98.9726404,60.9239984 98.2766474,60.768 97.5246436,60.768 C96.612639,60.768 95.7926472,60.971998 95.0646436,61.38 C94.33664,61.788002 93.7686456,62.3679962 93.3606436,63.12 C92.9526416,63.8720038 92.7486436,64.7279952 92.7486436,65.688 C92.7486436,66.6640049 92.9526416,67.5239963 93.3606436,68.268 C93.7686456,69.0120037 94.33664,69.587998 95.0646436,69.996 C95.7926472,70.404002 96.612639,70.608 97.5246436,70.608 C98.2766474,70.608 98.9726404,70.4560015 99.6126436,70.152 C100.252647,69.8479985 100.780642,69.3840031 101.196644,68.76 L102.468644,69.624 C101.972641,70.4400041 101.292648,71.0599979 100.428644,71.484 C99.5646393,71.9080021 98.596649,72.12 97.5246436,72.12 Z M110.220644,59.28 C111.868652,59.28 113.132639,59.6919959 114.012644,60.516 C114.892648,61.3400041 115.332644,62.5599919 115.332644,64.176 L115.332644,72 L113.700644,72 L113.700644,70.032 C113.316642,70.6880033 112.752647,71.1999982 112.008644,71.568 C111.26464,71.9360018 110.380649,72.12 109.356644,72.12 C107.948637,72.12 106.828648,71.7840034 105.996644,71.112 C105.164639,70.4399966 104.748644,69.5520055 104.748644,68.448 C104.748644,67.3759946 105.13664,66.5120033 105.912644,65.856 C106.688647,65.1999967 107.924635,64.872 109.620644,64.872 L113.628644,64.872 L113.628644,64.104 C113.628644,63.0159946 113.324647,62.1880028 112.716644,61.62 C112.108641,61.0519972 111.220649,60.768 110.052644,60.768 C109.25264,60.768 108.484647,60.8999987 107.748644,61.164 C107.01264,61.4280013 106.380646,61.7919977 105.852644,62.256 L105.084644,60.984 C105.724647,60.4399973 106.492639,60.0200015 107.388644,59.724 C108.284648,59.4279985 109.228639,59.28 110.220644,59.28 Z M109.620644,70.776 C110.580648,70.776 111.40464,70.5560022 112.092644,70.116 C112.780647,69.6759978 113.292642,69.0400042 113.628644,68.208 L113.628644,66.144 L109.668644,66.144 C107.508633,66.144 106.428644,66.8959925 106.428644,68.4 C106.428644,69.1360037 106.708641,69.7159979 107.268644,70.14 C107.828646,70.5640021 108.612639,70.776 109.620644,70.776 Z M131.484644,54.192 L131.484644,72 L129.852644,72 L129.852644,69.504 C129.340641,70.3520042 128.664648,70.9999978 127.824644,71.448 C126.984639,71.8960022 126.036649,72.12 124.980644,72.12 C123.796638,72.12 122.724648,71.8480027 121.764644,71.304 C120.804639,70.7599973 120.052646,70.0000049 119.508644,69.024 C118.964641,68.0479951 118.692644,66.9360062 118.692644,65.688 C118.692644,64.4399938 118.964641,63.3280049 119.508644,62.352 C120.052646,61.3759951 120.804639,60.6200027 121.764644,60.084 C122.724648,59.5479973 123.796638,59.28 124.980644,59.28 C126.004649,59.28 126.928639,59.4919979 127.752644,59.916 C128.576648,60.3400021 129.252641,60.9599959 129.780644,61.776 L129.780644,54.192 L131.484644,54.192 Z M125.124644,70.608 C126.004648,70.608 126.80064,70.404002 127.512644,69.996 C128.224647,69.587998 128.784642,69.0080038 129.192644,68.256 C129.600646,67.5039962 129.804644,66.6480048 129.804644,65.688 C129.804644,64.7279952 129.600646,63.8720038 129.192644,63.12 C128.784642,62.3679962 128.224647,61.788002 127.512644,61.38 C126.80064,60.971998 126.004648,60.768 125.124644,60.768 C124.228639,60.768 123.424647,60.971998 122.712644,61.38 C122.00064,61.788002 121.440646,62.3679962 121.032644,63.12 C120.624642,63.8720038 120.420644,64.7279952 120.420644,65.688 C120.420644,66.6480048 120.624642,67.5039962 121.032644,68.256 C121.440646,69.0080038 122.00064,69.587998 122.712644,69.996 C123.424647,70.404002 124.228639,70.608 125.124644,70.608 Z M140.652644,59.28 C142.300652,59.28 143.564639,59.6919959 144.444644,60.516 C145.324648,61.3400041 145.764644,62.5599919 145.764644,64.176 L145.764644,72 L144.132644,72 L144.132644,70.032 C143.748642,70.6880033 143.184647,71.1999982 142.440644,71.568 C141.69664,71.9360018 140.812649,72.12 139.788644,72.12 C138.380637,72.12 137.260648,71.7840034 136.428644,71.112 C135.596639,70.4399966 135.180644,69.5520055 135.180644,68.448 C135.180644,67.3759946 135.56864,66.5120033 136.344644,65.856 C137.120647,65.1999967 138.356635,64.872 140.052644,64.872 L144.060644,64.872 L144.060644,64.104 C144.060644,63.0159946 143.756647,62.1880028 143.148644,61.62 C142.540641,61.0519972 141.652649,60.768 140.484644,60.768 C139.68464,60.768 138.916647,60.8999987 138.180644,61.164 C137.44464,61.4280013 136.812646,61.7919977 136.284644,62.256 L135.516644,60.984 C136.156647,60.4399973 136.924639,60.0200015 137.820644,59.724 C138.716648,59.4279985 139.660639,59.28 140.652644,59.28 Z M140.052644,70.776 C141.012648,70.776 141.83664,70.5560022 142.524644,70.116 C143.212647,69.6759978 143.724642,69.0400042 144.060644,68.208 L144.060644,66.144 L140.100644,66.144 C137.940633,66.144 136.860644,66.8959925 136.860644,68.4 C136.860644,69.1360037 137.140641,69.7159979 137.700644,70.14 C138.260646,70.5640021 139.044639,70.776 140.052644,70.776 Z M161.724644,55.2 L161.724644,72 L157.836644,72 L157.836644,58.32 L154.476644,58.32 L154.476644,55.2 L161.724644,55.2 Z M171.852644,72.288 C170.460637,72.288 169.220649,71.9440034 168.132644,71.256 C167.044638,70.5679966 166.192647,69.5720065 165.576644,68.268 C164.960641,66.9639935 164.652644,65.408009 164.652644,63.6 C164.652644,61.791991 164.960641,60.2360065 165.576644,58.932 C166.192647,57.6279935 167.044638,56.6320034 168.132644,55.944 C169.220649,55.2559966 170.460637,54.912 171.852644,54.912 C173.244651,54.912 174.484638,55.2559966 175.572644,55.944 C176.660649,56.6320034 177.512641,57.6279935 178.128644,58.932 C178.744647,60.2360065 179.052644,61.791991 179.052644,63.6 C179.052644,65.408009 178.744647,66.9639935 178.128644,68.268 C177.512641,69.5720065 176.660649,70.5679966 175.572644,71.256 C174.484638,71.9440034 173.244651,72.288 171.852644,72.288 Z M171.852644,69 C172.876649,69 173.680641,68.5600044 174.264644,67.68 C174.848647,66.7999956 175.140644,65.4400092 175.140644,63.6 C175.140644,61.7599908 174.848647,60.4000044 174.264644,59.52 C173.680641,58.6399956 172.876649,58.2 171.852644,58.2 C170.844639,58.2 170.048647,58.6399956 169.464644,59.52 C168.880641,60.4000044 168.588644,61.7599908 168.588644,63.6 C168.588644,65.4400092 168.880641,66.7999956 169.464644,67.68 C170.048647,68.5600044 170.844639,69 171.852644,69 Z M192.348644,68.976 C194.028652,68.976 195.444638,68.3120066 196.596644,66.984 L199.068644,69.288 C198.26864,70.2640049 197.280649,71.0079974 196.104644,71.52 C194.928638,72.0320026 193.612651,72.288 192.156644,72.288 C190.764637,72.288 189.47265,72.0400025 188.280644,71.544 C187.088638,71.0479975 186.076648,70.3440046 185.244644,69.432 C184.412639,68.5199954 183.812645,67.464006 183.444644,66.264 L180.732644,66.264 L180.732644,64.248 L183.084644,64.248 C183.068644,64.1039993 183.060644,63.8880014 183.060644,63.6 C183.060644,63.3119986 183.068644,63.0960007 183.084644,62.952 L180.732644,62.952 L180.732644,60.936 L183.444644,60.936 C183.812645,59.735994 184.412639,58.6800046 185.244644,57.768 C186.076648,56.8559954 187.088638,56.1520025 188.280644,55.656 C189.47265,55.1599975 190.764637,54.912 192.156644,54.912 C193.612651,54.912 194.928638,55.1679974 196.104644,55.68 C197.280649,56.1920026 198.26864,56.9279952 199.068644,57.888 L196.596644,60.192 C195.428638,58.8799934 194.012652,58.224 192.348644,58.224 C191.292638,58.224 190.348648,58.4639976 189.516644,58.944 C188.684639,59.4240024 188.044646,60.0879958 187.596644,60.936 L193.668644,60.936 L193.668644,62.952 L186.996644,62.952 C186.980644,63.0960007 186.972644,63.3119986 186.972644,63.6 C186.972644,63.8880014 186.980644,64.1039993 186.996644,64.248 L193.668644,64.248 L193.668644,66.264 L187.596644,66.264 C188.044646,67.1120042 188.684639,67.7759976 189.516644,68.256 C190.348648,68.7360024 191.292638,68.976 192.348644,68.976 Z M219.876644,59.376 L219.876644,76.656 L218.172644,76.656 L218.172644,69.624 C217.644641,70.4400041 216.968648,71.0599979 216.144644,71.484 C215.320639,71.9080021 214.396649,72.12 213.372644,72.12 C212.172638,72.12 211.096648,71.8520027 210.144644,71.316 C209.192639,70.7799973 208.444646,70.0240049 207.900644,69.048 C207.356641,68.0719951 207.084644,66.9520063 207.084644,65.688 C207.084644,64.4399938 207.356641,63.3280049 207.900644,62.352 C208.444646,61.3759951 209.196639,60.6200027 210.156644,60.084 C211.116648,59.5479973 212.188638,59.28 213.372644,59.28 C214.428649,59.28 215.376639,59.5039978 216.216644,59.952 C217.056648,60.4000022 217.732641,61.0399958 218.244644,61.872 L218.244644,59.376 L219.876644,59.376 Z M213.516644,70.608 C214.396648,70.608 215.19264,70.404002 215.904644,69.996 C216.616647,69.587998 217.176642,69.0080038 217.584644,68.256 C217.992646,67.5039962 218.196644,66.6480048 218.196644,65.688 C218.196644,64.7279952 217.992646,63.8760037 217.584644,63.132 C217.176642,62.3879963 216.616647,61.8080021 215.904644,61.392 C215.19264,60.9759979 214.396648,60.768 213.516644,60.768 C212.620639,60.768 211.816647,60.9759979 211.104644,61.392 C210.39264,61.8080021 209.832646,62.3879963 209.424644,63.132 C209.016642,63.8760037 208.812644,64.7279952 208.812644,65.688 C208.812644,66.6480048 209.016642,67.5039962 209.424644,68.256 C209.832646,69.0080038 210.39264,69.587998 211.104644,69.996 C211.816647,70.404002 212.620639,70.608 213.516644,70.608 Z M236.004644,59.376 L236.004644,72 L234.372644,72 L234.372644,69.696 C233.924641,70.4640038 233.308648,71.0599979 232.524644,71.484 C231.74064,71.9080021 230.844649,72.12 229.836644,72.12 C228.188635,72.12 226.888648,71.6600046 225.936644,70.74 C224.984639,69.8199954 224.508644,68.4720089 224.508644,66.696 L224.508644,59.376 L226.212644,59.376 L226.212644,66.528 C226.212644,67.8560066 226.54064,68.8639966 227.196644,69.552 C227.852647,70.2400034 228.788638,70.584 230.004644,70.584 C231.33265,70.584 232.38064,70.180004 233.148644,69.372 C233.916647,68.563996 234.300644,67.4400072 234.300644,66 L234.300644,59.376 L236.004644,59.376 Z M251.772644,66.216 L241.212644,66.216 C241.308644,67.5280066 241.812639,68.587996 242.724644,69.396 C243.636648,70.204004 244.788637,70.608 246.180644,70.608 C246.964648,70.608 247.68464,70.4680014 248.340644,70.188 C248.996647,69.9079986 249.564641,69.4960027 250.044644,68.952 L251.004644,70.056 C250.444641,70.7280034 249.744648,71.2399982 248.904644,71.592 C248.064639,71.9440018 247.140649,72.12 246.132644,72.12 C244.836637,72.12 243.688649,71.8440028 242.688644,71.292 C241.688639,70.7399972 240.908646,69.9760049 240.348644,69 C239.788641,68.0239951 239.508644,66.9200062 239.508644,65.688 C239.508644,64.4559938 239.776641,63.3520049 240.312644,62.376 C240.848646,61.3999951 241.584639,60.6400027 242.520644,60.096 C243.456648,59.5519973 244.508638,59.28 245.676644,59.28 C246.844649,59.28 247.892639,59.5519973 248.820644,60.096 C249.748648,60.6400027 250.476641,61.3959952 251.004644,62.364 C251.532646,63.3320048 251.796644,64.4399938 251.796644,65.688 L251.772644,66.216 Z M245.676644,60.744 C244.460638,60.744 243.440648,61.1319961 242.616644,61.908 C241.792639,62.6840039 241.324644,63.6959938 241.212644,64.944 L250.164644,64.944 C250.052643,63.6959938 249.584648,62.6840039 248.760644,61.908 C247.936639,61.1319961 246.90865,60.744 245.676644,60.744 Z M51.1086436,89.28 C52.2926495,89.28 53.3646388,89.5479973 54.3246436,90.084 C55.2846484,90.6200027 56.0366409,91.3759951 56.5806436,92.352 C57.1246463,93.3280049 57.3966436,94.4399938 57.3966436,95.688 C57.3966436,96.9520063 57.1246463,98.0719951 56.5806436,99.048 C56.0366409,100.024005 55.2886484,100.779997 54.3366436,101.316 C53.3846388,101.852003 52.3086496,102.12 51.1086436,102.12 C50.0846385,102.12 49.1606477,101.908002 48.3366436,101.484 C47.5126395,101.059998 46.8366462,100.440004 46.3086436,99.624 L46.3086436,106.656 L44.6046436,106.656 L44.6046436,89.376 L46.2366436,89.376 L46.2366436,91.872 C46.7486462,91.0399958 47.4246394,90.4000022 48.2646436,89.952 C49.1046478,89.5039978 50.0526383,89.28 51.1086436,89.28 Z M50.9886436,100.608 C51.868648,100.608 52.66864,100.404002 53.3886436,99.996 C54.1086472,99.587998 54.6726416,99.0080038 55.0806436,98.256 C55.4886456,97.5039962 55.6926436,96.6480048 55.6926436,95.688 C55.6926436,94.7279952 55.4886456,93.8760037 55.0806436,93.132 C54.6726416,92.3879963 54.1086472,91.8080021 53.3886436,91.392 C52.66864,90.9759979 51.868648,90.768 50.9886436,90.768 C50.0926391,90.768 49.2886472,90.9759979 48.5766436,91.392 C47.86464,91.8080021 47.3046456,92.3879963 46.8966436,93.132 C46.4886416,93.8760037 46.2846436,94.7279952 46.2846436,95.688 C46.2846436,96.6480048 46.4886416,97.5039962 46.8966436,98.256 C47.3046456,99.0080038 47.86464,99.587998 48.5766436,99.996 C49.2886472,100.404002 50.0926391,100.608 50.9886436,100.608 Z M65.2926436,89.28 C66.9406518,89.28 68.2046392,89.6919959 69.0846436,90.516 C69.964648,91.3400041 70.4046436,92.5599919 70.4046436,94.176 L70.4046436,102 L68.7726436,102 L68.7726436,100.032 C68.3886417,100.688003 67.8246473,101.199998 67.0806436,101.568 C66.3366399,101.936002 65.4526487,102.12 64.4286436,102.12 C63.0206366,102.12 61.9006478,101.784003 61.0686436,101.112 C60.2366394,100.439997 59.8206436,99.5520055 59.8206436,98.448 C59.8206436,97.3759946 60.2086397,96.5120033 60.9846436,95.856 C61.7606475,95.1999967 62.9966351,94.872 64.6926436,94.872 L68.7006436,94.872 L68.7006436,94.104 C68.7006436,93.0159946 68.3966466,92.1880028 67.7886436,91.62 C67.1806406,91.0519972 66.2926494,90.768 65.1246436,90.768 C64.3246396,90.768 63.5566473,90.8999987 62.8206436,91.164 C62.0846399,91.4280013 61.4526462,91.7919977 60.9246436,92.256 L60.1566436,90.984 C60.7966468,90.4399973 61.5646391,90.0200015 62.4606436,89.724 C63.3566481,89.4279985 64.3006386,89.28 65.2926436,89.28 Z M64.6926436,100.776 C65.6526484,100.776 66.4766402,100.556002 67.1646436,100.116 C67.852647,99.6759978 68.3646419,99.0400042 68.7006436,98.208 L68.7006436,96.144 L64.7406436,96.144 C62.5806328,96.144 61.5006436,96.8959925 61.5006436,98.4 C61.5006436,99.1360037 61.7806408,99.7159979 62.3406436,100.14 C62.9006464,100.564002 63.6846386,100.776 64.6926436,100.776 Z M86.7246436,89.376 L86.7246436,100.464 C86.7246436,102.608011 86.2006488,104.195995 85.1526436,105.228 C84.1046384,106.260005 82.5246542,106.776 80.4126436,106.776 C79.2446378,106.776 78.1366488,106.604002 77.0886436,106.26 C76.0406384,105.915998 75.1886469,105.440003 74.5326436,104.832 L75.3966436,103.536 C76.0046466,104.080003 76.7446392,104.503998 77.6166436,104.808 C78.488648,105.112002 79.4046388,105.264 80.3646436,105.264 C81.9646516,105.264 83.1406398,104.892004 83.8926436,104.148 C84.6446474,103.403996 85.0206436,102.248008 85.0206436,100.68 L85.0206436,99.072 C84.492641,99.872004 83.8006479,100.479998 82.9446436,100.896 C82.0886393,101.312002 81.1406488,101.52 80.1006436,101.52 C78.9166377,101.52 77.8406484,101.260003 76.8726436,100.74 C75.9046388,100.219997 75.1446464,99.4920047 74.5926436,98.556 C74.0406408,97.6199953 73.7646436,96.5600059 73.7646436,95.376 C73.7646436,94.1919941 74.0406408,93.1360046 74.5926436,92.208 C75.1446464,91.2799954 75.9006388,90.5600026 76.8606436,90.048 C77.8206484,89.5359974 78.9006376,89.28 80.1006436,89.28 C81.172649,89.28 82.1406393,89.4959978 83.0046436,89.928 C83.8686479,90.3600022 84.564641,90.9839959 85.0926436,91.8 L85.0926436,89.376 L86.7246436,89.376 Z M80.2686436,100.008 C81.1806482,100.008 82.0046399,99.812002 82.7406436,99.42 C83.4766473,99.027998 84.0486416,98.4800035 84.4566436,97.776 C84.8646456,97.0719965 85.0686436,96.2720045 85.0686436,95.376 C85.0686436,94.4799955 84.8646456,93.6840035 84.4566436,92.988 C84.0486416,92.2919965 83.4806472,91.748002 82.7526436,91.356 C82.02464,90.963998 81.1966482,90.768 80.2686436,90.768 C79.356639,90.768 78.5366472,90.9599981 77.8086436,91.344 C77.08064,91.7280019 76.5126456,92.2719965 76.1046436,92.976 C75.6966416,93.6800035 75.4926436,94.4799955 75.4926436,95.376 C75.4926436,96.2720045 75.6966416,97.0719965 76.1046436,97.776 C76.5126456,98.4800035 77.08064,99.027998 77.8086436,99.42 C78.5366472,99.812002 79.356639,100.008 80.2686436,100.008 Z M95.9166436,89.28 C97.5646518,89.28 98.8286392,89.6919959 99.7086436,90.516 C100.588648,91.3400041 101.028644,92.5599919 101.028644,94.176 L101.028644,102 L99.3966436,102 L99.3966436,100.032 C99.0126417,100.688003 98.4486473,101.199998 97.7046436,101.568 C96.9606399,101.936002 96.0766487,102.12 95.0526436,102.12 C93.6446366,102.12 92.5246478,101.784003 91.6926436,101.112 C90.8606394,100.439997 90.4446436,99.5520055 90.4446436,98.448 C90.4446436,97.3759946 90.8326397,96.5120033 91.6086436,95.856 C92.3846475,95.1999967 93.6206351,94.872 95.3166436,94.872 L99.3246436,94.872 L99.3246436,94.104 C99.3246436,93.0159946 99.0206466,92.1880028 98.4126436,91.62 C97.8046406,91.0519972 96.9166494,90.768 95.7486436,90.768 C94.9486396,90.768 94.1806473,90.8999987 93.4446436,91.164 C92.7086399,91.4280013 92.0766462,91.7919977 91.5486436,92.256 L90.7806436,90.984 C91.4206468,90.4399973 92.1886391,90.0200015 93.0846436,89.724 C93.9806481,89.4279985 94.9246386,89.28 95.9166436,89.28 Z M95.3166436,100.776 C96.2766484,100.776 97.1006402,100.556002 97.7886436,100.116 C98.476647,99.6759978 98.9886419,99.0400042 99.3246436,98.208 L99.3246436,96.144 L95.3646436,96.144 C93.2046328,96.144 92.1246436,96.8959925 92.1246436,98.4 C92.1246436,99.1360037 92.4046408,99.7159979 92.9646436,100.14 C93.5246464,100.564002 94.3086386,100.776 95.3166436,100.776 Z M107.292644,91.848 C107.692646,90.9999958 108.28864,90.3600022 109.080644,89.928 C109.872648,89.4959978 110.852638,89.28 112.020644,89.28 L112.020644,90.936 L111.612644,90.912 C110.284637,90.912 109.244647,91.3199959 108.492644,92.136 C107.74064,92.9520041 107.364644,94.0959926 107.364644,95.568 L107.364644,102 L105.660644,102 L105.660644,89.376 L107.292644,89.376 L107.292644,91.848 Z M126.804644,102.12 C125.556637,102.12 124.440649,101.848003 123.456644,101.304 C122.472639,100.759997 121.700646,99.9960049 121.140644,99.012 C120.580641,98.0279951 120.300644,96.9200062 120.300644,95.688 C120.300644,94.4559938 120.580641,93.3520049 121.140644,92.376 C121.700646,91.3999951 122.472639,90.6400027 123.456644,90.096 C124.440649,89.5519973 125.556637,89.28 126.804644,89.28 C127.892649,89.28 128.864639,89.4919979 129.720644,89.916 C130.576648,90.3400021 131.252641,90.9599959 131.748644,91.776 L130.476644,92.64 C130.060642,92.0159969 129.532647,91.5480016 128.892644,91.236 C128.25264,90.9239984 127.556647,90.768 126.804644,90.768 C125.892639,90.768 125.072647,90.971998 124.344644,91.38 C123.61664,91.788002 123.048646,92.3679962 122.640644,93.12 C122.232642,93.8720038 122.028644,94.7279952 122.028644,95.688 C122.028644,96.6640049 122.232642,97.5239963 122.640644,98.268 C123.048646,99.0120037 123.61664,99.587998 124.344644,99.996 C125.072647,100.404002 125.892639,100.608 126.804644,100.608 C127.556647,100.608 128.25264,100.456002 128.892644,100.152 C129.532647,99.8479985 130.060642,99.3840031 130.476644,98.76 L131.748644,99.624 C131.252641,100.440004 130.572648,101.059998 129.708644,101.484 C128.844639,101.908002 127.876649,102.12 126.804644,102.12 Z M140.244644,102.12 C139.028638,102.12 137.932648,101.844003 136.956644,101.292 C135.980639,100.739997 135.212646,99.9760049 134.652644,99 C134.092641,98.0239951 133.812644,96.9200062 133.812644,95.688 C133.812644,94.4559938 134.092641,93.3520049 134.652644,92.376 C135.212646,91.3999951 135.980639,90.6400027 136.956644,90.096 C137.932648,89.5519973 139.028638,89.28 140.244644,89.28 C141.46065,89.28 142.556639,89.5519973 143.532644,90.096 C144.508648,90.6400027 145.272641,91.3999951 145.824644,92.376 C146.376646,93.3520049 146.652644,94.4559938 146.652644,95.688 C146.652644,96.9200062 146.376646,98.0239951 145.824644,99 C145.272641,99.9760049 144.508648,100.739997 143.532644,101.292 C142.556639,101.844003 141.46065,102.12 140.244644,102.12 Z M140.244644,100.608 C141.140648,100.608 141.94464,100.404002 142.656644,99.996 C143.368647,99.587998 143.924642,99.0080038 144.324644,98.256 C144.724646,97.5039962 144.924644,96.6480048 144.924644,95.688 C144.924644,94.7279952 144.724646,93.8720038 144.324644,93.12 C143.924642,92.3679962 143.368647,91.788002 142.656644,91.38 C141.94464,90.971998 141.140648,90.768 140.244644,90.768 C139.348639,90.768 138.544647,90.971998 137.832644,91.38 C137.12064,91.788002 136.560646,92.3679962 136.152644,93.12 C135.744642,93.8720038 135.540644,94.7279952 135.540644,95.688 C135.540644,96.6480048 135.744642,97.5039962 136.152644,98.256 C136.560646,99.0080038 137.12064,99.587998 137.832644,99.996 C138.544647,100.404002 139.348639,100.608 140.244644,100.608 Z M165.876644,89.28 C167.460652,89.28 168.704639,89.7359954 169.608644,90.648 C170.512648,91.5600046 170.964644,92.9039911 170.964644,94.68 L170.964644,102 L169.260644,102 L169.260644,94.848 C169.260644,93.5359934 168.944647,92.5360034 168.312644,91.848 C167.68064,91.1599966 166.788649,90.816 165.636644,90.816 C164.324637,90.816 163.292647,91.219996 162.540644,92.028 C161.78864,92.836004 161.412644,93.9519929 161.412644,95.376 L161.412644,102 L159.708644,102 L159.708644,94.848 C159.708644,93.5359934 159.392647,92.5360034 158.760644,91.848 C158.12864,91.1599966 157.228649,90.816 156.060644,90.816 C154.764637,90.816 153.736647,91.219996 152.976644,92.028 C152.21664,92.836004 151.836644,93.9519929 151.836644,95.376 L151.836644,102 L150.132644,102 L150.132644,89.376 L151.764644,89.376 L151.764644,91.68 C152.212646,90.9119962 152.83664,90.3200021 153.636644,89.904 C154.436648,89.4879979 155.356638,89.28 156.396644,89.28 C157.452649,89.28 158.36864,89.5039978 159.144644,89.952 C159.920647,90.4000022 160.500642,91.0639956 160.884644,91.944 C161.348646,91.1119958 162.016639,90.4600024 162.888644,89.988 C163.760648,89.5159976 164.756638,89.28 165.876644,89.28 Z M187.044644,102.12 C185.828638,102.12 184.732648,101.844003 183.756644,101.292 C182.780639,100.739997 182.012646,99.9760049 181.452644,99 C180.892641,98.0239951 180.612644,96.9200062 180.612644,95.688 C180.612644,94.4559938 180.892641,93.3520049 181.452644,92.376 C182.012646,91.3999951 182.780639,90.6400027 183.756644,90.096 C184.732648,89.5519973 185.828638,89.28 187.044644,89.28 C188.26065,89.28 189.356639,89.5519973 190.332644,90.096 C191.308648,90.6400027 192.072641,91.3999951 192.624644,92.376 C193.176646,93.3520049 193.452644,94.4559938 193.452644,95.688 C193.452644,96.9200062 193.176646,98.0239951 192.624644,99 C192.072641,99.9760049 191.308648,100.739997 190.332644,101.292 C189.356639,101.844003 188.26065,102.12 187.044644,102.12 Z M187.044644,100.608 C187.940648,100.608 188.74464,100.404002 189.456644,99.996 C190.168647,99.587998 190.724642,99.0080038 191.124644,98.256 C191.524646,97.5039962 191.724644,96.6480048 191.724644,95.688 C191.724644,94.7279952 191.524646,93.8720038 191.124644,93.12 C190.724642,92.3679962 190.168647,91.788002 189.456644,91.38 C188.74464,90.971998 187.940648,90.768 187.044644,90.768 C186.148639,90.768 185.344647,90.971998 184.632644,91.38 C183.92064,91.788002 183.360646,92.3679962 182.952644,93.12 C182.544642,93.8720038 182.340644,94.7279952 182.340644,95.688 C182.340644,96.6480048 182.544642,97.5039962 182.952644,98.256 C183.360646,99.0080038 183.92064,99.587998 184.632644,99.996 C185.344647,100.404002 186.148639,100.608 187.044644,100.608 Z M208.452644,102.12 C207.204637,102.12 206.088649,101.848003 205.104644,101.304 C204.120639,100.759997 203.348646,99.9960049 202.788644,99.012 C202.228641,98.0279951 201.948644,96.9200062 201.948644,95.688 C201.948644,94.4559938 202.228641,93.3520049 202.788644,92.376 C203.348646,91.3999951 204.120639,90.6400027 205.104644,90.096 C206.088649,89.5519973 207.204637,89.28 208.452644,89.28 C209.540649,89.28 210.512639,89.4919979 211.368644,89.916 C212.224648,90.3400021 212.900641,90.9599959 213.396644,91.776 L212.124644,92.64 C211.708642,92.0159969 211.180647,91.5480016 210.540644,91.236 C209.90064,90.9239984 209.204647,90.768 208.452644,90.768 C207.540639,90.768 206.720647,90.971998 205.992644,91.38 C205.26464,91.788002 204.696646,92.3679962 204.288644,93.12 C203.880642,93.8720038 203.676644,94.7279952 203.676644,95.688 C203.676644,96.6640049 203.880642,97.5239963 204.288644,98.268 C204.696646,99.0120037 205.26464,99.587998 205.992644,99.996 C206.720647,100.404002 207.540639,100.608 208.452644,100.608 C209.204647,100.608 209.90064,100.456002 210.540644,100.152 C211.180647,99.8479985 211.708642,99.3840031 212.124644,98.76 L213.396644,99.624 C212.900641,100.440004 212.220648,101.059998 211.356644,101.484 C210.492639,101.908002 209.524649,102.12 208.452644,102.12 Z M221.148644,89.28 C222.796652,89.28 224.060639,89.6919959 224.940644,90.516 C225.820648,91.3400041 226.260644,92.5599919 226.260644,94.176 L226.260644,102 L224.628644,102 L224.628644,100.032 C224.244642,100.688003 223.680647,101.199998 222.936644,101.568 C222.19264,101.936002 221.308649,102.12 220.284644,102.12 C218.876637,102.12 217.756648,101.784003 216.924644,101.112 C216.092639,100.439997 215.676644,99.5520055 215.676644,98.448 C215.676644,97.3759946 216.06464,96.5120033 216.840644,95.856 C217.616647,95.1999967 218.852635,94.872 220.548644,94.872 L224.556644,94.872 L224.556644,94.104 C224.556644,93.0159946 224.252647,92.1880028 223.644644,91.62 C223.036641,91.0519972 222.148649,90.768 220.980644,90.768 C220.18064,90.768 219.412647,90.8999987 218.676644,91.164 C217.94064,91.4280013 217.308646,91.7919977 216.780644,92.256 L216.012644,90.984 C216.652647,90.4399973 217.420639,90.0200015 218.316644,89.724 C219.212648,89.4279985 220.156639,89.28 221.148644,89.28 Z M220.548644,100.776 C221.508648,100.776 222.33264,100.556002 223.020644,100.116 C223.708647,99.6759978 224.220642,99.0400042 224.556644,98.208 L224.556644,96.144 L220.596644,96.144 C218.436633,96.144 217.356644,96.8959925 217.356644,98.4 C217.356644,99.1360037 217.636641,99.7159979 218.196644,100.14 C218.756646,100.564002 219.540639,100.776 220.548644,100.776 Z M232.524644,91.848 C232.924646,90.9999958 233.52064,90.3600022 234.312644,89.928 C235.104648,89.4959978 236.084638,89.28 237.252644,89.28 L237.252644,90.936 L236.844644,90.912 C235.516637,90.912 234.476647,91.3199959 233.724644,92.136 C232.97264,92.9520041 232.596644,94.0959926 232.596644,95.568 L232.596644,102 L230.892644,102 L230.892644,89.376 L232.524644,89.376 L232.524644,91.848 Z M247.164644,101.232 C246.844642,101.520001 246.448646,101.739999 245.976644,101.892 C245.504641,102.044001 245.012646,102.12 244.500644,102.12 C243.316638,102.12 242.404647,101.800003 241.764644,101.16 C241.12464,100.519997 240.804644,99.6160058 240.804644,98.448 L240.804644,90.816 L238.548644,90.816 L238.548644,89.376 L240.804644,89.376 L240.804644,86.616 L242.508644,86.616 L242.508644,89.376 L246.348644,89.376 L246.348644,90.816 L242.508644,90.816 L242.508644,98.352 C242.508644,99.1040038 242.696642,99.675998 243.072644,100.068 C243.448645,100.460002 243.98864,100.656 244.692644,100.656 C245.044645,100.656 245.384642,100.600001 245.712644,100.488 C246.040645,100.375999 246.324642,100.216001 246.564644,100.008 L247.164644,101.232 Z M254.676644,89.28 C256.324652,89.28 257.588639,89.6919959 258.468644,90.516 C259.348648,91.3400041 259.788644,92.5599919 259.788644,94.176 L259.788644,102 L258.156644,102 L258.156644,100.032 C257.772642,100.688003 257.208647,101.199998 256.464644,101.568 C255.72064,101.936002 254.836649,102.12 253.812644,102.12 C252.404637,102.12 251.284648,101.784003 250.452644,101.112 C249.620639,100.439997 249.204644,99.5520055 249.204644,98.448 C249.204644,97.3759946 249.59264,96.5120033 250.368644,95.856 C251.144647,95.1999967 252.380635,94.872 254.076644,94.872 L258.084644,94.872 L258.084644,94.104 C258.084644,93.0159946 257.780647,92.1880028 257.172644,91.62 C256.564641,91.0519972 255.676649,90.768 254.508644,90.768 C253.70864,90.768 252.940647,90.8999987 252.204644,91.164 C251.46864,91.4280013 250.836646,91.7919977 250.308644,92.256 L249.540644,90.984 C250.180647,90.4399973 250.948639,90.0200015 251.844644,89.724 C252.740648,89.4279985 253.684639,89.28 254.676644,89.28 Z M254.076644,100.776 C255.036648,100.776 255.86064,100.556002 256.548644,100.116 C257.236647,99.6759978 257.748642,99.0400042 258.084644,98.208 L258.084644,96.144 L254.124644,96.144 C251.964633,96.144 250.884644,96.8959925 250.884644,98.4 C250.884644,99.1360037 251.164641,99.7159979 251.724644,100.14 C252.284646,100.564002 253.068639,100.776 254.076644,100.776 Z M256.356644,87.264 C255.988642,87.264 255.660645,87.1800008 255.372644,87.012 C255.084642,86.8439992 254.772645,86.6080015 254.436644,86.304 C254.148642,86.0639988 253.920644,85.8920005 253.752644,85.788 C253.584643,85.6839995 253.404645,85.632 253.212644,85.632 C252.844642,85.632 252.548645,85.7679986 252.324644,86.04 C252.100642,86.3120014 251.980644,86.6879976 251.964644,87.168 L250.932644,87.168 C250.964644,86.367996 251.172642,85.7280024 251.556644,85.248 C251.940646,84.7679976 252.45264,84.528 253.092644,84.528 C253.460645,84.528 253.784642,84.6079992 254.064644,84.768 C254.344645,84.9280008 254.668642,85.1679984 255.036644,85.488 C255.292645,85.7120011 255.508643,85.8799994 255.684644,85.992 C255.860644,86.1040006 256.044643,86.16 256.236644,86.16 C256.588645,86.16 256.876642,86.0280013 257.100644,85.764 C257.324645,85.4999987 257.452643,85.1360023 257.484644,84.672 L258.516644,84.672 C258.484643,85.4560039 258.276646,86.0839976 257.892644,86.556 C257.508642,87.0280024 256.996647,87.264 256.356644,87.264 Z M269.580644,102.12 C268.364638,102.12 267.268648,101.844003 266.292644,101.292 C265.316639,100.739997 264.548646,99.9760049 263.988644,99 C263.428641,98.0239951 263.148644,96.9200062 263.148644,95.688 C263.148644,94.4559938 263.428641,93.3520049 263.988644,92.376 C264.548646,91.3999951 265.316639,90.6400027 266.292644,90.096 C267.268648,89.5519973 268.364638,89.28 269.580644,89.28 C270.79665,89.28 271.892639,89.5519973 272.868644,90.096 C273.844648,90.6400027 274.608641,91.3999951 275.160644,92.376 C275.712646,93.3520049 275.988644,94.4559938 275.988644,95.688 C275.988644,96.9200062 275.712646,98.0239951 275.160644,99 C274.608641,99.9760049 273.844648,100.739997 272.868644,101.292 C271.892639,101.844003 270.79665,102.12 269.580644,102.12 Z M269.580644,100.608 C270.476648,100.608 271.28064,100.404002 271.992644,99.996 C272.704647,99.587998 273.260642,99.0080038 273.660644,98.256 C274.060646,97.5039962 274.260644,96.6480048 274.260644,95.688 C274.260644,94.7279952 274.060646,93.8720038 273.660644,93.12 C273.260642,92.3679962 272.704647,91.788002 271.992644,91.38 C271.28064,90.971998 270.476648,90.768 269.580644,90.768 C268.684639,90.768 267.880647,90.971998 267.168644,91.38 C266.45664,91.788002 265.896646,92.3679962 265.488644,93.12 C265.080642,93.8720038 264.876644,94.7279952 264.876644,95.688 C264.876644,96.6480048 265.080642,97.5039962 265.488644,98.256 C265.896646,99.0080038 266.45664,99.587998 267.168644,99.996 C267.880647,100.404002 268.684639,100.608 269.580644,100.608 Z" id="A-cada-10€-que-pagar" fill="#FFFFFF"></path>
                    </g>
                </g>
            </g>
        </g>
    </g>
</svg>