<?xml version="1.0" encoding="UTF-8"?>
<svg width="320px" height="214px" viewBox="0 0 320 214" version="1.1" xmlns="http://www.w3.org/2000/svg" xmlns:xlink="http://www.w3.org/1999/xlink">
    <!-- Generator: Sketch 52.6 (67491) - http://www.bohemiancoding.com/sketch -->
    <title>Group 2 Copy 2</title>
    <desc>Created with Sketch.</desc>
    <defs>
        <linearGradient x1="0%" y1="0%" x2="100%" y2="100%" id="linearGradient-1">
            <stop stop-color="#E0119D" offset="0%"></stop>
            <stop stop-color="#FF7900" offset="100%"></stop>
        </linearGradient>
        <path d="M0.167039523,165.26254 C0.167039523,173.017947 7.49291573,179.387721 16.4653244,179.387721 L302.842655,179.387721 C311.791201,179.387721 319.14094,173.038628 319.14094,165.26254 L319.14094,130.158787 C312.38777,130.158787 306.923192,125.422819 306.923192,119.570072 C306.923192,113.717325 312.38777,108.981357 319.14094,108.981357 L319.14094,14.7042506 C319.14094,6.94884415 311.815063,0.579070346 302.842655,0.579070346 L16.4414616,0.579070346 C7.49291573,0.579070346 0.143176734,6.92816306 0.143176734,14.7042506 L0.143176734,108.981357 C6.89634601,108.981357 12.3609247,113.717325 12.3609247,119.570072 C12.3609247,125.422819 6.89634601,130.158787 0.143176734,130.158787 L0.143176734,165.26254 L0.167039523,165.26254 Z" id="path-2"></path>
    </defs>
    <g id="Cartoes" stroke="none" stroke-width="1" fill="none" fill-rule="evenodd">
        <g id="04---Cartão-Boost---02" transform="translate(-889.000000, -1984.000000)">
            <g id="Group-7" transform="translate(231.000000, 1984.000000)">
                <g id="Group-2-Copy-2" transform="translate(658.000000, 0.000000)">
                    <g id="Untitled-1">
                        <path d="M9.37807606,201.207855 C10.6666667,208.880537 18.9709172,214.257619 27.8478747,213.14084 L287.355705,177.383246 C296.208799,176.266468 302.413125,169.069451 301.124534,161.376087 L296.709918,135.131792 C290.028337,135.979717 283.824012,131.967586 282.8695,126.176883 C281.891126,120.386179 310.383296,115.009098 317.064877,114.181854 L299.955257,12.38956 C298.666667,4.71687795 290.362416,-0.660203828 281.485459,0.456574696 L21.9776286,36.2348496 C13.1245339,37.3516281 6.9202088,44.5486453 8.2087994,52.2420085 L25.3184191,154.034303 C32,153.186378 38.2043251,157.198509 39.1588367,162.989212 C40.137211,168.779915 11.645041,174.156997 4.9634601,174.984241 L9.37807606,201.207855 Z" id="Path" fill="#FFFFFF" opacity="0.153297061"></path>
                        <g id="Oval" transform="translate(0.000000, 17.539150)">
                            <mask id="mask-3" fill="white">
                                <use xlink:href="#path-2"></use>
                            </mask>
                            <use id="Mask" fill="url(#linearGradient-1)" xlink:href="#path-2"></use>
                            <circle fill="#FFFFFF" opacity="0.12125651" mask="url(#mask-3)" cx="13.9597315" cy="-6.44295302" r="83.7583893"></circle>
                        </g>
                        <path d="M0.167039523,182.80169 C0.167039523,190.557097 7.49291573,196.92687 16.4653244,196.92687 L302.842655,196.92687 C311.791201,196.92687 319.14094,190.577778 319.14094,182.80169 L319.14094,147.697937 C312.38777,147.697937 306.923192,142.961969 306.923192,137.109222 C306.923192,131.256475 312.38777,126.520507 319.14094,126.520507 L319.14094,32.2434004 C319.14094,24.487994 311.815063,18.1182202 302.842655,18.1182202 L16.4414616,18.1182202 C7.49291573,18.1182202 0.143176734,24.467313 0.143176734,32.2434004 L0.143176734,126.520507 C6.89634601,126.520507 12.3609247,131.256475 12.3609247,137.109222 C12.3609247,142.961969 6.89634601,147.697937 0.143176734,147.697937 L0.143176734,182.80169 L0.167039523,182.80169 Z" id="Path"></path>
                        <g id="Group" transform="translate(23.385533, 136.176982)" stroke="#E6E6E6" stroke-linecap="round" stroke-linejoin="round">
                            <path d="M0.69202088,2.00606513 L4.27143922,2.00606513" id="Path"></path>
                            <path d="M8.37583893,2.00606513 L268.766592,2.00606513" id="Path" stroke-dasharray="2.9759,3.9679"></path>
                            <path d="M269.196122,2.00606513 L272.775541,2.00606513" id="Path"></path>
                        </g>
                    </g>
                    <text id="VALE-1-PONTO" font-family="Simple-Bold" font-size="26" font-weight="bold" letter-spacing="-0.5200001" fill="#FFFFFF">
                        <tspan x="80.4873301" y="177">VALE 1 PONTO</tspan>
                    </text>
                    <text id="A-cada-10€-que-pagar" font-family="Montserrat-Regular, Montserrat" font-size="24" font-weight="normal" line-spacing="30" fill="#FFFFFF">
                        <tspan x="66.4206436" y="71">A cada </tspan>
                        <tspan x="154.308644" y="71" font-family="Montserrat-Bold, Montserrat" font-weight="bold">10€</tspan>
                        <tspan x="199.692644" y="71"> que </tspan>
                        <tspan x="42.2286436" y="101">pagar com o cartão</tspan>
                    </text>
                </g>
            </g>
        </g>
    </g>
</svg>