<?xml version="1.0" encoding="UTF-8"?>
<svg width="89px" height="135px" viewBox="0 0 89 135" version="1.1" xmlns="http://www.w3.org/2000/svg" xmlns:xlink="http://www.w3.org/1999/xlink">
    <!-- Generator: Sketch 52.6 (67491) - http://www.bohemiancoding.com/sketch -->
    <title>box-of-popcorn copy 2</title>
    <desc>Created with Sketch.</desc>
    <g id="Homepage" stroke="none" stroke-width="1" fill="none" fill-rule="evenodd" opacity="0.147600446">
        <g id="Cartão-Crédito-Full" transform="translate(-224.000000, -1146.000000)" fill="#FFFFFF">
            <g id="box-of-popcorn-copy-2" transform="translate(224.000000, 1146.000000)">
                <path d="M85.671,45.657 C83.97,46.521 82.071,47.061 80.0325,47.061 C78.858,47.061 77.6925,46.89 76.572,46.566 C73.971,49.8735 69.975,51.894 65.5605,51.894 C63.9135,51.894 62.3475,51.5565 60.8805,51.0345 C60.786,51.201 60.75,51.3855 60.642,51.5475 C58.41,55.1115 54.846,57.42 50.814,58.1895 L47.2005,120.9645 L42.201,120.978 L38.394,54.882 C36.1575,52.9695 34.578,50.5215 33.7995,47.7765 C31.248,50.319 27.729,51.8985 23.8455,51.8985 C19.431,51.8985 15.4305,49.878 12.8295,46.5705 C11.709,46.8945 10.5525,47.0655 9.3735,47.0655 C7.335,47.0655 5.436,46.53 3.735,45.657 C1.5255,48.411 0.4455,51.9255 0.837,55.449 L8.361,122.553 C9.117,129.303 14.814,134.3925 21.6,134.3925 L67.779,134.3925 C74.574,134.3925 80.2575,129.303 81.018,122.553 L88.542,55.4535 C88.9695,51.9255 87.8805,48.4155 85.671,45.657 Z M21.8025,121.041 L14.103,54.1395 L24.8445,54.108 L28.701,121.023 L21.8025,121.041 Z M67.644,120.8835 L60.7365,120.9105 L64.5885,53.973 L75.1545,53.9415 L67.644,120.8835 Z" id="Shape" fill-rule="nonzero"></path>
                <path d="M30.285,20.862 C31.257,20.3265 32.2965,19.9215 33.381,19.647 C33.2595,18.9495 33.165,18.2385 33.165,17.5095 C33.165,12.8295 35.748,8.7615 39.5595,6.6105 C38.124,3.798 35.235,1.854 31.8645,1.854 C27.0765,1.854 23.193,5.7375 23.193,10.5255 C23.193,10.8045 23.2515,11.07 23.2785,11.3445 C23.2515,11.3445 23.2245,11.34 23.193,11.34 C21.6,11.34 20.124,11.817 18.8775,12.618 C24.0705,12.933 28.449,16.236 30.285,20.862 Z" id="Path"></path>
                <path d="M37.908,19.377 C38.5155,19.4355 39.1275,19.449 39.717,19.5885 C42.2955,16.929 45.8415,15.399 49.653,15.399 C52.2495,15.399 54.7875,16.128 56.988,17.5095 C58.0005,18.1395 58.8645,18.918 59.67,19.7595 C61.0965,16.956 63.4635,14.715 66.393,13.518 C65.2905,12.573 63.9765,11.853 62.5185,11.484 C62.82,10.5975 63.027,9.6615 63.027,8.6715 C63.0315,3.8835 59.148,0 54.3555,0 C49.572,0 45.6885,3.8835 45.6885,8.6715 C45.6885,8.9505 45.747,9.216 45.7695,9.4905 C45.747,9.4905 45.72,9.486 45.6885,9.486 C41.2605,9.486 37.665,13.077 37.665,17.5095 C37.674,18.153 37.7685,18.774 37.908,19.377 Z" id="Path"></path>
                <path d="M62.766,24.9795 C62.8875,25.371 63.0585,25.7445 63.1575,26.154 C63.999,29.763 63.369,33.48 61.398,36.63 C61.344,36.7155 61.299,36.7965 61.2405,36.8775 C62.829,39.9555 63.189,43.4745 62.46,46.836 C63.441,47.1735 64.4715,47.394 65.565,47.394 C69.9165,47.394 73.539,44.487 74.7225,40.518 C76.1355,41.7735 77.9895,42.5655 80.0325,42.5655 C84.456,42.5655 88.056,38.9745 88.056,34.542 C88.056,30.1095 84.456,26.5185 80.0325,26.5185 C80.0055,26.5185 79.974,26.523 79.9425,26.523 C79.9695,26.2485 80.0325,25.983 80.0325,25.704 C80.0325,20.916 76.1535,17.0325 71.3565,17.0325 C66.825,17.028 63.1395,20.5335 62.766,24.9795 Z" id="Path"></path>
                <path d="M9.3915,42.561 C11.439,42.561 13.2795,41.7735 14.697,40.5135 C15.8805,44.4825 19.5075,47.3895 23.859,47.3895 C26.676,47.3895 29.1825,46.1565 30.9375,44.226 C30.5055,44.019 30.0735,43.8165 29.664,43.56 C23.508,39.7125 21.627,31.5675 25.4745,25.416 C25.785,24.9165 26.2035,24.5205 26.568,24.0795 C25.8075,20.0655 22.293,17.028 18.0585,17.028 C13.2705,17.028 9.387,20.9115 9.387,25.6995 C9.387,25.9785 9.4455,26.244 9.4725,26.5185 C9.4455,26.5185 9.4185,26.514 9.387,26.514 C4.959,26.514 1.3635,30.105 1.3635,34.5375 C1.368,38.9655 4.968,42.561 9.3915,42.561 Z" id="Path"></path>
                <path d="M54.6165,21.3255 C53.0685,20.3625 51.3495,19.899 49.6575,19.899 C46.539,19.899 43.4835,21.4605 41.706,24.3045 C41.544,24.561 41.445,24.8355 41.3145,25.101 C41.2875,25.083 41.2695,25.065 41.2425,25.047 C39.816,24.156 38.2275,23.7285 36.6525,23.7285 C33.7635,23.7285 30.9375,25.1685 29.295,27.801 C26.7615,31.86 27.9945,37.2105 32.0535,39.7485 C33.4665,40.6305 35.0325,41.0355 36.585,41.0355 C37.089,41.0355 37.593,40.995 38.0835,40.9095 C36.8955,45.2205 38.556,49.9635 42.5385,52.4565 C44.2485,53.5275 46.1475,54.036 48.0285,54.036 C51.489,54.036 54.8685,52.308 56.8305,49.158 C59.3955,45.0495 58.707,39.8655 55.512,36.513 C56.304,35.874 57.0195,35.136 57.591,34.2315 C60.336,29.8485 58.9995,24.066 54.6165,21.3255 Z" id="Path"></path>
            </g>
        </g>
    </g>
</svg>