<?xml version="1.0" encoding="UTF-8"?>
<svg width="329px" height="450px" viewBox="0 0 329 450" version="1.1" xmlns="http://www.w3.org/2000/svg" xmlns:xlink="http://www.w3.org/1999/xlink">
    <!-- Generator: Sketch 52.6 (67491) - http://www.bohemiancoding.com/sketch -->
    <title>box-of-popcorn copy 4</title>
    <desc>Created with Sketch.</desc>
    <g id="Cartoes" stroke="none" stroke-width="1" fill="none" fill-rule="evenodd">
        <g id="04---Cartão-Crédito---01" transform="translate(-943.000000, -1694.000000)">
            <g id="box-of-popcorn-copy-4" transform="translate(1104.500000, 1924.064613) scale(-1, 1) translate(-1104.500000, -1924.064613) translate(937.000000, 1694.064613)">
                <path d="M189.38,101.46 C185.6,103.38 181.38,104.58 176.85,104.58 C174.24,104.58 171.65,104.2 169.16,103.48 C163.38,110.83 154.5,115.32 144.69,115.32 C141.03,115.32 137.55,114.57 134.29,113.41 C134.08,113.78 134,114.19 133.76,114.55 C128.8,122.47 120.88,127.6 111.92,129.31 L103.89,268.81 L92.78,268.84 L84.32,121.96 C79.35,117.71 75.84,112.27 74.11,106.17 C68.44,111.82 60.62,115.33 51.99,115.33 C42.18,115.33 33.29,110.84 27.51,103.49 C25.02,104.21 22.45,104.59 19.83,104.59 C15.3,104.59 11.08,103.4 7.3,101.46 C2.39,107.58 -0.01,115.39 0.86,123.22 L17.58,272.34 C19.26,287.34 31.92,298.65 47,298.65 L149.62,298.65 C164.72,298.65 177.35,287.34 179.04,272.34 L195.76,123.23 C196.71,115.39 194.29,107.59 189.38,101.46 Z M47.45,268.98 L30.34,120.31 L54.21,120.24 L62.78,268.94 L47.45,268.98 Z M149.32,268.63 L133.97,268.69 L142.53,119.94 L166.01,119.87 L149.32,268.63 Z" id="Shape" fill="#8F23B3" fill-rule="nonzero"></path>
                <path d="M66.3,46.36 C68.46,45.17 70.77,44.27 73.18,43.66 C72.91,42.11 72.7,40.53 72.7,38.91 C72.7,28.51 78.44,19.47 86.91,14.69 C83.72,8.44 77.3,4.12 69.81,4.12 C59.17,4.12 50.54,12.75 50.54,23.39 C50.54,24.01 50.67,24.6 50.73,25.21 C50.67,25.21 50.61,25.2 50.54,25.2 C47,25.2 43.72,26.26 40.95,28.04 C52.49,28.74 62.22,36.08 66.3,46.36 Z" id="Path" fill="#FFFFFF"></path>
                <path d="M83.24,43.06 C84.59,43.19 85.95,43.22 87.26,43.53 C92.99,37.62 100.87,34.22 109.34,34.22 C115.11,34.22 120.75,35.84 125.64,38.91 C127.89,40.31 129.81,42.04 131.6,43.91 C134.77,37.68 140.03,32.7 146.54,30.04 C144.09,27.94 141.17,26.34 137.93,25.52 C138.6,23.55 139.06,21.47 139.06,19.27 C139.07,8.63 130.44,0 119.79,0 C109.16,0 100.53,8.63 100.53,19.27 C100.53,19.89 100.66,20.48 100.71,21.09 C100.66,21.09 100.6,21.08 100.53,21.08 C90.69,21.08 82.7,29.06 82.7,38.91 C82.72,40.34 82.93,41.72 83.24,43.06 Z" id="Path" fill="#FFFFFF"></path>
                <path d="M138.48,55.51 C138.75,56.38 139.13,57.21 139.35,58.12 C141.22,66.14 139.82,74.4 135.44,81.4 C135.32,81.59 135.22,81.77 135.09,81.95 C138.62,88.79 139.42,96.61 137.8,104.08 C139.98,104.83 142.27,105.32 144.7,105.32 C154.37,105.32 162.42,98.86 165.05,90.04 C168.19,92.83 172.31,94.59 176.85,94.59 C186.68,94.59 194.68,86.61 194.68,76.76 C194.68,66.91 186.68,58.93 176.85,58.93 C176.79,58.93 176.72,58.94 176.65,58.94 C176.71,58.33 176.85,57.74 176.85,57.12 C176.85,46.48 168.23,37.85 157.57,37.85 C147.5,37.84 139.31,45.63 138.48,55.51 Z" id="Path" fill="#FFFFFF"></path>
                <path d="M19.87,94.58 C24.42,94.58 28.51,92.83 31.66,90.03 C34.29,98.85 42.35,105.31 52.02,105.31 C58.28,105.31 63.85,102.57 67.75,98.28 C66.79,97.82 65.83,97.37 64.92,96.8 C51.24,88.25 47.06,70.15 55.61,56.48 C56.3,55.37 57.23,54.49 58.04,53.51 C56.35,44.59 48.54,37.84 39.13,37.84 C28.49,37.84 19.86,46.47 19.86,57.11 C19.86,57.73 19.99,58.32 20.05,58.93 C19.99,58.93 19.93,58.92 19.86,58.92 C10.02,58.92 2.03,66.9 2.03,76.75 C2.04,86.59 10.04,94.58 19.87,94.58 Z" id="Path" fill="#FFFFFF"></path>
                <path d="M120.195205,47.17 C116.755205,45.03 112.935205,44 109.175205,44 C102.245205,44 95.4552055,47.47 91.5052055,53.79 C91.1452055,54.36 90.9252055,54.97 90.6352055,55.56 C90.5752055,55.52 90.5352055,55.48 90.4752055,55.44 C87.3052055,53.46 83.7752055,52.51 80.2752055,52.51 C73.8552055,52.51 67.5752055,55.71 63.9252055,61.56 C58.2952055,70.58 61.0352055,82.47 70.0552055,88.11 C73.1952055,90.07 76.6752055,90.97 80.1252055,90.97 C81.2452055,90.97 82.3652055,90.88 83.4552055,90.69 C80.8152055,100.27 84.5052055,110.81 93.3552055,116.35 C97.1552055,118.73 101.375205,119.86 105.555205,119.86 C113.245205,119.86 120.755205,116.02 125.115205,109.02 C130.815205,99.89 129.285205,88.37 122.185205,80.92 C123.945205,79.5 125.535205,77.86 126.805205,75.85 C132.905205,66.11 129.935205,53.26 120.195205,47.17 Z" id="Path" fill="#FFFFFF"></path>
                <path d="M234.888932,279.820993 C232.945111,278.640128 230.786566,278.071768 228.661925,278.071768 C224.74603,278.071768 220.909245,279.986534 218.677241,283.473948 C218.473818,283.788478 218.349504,284.125079 218.185635,284.450645 C218.151732,284.428572 218.129129,284.4065 218.095225,284.384428 C216.303972,283.291852 214.309295,282.767637 212.331571,282.767637 C208.703859,282.767637 205.155256,284.533416 203.092772,287.76148 C199.911461,292.73877 201.459736,299.299743 206.556615,302.411929 C208.330917,303.493468 210.29734,303.990094 212.246811,303.990094 C212.879683,303.990094 213.512555,303.940431 214.128475,303.835588 C212.636705,309.121889 214.721792,314.937924 219.72261,317.994929 C221.869854,319.308227 224.254425,319.931768 226.616393,319.931768 C230.961736,319.931768 235.205368,317.812833 237.669048,313.950191 C240.889913,308.912203 240.025365,302.555398 236.01341,298.444444 C237.007923,297.660879 237.906375,296.755918 238.624006,295.646788 C242.070897,290.272198 240.392657,283.181491 234.888932,279.820993 Z" id="Path-Copy-2" fill="#FFFFFF" transform="translate(220.927688, 299.001768) rotate(-72.000000) translate(-220.927688, -299.001768) "></path>
                <path d="M316.509267,379.970753 C313.069267,377.830753 309.249267,376.800753 305.489267,376.800753 C298.559267,376.800753 291.769267,380.270753 287.819267,386.590753 C287.459267,387.160753 287.239267,387.770753 286.949267,388.360753 C286.889267,388.320753 286.849267,388.280753 286.789267,388.240753 C283.619267,386.260753 280.089267,385.310753 276.589267,385.310753 C270.169267,385.310753 263.889267,388.510753 260.239267,394.360753 C254.609267,403.380753 257.349267,415.270753 266.369267,420.910753 C269.509267,422.870753 272.989267,423.770753 276.439267,423.770753 C277.559267,423.770753 278.679267,423.680753 279.769267,423.490753 C277.129267,433.070753 280.819267,443.610753 289.669267,449.150753 C293.469267,451.530753 297.689267,452.660753 301.869267,452.660753 C309.559267,452.660753 317.069267,448.820753 321.429267,441.820753 C327.129267,432.690753 325.599267,421.170753 318.499267,413.720753 C320.259267,412.300753 321.849267,410.660753 323.119267,408.650753 C329.219267,398.910753 326.249267,386.060753 316.509267,379.970753 Z" id="Path-Copy" fill="#FFFFFF" transform="translate(291.801906, 414.730753) rotate(-14.000000) translate(-291.801906, -414.730753) "></path>
            </g>
        </g>
    </g>
</svg>