<?xml version="1.0" encoding="UTF-8"?>
<svg width="263px" height="175px" viewBox="0 0 263 175" version="1.1" xmlns="http://www.w3.org/2000/svg" xmlns:xlink="http://www.w3.org/1999/xlink">
    <!-- Generator: Sketch 52.5 (67469) - http://www.bohemiancoding.com/sketch -->
    <title>credito</title>
    <desc>Created with Sketch.</desc>
    <g id="credito" stroke="none" stroke-width="1" fill="none" fill-rule="evenodd">
        <g id="cartaoCredito" transform="translate(0.000000, 2.000000)">
            <g id="Group" transform="translate(131.418991, 152.226434) rotate(-60.000000) translate(-131.418991, -152.226434) translate(-0.581009, 76.726434)">
                <rect id="Rectangle" fill="#FF7900" x="0.00820586188" y="-0.000283803616" width="263.959317" height="150.059264" rx="11"></rect>
                <rect id="Rectangle" fill="#FFFFFF" x="132.474874" y="-0.000283803617" width="131.492649" height="150.059264" rx="11"></rect>
                <path d="M181.669992,-0.000283803617 C220.66643,-0.000283803617 252.279288,33.5916266 252.279288,75.0293481 C252.279288,116.46707 220.66643,150.05898 181.669992,150.05898 L64.2935009,150.05898 L64.2935009,-0.000283803617 L181.669992,-0.000283803617 Z" id="Color" fill="#FFFFFF" transform="translate(158.286394, 75.029348) scale(-1, 1) translate(-158.286394, -75.029348) "></path>
                <g id="logo" transform="translate(131.500855, 11.692646)">
                    <path d="M4.64067616,2.34990035 L4.12550043,2.34990035 L2.53530484,9.00378628 L6.23087176,9.00378628 L4.64067616,2.34990035 Z M8.09987273,16.5649837 L7.21878822,16.5649837 C6.87558589,16.5649837 6.57444633,16.2626809 6.57444633,15.8438907 L6.57444633,11.3536867 L2.19173026,11.3536867 L2.19173026,15.8438907 C2.19173026,16.2626809 1.8905907,16.5649837 1.54701613,16.5649837 L0.665931632,16.5649837 C0.300767333,16.5649837 0,16.2626809 0,15.8438907 L0,10.0973163 L0.0215897343,9.9574508 L2.3205242,0.51189939 C2.38492116,0.209596601 2.66409877,0 2.96486609,0 L5.80093826,0 C6.10170559,0 6.38125543,0.209596601 6.44602463,0.51189939 L8.74458685,9.9574508 L8.76617659,10.0973163 L8.76617659,15.8438907 C8.76617659,16.2626809 8.46540926,16.5649837 8.09987273,16.5649837 Z" id="Shape" fill="#FF7900" fill-rule="nonzero"></path>
                    <path d="M16.3345953,16.5649837 L15.8076373,16.5649837 C13.5325889,16.5649837 11.6882355,14.8441648 11.6882355,12.7262045 L11.6882355,8.66649397 C11.6882355,6.57032104 13.5325889,4.87205402 15.8076373,4.87205402 L16.3345953,4.87205402 C18.6100587,4.87205402 20.4544121,6.57032104 20.4544121,8.66649397 C20.4544121,9.06363541 20.1187356,9.35069337 19.7357574,9.35069337 L18.7536236,9.35069337 C18.3465795,9.35069337 18.0353838,9.06363541 18.0353838,8.66649397 C18.0353838,7.80608455 17.2690125,7.10048002 16.3345953,7.10048002 L15.8076373,7.10048002 C14.873635,7.10048002 14.1072637,7.80608455 14.1072637,8.66649397 L14.1072637,12.7262045 C14.1072637,13.5866139 14.873635,14.3147703 15.8076373,14.3147703 L16.3345953,14.3147703 C17.2690125,14.3147703 18.0353838,13.5866139 18.0353838,12.7262045 C18.0353838,12.3512327 18.3465795,12.0420051 18.7536236,12.0420051 L19.7357574,12.0420051 C20.1187356,12.0420051 20.4544121,12.3512327 20.4544121,12.7262045 C20.4544121,14.8441648 18.6100587,16.5649837 16.3345953,16.5649837 Z" id="Shape" fill="#FF7900"></path>
                    <path d="M27.2319406,16.5649837 C25.0473453,16.5649837 23.2948591,14.7779723 23.2948591,12.5785433 L23.2948591,7.44614513 L22.1112902,7.44614513 C21.7473881,7.44614513 21.4284317,7.12541986 21.4284317,6.73642139 L21.4284317,5.81989338 C21.4284317,5.43010103 21.7473881,5.10897884 22.1112902,5.10897884 L23.2948591,5.10897884 L23.2948591,0.66447289 C23.2948591,0.298099844 23.5905542,0 23.9777176,0 L24.910537,0 C25.2744391,0 25.6158684,0.298099844 25.6158684,0.66447289 L25.6158684,5.10897884 L29.5304771,5.10897884 C29.9168521,5.10897884 30.2354142,5.43010103 30.2354142,5.81989338 L30.2354142,6.73642139 C30.2354142,7.12541986 29.9168521,7.44614513 29.5304771,7.44614513 L25.6158684,7.44614513 L25.6158684,12.5785433 C25.6158684,13.4720489 26.321594,14.2282143 27.2319406,14.2282143 C28.1194201,14.2282143 28.8472243,13.4720489 28.8472243,12.5785433 L28.8472243,12.1200807 C28.8472243,11.7306853 29.1657865,11.4099601 29.5304771,11.4099601 L30.4632965,11.4099601 C30.8500657,11.4099601 31.1686279,11.7306853 31.1686279,12.1200807 L31.1686279,12.5785433 C31.1686279,14.7779723 29.3936688,16.5649837 27.2319406,16.5649837 Z" id="Shape" fill="#FF7900"></path>
                    <path d="M48.129826,16.1439629 C48.0643148,16.3544732 47.7803069,16.5649837 47.5178835,16.5649837 L45.9880272,16.5649837 C45.7259825,16.5649837 45.4412171,16.3544732 45.375706,16.1439629 L41.9225477,6.70966696 C41.7695621,6.24632515 42.0751546,5.84646482 42.5564535,5.84646482 L43.736412,5.84646482 C43.976872,5.84646482 44.2828434,6.03581474 44.3703178,6.26712081 L46.7529554,13.764502 L49.3760529,6.26712081 C49.4631488,6.03581474 49.7471568,5.84646482 50.0095801,5.84646482 L50.9498359,5.84646482 C51.4303773,5.84646482 51.7363486,6.24632515 51.583363,6.70966696 L48.129826,16.1439629 Z" id="Shape" fill="#FF7900"></path>
                    <path d="M59.918113,8.66649397 C59.918113,7.80608455 59.1517054,7.10048002 58.217659,7.10048002 L57.690676,7.10048002 C56.7566295,7.10048002 55.9902219,7.80608455 55.9902219,8.66649397 L55.9902219,12.7262045 C55.9902219,13.5866139 56.7566295,14.3147703 57.690676,14.3147703 L58.217659,14.3147703 C59.1517054,14.3147703 59.918113,13.5866139 59.918113,12.7262045 L59.918113,8.66649397 Z M58.217659,16.5649837 L57.690676,16.5649837 C55.415105,16.5649837 53.5710792,14.8441648 53.5710792,12.7262045 L53.5710792,8.66649397 C53.5710792,6.57032104 55.415105,4.87205402 57.690676,4.87205402 L58.217659,4.87205402 C60.492815,4.87205402 62.3372558,6.57032104 62.3372558,8.66649397 L62.3372558,12.7262045 C62.3372558,14.8441648 60.492815,16.5649837 58.217659,16.5649837 Z" id="Shape" fill="#FF7900" fill-rule="nonzero"></path>
                    <path d="M80.7073024,10.7844543 C79.7165736,11.2920614 78.9627988,11.314231 78.144095,11.6892028 C77.4981622,11.953709 77.1750093,12.4831035 77.1750093,12.9467537 L77.1750093,13.299556 C77.1750093,13.7192493 77.4981622,14.3147703 78.27358,14.3147703 L78.704575,14.3147703 C79.7811296,14.3147703 80.7073024,13.6745278 80.7073024,12.7262045 L80.7073024,10.7844543 Z M83.1197547,16.3222648 L82.6671167,16.3222648 C82.107383,16.3222648 81.6122052,16.0795461 81.2457662,15.704192 C80.4916183,16.2339687 79.5870885,16.5649837 78.704575,16.5649837 L78.27358,16.5649837 C76.4425045,16.5649837 74.9995109,15.2191367 74.9995109,13.4100217 L74.9995109,12.9467537 C74.9995109,10.7408795 76.7227444,10.0562979 78.165738,9.61519952 C78.5318039,9.50511603 80.7073024,9.17371889 80.7073024,8.35726642 C80.7073024,7.58553535 80.1471954,7.10048002 79.1781098,7.10048002 L78.9411558,7.10048002 C78.1011821,7.10048002 77.4119632,7.80608455 77.4119632,8.66649397 C77.4119632,9.06363541 77.1100802,9.35069337 76.7443875,9.35069337 L75.8827707,9.35069337 C75.5167049,9.35069337 75.2148218,9.06363541 75.2148218,8.66649397 C75.2148218,6.57032104 76.8731262,4.87205402 78.9411558,4.87205402 L79.1781098,4.87205402 C81.0950113,4.87205402 82.8828008,6.21790101 82.8828008,8.46811437 L82.8828008,13.8515023 C82.8828008,13.9615858 82.9906428,14.0716693 83.1197547,14.0716693 C83.4641775,14.0716693 83.7656875,14.3805146 83.7656875,14.7558687 L83.7656875,15.6384477 C83.7656875,16.0355892 83.4641775,16.3222648 83.1197547,16.3222648 Z" id="Shape" fill="#000000" fill-rule="nonzero"></path>
                    <path d="M94.7139935,16.5649837 L93.7580445,16.5649837 C93.3760788,16.5649837 93.0181152,16.2722311 93.0181152,15.8666711 L93.0181152,8.74692758 C93.0181152,7.86827941 92.2773582,7.14771765 91.3218229,7.14771765 L90.8442623,7.14771765 C89.9127293,7.14771765 89.1243818,7.86827941 89.1243818,8.74692758 L89.1243818,15.8666711 C89.1243818,16.2722311 88.8135948,16.5649837 88.4076269,16.5649837 L87.4285033,16.5649837 C87.0461238,16.5649837 86.6877463,16.2722311 86.6877463,15.8666711 L86.6877463,5.77295139 C86.6877463,5.41267051 87.0461238,5.09727836 87.4285033,5.09727836 L88.4076269,5.09727836 C88.5988166,5.09727836 88.8135948,5.16480663 88.9331919,5.29986317 C89.5063475,5.00711055 90.1515096,4.87205402 90.8442623,4.87205402 L91.3218229,4.87205402 C93.5912707,4.87205402 95.4539229,6.60632049 95.4539229,8.74692758 L95.4539229,15.8666711 C95.4539229,16.2722311 95.1435499,16.5649837 94.7139935,16.5649837 Z" id="Shape" fill="#000000"></path>
                    <path d="M106.452358,16.5649837 L105.295186,16.5649837 C105.142409,16.5649837 104.902655,16.4255213 104.793368,16.286059 L101.169832,11.470174 L100.580658,12.0747796 L100.580658,15.8438907 C100.580658,16.2626809 100.29666,16.5649837 99.925684,16.5649837 L99.0305775,16.5649837 C98.6815356,16.5649837 98.3759818,16.2626809 98.3759818,15.8438907 L98.3759818,0.674739827 C98.3759818,0.30270586 98.6815356,0 99.0305775,0 L99.925684,0 C100.29666,0 100.580658,0.30270586 100.580658,0.674739827 L100.580658,8.72486158 L104.160327,4.93237232 C104.247682,4.81628805 104.487436,4.72317879 104.640591,4.72317879 L105.88436,4.72317879 C106.539713,4.72317879 106.823334,5.4442717 106.34307,5.93238994 L102.741468,9.77163533 L106.97611,15.4017225 C107.347085,15.9132189 107.063465,16.5649837 106.452358,16.5649837 Z" id="Shape" fill="#000000"></path>
                    <path d="M38.1798288,3.30356488 L36.3399313,3.30356488 C35.953848,3.30356488 35.6358507,2.97788401 35.6358507,2.58247197 L35.6358507,0.674739827 C35.6358507,0.30270586 35.953848,0 36.3399313,0 L38.1798288,0 C38.5663056,0 38.8614764,0.30270586 38.8614764,0.674739827 L38.8614764,2.58247197 C38.8614764,2.97788401 38.5663056,3.30356488 38.1798288,3.30356488 Z M41.2011962,16.5649837 L33.8207476,16.5649837 C33.4342708,16.5649837 33.1166671,16.2626809 33.1166671,15.8438907 L33.1166671,14.9132012 C33.1166671,14.5173861 33.4342708,14.1917052 33.8207476,14.1917052 L36.3399313,14.1917052 L36.3399313,7.09605415 L34.7523064,7.09605415 C34.3662232,7.09605415 34.0482259,6.77037328 34.0482259,6.37455816 L34.0482259,5.42089362 C34.0482259,5.04845658 34.3662232,4.72317879 34.7523064,4.72317879 L37.9527441,4.72317879 C38.3167879,4.72317879 38.6568246,5.04845658 38.6568246,5.42089362 L38.6568246,14.1917052 L41.2011962,14.1917052 C41.5648465,14.1917052 41.8828437,14.5173861 41.8828437,14.9132012 L41.8828437,15.8438907 C41.8828437,16.2626809 41.5648465,16.5649837 41.2011962,16.5649837 Z" id="Shape" fill="#FF7900" fill-rule="nonzero"></path>
                    <path d="M70.6795137,11.1208218 C70.6795137,10.1900237 69.9357096,9.4687558 69.0288082,9.4687558 L66.6568503,9.4687558 L66.6568503,14.1920528 L69.0288082,14.1920528 C69.9357096,14.1920528 70.6795137,13.4707849 70.6795137,12.5399868 L70.6795137,11.1208218 Z M70.4237932,4.00202913 C70.4237932,3.09419872 69.7033463,2.34996314 68.7730877,2.34996314 L66.6568503,2.34996314 L66.6568503,7.09582492 L68.7730877,7.09582492 C69.7033463,7.09582492 70.4237932,6.32821864 70.4237932,5.42119412 L70.4237932,4.00202913 Z M69.0288082,16.5649837 L64.9827876,16.5649837 C64.6110869,16.5649837 64.285295,16.2623736 64.285295,15.8441187 L64.285295,0.6749294 C64.285295,0.302207194 64.6110869,0 64.9827876,0 L68.7730877,0 C71.0049028,0 72.7953485,1.76811356 72.7953485,4.00202913 L72.7953485,5.42119412 C72.7953485,6.49100758 72.4002906,7.4214028 71.7487069,8.14307358 C72.5400308,8.88730916 73.0514716,9.95752553 73.0514716,11.1208218 L73.0514716,12.5399868 C73.0514716,14.7505316 71.2376688,16.5649837 69.0288082,16.5649837 Z" id="Shape" fill="#000000" fill-rule="nonzero"></path>
                </g>
                <path d="M203.66093,131.358543 C202.676245,130.792255 201.542567,130.339044 200.266646,130.030132 L200.306059,129.794297 L205.28297,129.794297 L205.28297,129.794284 C205.953174,129.819501 206.495116,130.033501 206.681912,130.750784 L207.726196,135.773933 C207.747018,135.836086 207.766596,135.89811 207.784894,135.959965 L208.101771,137.582785 L211.075277,129.596353 L211.075292,129.596359 L214.292523,129.596353 L209.510861,141.285276 L206.29732,141.289283 L203.66093,131.358543 Z M214.292523,141.289283 L216.166067,129.596353 L219.162621,129.596353 L217.287857,141.289283 L214.292523,141.289283 Z M228.902795,130.072081 L228.902817,130.072079 L228.462827,132.526996 L228.171828,132.39653 C227.572756,132.167029 226.804005,131.946511 225.742376,131.962565 C224.471616,131.962565 223.883541,132.465974 223.883477,132.936968 C223.876104,133.467565 224.571074,133.816951 225.705647,134.341272 C227.578321,135.149774 228.44317,136.130266 228.430883,137.419113 C228.405703,139.770444 226.19063,141.289099 222.778443,141.289283 C221.3228,141.275015 219.920898,141.000981 219.162621,140.684628 L219.618197,138.148702 L220.036459,138.329053 C221.102483,138.752004 221.792736,138.923497 223.091946,138.92362 C224.024952,138.92362 225.025989,138.576388 225.033943,137.817462 C225.039958,137.321555 224.615227,136.967128 223.351712,136.412296 C222.120399,135.870446 220.489385,134.962352 220.507427,133.334703 C220.526552,131.13272 222.786067,129.596045 225.993391,129.596353 C227.25193,129.596353 228.25969,129.842151 228.902795,130.072081 Z M236.228083,129.596366 L236.228087,129.596353 L238.643013,141.289028 L235.874245,141.289283 C235.874245,141.289283 235.600583,139.945607 235.511186,139.536151 C235.076085,139.536151 232.032584,139.531132 231.690092,139.531132 C231.574187,139.847575 231.061814,141.289028 231.061814,141.289028 L227.928797,141.289028 L232.359912,130.567119 C232.673636,129.805192 233.20818,129.596366 233.92235,129.596366 L236.228083,129.596366 Z M232.473954,137.105267 L235.036038,137.105452 C234.912514,136.53838 234.321749,133.834033 234.321749,133.834033 L234.112879,132.857664 C233.956949,133.282953 233.685546,133.968804 233.703624,133.938848 C233.703624,133.938848 232.729245,136.452506 232.473953,137.105266 L232.473954,137.105267 Z" id="VISA" fill="#004686" fill-rule="nonzero"></path>
            </g>
        </g>
    </g>
</svg>