<?xml version="1.0" encoding="UTF-8"?>
<svg width="137px" height="162px" viewBox="0 0 137 162" version="1.1" xmlns="http://www.w3.org/2000/svg" xmlns:xlink="http://www.w3.org/1999/xlink">
    <!-- Generator: Sketch 52.6 (67491) - http://www.bohemiancoding.com/sketch -->
    <title>wiping-sprayer-tool</title>
    <desc>Created with Sketch.</desc>
    <g id="Cartoes" stroke="none" stroke-width="1" fill="none" fill-rule="evenodd" opacity="0.2">
        <g id="04---Cartão-Boost---02" transform="translate(-913.000000, -2976.000000)" fill="#FFFFFF">
            <g id="Group-4-Copy-2" transform="translate(731.000000, 2976.000000)">
                <g id="wiping-sprayer-tool">
                    <g>
                        <g transform="translate(182.000000, -32.000000)">
                            <ellipse id="Oval" cx="20.3747802" cy="36.7628049" rx="4.72707204" ry="4.67079737"></ellipse>
                            <ellipse id="Oval" cx="4.90317412" cy="47.6347373" rx="4.72707204" ry="4.67079737"></ellipse>
                            <path d="M62.1412211,193.232617 L63.0460833,193.760966 L125.315472,193.760966 L126.304156,191.43 C132.30957,177.269437 135.68345,162.484784 136.332746,147.486107 C136.851312,135.494662 135.638335,123.347955 132.727139,111.383865 C127.762701,90.9849343 119.637654,78.2630206 119.293652,77.7316323 L118.160139,75.9768856 L87.8862176,75.9768856 L87.8862176,79.7761351 C87.8862176,99.5185553 79.0872655,108.104353 69.7715423,117.193931 C61.3937485,125.367889 52.7311666,133.820713 50.9811682,149.958912 C49.4605895,163.981435 50.6971491,175.371332 54.6552164,183.811238 C57.8255666,190.571116 61.7087841,192.980094 62.1412211,193.232617 Z M113.871144,83.5753846 C116.887693,88.8388649 122.036692,99.8214822 125.319061,113.446604 C126.383363,117.863358 127.197995,122.305188 127.769366,126.752083 L109.083064,126.752083 C110.924061,115.52682 111.637954,100.974428 108.950795,83.5753846 L113.871144,83.5753846 Z M75.1745695,122.600769 C84.1924316,113.801961 94.3440629,103.894278 95.4727055,83.5753846 L101.167186,83.5753846 C104.037367,101.263677 103.20633,115.83152 101.288432,126.751829 L70.9906711,126.751829 C72.3343787,125.373462 73.736787,124.003959 75.1745695,122.600769 Z" id="Shape" fill-rule="nonzero"></path>
                            <path d="M52.3371799,36.7628049 L58.8324501,36.7628049 L58.8324501,14.0144184 L52.3371799,14.0144184 C49.3716413,14.0144184 46.9672199,16.3899625 46.9672199,19.3204503 L46.9672199,31.4570263 C46.9672199,34.3872608 49.3716413,36.7628049 52.3371799,36.7628049 Z" id="Path"></path>
                            <path d="M73.4904492,45.8442777 C73.1364506,45.5476829 72.7745058,45.2743902 72.4051272,45.0198405 C70.7956003,44.0935835 68.8884685,43.3638743 66.627851,42.9629268 C66.627851,42.9629268 62.8989471,66.192045 55.6028866,73.4009944 C48.3070824,80.6099437 59.8183142,83.0130957 65.006789,71.7989775 C70.1055467,60.7776079 78.019887,57.805075 80.7529298,57.7060413 C80.3333095,56.4535553 79.8357635,55.1569981 79.2443988,53.8695591 C77.6543534,50.410469 75.7187685,47.710469 73.4904492,45.8442777 Z" id="Path"></path>
                            <path d="M115.705476,66.5600657 C115.705476,44.0449531 127.520465,38.3541839 133.852706,36.9211069 C135.625006,36.5199062 136.38145,34.4374109 135.283055,33.0061069 C122.862347,16.8283959 108.771873,14.0144184 102.086659,14.0144184 C95.2381591,14.0144184 66.8780339,14.0144184 64.6199797,14.0144184 L64.4723307,14.0144184 L64.4723307,36.7628049 L64.4723307,37.0832083 C85.8734759,37.0832083 88.4678415,66.5600657 88.4678415,66.5600657 L115.705476,66.5600657 Z" id="Path"></path>
                        </g>
                    </g>
                </g>
            </g>
        </g>
    </g>
</svg>