<?xml version="1.0" encoding="UTF-8"?>
<svg width="160px" height="54px" viewBox="0 0 160 54" version="1.1" xmlns="http://www.w3.org/2000/svg" xmlns:xlink="http://www.w3.org/1999/xlink">
    <!-- Generator: Sketch 52.6 (67491) - http://www.bohemiancoding.com/sketch -->
    <title>Download_on_the_App_Store_Badge_PTPT_RGB_wht_100317</title>
    <desc>Created with Sketch.</desc>
    <g id="Homepage" stroke="none" stroke-width="1" fill="none" fill-rule="evenodd">
        <g transform="translate(-108.000000, -7336.000000)" fill="#FFFFFF" fill-rule="nonzero" id="App-">
            <g transform="translate(-186.000000, 6769.000000)">
                <g id="Download-App" transform="translate(186.000000, 525.000000)">
                    <g id="Download_on_the_App_Store_Badge_PTPT_RGB_wht_100317" transform="translate(108.000000, 42.000000)">
                        <g id="Group">
                            <g id="Combined-Shape">
                                <path d="M146.84636,-2.71050543e-20 L146.84636,-0.000173333333 C147.32556,-0.000173333333 147.812493,-0.000173333333 148.291693,0.00249333333 C148.69796,0.00509333333 149.114627,0.0129066667 149.520893,0.0194133333 C150.414517,0.0293436865 151.306046,0.108137044 152.18756,0.255093333 C153.072511,0.40565388 153.930043,0.687423174 154.731827,1.09109333 C156.335431,1.91470053 157.640526,3.22026144 158.46356,4.82416 C158.865785,5.6233377 159.144124,6.47904213 159.289027,7.36192 C159.437716,8.24431423 159.520434,9.13656326 159.536493,10.0312533 C159.541693,10.4401067 159.541693,10.8502667 159.541693,11.25912 C159.552093,11.7421867 159.552093,12.22656 159.552093,12.71484 L159.552093,40.6197333 C159.552093,41.112 159.552093,41.5937333 159.541693,42.0781333 C159.541693,42.4921333 159.541693,42.8932 159.536493,43.3073333 C159.520431,44.201979 159.437713,45.0941835 159.289027,45.9765333 C159.144526,46.859926 158.866172,47.716121 158.46356,48.5156 C158.054577,49.3112763 157.522917,50.0376291 156.888093,50.668 C156.258,51.3037988 155.529996,51.8344061 154.731827,52.2396 C153.930045,52.6443485 153.072605,52.9277952 152.18756,53.0806667 C151.305894,53.2264286 150.414458,53.3052316 149.520893,53.3164 C149.114627,53.3254667 148.69796,53.3306667 148.291693,53.3306667 C147.812493,53.3333333 147.32556,53.3333333 146.84636,53.3333333 L12.7129067,53.3333333 C12.224,53.3333333 11.7408933,53.3333333 11.2532667,53.3306667 C10.8450667,53.3306667 10.44012,53.3254667 10.028,53.3164 C9.13274321,53.3046043 8.23962546,53.2258063 7.35613333,53.0806667 C6.47393393,52.9288638 5.6195573,52.6453421 4.82162667,52.2396 C4.02273631,51.8346406 3.29405976,51.3040187 2.66342667,50.668 C2.02696108,50.0400883 1.49643407,49.3132039 1.09246667,48.5156 C0.686810877,47.7167022 0.405781271,46.8604387 0.259133333,45.9765333 C0.110684506,45.0943045 0.0308010907,44.2019016 0.0202,43.3073333 C0.00782666667,42.8932 0.00652,42.4921333 0,42.0781333 L0,11.25912 C0.00652,10.8502667 0.00782666667,10.4401067 0.0202,10.0313067 C0.0307978409,9.13669406 0.110681255,8.24424654 0.259133333,7.36197333 C0.406187331,6.47858439 0.687200322,5.62281216 1.09246667,4.82421333 C1.49661758,4.02402184 2.02707,3.29418266 2.66342667,2.66276 C3.29646002,2.02955671 4.02466588,1.49929562 4.82162667,1.09121333 C5.61956336,0.68655432 6.47403211,0.404710171 7.35613333,0.255213333 C8.23947529,0.10890168 9.13268491,0.0301357381 10.028,0.0196 C10.44012,0.01308 10.8450667,0.00533333333 11.2532667,0.00266666667 C11.7409067,-2.71050543e-20 12.2239733,-2.71050543e-20 12.7129067,-2.71050543e-20 L146.84636,-2.71050543e-20 Z M11.2597733,52.1666667 L146.84636,52.1693333 L148.291693,52.1666667 C148.68876,52.1666667 149.097693,52.1614667 149.488227,52.1524 C150.323247,52.1422402 151.156333,52.069548 151.980493,51.9349333 C152.754435,51.8036537 153.504181,51.5565249 154.204493,51.2018667 C154.895638,50.8505903 155.525668,50.3902462 156.07036,49.8385333 C156.616066,49.2976883 157.073057,48.6741615 157.424493,47.9909333 C157.77724,47.2900175 158.02008,46.5390149 158.144493,45.7642667 C158.280648,44.9471523 158.356807,44.1211676 158.37236,43.2929333 C158.37756,42.8841333 158.37756,42.4869333 158.37756,42.0533333 C158.388093,41.5768 158.388093,41.1041333 158.388093,40.6197333 L158.388093,12.71484 C158.388093,12.2350267 158.388093,11.75912 158.37756,11.25912 C158.37756,10.8554667 158.37756,10.4498667 158.373693,10.0722667 C158.357796,9.22898445 158.280346,8.38798851 158.14196,7.55598667 C158.016318,6.79134234 157.77573,6.05010342 157.42836,5.35742667 C156.718055,3.97221726 155.592118,2.8439814 154.20836,2.13085333 C153.506103,1.77815405 152.755251,1.53196676 151.980493,1.40038667 C151.161162,1.26593334 150.332858,1.1934656 149.502627,1.1836 L148.28516,1.16666667 L11.2604267,1.16666667 L10.0573333,1.18294667 C9.21948112,1.19332811 8.38358311,1.26644818 7.55665333,1.40169333 C6.78966059,1.53164339 6.04655289,1.7761248 5.35222667,2.12694667 C4.66150882,2.48080549 4.0305771,2.94082856 3.48244,3.49024 C2.93368611,4.03448039 2.47660643,4.66392513 2.12892,5.35417333 C1.77591583,6.05166516 1.5315583,6.79900011 1.40430667,7.57030667 C1.26754953,8.39553746 1.19376777,9.22997607 1.1836,10.0664 C1.1758,10.33724 1.16401333,11.25912 1.16401333,11.25912 L1.16401333,42.0598667 C1.16401333,42.0598667 1.17508,42.9961333 1.18353333,43.2773333 C1.1941525,44.1150843 1.26836581,44.9508198 1.40553333,45.7773333 C1.53255051,46.5465328 1.77671901,47.2917189 2.12953333,47.9869333 C2.47850231,48.6776586 2.93813377,49.3066337 3.49021333,49.8489333 C4.03441569,50.3976971 4.66333561,50.8553636 5.35288,51.2044 C6.04880566,51.5563526 6.7933204,51.8025709 7.56186667,51.9349333 C8.38608956,52.0688334 9.2190957,52.141521 10.0540533,52.1524 C10.4571067,52.1614667 10.8535333,52.1666667 11.2597733,52.1666667 Z"></path>
                            </g>
                            <g id="_Group_" transform="translate(12.000000, 10.333333)">
                                <g id="_Group_2">
                                    <g id="_Group_3">
                                        <path d="M21.3289467,16.1858 C21.3592536,13.8335953 22.5924134,11.6608745 24.5963867,10.4288533 C23.3264272,8.615128 21.275586,7.50641403 19.0625333,7.43717333 C16.7342133,7.19277333 14.4770267,8.8304 13.2905333,8.8304 C12.0811067,8.8304 10.25436,7.46144 8.28724,7.50190667 C5.69903884,7.58552673 3.34462663,9.0213964 2.08541333,11.2841733 C-0.596066667,15.92684 1.40408,22.7500267 3.97276,26.50284 C5.25793333,28.34048 6.75992,30.39316 8.72526667,30.3203733 C10.6484667,30.2406 11.3667467,29.0940133 13.6882,29.0940133 C15.98812,29.0940133 16.662,30.3203733 18.6672267,30.2740933 C20.73092,30.2406 22.03112,28.4282933 23.2712267,26.5732533 C24.1946225,25.2638713 24.9051736,23.8167184 25.37656,22.2854 C22.9255242,21.2487326 21.3317991,18.8470493 21.3289467,16.1858 Z" id="_Path_"></path>
                                        <path d="M17.54148,4.96908 C18.6666946,3.61831362 19.2210477,1.88212682 19.0868133,0.129226667 C17.3677514,0.309779905 15.7798193,1.131379 14.6394133,2.43032 C13.5133133,3.71190146 12.9428342,5.38855391 13.0536267,7.09098667 C14.7957311,7.10891914 16.4498215,6.32684693 17.54148,4.96908 Z" id="_Path_2"></path>
                                    </g>
                                </g>
                                <g id="Group" transform="translate(33.333333, 13.333333)">
                                    <path d="M11.06904,12.5195333 L4.75784,12.5195333 L3.24221333,16.9948 L0.56904,16.9948 L6.54690667,0.437466667 L9.32424,0.437466667 L15.3021067,16.9948 L12.58336,16.9948 L11.06904,12.5195333 Z M5.41149333,10.4544267 L10.41416,10.4544267 L7.948,3.1914 L7.87893333,3.1914 L5.41149333,10.4544267 Z" id="Shape"></path>
                                    <path d="M28.2122667,10.95964 C28.2122667,14.7109467 26.2044533,17.1210933 23.1745067,17.1210933 C21.6083537,17.2030195 20.1331232,16.3827076 19.3763333,15.0090933 L19.319,15.0090933 L19.319,20.9882667 L16.8411333,20.9882667 L16.8411333,4.92317333 L19.2395733,4.92317333 L19.2395733,6.93098667 L19.2851467,6.93098667 C20.0755577,5.56598389 21.552379,4.74602512 23.1288933,4.79686667 C26.1927333,4.79688 28.2122667,7.21874667 28.2122667,10.95964 Z M25.6653867,10.95964 C25.6653867,8.51564 24.40236,6.90885333 22.47528,6.90885333 C20.5820533,6.90885333 19.3086133,8.54948 19.3086133,10.95964 C19.3086133,13.3919333 20.5820533,15.02084 22.47528,15.02084 C24.4023733,15.02084 25.6653333,13.4257867 25.6653333,10.95964 L25.6653867,10.95964 Z" id="Shape"></path>
                                    <path d="M41.4993733,10.95964 C41.4993733,14.7109467 39.4909067,17.1210933 36.46096,17.1210933 C34.894807,17.2030195 33.4195765,16.3827076 32.6627867,15.0090933 L32.6054533,15.0090933 L32.6054533,20.9882667 L30.1275867,20.9882667 L30.1275867,4.92317333 L32.5260267,4.92317333 L32.5260267,6.93098667 L32.5716,6.93098667 C33.3620111,5.56598389 34.8388323,4.74602512 36.4153467,4.79686667 C39.4792,4.79688 41.4993733,7.21874667 41.4993733,10.95964 Z M38.9518533,10.95964 C38.9518533,8.51564 37.6888267,6.90885333 35.7617467,6.90885333 C33.86852,6.90885333 32.59508,8.54948 32.59508,10.95964 C32.59508,13.3919333 33.86852,15.02084 35.7617467,15.02084 C37.6888267,15.02084 38.9518533,13.4257867 38.9518533,10.95964 Z" id="Shape"></path>
                                    <path d="M50.27932,12.3815067 C50.46292,14.02344 52.0579867,15.1015067 54.2376533,15.1015067 C56.3262,15.1015067 57.8288,14.0233867 57.8288,12.5429067 C57.8288,11.2577467 56.9225467,10.48824 54.77672,9.96088 L52.6308933,9.44394667 C49.5905333,8.70957333 48.1790667,7.28769333 48.1790667,4.9804 C48.1790667,2.12362667 50.6686533,0.161386667 54.2025067,0.161386667 C57.7025067,0.161386667 60.1009467,2.12362667 60.18168,4.9804 L57.6803467,4.9804 C57.5306133,3.32805333 56.16472,2.33066667 54.1686267,2.33066667 C52.1725333,2.33066667 50.8066533,3.33978667 50.8066533,4.80853333 C50.8066533,5.97910667 51.6790533,6.66790667 53.81316,7.1952 L55.6373733,7.64312 C59.0345067,8.44650667 60.4446667,9.81112 60.4446667,12.23296 C60.4446667,15.3306133 57.97852,17.27072 54.054,17.27072 C50.38212,17.27072 47.90296,15.3761867 47.7428,12.3813867 L50.27932,12.3815067 Z" id="Shape"></path>
                                    <path d="M65.7949467,2.0664 L65.7949467,4.92317333 L68.09052,4.92317333 L68.09052,6.88541333 L65.7949467,6.88541333 L65.7949467,13.54036 C65.7949467,14.5742133 66.2545867,15.0559867 67.2636933,15.0559867 C67.5362152,15.0512346 67.8082962,15.0320968 68.0788,14.9986533 L68.0788,16.9491733 C67.6251044,17.0339461 67.1639611,17.0723393 66.7024933,17.06376 C64.2584933,17.06376 63.30536,16.1457867 63.30536,13.80464 L63.30536,6.88541333 L61.55016,6.88541333 L61.55016,4.92317333 L63.3053333,4.92317333 L63.3053333,2.0664 L65.7949467,2.0664 Z" id="Shape"></path>
                                    <path d="M69.4186667,10.95964 C69.4186667,7.16146667 71.65564,4.77474667 75.1439333,4.77474667 C78.6439333,4.77474667 80.8704933,7.16141333 80.8704933,10.95964 C80.8704933,14.76824 78.6556533,17.1445333 75.1439333,17.1445333 C71.6334933,17.1445333 69.4186667,14.7682267 69.4186667,10.95964 Z M78.3457467,10.95964 C78.3457467,8.35417333 77.1517333,6.81641333 75.14392,6.81641333 C73.1361067,6.81641333 71.9420933,8.36589333 71.9420933,10.95964 C71.9420933,13.57552 73.1361067,15.1015733 75.14392,15.1015733 C77.1517333,15.1015733 78.3457333,13.57552 78.3457333,10.95964 L78.3457467,10.95964 Z" id="Shape"></path>
                                    <path d="M82.91344,4.92317333 L85.27672,4.92317333 L85.27672,6.97784 L85.3340533,6.97784 C85.6636214,5.65515787 86.8755634,4.74484208 88.2376933,4.79685333 C88.5232454,4.79585631 88.8080096,4.82686766 89.0866533,4.88930667 L89.0866533,7.20701333 C88.7261613,7.09685776 88.3501062,7.04628172 87.97332,7.05728 C87.244851,7.02772725 86.5398545,7.31804631 86.0434419,7.85200796 C85.5470293,8.38596962 85.3087954,9.11022766 85.3912933,9.83461333 L85.3912933,16.9947733 L82.9134267,16.9947733 L82.91344,4.92317333 Z" id="Shape"></path>
                                    <path d="M100.511093,13.4492133 C100.17776,15.6406133 98.04364,17.14452 95.3131733,17.14452 C91.8014533,17.14452 89.6217733,14.7916533 89.6217733,11.01692 C89.6217733,7.23046667 91.8131733,4.77473333 95.2090133,4.77473333 C98.5488533,4.77473333 100.64912,7.069 100.64912,10.72916 L100.64912,11.57812 L92.12308,11.57812 L92.12308,11.7278533 C92.0434766,12.6265622 92.3538021,13.5161593 92.9751199,14.1703599 C93.5964377,14.8245606 94.4688633,15.1803111 95.37048,15.14712 C96.5729364,15.2597861 97.7066174,14.5693036 98.15824,13.4492 L100.511093,13.4492133 Z M92.1347765,9.84636 L98.1699467,9.84634667 C98.2149139,9.03879666 97.9209554,8.24909745 97.3588934,7.66750873 C96.7968314,7.08592001 96.0176277,6.76517388 95.2090133,6.78254667 C94.3940024,6.77768297 93.6108143,7.0985795 93.0335274,7.67391099 C92.4562404,8.24924248 92.1326884,9.03133723 92.1347765,9.84636 Z" id="Shape"></path>
                                </g>
                            </g>
                        </g>
                        <g id="_Group_4" transform="translate(46.666667, 10.666667)">
                            <g id="Group">
                                <path d="M3.76825333,0.974666667 C4.82018208,0.899178908 5.85052302,1.29939657 6.57568172,2.06516242 C7.30084042,2.83092828 7.64438117,3.88152639 7.51174667,4.92778667 C7.51174667,7.46945333 6.13805333,8.93045333 3.76825333,8.93045333 L0.89456,8.93045333 L0.89456,0.974666667 L3.76825333,0.974666667 Z M2.13022667,7.80533333 L3.63022667,7.80533333 C4.38198926,7.85026934 5.11398203,7.55407868 5.62295802,6.99900239 C6.13193401,6.4439261 6.36370615,5.68905922 6.25392,4.944 C6.35571869,4.20203271 6.12060878,3.45339495 5.61289477,2.90284531 C5.10518076,2.35229566 4.37799423,2.0574484 3.63022667,2.09894667 L2.13022667,2.09894667 L2.13022667,7.80533333 Z" id="Shape"></path>
                                <path d="M14.2825733,7.30924 C13.950316,8.44174598 12.8543719,9.17347072 11.6810133,9.04621333 C10.8804292,9.06734754 10.1110233,8.73550644 9.57693859,8.13873592 C9.04285385,7.5419654 8.79808423,6.7405967 8.90757333,5.94725333 C8.80099652,5.1517073 9.04485097,4.34905831 9.57596112,3.74724927 C10.1070713,3.14544024 10.873176,2.803689 11.6758,2.81053333 C13.3463733,2.81053333 14.3541867,3.95186667 14.3541867,5.8372 L14.3541867,6.25066667 L10.1146667,6.25066667 L10.1146667,6.31706667 C10.0771494,6.76258686 10.2293076,7.20326367 10.5337211,7.53072093 C10.8381345,7.8581782 11.2665572,8.0420319 11.7136267,8.03706667 C12.2933225,8.10665958 12.8576167,7.81911072 13.1420133,7.3092 L14.2825733,7.30924 Z M10.1145733,5.37434667 L13.14712,5.37434667 C13.1773239,4.96688058 13.0340513,4.56560676 12.7526092,4.26941212 C12.4711672,3.97321749 12.07773,3.8096483 11.6692533,3.81901333 C11.2552542,3.81383001 10.8567061,3.97605445 10.5640119,4.2688893 C10.2713176,4.56172415 10.1092845,4.96035002 10.1146667,5.37434667 L10.1145733,5.37434667 Z" id="Shape"></path>
                                <path d="M18.1393467,2.81054667 C19.4896133,2.81054667 20.3724133,3.4388 20.4883067,4.4974 L19.3515867,4.4974 C19.2422533,4.05664 18.8112267,3.7754 18.1393467,3.7754 C17.4778933,3.7754 16.9753467,4.0892 16.9753467,4.55794667 C16.9753467,4.91661333 17.2787333,5.14258667 17.9297733,5.29166667 L18.9271067,5.52278667 C20.06904,5.78776 20.6041867,6.27864 20.6041867,7.16081333 C20.6041867,8.29102667 19.5508533,9.04622667 18.1172133,9.04622667 C16.6888267,9.04622667 15.75784,8.40104 15.6523733,7.33724 L16.8385733,7.33724 C17.0489493,7.85835498 17.588503,8.16793359 18.14456,8.08657333 C18.88284,8.08657333 19.4075867,7.75590667 19.4075867,7.27602667 C19.4075867,6.91796 19.1263333,6.68618667 18.5247733,6.54296 L17.4778933,6.30012 C16.33596,6.02993333 15.80732,5.51757333 15.80732,4.62433333 C15.80732,3.55989333 16.7825733,2.81054667 18.1393467,2.81054667 Z" id="Shape"></path>
                                <path d="M26.1315333,4.88866667 C25.9754302,4.24533569 25.373112,3.81226449 24.71356,3.86913333 C23.7213733,3.86913333 23.1146,4.62954667 23.1146,5.90885333 C23.1146,7.21028 23.7266,7.98762667 24.71356,7.98762667 C25.3675058,8.06339371 25.9754863,7.64021189 26.1315333,7.00065333 L27.28388,7.00065333 C27.1253995,8.26493943 25.987994,9.17243862 24.72008,9.04622667 C23.9074787,9.07188375 23.124976,8.73760263 22.5817316,8.13273523 C22.0384872,7.52786783 21.7898842,6.71407983 21.9023733,5.90889333 C21.7955466,5.1096577 22.0465298,4.30397807 22.5883604,3.70681049 C23.1301911,3.10964292 23.9077462,2.78174005 24.7135733,2.81058667 C25.9917634,2.69285357 27.1313277,3.6142033 27.28388,4.88870667 L26.1315333,4.88866667 Z" id="Shape"></path>
                                <path d="M28.4596667,7.23242667 C28.4596667,6.15169333 29.26436,5.52865333 30.6927333,5.44010667 L32.31904,5.34636 L32.31904,4.82813333 C32.31904,4.19401333 31.8997733,3.83594667 31.08988,3.83594667 C30.4284267,3.83594667 29.9700933,4.07878667 29.8385733,4.50326667 L28.69144,4.50326667 C28.8125333,3.47201333 29.7825867,2.81056 31.14456,2.81056 C32.6497733,2.81056 33.4987333,3.55989333 33.4987333,4.82813333 L33.4987333,8.93034667 L32.3581067,8.93034667 L32.3581067,8.0866 L32.26436,8.0866 C31.8769581,8.70276845 31.1880315,9.06288431 30.4609733,9.02926667 C29.9512882,9.08228242 29.4429615,8.91721421 29.0616611,8.57486993 C28.6803606,8.23252564 28.4616748,7.74485775 28.4596667,7.23242667 Z M32.31904,6.7194 L32.31904,6.21745333 L30.8528933,6.3112 C30.0260667,6.36653333 29.6510667,6.64778667 29.6510667,7.17708 C29.6510667,7.71744 30.1198133,8.03189333 30.7644,8.03189333 C31.1459814,8.07051982 31.5269018,7.9526334 31.8199605,7.70522079 C32.1130192,7.45780817 32.2931221,7.10205474 32.31904,6.7194 Z" id="Shape"></path>
                                <path d="M35.3542,2.92642667 L36.4948267,2.92642667 L36.4948267,3.847 L36.5833733,3.847 C36.8453386,3.19138436 37.5000477,2.77936277 38.2044667,2.82681333 C38.3819395,2.82442734 38.5591592,2.84101486 38.7331067,2.87629333 L38.7331067,4.04562667 C38.5156572,3.9991623 38.2940087,3.97516516 38.0716533,3.97401333 C37.6764697,3.93852475 37.2846754,4.07157083 36.9928205,4.34036496 C36.7009656,4.60915908 36.5361926,4.98870344 36.5391067,5.38546667 L36.5391067,8.93038667 L35.3542,8.93038667 L35.3542,2.92642667 Z" id="Shape"></path>
                                <path d="M40.1321867,2.92642667 L41.2728133,2.92642667 L41.2728133,3.847 L41.3613333,3.847 C41.6232986,3.19138436 42.2780077,2.77936277 42.9824267,2.82681333 C43.1598995,2.82442734 43.3371192,2.84101486 43.5110667,2.87629333 L43.5110667,4.04562667 C43.2936172,3.9991623 43.0719687,3.97516516 42.8496133,3.97401333 C42.4544297,3.93852475 42.0626354,4.07157083 41.7707805,4.34036496 C41.4789256,4.60915908 41.3141526,4.98870344 41.3170667,5.38546667 L41.3170667,8.93038667 L40.1321733,8.93038667 L40.1321867,2.92642667 Z" id="Shape"></path>
                                <path d="M49.7428667,7.30924 C49.4106163,8.44174044 48.3146862,9.17346892 47.1413333,9.04622667 C46.3407492,9.06736088 45.5713433,8.73551978 45.0372586,8.13874925 C44.5031739,7.54197873 44.2584042,6.74061004 44.3678933,5.94726667 C44.2613165,5.15172063 44.505171,4.34907164 45.0362811,3.74726261 C45.5673913,3.14545357 46.333496,2.80370234 47.13612,2.81054667 C48.8066933,2.81054667 49.8145067,3.95188 49.8145067,5.83721333 L49.8145067,6.25066667 L45.5748933,6.25066667 L45.5748933,6.31706667 C45.537376,6.76258686 45.6895343,7.20326367 45.9939477,7.53072093 C46.2983611,7.8581782 46.7267838,8.0420319 47.1738533,8.03706667 C47.7535491,8.10665958 48.3178434,7.81911072 48.60224,7.3092 L49.7428667,7.30924 Z M45.5748667,5.37434667 L48.6074133,5.37434667 C48.6376172,4.96688058 48.4943446,4.56560676 48.2129026,4.26941212 C47.9314605,3.97321749 47.5380233,3.8096483 47.1295467,3.81901333 C46.715536,3.81381188 46.3169706,3.97602831 46.0242618,4.26886518 C45.731553,4.56170204 45.5695108,4.96033831 45.5748933,5.37434667 L45.5748667,5.37434667 Z" id="Shape"></path>
                                <path d="M51.3392133,9.53125333 L52.5514533,9.53125333 C52.65172,9.9668 53.1530133,10.2480533 53.9524933,10.2480533 C54.9394667,10.2480533 55.5241067,9.77930667 55.5241067,8.98568 L55.5241067,7.83333333 L55.43556,7.83333333 C55.0566063,8.49105541 54.3407791,8.88066134 53.5826933,8.8418 C52.0501467,8.8418 51.1022267,7.65690667 51.1022267,5.85937333 C51.1022267,4.02870667 52.06056,2.82682667 53.5944133,2.82682667 C54.3712933,2.79977355 55.0984593,3.20805429 55.4798267,3.88542667 L55.5735733,3.88542667 L55.5735733,2.92644 L56.7089867,2.92644 L56.7089867,8.97977333 C56.7089867,10.3528267 55.6334667,11.22392 53.9355467,11.22392 C52.4355733,11.224 51.46552,10.5514267 51.3392133,9.53125333 Z M55.54624,5.85352 C55.54624,4.65752 54.9277467,3.89128 53.91864,3.89128 C52.8991067,3.89128 52.3261867,4.65756 52.3261867,5.85352 C52.3261867,7.05013333 52.8991067,7.81641333 53.91864,7.81641333 C54.9342667,7.8164 55.5462533,7.056 55.5462533,5.85352 L55.54624,5.85352 Z" id="Shape"></path>
                                <path d="M58.2545867,7.23242667 C58.2545867,6.15169333 59.05928,5.52865333 60.4876533,5.44010667 L62.11396,5.34636 L62.11396,4.82813333 C62.11396,4.19401333 61.6946933,3.83594667 60.8848,3.83594667 C60.2233467,3.83594667 59.7650133,4.07878667 59.6334933,4.50326667 L58.48636,4.50326667 C58.6074533,3.47201333 59.5775067,2.81056 60.93948,2.81056 C62.4446933,2.81056 63.2936533,3.55989333 63.2936533,4.82813333 L63.2936533,8.93034667 L62.1530267,8.93034667 L62.1530267,8.0866 L62.05928,8.0866 C61.6718781,8.70276845 60.9829515,9.06288431 60.2558933,9.02926667 C59.7462082,9.08228242 59.2378815,8.91721421 58.8565811,8.57486993 C58.4752806,8.23252564 58.2565948,7.74485775 58.2545867,7.23242667 Z M62.11396,6.7194 L62.11396,6.21745333 L60.6478133,6.3112 C59.8209867,6.36653333 59.4459867,6.64778667 59.4459867,7.17708 C59.4459867,7.71744 59.9147333,8.03189333 60.55932,8.03189333 C60.9409014,8.07051982 61.3218218,7.9526334 61.6148805,7.70522079 C61.9079392,7.45780817 62.0880421,7.10205474 62.11396,6.7194 Z" id="Shape"></path>
                                <path d="M65.14912,2.92642667 L66.2897467,2.92642667 L66.2897467,3.847 L66.3782933,3.847 C66.6402586,3.19138436 67.2949677,2.77936277 67.9993867,2.82681333 C68.1768595,2.82442734 68.3540792,2.84101486 68.5280267,2.87629333 L68.5280267,4.04562667 C68.3105772,3.9991623 68.0889287,3.97516516 67.8665733,3.97401333 C67.4713897,3.93852475 67.0795954,4.07157083 66.7877405,4.34036496 C66.4958856,4.60915908 66.3311126,4.98870344 66.3340267,5.38546667 L66.3340267,8.93038667 L65.14912,8.93038667 L65.14912,2.92642667 Z" id="Shape"></path>
                                <path d="M73.0957333,2.92642667 L74.23636,2.92642667 L74.23636,3.8802 L74.3249067,3.8802 C74.6328198,3.17797059 75.3523238,2.74840996 76.1165733,2.81053333 C76.7083291,2.76604236 77.2882078,2.9930532 77.692481,3.42746943 C78.0967543,3.86188565 78.2815508,4.45656501 78.1946933,5.0436 L78.1946933,8.93026667 L77.0098,8.93026667 L77.0098,5.34114667 C77.0098,4.37630667 76.5905333,3.89648 75.7142267,3.89648 C75.3128478,3.87778549 74.9233202,4.03531009 74.6477661,4.32775571 C74.3722121,4.62020133 74.2381134,5.01840135 74.2806267,5.41796 L74.2806267,8.93033333 L73.0957333,8.93033333 L73.0957333,2.92642667 Z" id="Shape"></path>
                                <path d="M79.6855733,7.23242667 C79.6855733,6.15169333 80.4902667,5.52865333 81.91864,5.44010667 L83.5449467,5.34636 L83.5449467,4.82813333 C83.5449467,4.19401333 83.12568,3.83594667 82.3157867,3.83594667 C81.6543333,3.83594667 81.196,4.07878667 81.06448,4.50326667 L79.9173333,4.50326667 C80.0384267,3.47201333 81.00848,2.81056 82.3704533,2.81056 C83.8756667,2.81056 84.7246267,3.55989333 84.7246267,4.82813333 L84.7246267,8.93034667 L83.584,8.93034667 L83.584,8.0866 L83.4902667,8.0866 C83.1028648,8.70276845 82.4139382,9.06288431 81.68688,9.02926667 C81.1771948,9.08228242 80.6688682,8.91721421 80.2875677,8.57486993 C79.9062673,8.23252564 79.6875814,7.74485775 79.6855733,7.23242667 Z M83.5449467,6.7194 L83.5449467,6.21745333 L82.0788,6.3112 C81.2519733,6.36653333 80.8769733,6.64778667 80.8769733,7.17708 C80.8769733,7.71744 81.34572,8.03189333 81.9903067,8.03189333 C82.3718881,8.07051982 82.7528085,7.9526334 83.0458672,7.70522079 C83.3389259,7.45780817 83.5190288,7.10205474 83.5449467,6.7194 Z" id="Shape"></path>
                            </g>
                        </g>
                    </g>
                </g>
            </g>
        </g>
    </g>
</svg>