<?xml version="1.0" encoding="UTF-8"?>
<svg width="68px" height="68px" viewBox="0 0 68 68" version="1.1" xmlns="http://www.w3.org/2000/svg" xmlns:xlink="http://www.w3.org/1999/xlink">
    <!-- Generator: Sketch 52.5 (67469) - http://www.bohemiancoding.com/sketch -->
    <title>Play </title>
    <desc>Created with Sketch.</desc>
    <defs>
        <circle id="path-1" cx="24" cy="24" r="24"></circle>
        <filter x="-33.3%" y="-29.2%" width="166.7%" height="166.7%" filterUnits="objectBoundingBox" id="filter-2">
            <feOffset dx="0" dy="2" in="SourceAlpha" result="shadowOffsetOuter1"></feOffset>
            <feGaussianBlur stdDeviation="5" in="shadowOffsetOuter1" result="shadowBlurOuter1"></feGaussianBlur>
            <feColorMatrix values="0 0 0 0 0   0 0 0 0 0   0 0 0 0 0  0 0 0 0.15 0" type="matrix" in="shadowBlurOuter1"></feColorMatrix>
        </filter>
        <path d="M19.1273501,10.4000685 L7.49008789,2.40011553 L7.49008801,2.40011561 C6.52632638,1.73737751 5.15908004,1.91646246 4.436261,2.80011326 C4.15307962,3.14630322 4,3.56736875 4,4.0001062 L4,20.0000121 L4,20.0000118 C3.99999982,21.1045753 4.97660297,22 6.18130501,22 C6.65327397,22.0000001 7.11251284,21.8596448 7.49008801,21.6000024 L19.1273502,13.6000494 C20.0911119,12.9373113 20.2864303,11.6837206 19.5636113,10.8000658 C19.4395943,10.6484557 19.2927052,10.5137755 19.1273503,10.4000682 L19.1273501,10.4000685 Z" id="path-3"></path>
    </defs>
    <g id="Homepage" stroke="none" stroke-width="1" fill="none" fill-rule="evenodd">
        <g id="01---Homepage---Não-Cliente-" transform="translate(-691.000000, -6943.000000)">
            <g id="Play-" transform="translate(701.000000, 6951.000000)">
                <g id="Oval-9">
                    <use fill="black" fill-opacity="1" filter="url(#filter-2)" xlink:href="#path-1"></use>
                    <use fill="#FFFFFF" fill-rule="evenodd" xlink:href="#path-1"></use>
                </g>
                <g id="Icon/Play" transform="translate(14.000000, 12.000000)">
                    <rect id="24pt-Bounding-Box" x="0" y="0" width="24" height="24"></rect>
                    <mask id="mask-4" fill="white">
                        <use xlink:href="#path-3"></use>
                    </mask>
                    <g id="Play" fill-rule="nonzero"></g>
                    <g id="Color/AB_magenta" mask="url(#mask-4)" fill="#E0119D" fill-rule="evenodd">
                        <rect id="Base" x="0" y="0" width="24" height="24"></rect>
                    </g>
                </g>
            </g>
        </g>
    </g>
</svg>