<?xml version="1.0" encoding="UTF-8"?>
<svg width="225px" height="179px" viewBox="0 0 225 179" version="1.1" xmlns="http://www.w3.org/2000/svg" xmlns:xlink="http://www.w3.org/1999/xlink">
    <!-- Generator: Sketch 58 (84663) - https://sketch.com -->
    <title>Logos / Ferramentas / Ontrade-vertical</title>
    <desc>Created with Sketch.</desc>
    <defs>
        <path d="M29.6325672,0.310298507 C13.4359254,0.310298507 0.310298507,13.4528507 0.310298507,29.6682985 L0.310298507,61.0705075 C0.310298507,77.4561493 13.4359254,90.764194 29.6325672,90.764194 L33.3815373,90.764194 C49.5772388,90.764194 62.7047463,77.4561493 62.7047463,61.0705075 L62.7047463,29.6682985 C62.7047463,13.4528507 49.5772388,0.310298507 33.3815373,0.310298507 L29.6325672,0.310298507 Z M17.5262239,61.0705075 L17.5262239,29.6682985 C17.5262239,23.0100448 22.9808955,17.5450299 29.6325672,17.5450299 L33.3815373,17.5450299 C40.0285075,17.5450299 45.4869403,23.0100448 45.4869403,29.6682985 L45.4869403,61.0705075 C45.4869403,67.725 40.0285075,73.3573881 33.3815373,73.3573881 L29.6325672,73.3573881 C22.9808955,73.3573881 17.5262239,67.725 17.5262239,61.0705075 Z" id="path-1"></path>
    </defs>
    <g id="Logos-/-Ferramentas-/-Ontrade-vertical" stroke="none" stroke-width="1" fill="none" fill-rule="evenodd">
        <g id="ontrade_logo" transform="translate(80.500000, 4.900000)">
            <mask id="mask-2" fill="white">
                <use xlink:href="#path-1"></use>
            </mask>
            <g id="Shape"></g>
            <g id="Group" mask="url(#mask-2)">
                <g transform="translate(-32.743075, -33.448299)">
                    <g transform="translate(17.453821, 32.601090)">
                        <path d="M93.0895522,46.3858657 C93.0895522,71.955403 72.3644328,92.6805224 46.7948955,92.6805224 C21.2281791,92.6805224 0.499298507,71.955403 0.499298507,46.3858657 C0.499298507,20.8172687 21.2281791,0.0902686567 46.7948955,0.0902686567 C72.3644328,0.0902686567 93.0895522,20.8172687 93.0895522,46.3858657" id="Path" fill="#22ACE3" fill-rule="nonzero"></path>
                    </g>
                    <g transform="translate(0.245982, 0.001410)">
                        <polygon id="Path" fill="#E6007D" fill-rule="nonzero" points="63.9402985 0.174895522 0.332865672 41.7426716 64.0023582 78.9850746"></polygon>
                    </g>
                    <g transform="translate(63.591448, 16.816581)">
                        <polygon id="Path" fill="#CC0070" fill-rule="nonzero" points="33.8507463 1.3888209 0.595208955 0.337567164 0.595208955 62.1706567"></polygon>
                    </g>
                    <g transform="translate(63.998597, 20.310824)">
                        <polygon id="Path" fill="#1879A5" fill-rule="nonzero" points="49.8358209 40.5560149 31.4482836 7.10542736e-15 0.187119403 58.7319851"></polygon>
                    </g>
                    <g transform="translate(12.844666, 28.514270)">
                        <polygon id="Path" fill="#EA4893" fill-rule="nonzero" points="7.83268657 50.4056418 51.4042388 50.472403 0.0150447761 0.243537313"></polygon>
                    </g>
                    <g transform="translate(43.251851, 78.986955)">
                        <polygon id="Path" fill="#70C2EE" fill-rule="nonzero" points="20.9968657 49.1663284 20.9968657 0 0.137283582 47.2123881"></polygon>
                    </g>
                    <g transform="translate(63.853791, 78.916997)">
                        <polygon id="Path" fill="#4EB2E6" fill-rule="nonzero" points="37.6119403 45.2951194 0.332865672 0.0695820896 0.394925373 52.1179254"></polygon>
                    </g>
                    <g transform="translate(64.028687, 58.319852)">
                        <polygon id="Path" fill="#1A88BA" fill-rule="nonzero" points="51.7164179 0.578283582 0.220029851 20.6865672 51.253791 20.6668209"></polygon>
                    </g>
                    <g transform="translate(19.114388, 78.718970)">
                        <polygon id="Path" fill="#00A9E2" fill-rule="nonzero" points="45.1343284 0.267985075 0.117537313 11.106806 1.59380597 16.9253731"></polygon>
                    </g>
                    <g transform="translate(7.830806, 78.793254)">
                        <polygon id="Path" fill="#E9EDF8" fill-rule="nonzero" points="56.4179104 0.193701493 2.57641791 12.4589552 0.0554776119 22.5671642"></polygon>
                    </g>
                    <g transform="translate(19.114388, 78.534201)">
                        <polygon id="Path" fill="#F193BD" fill-rule="nonzero" points="45.1343284 0.393985075 1.56277612 0.385522388 0.117537313 11.2920448"></polygon>
                    </g>
                    <g transform="translate(4.947475, 78.362597)">
                        <polygon id="Path" fill="#C8DFF5" fill-rule="nonzero" points="59.238806 0.557597015 0.49741791 24.2173881 39.0223881 50.7761194"></polygon>
                    </g>
                </g>
            </g>
        </g>
        <path d="M25.9,167.086376 C25.9,173.769755 20.5271277,179.2 13.9832447,179.2 L11.9167553,179.2 C5.37287234,179.2 0,173.769755 0,167.086376 L0,140.144005 C0,133.530245 5.37287234,128.1 11.9167553,128.1 L13.9832447,128.1 C20.5271277,128.1 25.9,133.530245 25.9,140.144005 L25.9,167.086376 Z M18.9,167.16 L18.9,140.07 C18.9,137.34 16.7552326,135.1 13.9877907,135.1 L11.9122093,135.1 C9.14476744,135.1 7,137.34 7,140.07 L7,167.16 C7,169.89 9.14476744,172.2 11.9122093,172.2 L13.9877907,172.2 C16.7552326,172.2 18.9,169.89 18.9,167.16 Z M61.6,176.336096 C61.6,177.592556 60.62,178.5 59.43,178.5 L51.38,178.5 C50.54,178.5 49.56,177.87177 49.35,177.103933 L39.9,145.064185 C39.34,143.319101 38.29,136.757584 38.29,136.757584 L36.61,136.757584 C36.61,136.757584 37.24,143.319101 37.24,145.064185 L37.24,176.336096 C37.24,177.592556 36.26,178.5 35.07,178.5 L32.27,178.5 C31.08,178.5 30.1,177.592556 30.1,176.336096 L30.1,130.824298 C30.1,129.707444 31.08,128.8 32.27,128.8 L40.32,128.8 C41.16,128.8 42.14,129.358427 42.35,130.126264 L51.8,162.166011 C52.36,163.980899 53.41,170.542416 53.41,170.542416 L55.09,170.542416 C55.09,170.542416 54.46,163.980899 54.46,162.166011 L54.46,130.894101 C54.46,129.707444 55.44,128.8 56.63,128.8 L59.43,128.8 C60.62,128.8 61.6,129.707444 61.6,130.894101 L61.6,176.336096 Z M93.1,133.756039 C93.1,134.872893 92.1151961,135.85014 90.9193627,135.85014 L82.3375,135.85014 L82.3375,176.336096 C82.3375,177.592556 81.3526961,178.5 80.1568627,178.5 L77.3431373,178.5 C76.1473039,178.5 75.1625,177.592556 75.1625,176.336096 L75.1625,135.85014 L66.5806373,135.85014 C65.3848039,135.85014 64.4,134.872893 64.4,133.756039 L64.4,130.824298 C64.4,129.707444 65.3848039,128.8 66.5806373,128.8 L90.9193627,128.8 C92.1151961,128.8 93.1,129.707444 93.1,130.824298 L93.1,133.756039 Z M125.779442,175.568258 C126.479154,177.034129 125.429586,178.5 123.820248,178.5 L120.741513,178.5 C119.97183,178.5 119.062204,177.87177 118.782319,177.243539 L112.694822,162.864045 L107.237066,162.864045 L107.237066,176.336096 C107.237066,177.592556 106.257468,178.5 105.067957,178.5 L102.199137,178.5 C101.079597,178.5 100.1,177.592556 100.1,176.336096 L100.1,130.824298 C100.1,129.707444 101.079597,128.8 102.199137,128.8 L113.604448,128.8 C120.321686,128.8 125.709471,134.105056 125.709471,140.80618 L125.709471,150.788062 C125.709471,155.255478 123.260478,159.164466 119.761916,161.188764 L125.779442,175.568258 Z M118.3,150.465734 L118.3,140.665734 C118.3,137.993007 116.15679,135.8 113.391358,135.8 L107.1,135.8 L107.1,155.4 L113.391358,155.4 C116.15679,155.4 118.3,153.138462 118.3,150.465734 Z M159.6,176.336096 C159.6,177.592556 158.615196,178.5 157.419363,178.5 L154.535294,178.5 C153.409804,178.5 152.425,177.592556 152.425,176.336096 L152.425,162.864045 L138.075,162.864045 L138.075,176.336096 C138.075,177.592556 137.090196,178.5 135.964706,178.5 L133.080637,178.5 C131.884804,178.5 130.9,177.592556 130.9,176.336096 L130.9,159.094663 L130.970343,158.675843 L138.497059,130.335674 C138.708088,129.42823 139.622549,128.8 140.607353,128.8 L149.892647,128.8 C150.877451,128.8 151.791912,129.42823 152.002941,130.335674 L159.529657,158.675843 L159.6,159.094663 L159.6,176.336096 Z M151.2,155.4 L146.080233,135.8 L144.419767,135.8 L139.3,155.4 L151.2,155.4 Z M191.8,166.424017 C191.8,173.055337 186.498361,178.5 179.888525,178.5 L168.665574,178.5 C167.563934,178.5 166.6,177.592556 166.6,176.336096 L166.6,130.824298 C166.6,129.707444 167.563934,128.8 168.665574,128.8 L179.888525,128.8 C186.498361,128.8 191.8,134.105056 191.8,140.80618 L191.8,166.424017 Z M184.8,166.520236 L184.8,140.779764 C184.8,138.044401 182.65679,135.8 179.891358,135.8 L173.6,135.8 L173.6,171.5 L179.891358,171.5 C182.65679,171.5 184.8,169.325737 184.8,166.520236 Z M224.7,176.336096 C224.7,177.592556 223.738692,178.5 222.57139,178.5 L201.559946,178.5 C200.461308,178.5 199.5,177.592556 199.5,176.336096 L199.5,130.824298 C199.5,129.707444 200.461308,128.8 201.559946,128.8 L222.57139,128.8 C223.738692,128.8 224.7,129.707444 224.7,130.824298 L224.7,133.756039 C224.7,134.872893 223.738692,135.85014 222.57139,135.85014 L206.503815,135.85014 L206.503815,150.090028 L221.129428,150.090028 C222.29673,150.090028 223.258038,150.997472 223.258038,152.253933 L223.258038,155.046067 C223.258038,156.162921 222.29673,157.209972 221.129428,157.209972 L206.503815,157.209972 L206.503815,171.380056 L222.57139,171.380056 C223.738692,171.380056 224.7,172.357303 224.7,173.543961 L224.7,176.336096 Z" id="ONTRADE" fill="#FFFFFF"></path>
    </g>
</svg>