<?xml version="1.0" encoding="UTF-8"?>
<svg width="245px" height="38px" viewBox="0 0 245 38" version="1.1" xmlns="http://www.w3.org/2000/svg" xmlns:xlink="http://www.w3.org/1999/xlink">
    <!-- Generator: Sketch 58 (84663) - https://sketch.com -->
    <title>Logos / AB / All-black</title>
    <desc>Created with Sketch.</desc>
    <g id="Logos-/-AB-/-All-black" stroke="none" stroke-width="1" fill="none" fill-rule="evenodd">
        <g id="Group" fill="#000000" fill-rule="nonzero">
            <path d="M11.2780769,5.51353488 L10.0360256,5.51353488 L6.20217949,20.102 L15.1119231,20.102 L11.2780769,5.51353488 Z M19.6179487,36.6797209 L17.4937179,36.6797209 C16.6662821,36.6797209 15.9402564,36.0169302 15.9402564,35.0987442 L15.9402564,25.254093 L5.37384615,25.254093 L5.37384615,35.0987442 C5.37384615,36.0169302 4.64782051,36.6797209 3.81948718,36.6797209 L1.69525641,36.6797209 C0.814871795,36.6797209 0.0897435897,36.0169302 0.0897435897,35.0987442 L0.0897435897,22.4995349 L0.141794872,22.1928837 L5.68435897,1.48376744 C5.83961538,0.820976744 6.51269231,0.36144186 7.23782051,0.36144186 L14.0753846,0.36144186 C14.8005128,0.36144186 15.4744872,0.820976744 15.630641,1.48376744 L21.1723077,22.1928837 L21.224359,22.4995349 L21.224359,35.0987442 C21.224359,36.0169302 20.4992308,36.6797209 19.6179487,36.6797209 Z" id="Shape"></path>
            <path d="M36.6746154,37.2408837 L35.5348718,37.2408837 C30.6142308,37.2408837 26.6251282,33.2623721 26.6251282,28.3656744 L26.6251282,18.9796744 C26.6251282,14.1333488 30.6142308,10.2069767 35.5348718,10.2069767 L36.6746154,10.2069767 C41.5961538,10.2069767 45.5852564,14.1333488 45.5852564,18.9796744 C45.5852564,19.8978605 44.8592308,20.5615349 44.0308974,20.5615349 L41.9066667,20.5615349 C41.0262821,20.5615349 40.3532051,19.8978605 40.3532051,18.9796744 C40.3532051,16.9904186 38.695641,15.3590698 36.6746154,15.3590698 L35.5348718,15.3590698 C33.5147436,15.3590698 31.8571795,16.9904186 31.8571795,18.9796744 L31.8571795,28.3656744 C31.8571795,30.3549302 33.5147436,32.0384186 35.5348718,32.0384186 L36.6746154,32.0384186 C38.695641,32.0384186 40.3532051,30.3549302 40.3532051,28.3656744 C40.3532051,27.4987442 41.0262821,26.783814 41.9066667,26.783814 L44.0308974,26.783814 C44.8592308,26.783814 45.5852564,27.4987442 45.5852564,28.3656744 C45.5852564,33.2623721 41.5961538,37.2408837 36.6746154,37.2408837 Z" id="Shape"></path>
            <path d="M62.4642308,37.2408837 C57.4915385,37.2408837 53.5024359,33.2623721 53.5024359,28.3656744 L53.5024359,16.9391628 L50.8083333,16.9391628 C49.98,16.9391628 49.2539744,16.2251163 49.2539744,15.3590698 L49.2539744,13.3185581 C49.2539744,12.4507442 49.98,11.735814 50.8083333,11.735814 L53.5024359,11.735814 L53.5024359,1.8407907 C53.5024359,1.02511628 54.1755128,0.36144186 55.0567949,0.36144186 L57.1801282,0.36144186 C58.0084615,0.36144186 58.785641,1.02511628 58.785641,1.8407907 L58.785641,11.735814 L67.6962821,11.735814 C68.5757692,11.735814 69.3008974,12.4507442 69.3008974,13.3185581 L69.3008974,15.3590698 C69.3008974,16.2251163 68.5757692,16.9391628 67.6962821,16.9391628 L58.785641,16.9391628 L58.785641,28.3656744 C58.785641,30.3549302 60.3920513,32.0384186 62.4642308,32.0384186 C64.484359,32.0384186 66.1410256,30.3549302 66.1410256,28.3656744 L66.1410256,27.3449767 C66.1410256,26.4780465 66.8661538,25.764 67.6962821,25.764 L69.8196154,25.764 C70.7,25.764 71.4251282,26.4780465 71.4251282,27.3449767 L71.4251282,28.3656744 C71.4251282,33.2623721 67.3848718,37.2408837 62.4642308,37.2408837 Z" id="Shape"></path>
            <path d="M111.000256,35.659907 C110.845,36.169814 110.171923,36.6797209 109.55,36.6797209 L105.924359,36.6797209 C105.303333,36.6797209 104.628462,36.169814 104.473205,35.659907 L96.2894872,12.8077674 C95.9269231,11.6854419 96.6511538,10.7168837 97.7917949,10.7168837 L100.588205,10.7168837 C101.158077,10.7168837 101.883205,11.1755349 102.090513,11.735814 L107.737179,29.8962791 L113.953718,11.735814 C114.160128,11.1755349 114.833205,10.7168837 115.455128,10.7168837 L117.683462,10.7168837 C118.822308,10.7168837 119.547436,11.6854419 119.184872,12.8077674 L111.000256,35.659907 Z" id="Shape"></path>
            <path d="M136.110513,18.9796744 C136.110513,16.9904186 134.452949,15.3590698 132.432821,15.3590698 L131.293077,15.3590698 C129.272949,15.3590698 127.615385,16.9904186 127.615385,18.9796744 L127.615385,28.3656744 C127.615385,30.3549302 129.272949,32.0384186 131.293077,32.0384186 L132.432821,32.0384186 C134.452949,32.0384186 136.110513,30.3549302 136.110513,28.3656744 L136.110513,18.9796744 Z M132.432821,37.2408837 L131.293077,37.2408837 C126.371538,37.2408837 122.383333,33.2623721 122.383333,28.3656744 L122.383333,18.9796744 C122.383333,14.1333488 126.371538,10.2069767 131.293077,10.2069767 L132.432821,10.2069767 C137.353462,10.2069767 141.342564,14.1333488 141.342564,18.9796744 L141.342564,28.3656744 C141.342564,33.2623721 137.353462,37.2408837 132.432821,37.2408837 Z" id="Shape"></path>
            <path d="M186.214359,23.8763721 C183.831667,25.0499535 182.018846,25.1012093 180.049872,25.9681395 C178.49641,26.5796744 177.719231,27.8036279 177.719231,28.8755814 L177.719231,29.6912558 C177.719231,30.6615814 178.49641,32.0384186 180.361282,32.0384186 L181.397821,32.0384186 C183.986923,32.0384186 186.214359,30.558186 186.214359,28.3656744 L186.214359,23.8763721 Z M192.016282,36.6797209 L190.927692,36.6797209 C189.581538,36.6797209 188.390641,36.1185581 187.509359,35.2507442 C185.695641,36.4755814 183.520256,37.2408837 181.397821,37.2408837 L180.361282,37.2408837 C175.957564,37.2408837 172.487179,34.1293023 172.487179,29.9466512 L172.487179,28.8755814 C172.487179,23.7756279 176.631538,22.1928837 180.101923,21.1730698 C180.982308,20.9185581 186.214359,20.1523721 186.214359,18.2647442 C186.214359,16.4805116 184.867308,15.3590698 182.536667,15.3590698 L181.966795,15.3590698 C179.946667,15.3590698 178.289103,16.9904186 178.289103,18.9796744 C178.289103,19.8978605 177.563077,20.5615349 176.68359,20.5615349 L174.61141,20.5615349 C173.731026,20.5615349 173.005,19.8978605 173.005,18.9796744 C173.005,14.1333488 176.993205,10.2069767 181.966795,10.2069767 L182.536667,10.2069767 C187.146795,10.2069767 191.44641,13.3185581 191.44641,18.5210233 L191.44641,30.9673488 C191.44641,31.2218605 191.705769,31.4763721 192.016282,31.4763721 C192.844615,31.4763721 193.569744,32.1904186 193.569744,33.0582326 L193.569744,35.0987442 C193.569744,36.0169302 192.844615,36.6797209 192.016282,36.6797209 Z" id="Shape"></path>
            <path d="M216.091795,36.6797209 L214.018718,36.6797209 C213.190385,36.6797209 212.414103,36.0169302 212.414103,35.0987442 L212.414103,18.9796744 C212.414103,16.9904186 210.807692,15.3590698 208.735513,15.3590698 L207.699872,15.3590698 C205.679744,15.3590698 203.970128,16.9904186 203.970128,18.9796744 L203.970128,35.0987442 C203.970128,36.0169302 203.296154,36.6797209 202.415769,36.6797209 L200.292436,36.6797209 C199.463205,36.6797209 198.686026,36.0169302 198.686026,35.0987442 L198.686026,12.2466047 C198.686026,11.4309302 199.463205,10.7168837 200.292436,10.7168837 L202.415769,10.7168837 C202.830385,10.7168837 203.296154,10.8697674 203.555513,11.1755349 C204.798462,10.5127442 206.197564,10.2069767 207.699872,10.2069767 L208.735513,10.2069767 C213.657051,10.2069767 217.69641,14.1333488 217.69641,18.9796744 L217.69641,35.0987442 C217.69641,36.0169302 217.023333,36.6797209 216.091795,36.6797209 Z" id="Shape"></path>
            <path d="M243.135128,36.6797209 L240.388974,36.6797209 C240.02641,36.6797209 239.457436,36.3739535 239.198077,36.068186 L230.598846,25.5094884 L229.200641,26.8350698 L229.200641,35.0987442 C229.200641,36.0169302 228.526667,36.6797209 227.646282,36.6797209 L225.522051,36.6797209 C224.693718,36.6797209 223.96859,36.0169302 223.96859,35.0987442 L223.96859,1.8407907 C223.96859,1.02511628 224.693718,0.36144186 225.522051,0.36144186 L227.646282,0.36144186 C228.526667,0.36144186 229.200641,1.02511628 229.200641,1.8407907 L229.200641,19.4904651 L237.695769,11.1755349 C237.903077,10.9210233 238.472051,10.7168837 238.835513,10.7168837 L241.787179,10.7168837 C243.342436,10.7168837 244.015513,12.2978605 242.875769,13.3680465 L234.32859,21.7854884 L244.378077,34.1293023 C245.258462,35.2507442 244.585385,36.6797209 243.135128,36.6797209 Z" id="Shape"></path>
            <path d="M86.8511538,7.6044186 L82.655641,7.6044186 C81.7752564,7.6044186 81.0501282,6.89037209 81.0501282,6.02344186 L81.0501282,1.8407907 C81.0501282,1.02511628 81.7752564,0.36144186 82.655641,0.36144186 L86.8511538,0.36144186 C87.7324359,0.36144186 88.4055128,1.02511628 88.4055128,1.8407907 L88.4055128,6.02344186 C88.4055128,6.89037209 87.7324359,7.6044186 86.8511538,7.6044186 Z M93.7407692,36.6797209 L76.9111538,36.6797209 C76.0298718,36.6797209 75.305641,36.0169302 75.305641,35.0987442 L75.305641,33.0582326 C75.305641,32.1904186 76.0298718,31.4763721 76.9111538,31.4763721 L82.655641,31.4763721 L82.655641,15.9193488 L79.0353846,15.9193488 C78.155,15.9193488 77.4298718,15.2053023 77.4298718,14.3374884 L77.4298718,12.2466047 C77.4298718,11.4300465 78.155,10.7168837 79.0353846,10.7168837 L86.3333333,10.7168837 C87.1634615,10.7168837 87.9388462,11.4300465 87.9388462,12.2466047 L87.9388462,31.4763721 L93.7407692,31.4763721 C94.57,31.4763721 95.2951282,32.1904186 95.2951282,33.0582326 L95.2951282,35.0987442 C95.2951282,36.0169302 94.57,36.6797209 93.7407692,36.6797209 Z" id="Shape"></path>
            <path d="M161.929744,24.7397674 C161.929744,22.6983721 160.272179,21.1165116 158.251154,21.1165116 L152.965256,21.1165116 L152.965256,31.4754884 L158.251154,31.4754884 C160.272179,31.4754884 161.929744,29.8936279 161.929744,27.8522326 L161.929744,24.7397674 Z M161.359872,9.12706977 C161.359872,7.13604651 159.754359,5.50381395 157.681282,5.50381395 L152.965256,5.50381395 L152.965256,15.9122791 L157.681282,15.9122791 C159.754359,15.9122791 161.359872,14.2287907 161.359872,12.2395349 L161.359872,9.12706977 Z M158.251154,36.6797209 L149.234615,36.6797209 C148.406282,36.6797209 147.680256,36.0160465 147.680256,35.0987442 L147.680256,1.83018605 C147.680256,1.01274419 148.406282,0.349953488 149.234615,0.349953488 L157.681282,0.349953488 C162.654872,0.349953488 166.644872,4.22772093 166.644872,9.12706977 L166.644872,12.2395349 C166.644872,14.585814 165.764487,16.6263256 164.312436,18.2090698 C166.075897,19.8413023 167.215641,22.1884651 167.215641,24.7397674 L167.215641,27.8522326 C167.215641,32.7003256 163.17359,36.6797209 158.251154,36.6797209 Z" id="Shape"></path>
        </g>
    </g>
</svg>