<?xml version="1.0" encoding="UTF-8"?>
<svg width="312px" height="102px" viewBox="0 0 312 102" version="1.1" xmlns="http://www.w3.org/2000/svg" xmlns:xlink="http://www.w3.org/1999/xlink">
    <!-- Generator: Sketch 58 (84663) - https://sketch.com -->
    <title>Logos / Ferramentas / Ontrade-sem-AB</title>
    <desc>Created with Sketch.</desc>
    <defs>
        <path d="M23.7060537,0.248238806 C10.7487403,0.248238806 0.248238806,10.7622806 0.248238806,23.7346388 L0.248238806,48.856406 C0.248238806,61.9649194 10.7487403,72.6113552 23.7060537,72.6113552 L26.7052299,72.6113552 C39.661791,72.6113552 50.163797,61.9649194 50.163797,48.856406 L50.163797,23.7346388 C50.163797,10.7622806 39.661791,0.248238806 26.7052299,0.248238806 L23.7060537,0.248238806 Z M14.0209791,48.856406 L14.0209791,23.7346388 C14.0209791,18.4080358 18.3847164,14.0360239 23.7060537,14.0360239 L26.7052299,14.0360239 C32.022806,14.0360239 36.3895522,18.4080358 36.3895522,23.7346388 L36.3895522,48.856406 C36.3895522,54.18 32.022806,58.6859104 26.7052299,58.6859104 L23.7060537,58.6859104 C18.3847164,58.6859104 14.0209791,54.18 14.0209791,48.856406 Z" id="path-1"></path>
    </defs>
    <g id="Logos-/-Ferramentas-/-Ontrade-sem-AB" stroke="none" stroke-width="1" fill="none" fill-rule="evenodd">
        <g id="ontrade_logo" transform="translate(252.000000, 13.000000)">
            <mask id="mask-2" fill="white">
                <use xlink:href="#path-1"></use>
            </mask>
            <g id="Shape"></g>
            <g id="Group" mask="url(#mask-2)">
                <g transform="translate(-26.194460, -26.758639)">
                    <g transform="translate(13.963057, 26.080872)">
                        <path d="M74.4716418,37.1086925 C74.4716418,57.5643224 57.8915463,74.1444179 37.4359164,74.1444179 C16.9825433,74.1444179 0.399438806,57.5643224 0.399438806,37.1086925 C0.399438806,16.6538149 16.9825433,0.0722149254 37.4359164,0.0722149254 C57.8915463,0.0722149254 74.4716418,16.6538149 74.4716418,37.1086925" id="Path" fill="#22ACE3" fill-rule="nonzero"></path>
                    </g>
                    <g transform="translate(0.196786, 0.001128)">
                        <polygon id="Path" fill="#E6007D" fill-rule="nonzero" points="51.1522388 0.139916418 0.266292537 33.3941373 51.2018866 63.1880597"></polygon>
                    </g>
                    <g transform="translate(50.873158, 13.453264)">
                        <polygon id="Path" fill="#CC0070" fill-rule="nonzero" points="27.080597 1.11105672 0.476167164 0.270053731 0.476167164 49.7365254"></polygon>
                    </g>
                    <g transform="translate(51.198878, 16.248659)">
                        <polygon id="Path" fill="#1879A5" fill-rule="nonzero" points="39.8686567 32.4448119 25.1586269 7.10542736e-15 0.149695522 46.9855881"></polygon>
                    </g>
                    <g transform="translate(10.275733, 22.811416)">
                        <polygon id="Path" fill="#EA4893" fill-rule="nonzero" points="6.26614925 40.3245134 41.123391 40.3779224 0.0120358209 0.194829851"></polygon>
                    </g>
                    <g transform="translate(34.601481, 63.189564)">
                        <polygon id="Path" fill="#70C2EE" fill-rule="nonzero" points="16.7974925 39.3330627 16.7974925 0 0.109826866 37.7699104"></polygon>
                    </g>
                    <g transform="translate(51.083033, 63.133598)">
                        <polygon id="Path" fill="#4EB2E6" fill-rule="nonzero" points="30.0895522 36.2360955 0.266292537 0.0556656716 0.315940299 41.6943403"></polygon>
                    </g>
                    <g transform="translate(51.222949, 46.655882)">
                        <polygon id="Path" fill="#1A88BA" fill-rule="nonzero" points="41.3731343 0.462626866 0.176023881 16.5492537 41.0030328 16.5334567"></polygon>
                    </g>
                    <g transform="translate(15.291510, 62.975176)">
                        <polygon id="Path" fill="#00A9E2" fill-rule="nonzero" points="36.1074627 0.21438806 0.0940298507 8.88544478 1.27504478 13.5402985"></polygon>
                    </g>
                    <g transform="translate(6.264645, 63.034603)">
                        <polygon id="Path" fill="#E9EDF8" fill-rule="nonzero" points="45.1343284 0.154961194 2.06113433 9.96716418 0.0443820896 18.0537313"></polygon>
                    </g>
                    <g transform="translate(15.291510, 62.827361)">
                        <polygon id="Path" fill="#F193BD" fill-rule="nonzero" points="36.1074627 0.31518806 1.2502209 0.30841791 0.0940298507 9.03363582"></polygon>
                    </g>
                    <g transform="translate(3.957980, 62.690078)">
                        <polygon id="Path" fill="#C8DFF5" fill-rule="nonzero" points="47.3910448 0.446077612 0.397934328 19.3739104 31.2179104 40.6208955"></polygon>
                    </g>
                </g>
            </g>
        </g>
        <path d="M25.9,62.986376 C25.9,69.6697548 20.5271277,75.1 13.9832447,75.1 L11.9167553,75.1 C5.37287234,75.1 0,69.6697548 0,62.986376 L0,36.0440054 C0,29.4302452 5.37287234,24 11.9167553,24 L13.9832447,24 C20.5271277,24 25.9,29.4302452 25.9,36.0440054 L25.9,62.986376 Z M18.9,63.06 L18.9,35.97 C18.9,33.24 16.7552326,31 13.9877907,31 L11.9122093,31 C9.14476744,31 7,33.24 7,35.97 L7,63.06 C7,65.79 9.14476744,68.1 11.9122093,68.1 L13.9877907,68.1 C16.7552326,68.1 18.9,65.79 18.9,63.06 Z M61.6,72.2360955 C61.6,73.4925562 60.62,74.4 59.43,74.4 L51.38,74.4 C50.54,74.4 49.56,73.7717697 49.35,73.0039326 L39.9,40.9641854 C39.34,39.2191011 38.29,32.6575843 38.29,32.6575843 L36.61,32.6575843 C36.61,32.6575843 37.24,39.2191011 37.24,40.9641854 L37.24,72.2360955 C37.24,73.4925562 36.26,74.4 35.07,74.4 L32.27,74.4 C31.08,74.4 30.1,73.4925562 30.1,72.2360955 L30.1,26.7242978 C30.1,25.6074438 31.08,24.7 32.27,24.7 L40.32,24.7 C41.16,24.7 42.14,25.258427 42.35,26.026264 L51.8,58.0660112 C52.36,59.8808989 53.41,66.4424157 53.41,66.4424157 L55.09,66.4424157 C55.09,66.4424157 54.46,59.8808989 54.46,58.0660112 L54.46,26.7941011 C54.46,25.6074438 55.44,24.7 56.63,24.7 L59.43,24.7 C60.62,24.7 61.6,25.6074438 61.6,26.7941011 L61.6,72.2360955 Z M93.1,29.6560393 C93.1,30.7728933 92.1151961,31.7501404 90.9193627,31.7501404 L82.3375,31.7501404 L82.3375,72.2360955 C82.3375,73.4925562 81.3526961,74.4 80.1568627,74.4 L77.3431373,74.4 C76.1473039,74.4 75.1625,73.4925562 75.1625,72.2360955 L75.1625,31.7501404 L66.5806373,31.7501404 C65.3848039,31.7501404 64.4,30.7728933 64.4,29.6560393 L64.4,26.7242978 C64.4,25.6074438 65.3848039,24.7 66.5806373,24.7 L90.9193627,24.7 C92.1151961,24.7 93.1,25.6074438 93.1,26.7242978 L93.1,29.6560393 Z M125.779442,71.4682584 C126.479154,72.9341292 125.429586,74.4 123.820248,74.4 L120.741513,74.4 C119.97183,74.4 119.062204,73.7717697 118.782319,73.1435393 L112.694822,58.7640449 L107.237066,58.7640449 L107.237066,72.2360955 C107.237066,73.4925562 106.257468,74.4 105.067957,74.4 L102.199137,74.4 C101.079597,74.4 100.1,73.4925562 100.1,72.2360955 L100.1,26.7242978 C100.1,25.6074438 101.079597,24.7 102.199137,24.7 L113.604448,24.7 C120.321686,24.7 125.709471,30.0050562 125.709471,36.7061798 L125.709471,46.6880618 C125.709471,51.1554775 123.260478,55.0644663 119.761916,57.088764 L125.779442,71.4682584 Z M118.3,46.3657343 L118.3,36.5657343 C118.3,33.893007 116.15679,31.7 113.391358,31.7 L107.1,31.7 L107.1,51.3 L113.391358,51.3 C116.15679,51.3 118.3,49.0384615 118.3,46.3657343 Z M159.6,72.2360955 C159.6,73.4925562 158.615196,74.4 157.419363,74.4 L154.535294,74.4 C153.409804,74.4 152.425,73.4925562 152.425,72.2360955 L152.425,58.7640449 L138.075,58.7640449 L138.075,72.2360955 C138.075,73.4925562 137.090196,74.4 135.964706,74.4 L133.080637,74.4 C131.884804,74.4 130.9,73.4925562 130.9,72.2360955 L130.9,54.9946629 L130.970343,54.5758427 L138.497059,26.2356742 C138.708088,25.3282303 139.622549,24.7 140.607353,24.7 L149.892647,24.7 C150.877451,24.7 151.791912,25.3282303 152.002941,26.2356742 L159.529657,54.5758427 L159.6,54.9946629 L159.6,72.2360955 Z M151.2,51.3 L146.080233,31.7 L144.419767,31.7 L139.3,51.3 L151.2,51.3 Z M191.8,62.3240169 C191.8,68.9553371 186.498361,74.4 179.888525,74.4 L168.665574,74.4 C167.563934,74.4 166.6,73.4925562 166.6,72.2360955 L166.6,26.7242978 C166.6,25.6074438 167.563934,24.7 168.665574,24.7 L179.888525,24.7 C186.498361,24.7 191.8,30.0050562 191.8,36.7061798 L191.8,62.3240169 Z M184.8,62.4202358 L184.8,36.6797642 C184.8,33.9444008 182.65679,31.7 179.891358,31.7 L173.6,31.7 L173.6,67.4 L179.891358,67.4 C182.65679,67.4 184.8,65.2257367 184.8,62.4202358 Z M224.7,72.2360955 C224.7,73.4925562 223.738692,74.4 222.57139,74.4 L201.559946,74.4 C200.461308,74.4 199.5,73.4925562 199.5,72.2360955 L199.5,26.7242978 C199.5,25.6074438 200.461308,24.7 201.559946,24.7 L222.57139,24.7 C223.738692,24.7 224.7,25.6074438 224.7,26.7242978 L224.7,29.6560393 C224.7,30.7728933 223.738692,31.7501404 222.57139,31.7501404 L206.503815,31.7501404 L206.503815,45.9900281 L221.129428,45.9900281 C222.29673,45.9900281 223.258038,46.8974719 223.258038,48.1539326 L223.258038,50.9460674 C223.258038,52.0629213 222.29673,53.1099719 221.129428,53.1099719 L206.503815,53.1099719 L206.503815,67.2800562 L222.57139,67.2800562 C223.738692,67.2800562 224.7,68.2573034 224.7,69.4439607 L224.7,72.2360955 Z" id="ONTRADE" fill="#FFFFFF"></path>
    </g>
</svg>