<?xml version="1.0" encoding="UTF-8"?>
<svg width="358px" height="68px" viewBox="0 0 358 68" version="1.1" xmlns="http://www.w3.org/2000/svg" xmlns:xlink="http://www.w3.org/1999/xlink">
    <!-- Generator: Sketch 58 (84663) - https://sketch.com -->
    <title>Logos / Ferramentas / Activotrader</title>
    <desc>Created with Sketch.</desc>
    <defs>
        <polygon id="path-1" points="0.1974125 0.394042589 16.8143812 0.394042589 16.8143812 25.7727273 0.1974125 25.7727273"></polygon>
        <polygon id="path-3" points="0.294833333 0.394098617 19.6192778 0.394098617 19.6192778 25.7727273 0.294833333 25.7727273"></polygon>
        <polygon id="path-5" points="0.29495 0.118153226 16.9119188 0.118153226 16.9119188 35 0.29495 35"></polygon>
        <polygon id="path-7" points="0.12633125 0.394042589 16.7433 0.394042589 16.7433 25.7727273 0.12633125 25.7727273"></polygon>
    </defs>
    <g id="Logos-/-Ferramentas-/-Activotrader" stroke="none" stroke-width="1" fill="none" fill-rule="evenodd">
        <g id="Group-38-Copy" transform="translate(99.000000, 25.000000)">
            <path d="M10.5882016,5.68120491 L9.41179845,5.68120491 L5.78450773,18.9363034 L14.2154923,18.9363034 L10.5882016,5.68120491 Z M18.4805988,34 L16.4707907,34 C15.6867131,34 15.0001434,33.3969532 15.0001434,32.5628831 L15.0001434,23.6175083 L5.00043018,23.6175083 L5.00043018,32.5628831 C5.00043018,33.3969532 4.31386045,34 3.52920933,34 L1.51940119,34 C0.685996157,34 0,33.3969532 0,32.5628831 L0,21.115298 L0.0487539075,20.8370939 L5.29467435,2.01953953 C5.44093608,1.41757736 6.0787519,1 6.76474806,1 L13.2352519,1 C13.9218217,1 14.5590639,1.41757736 14.7064728,2.01953953 L19.9512461,20.8370939 L20,21.115298 L20,32.5628831 C20,33.3969532 19.3140038,34 18.4805988,34 L18.4805988,34 Z" id="Fill-10" fill="#D10074"></path>
            <path d="M33.0111576,35 L31.9888424,35 C27.5762013,35 24,31.1732124 24,26.4642029 L24,17.4376449 C24,12.7774246 27.5762013,9 31.9888424,9 L33.0111576,9 C37.4237987,9 41,12.7774246 41,17.4376449 C41,18.3204406 40.3499792,18.9587169 39.6070207,18.9587169 L37.702612,18.9587169 C36.9129128,18.9587169 36.3085457,18.3204406 36.3085457,17.4376449 C36.3085457,15.524538 34.8226286,13.9546769 33.0111576,13.9546769 L31.9888424,13.9546769 C30.1773714,13.9546769 28.6914543,15.524538 28.6914543,17.4376449 L28.6914543,26.4642029 C28.6914543,28.3773098 30.1773714,29.99596 31.9888424,29.99596 L33.0111576,29.99596 C34.8226286,29.99596 36.3085457,28.3773098 36.3085457,26.4642029 C36.3085457,25.6301963 36.9129128,24.9431309 37.702612,24.9431309 L39.6070207,24.9431309 C40.3499792,24.9431309 41,25.6301963 41,26.4642029 C41,31.1732124 37.4237987,35 33.0111576,35" id="Fill-12" fill="#D10074"></path>
            <path d="M54.9159057,35 C50.4301493,35 46.8318115,31.223641 46.8318115,26.5766859 L46.8318115,15.7324691 L44.4019356,15.7324691 C43.653945,15.7324691 43,15.0550242 43,14.2320079 L43,12.2959654 C43,11.4729491 43.653945,10.7955042 44.4019356,10.7955042 L46.8318115,10.7955042 L46.8318115,1.40360247 C46.8318115,0.629298765 47.4392804,0 48.2332003,0 L50.1496528,0 C50.8970966,0 51.5986112,0.629298765 51.5986112,1.40360247 L51.5986112,10.7955042 L59.6356827,10.7955042 C60.4301493,10.7955042 61.0840943,11.4729491 61.0840943,12.2959654 L61.0840943,14.2320079 C61.0840943,15.0550242 60.4301493,15.7324691 59.6356827,15.7324691 L51.5986112,15.7324691 L51.5986112,26.5766859 C51.5986112,28.4645822 53.046476,30.0619022 54.9159057,30.0619022 C56.7383126,30.0619022 58.2337471,28.4645822 58.2337471,26.5766859 L58.2337471,25.6086647 C58.2337471,24.7856484 58.8882388,24.1082035 59.6356827,24.1082035 L61.5515884,24.1082035 C62.346055,24.1082035 63,24.7856484 63,25.6086647 L63,26.5766859 C63,31.223641 59.3551862,35 54.9159057,35" id="Fill-14" fill="#D10074"></path>
            <path d="M78.3830613,7.58145306 L74.5978294,7.58145306 C73.8033845,7.58145306 73.1494573,6.93285238 73.1494573,6.14487847 L73.1494573,2.34438218 C73.1494573,1.60304679 73.8033845,1 74.5978294,1 L78.3830613,1 C79.1769595,1 79.7844118,1.60304679 79.7844118,2.34438218 L79.7844118,6.14487847 C79.7844118,6.93285238 79.1769595,7.58145306 78.3830613,7.58145306 M84.597556,34 L67.448372,34 C66.6539271,34 66,33.3974955 66,32.5628831 L66,30.7087312 C66,29.9212996 66.6539271,29.2721566 67.448372,29.2721566 L74.5978294,29.2721566 L74.5978294,15.1363494 L69.3642254,15.1363494 C68.5697805,15.1363494 67.9153066,14.4872065 67.9153066,13.6992326 L67.9153066,11.7989844 C67.9153066,11.057649 68.5697805,10.4090483 69.3642254,10.4090483 L77.91558,10.4090483 C78.6635501,10.4090483 79.363952,11.057649 79.363952,11.7989844 L79.363952,29.2721566 L84.597556,29.2721566 C85.3449794,29.2721566 86,29.9212996 86,30.7087312 L86,32.5628831 C86,33.3974955 85.3449794,34 84.597556,34" id="Fill-16" fill="#D10074"></path>
            <path d="M99.4688928,34.0178387 C99.3271851,34.508632 98.7145888,35 98.1488609,35 L94.8504352,35 C94.2852587,35 93.672111,34.508632 93.5309547,34.0178387 L86.0855115,12.0137468 C85.7557792,10.9327372 86.4152438,10 87.4518603,10 L89.9965334,10 C90.5153931,10 91.1748576,10.4419439 91.3634336,10.9821613 L96.4996481,28.4673916 L102.154722,10.9821613 C102.343298,10.4419439 102.955894,10 103.521622,10 L105.547436,10 C106.584052,10 107.24462,10.9327372 106.914336,12.0137468 L99.4688928,34.0178387 Z" id="Fill-18" fill="#D10074"></path>
            <g id="Group-22" transform="translate(110.000000, 10.000000)">
                <mask id="mask-2" fill="white">
                    <use xlink:href="#path-1"></use>
                </mask>
                <g id="Clip-21"></g>
                <path d="M12.2286312,8.63010978 C12.2286312,6.76270761 10.7761937,5.23035089 9.0055375,5.23035089 L8.00625625,5.23035089 C6.2356,5.23035089 4.78263125,6.76270761 4.78263125,8.63010978 L4.78263125,17.4410208 C4.78263125,19.308423 6.2356,20.8884033 8.00625625,20.8884033 L9.0055375,20.8884033 C10.7761937,20.8884033 12.2286312,19.308423 12.2286312,17.4410208 L12.2286312,8.63010978 Z M9.0055375,25.7728954 L8.00625625,25.7728954 C3.6930375,25.7728954 0.1974125,22.0375307 0.1974125,17.4410208 L0.1974125,8.63010978 C0.1974125,4.08122342 3.6930375,0.394042589 8.00625625,0.394042589 L9.0055375,0.394042589 C13.3187563,0.394042589 16.8143813,4.08122342 16.8143813,8.63010978 L16.8143813,17.4410208 C16.8143813,22.0375307 13.3187563,25.7728954 9.0055375,25.7728954 L9.0055375,25.7728954 Z" id="Fill-20" fill="#D10074" mask="url(#mask-2)"></path>
            </g>
            <path d="M149.480599,5.68120491 L143.499928,5.68120491 L143.499928,32.5628831 C143.499928,33.3969532 142.813932,34 141.980527,34 L140.020046,34 C139.186641,34 138.500072,33.3969532 138.500072,32.5628831 L138.500072,5.68120491 L132.519975,5.68120491 C131.68657,5.68120491 131,5.03260423 131,4.29072653 L131,2.34438218 C131,1.60250448 131.68657,1 132.519975,1 L149.480599,1 C150.314004,1 151,1.60250448 151,2.34438218 L151,4.29072653 C151,5.03260423 150.314004,5.68120491 149.480599,5.68120491" id="Fill-23" fill="#000000"></path>
            <path d="M167.550309,22.7268464 L165.63271,22.7268464 C164.884606,22.7268464 164.230084,22.0756155 164.230084,21.2239156 L164.230084,17.6166471 C164.230084,15.5627198 162.592682,14.059789 160.908764,14.059789 L159.973497,14.059789 C158.195997,14.059789 156.606207,15.5627198 156.606207,17.6166471 L156.606207,29.8903869 L163.715112,29.8903869 C164.510281,29.8903869 165.165351,30.5920281 165.165351,31.4431419 L165.165351,33.447245 C165.165351,34.3487691 164.510281,35 163.715112,35 L149.450238,35 C148.702134,35 148,34.3487691 148,33.447245 L148,31.4431419 C148,30.5920281 148.702134,29.8903869 149.450238,29.8903869 L151.835197,29.8903869 L151.835197,17.6166471 C151.835197,13.0580305 155.296068,9 159.973497,9 L160.908764,9 C165.586193,9 169,13.0580305 169,17.6166471 L169,21.2239156 C169,22.0756155 168.345477,22.7268464 167.550309,22.7268464" id="Fill-25" fill="#000000"></path>
            <g id="Group-29" transform="translate(173.000000, 10.000000)">
                <mask id="mask-4" fill="white">
                    <use xlink:href="#path-3"></use>
                </mask>
                <g id="Clip-28"></g>
                <path d="M12.8765,13.227236 C10.6926111,14.3281796 9.03094444,14.3763634 7.2265,15.1904455 C5.80261111,15.7647291 5.08983333,16.9138565 5.08983333,17.9195532 L5.08983333,18.6854514 C5.08983333,19.5953407 5.80261111,20.8884593 7.5115,20.8884593 L8.46094444,20.8884593 C10.8348333,20.8884593 12.8765,19.4995334 12.8765,17.4410769 L12.8765,13.227236 Z M18.1942778,25.245731 L17.1970556,25.245731 C15.9631667,25.245731 14.8709444,24.7190709 14.0637222,23.9055492 C12.4020556,25.0541164 10.4081667,25.7729514 8.46094444,25.7729514 L7.5115,25.7729514 C3.47538889,25.7729514 0.294833333,22.8516688 0.294833333,18.9252498 L0.294833333,17.9195532 C0.294833333,13.1314287 4.09261111,11.6472557 7.27427778,10.6891826 C8.08094444,10.4499445 12.8765,9.73166976 12.8765,7.9600749 C12.8765,6.28372708 11.6420556,5.23040692 9.50594444,5.23040692 L8.98316667,5.23040692 C7.1315,5.23040692 5.61261111,6.76276364 5.61261111,8.63016581 C5.61261111,9.49187134 4.94761111,10.1143387 4.14038889,10.1143387 L2.24094444,10.1143387 C1.43372222,10.1143387 0.769277778,9.49187134 0.769277778,8.63016581 C0.769277778,4.08127945 4.42538889,0.394098617 8.98316667,0.394098617 L9.50594444,0.394098617 C13.7315,0.394098617 17.6720556,3.31538123 17.6720556,8.19875277 L17.6720556,19.8827626 C17.6720556,20.1225611 17.9098333,20.3612389 18.1942778,20.3612389 C18.9537222,20.3612389 19.6192778,21.0324504 19.6192778,21.8459721 L19.6192778,23.7615581 C19.6192778,24.6232636 18.9537222,25.245731 18.1942778,25.245731 L18.1942778,25.245731 Z" id="Fill-27" fill="#000000" mask="url(#mask-4)"></path>
            </g>
            <g id="Group-32" transform="translate(195.000000, 0.000000)">
                <mask id="mask-6" fill="white">
                    <use xlink:href="#path-5"></use>
                </mask>
                <g id="Clip-31"></g>
                <path d="M12.2810125,17.7276694 C12.2810125,15.8461371 10.8280437,14.3021855 9.0573875,14.3021855 L8.14948125,14.3021855 C6.3331375,14.3021855 4.925325,15.8461371 4.925325,17.7276694 L4.925325,26.60525 C4.925325,28.4867823 6.3331375,30.0787177 8.14948125,30.0787177 L9.0573875,30.0787177 C10.8280437,30.0787177 12.2810125,28.4867823 12.2810125,26.60525 L12.2810125,17.7276694 Z M15.5497938,34.4689597 L13.6882938,34.4689597 C13.2797625,34.4689597 12.9163875,34.2758952 12.6895438,33.9868629 C11.59995,34.6140403 10.373825,35.0001694 9.0573875,35.0001694 L8.14948125,35.0001694 C3.790575,35.0001694 0.29495,31.2365403 0.29495,26.60525 L0.29495,17.7276694 C0.29495,13.1443629 3.790575,9.42928226 8.14948125,9.42928226 L9.0573875,9.42928226 C10.237825,9.42928226 11.3274188,9.67089516 12.2810125,10.1529919 L12.2810125,1.51702419 C12.2810125,0.745330645 12.9163875,0.118153226 13.6882938,0.118153226 L15.5497938,0.118153226 C16.2765438,0.118153226 16.9119188,0.745330645 16.9119188,1.51702419 L16.9119188,32.9735565 C16.9119188,33.8417823 16.2765438,34.4689597 15.5497938,34.4689597 L15.5497938,34.4689597 Z" id="Fill-30" fill="#000000" mask="url(#mask-6)"></path>
            </g>
            <g id="Group-35" transform="translate(218.000000, 10.000000)">
                <mask id="mask-8" fill="white">
                    <use xlink:href="#path-7"></use>
                </mask>
                <g id="Clip-34"></g>
                <path d="M12.15755,8.63010978 C12.15755,6.76270761 10.7051125,5.23035089 8.93445625,5.23035089 L7.935175,5.23035089 C6.16451875,5.23035089 4.71155,6.76270761 4.71155,8.63010978 L4.71155,10.6415031 L12.15755,10.6415031 L12.15755,8.63010978 Z M15.381175,15.4778114 L4.71155,15.4778114 L4.71155,17.4410208 C4.71155,19.308423 6.16451875,20.8884033 7.935175,20.8884033 L8.93445625,20.8884033 C11.2044875,20.8884033 11.9758625,18.6377718 12.02155,18.3509102 C12.2032375,17.5844517 12.9751438,17.1054151 13.7013625,17.3452135 L15.5177063,17.7760663 C16.243925,18.0153044 16.6524563,18.87701 16.5164563,19.5952847 C15.5628625,23.1390347 12.5214563,25.7728954 8.93445625,25.7728954 L7.935175,25.7728954 C3.62195625,25.7728954 0.12633125,22.0375307 0.12633125,17.4410208 L0.12633125,8.63010978 C0.12633125,4.08122342 3.62195625,0.394042589 7.935175,0.394042589 L8.93445625,0.394042589 C13.247675,0.394042589 16.7433,4.08122342 16.7433,8.63010978 L16.7433,14.0407017 C16.7433,14.8071602 16.107925,15.4778114 15.381175,15.4778114 L15.381175,15.4778114 Z" id="Fill-33" fill="#000000" mask="url(#mask-8)"></path>
            </g>
            <path d="M257.550309,22.7268464 L255.63271,22.7268464 C254.884606,22.7268464 254.230084,22.0756155 254.230084,21.2239156 L254.230084,17.6166471 C254.230084,15.5627198 252.592682,14.059789 250.908764,14.059789 L249.973497,14.059789 C248.195997,14.059789 246.606207,15.5627198 246.606207,17.6166471 L246.606207,29.8903869 L253.715112,29.8903869 C254.510281,29.8903869 255.165351,30.5920281 255.165351,31.4431419 L255.165351,33.447245 C255.165351,34.3487691 254.510281,35 253.715112,35 L239.450238,35 C238.702134,35 238,34.3487691 238,33.447245 L238,31.4431419 C238,30.5920281 238.702134,29.8903869 239.450238,29.8903869 L241.835197,29.8903869 L241.835197,17.6166471 C241.835197,13.0580305 245.296068,9 249.973497,9 L250.908764,9 C255.586193,9 259,13.0580305 259,17.6166471 L259,21.2239156 C259,22.0756155 258.345477,22.7268464 257.550309,22.7268464" id="Fill-36" fill="#000000"></path>
        </g>
        <g id="Group">
            <path d="M83,34.1645648 L73.7565506,25 L64.4974782,34.1645648 L67.8683381,37.5010182 L71.2178191,33.9138934 C71.2260417,38.6440964 71.2317976,51.0279176 71.1886288,55.7577136 C71.1495714,60.13307 67.9501531,63.1500801 63.5436552,63.1500801 C48.64716,63.1525217 34.5688147,63.1521148 19.6727306,63.1521148 C15.0577896,63.1517078 11.9911664,60.1420226 11.9500533,55.5538396 C11.9299079,53.3059352 11.9463532,51.0588446 11.945942,48.8109401 L11.945942,47.1494278 L7.04937652,47.1494278 C7.04937652,48.5509092 7.05307669,49.6081242 7.04937652,50.9331019 C7.04197617,53.1801925 6.88204636,55.3194455 7.18052718,57.4615471 C8.06158007,63.7889668 13.0794291,67.9828305 19.5917379,67.9909692 C34.5223569,68.0076535 48.6356484,67.9974801 63.5658563,67.9901553 C64.251211,67.9893415 64.9497219,67.9836444 65.6206871,67.8640057 C72.013768,66.7192999 76.0555929,61.9406717 76.0740938,55.4850677 L76.077794,33.9138934 L79.6932765,37.5010182 L83,34.1645648 Z" id="Fill-1" fill="#C82575"></path>
            <path d="M0,33.8353552 L9.24388008,43 L18.5025609,33.8353552 L15.1312828,30.4988727 L11.7822058,34.0864358 C11.773572,29.3557846 11.7682273,16.9718553 11.810985,12.242018 C11.8504536,7.86703035 15.0498788,4.84999396 19.4563859,4.84958702 C34.3525015,4.84714539 48.4312877,4.84755233 63.3278145,4.84795927 C67.9423541,4.84795927 71.0089838,7.85807772 71.0500969,12.4463007 C71.0702424,14.6938178 71.0542083,16.940928 71.0542083,19.1888521 L71.0542083,20.8503789 L75.9507841,20.8503789 C75.9507841,19.4488853 75.9466728,18.392068 75.9507841,17.0670787 C75.9581845,14.8195616 76.1177035,12.6802899 75.8196332,10.5389835 C74.9385784,4.21069477 69.9207188,0.0167944364 63.4083962,0.00946955713 C48.4777456,-0.00762182788 34.3644243,0.00214467784 19.4337737,0.00987649487 C18.7484175,0.0102834326 18.0503163,0.0159805609 17.3793497,0.135620256 C10.9862553,1.28033611 6.94401061,6.05900598 6.92550969,12.5150732 L6.92222064,34.0864358 L3.30673045,30.4988727 L0,33.8353552 Z" id="Fill-3" fill="#000000"></path>
            <path d="M33.0000237,23.2564479 L31.9999763,23.2564479 L28.9166983,35.3059092 L36.0833017,35.3059092 L33.0000237,23.2564479 Z M39.7081711,49 L38.0002611,49 C37.3331592,49 36.75,48.4519262 36.75,47.6936827 L36.75,39.5623572 L28.25,39.5623572 L28.25,47.6936827 C28.25,48.4519262 27.6664372,49 26.9997389,49 L25.2918289,49 C24.5835628,49 24,48.4519262 24,47.6936827 L24,37.2868103 L24.0415678,37.0337904 L28.5002137,19.9276037 C28.6249169,19.379938 29.1665084,19 29.7500712,19 L35.2499288,19 C35.8334916,19 36.3746795,19.379938 36.4997863,19.9276037 L40.9584322,37.0337904 L41,37.2868103 L41,47.6936827 C41,48.4519262 40.4164372,49 39.7081711,49 L39.7081711,49 Z" id="Fill-5" fill="#000000"></path>
            <path d="M58.7081711,23.2564479 L53.6247982,23.2564479 L53.6247982,47.6936827 C53.6247982,48.4519262 53.041639,49 52.3333729,49 L50.6666271,49 C49.958361,49 49.3747982,48.4519262 49.3747982,47.6936827 L49.3747982,23.2564479 L44.2918289,23.2564479 C43.5831592,23.2564479 43,22.6667483 43,21.9913484 L43,20.2218413 C43,19.5476657 43.5831592,19 44.2918289,19 L58.7081711,19 C59.4164372,19 60,19.5476657 60,20.2218413 L60,21.9913484 C60,22.6667483 59.4164372,23.2564479 58.7081711,23.2564479" id="Fill-7" fill="#C82575"></path>
        </g>
    </g>
</svg>