<?xml version="1.0" encoding="UTF-8"?>
<svg width="245px" height="38px" viewBox="0 0 245 38" version="1.1" xmlns="http://www.w3.org/2000/svg" xmlns:xlink="http://www.w3.org/1999/xlink">
    <!-- Generator: Sketch 58 (84663) - https://sketch.com -->
    <title>Logos / AB / orange</title>
    <desc>Created with Sketch.</desc>
    <g id="Logos-/-AB-/-orange" stroke="none" stroke-width="1" fill="none" fill-rule="evenodd">
        <g id="Group-2-Copy-13" transform="translate(26.000000, 0.000000)" fill-rule="nonzero">
            <g id="lgooab-02">
                <path d="M10.7659609,37.8752443 L9.63273616,37.8752443 C4.69944784,37.844482 0.723963844,33.8225637 0.750356637,28.8892508 L0.750356637,19.3845277 C0.750356637,14.4789978 4.72720629,10.5022801 9.63273616,10.5022801 L10.7659609,10.5022801 C13.1216794,10.5022801 15.3809139,11.4380857 17.0466584,13.1038302 C18.7124029,14.7695747 19.6483404,17.0288092 19.6483404,19.3845277 C19.648597,20.2476587 18.9627426,20.954725 18.1,20.9806189 L15.9851792,20.9806189 C15.5647314,20.9853651 15.1608077,20.8171216 14.868049,20.5153085 C14.5752902,20.2134953 14.4194241,19.804636 14.4369707,19.3845277 C14.4282009,17.3620231 12.7884798,15.7258666 10.7659609,15.7214984 L9.63273616,15.7214984 C7.61201918,15.7302037 5.97482929,17.3638344 5.96172638,19.3845277 L5.96172638,28.8892508 C5.97011283,30.9210621 7.60120414,32.5734285 9.63273616,32.6081433 L10.7659609,32.6081433 C12.7993042,32.5776657 14.4328445,30.9228183 14.4369707,28.8892508 C14.4365822,28.0261198 15.1224365,27.3190535 15.9851792,27.2931596 L18.1,27.2931596 C18.9627426,27.3190535 19.648597,28.0261198 19.6483404,28.8892508 C19.6747332,33.8225637 15.6992492,37.844482 10.7659609,37.8752443 Z" id="Path" fill="#FF7900"></path>
                <path d="M36.4789902,37.8752443 C34.1014487,37.8710214 31.8231993,36.9213985 30.146518,35.235735 C28.4698367,33.5500715 27.5323996,31.266781 27.5408795,28.8892508 L27.5408795,17.32557 L24.8594463,17.32557 C23.9967036,17.2996762 23.3108493,16.5926099 23.3112376,15.7294788 L23.3112376,13.6625407 C23.3108493,12.7994097 23.9967036,12.0923434 24.8594463,12.0664495 L27.5408795,12.0664495 L27.5408795,2.03501629 C27.546904,1.6221689 27.7201545,1.22942708 28.0209985,0.946633676 C28.3218426,0.663840267 28.7245401,0.515190987 29.1369707,0.534690554 L31.2517915,0.534690554 C32.0972047,0.532987899 32.7971592,1.19112475 32.8478827,2.03501629 L32.8478827,12.0504886 L41.7301303,12.0504886 C42.6116271,12.0504886 43.3262215,12.765083 43.3262215,13.6465798 L43.3262215,15.7135179 C43.3262215,16.5950147 42.6116271,17.3096091 41.7301303,17.3096091 L32.8159609,17.3096091 L32.8159609,28.8892508 C32.8159608,30.1979252 33.5141303,31.4071902 34.6474755,32.0615274 C35.7808208,32.7158647 37.1771597,32.7158647 38.3105049,32.0615274 C39.4438502,31.4071902 40.1420196,30.1979252 40.1420195,28.8892508 L40.1420195,27.859772 C40.1420195,26.9782752 40.8566139,26.2636808 41.7381107,26.2636808 L43.8529316,26.2636808 C44.7344284,26.2636808 45.4490264,26.9782752 45.4490264,27.859772 L45.4490264,28.8892508 C45.4511403,31.2703682 44.5072754,33.5548023 42.8250677,35.2400032 C41.1428601,36.925204 38.8601076,37.8731287 36.4789902,37.8752443 Z" id="Path" fill="#FF7900"></path>
                <path d="M84.8644951,36.2711726 C84.6277615,36.8700552 84.0631579,37.2755716 83.4200326,37.3086319 L79.804886,37.3086319 C79.1624507,37.2736076 78.5987978,36.868774 78.3604235,36.2711726 L70.2043974,13.1278502 C70.0087847,12.6426523 70.0728267,12.0913343 70.3744526,11.6638965 C70.6760785,11.2364587 71.1740467,10.9913452 71.6967427,11.0130293 L74.4899023,11.0130293 C75.1391523,11.0546762 75.7127504,11.4503668 75.9822476,12.0425081 L81.6164495,30.397557 L87.8092834,12.0425081 C88.0681684,11.4380371 88.6524736,11.0371043 89.3096091,11.0130293 L91.5281759,11.0130293 C92.0507708,10.9927662 92.5482727,11.2377096 92.8508811,11.6642587 C93.1534895,12.0908078 93.220297,12.6413006 93.0285016,13.1278502 L84.8644951,36.2711726 Z" id="Path" fill="#FF7900"></path>
                <path d="M106.236156,37.8752443 L105.094951,37.8752443 C100.16351,37.8400999 96.1905821,33.8207675 96.2126116,28.8892508 L96.2126116,19.3845277 C96.2171035,14.4808215 100.191245,10.50668 105.094951,10.5022801 L106.236156,10.5022801 C111.141686,10.5022801 115.118536,14.4789978 115.118536,19.3845277 L115.118536,28.8892508 C115.144929,33.8225637 111.169445,37.844482 106.236156,37.8752443 Z M109.899186,19.3845277 C109.890444,17.3651247 108.255559,15.7302405 106.236156,15.7214984 L105.094951,15.7214984 C103.075548,15.7302405 101.440664,17.3651247 101.431922,19.3845277 L101.431922,28.8892508 C101.435972,30.9197628 103.064733,32.5733634 105.094951,32.6081433 L106.236156,32.6081433 C108.266375,32.5733634 109.895136,30.9197628 109.899186,28.8892508 L109.899186,19.3845277 Z" id="Shape" fill="#FF7900"></path>
                <path d="M165.634691,37.3086319 L164.549349,37.3086319 C163.26577,37.3033509 162.038056,36.7829381 161.141694,35.8641694 C159.35642,37.1236884 157.236854,37.8237285 155.052606,37.8752443 L154.015147,37.8752443 C149.625896,37.8752443 146.170358,34.6830619 146.170358,30.4933225 L146.170358,29.4079805 C146.170358,24.2446254 150.296254,22.6405537 153.759772,21.6110749 C154.637622,21.3477199 159.84886,20.5736156 159.84886,18.6662866 C159.84886,16.7589577 158.508143,15.7214984 156.185831,15.7214984 L155.619218,15.7214984 C153.596699,15.7258666 151.956978,17.3620231 151.948208,19.3845277 C151.948208,20.2660245 151.233614,20.9806189 150.352117,20.9806189 L148.285179,20.9806189 C147.403682,20.9806189 146.689088,20.2660245 146.689088,19.3845277 C146.693305,17.0204135 147.638138,14.7551577 149.315054,13.0887224 C150.99197,11.4222872 153.263104,10.4916749 155.627199,10.5021905 L156.193811,10.5021905 C160.790554,10.5021905 165.076059,13.6944625 165.076059,18.9216612 L165.076059,31.5228013 C165.097209,31.818743 165.346016,32.0465243 165.642671,32.0415309 C166.505414,32.0674248 167.191268,32.7744911 167.190902,33.6376221 L167.190902,35.7045603 C167.195497,36.5738052 166.503676,37.2869128 165.634691,37.3086319 Z M159.84886,24.3483713 C157.454723,25.5294788 155.667101,25.585342 153.703909,26.4631922 C152.404304,26.8830871 151.486975,28.0462976 151.381596,29.4079805 L151.381596,30.2060261 C151.397333,30.8783598 151.687864,31.5148828 152.185487,31.9672673 C152.68311,32.4196518 153.34436,32.648384 154.015147,32.6001629 L155.052606,32.6001629 C157.630293,32.6001629 159.840879,31.0998371 159.840879,28.8812704 L159.84886,24.3483713 Z" id="Shape" fill="#000000"></path>
                <path d="M189.639902,37.3086319 L187.572964,37.3086319 C186.691467,37.3086319 185.976873,36.5940375 185.976873,35.7125407 L185.976873,19.3845277 C185.98339,18.4068837 185.596256,17.4677369 184.902694,16.7786783 C184.209132,16.0896198 183.267483,15.7086126 182.289902,15.7214984 L181.252443,15.7214984 C179.221931,15.7255485 177.56833,17.3543095 177.53355,19.3845277 L177.53355,35.7045603 C177.551097,36.1246686 177.395231,36.5335279 177.102472,36.835341 C176.809713,37.1371542 176.40579,37.3053977 175.985342,37.3006515 L173.870521,37.3006515 C172.989024,37.3006515 172.27443,36.5860571 172.27443,35.7045603 L172.27443,12.5612378 C172.320088,11.7073488 173.015638,11.0326658 173.870521,11.0130293 L175.985342,11.0130293 C176.412346,11.008443 176.823381,11.1751565 177.126547,11.4758958 C178.39778,10.8079099 179.816593,10.4703586 181.252443,10.4942997 L182.289902,10.4942997 C187.205042,10.4898542 191.198053,14.4614545 191.220033,19.3765472 L191.220033,35.6965798 C191.237761,36.123738 191.078065,36.5392134 190.778797,36.8445276 C190.479528,37.1498419 190.06733,37.3178146 189.639902,37.3086319 L189.639902,37.3086319 Z" id="Path" fill="#000000"></path>
                <path d="M216.605863,37.3086319 L213.868567,37.3086319 C213.410532,37.2499709 212.988677,37.0291337 212.679479,36.6861564 L204.108469,26.0003257 L202.711889,27.3410423 L202.711889,35.7045603 C202.729436,36.1246686 202.57357,36.5335279 202.280811,36.835341 C201.988052,37.1371542 201.584129,37.3053977 201.163681,37.3006515 L199.04886,37.3006515 C198.186117,37.2747576 197.500263,36.5676913 197.500651,35.7045603 L197.500651,2.03501629 C197.526529,1.19872014 198.212164,0.534352371 199.04886,0.534352371 L201.163681,0.534352371 C201.568574,0.526143093 201.960061,0.679922998 202.250889,0.961756714 C202.541717,1.24359043 202.707716,1.63005457 202.711889,2.03501629 L202.711889,19.9032573 L211.187134,11.4838762 C211.497115,11.1986349 211.89932,11.0343524 212.320358,11.0210098 L215.265147,11.0210098 C215.934621,10.9505873 216.569716,11.3323268 216.821639,11.956578 C217.073562,12.5808292 216.881319,13.29645 216.350489,13.7104235 L207.827362,22.22557 L217.842834,34.7229642 C218.273997,35.1862321 218.377897,35.866093 218.104781,36.4369926 C217.831666,37.0078923 217.237127,37.3536237 216.605863,37.3086319 Z" id="Path" fill="#000000"></path>
                <path d="M67.6586319,37.3086319 L50.8996743,37.3086319 C50.0181774,37.3086319 49.3035831,36.5940375 49.3035831,35.7125407 L49.3035831,33.6456026 C49.3035831,32.7641058 50.0181774,32.0495114 50.8996743,32.0495114 L56.6216612,32.0495114 L56.6216612,16.2881107 L53.0065147,16.2881107 C52.1250178,16.2881107 51.4104235,15.5735164 51.4104235,14.6920195 L51.4104235,12.5692182 C51.4363173,11.7064756 52.1433836,11.0206213 53.0065147,11.0210096 L60.2846906,11.0210096 C61.1395738,11.0406463 61.8351234,11.7153293 61.8807818,12.5692182 L61.8807818,32.0415309 L67.6586319,32.0415309 C68.5213746,32.0674248 69.2072289,32.7744911 69.2068406,33.6376221 L69.2068406,35.7045603 C69.2072289,36.5676913 68.5213746,37.2747576 67.6586319,37.3006515 M60.7954397,7.86074919 L56.6057003,7.86074919 C55.7242035,7.86074919 55.0096091,7.14615481 55.0096091,6.26465798 L55.0096091,2.02703583 C55.0603326,1.18314429 55.7602871,0.525187062 56.6057003,0.526710098 L60.7954397,0.526710098 C61.2003327,0.518162637 61.5918196,0.671942542 61.882648,0.953776258 C62.1734764,1.23560997 62.3394754,1.62207411 62.3436484,2.02703583 L62.3436484,6.26465798 C62.3440367,7.12778904 61.6581824,7.83485534 60.7954397,7.86074919" id="Shape" fill="#FF7900"></path>
            </g>
        </g>
    </g>
</svg>