<?xml version="1.0" encoding="UTF-8"?>
<svg width="312px" height="102px" viewBox="0 0 312 102" version="1.1" xmlns="http://www.w3.org/2000/svg" xmlns:xlink="http://www.w3.org/1999/xlink">
    <!-- Generator: Sketch 58 (84663) - https://sketch.com -->
    <title>Logos / Ferramentas / Ontrade-com-AB</title>
    <desc>Created with Sketch.</desc>
    <defs>
        <path d="M32.9250746,0.344776119 C14.928806,0.344776119 0.344776119,14.9476119 0.344776119,32.9647761 L0.344776119,67.8561194 C0.344776119,86.0623881 14.928806,100.849104 32.9250746,100.849104 L37.090597,100.849104 C55.0858209,100.849104 69.6719403,86.0623881 69.6719403,67.8561194 L69.6719403,32.9647761 C69.6719403,14.9476119 55.0858209,0.344776119 37.090597,0.344776119 L32.9250746,0.344776119 Z M19.4735821,67.8561194 L19.4735821,32.9647761 C19.4735821,25.5667164 25.5343284,19.4944776 32.9250746,19.4944776 L37.090597,19.4944776 C44.4761194,19.4944776 50.5410448,25.5667164 50.5410448,32.9647761 L50.5410448,67.8561194 C50.5410448,75.25 44.4761194,81.508209 37.090597,81.508209 L32.9250746,81.508209 C25.5343284,81.508209 19.4735821,75.25 19.4735821,67.8561194 Z" id="path-1"></path>
    </defs>
    <g id="Logos-/-Ferramentas-/-Ontrade-com-AB" stroke="none" stroke-width="1" fill="none" fill-rule="evenodd">
        <g id="ontrade_logo" transform="translate(242.200000, 0.000000)">
            <mask id="mask-2" fill="white">
                <use xlink:href="#path-1"></use>
            </mask>
            <g id="Shape"></g>
            <g id="Group" mask="url(#mask-2)">
                <g transform="translate(-36.381194, -37.164776)">
                    <g transform="translate(19.393134, 36.223433)">
                        <path d="M103.432836,51.5398507 C103.432836,79.9504478 80.4049254,102.978358 51.9943284,102.978358 C23.5868657,102.978358 0.554776119,79.9504478 0.554776119,51.5398507 C0.554776119,23.1302985 23.5868657,0.100298507 51.9943284,0.100298507 C80.4049254,0.100298507 103.432836,23.1302985 103.432836,51.5398507" id="Path" fill="#22ACE3" fill-rule="nonzero"></path>
                    </g>
                    <g transform="translate(0.273313, 0.001567)">
                        <polygon id="Path" fill="#E6007D" fill-rule="nonzero" points="71.0447761 0.194328358 0.369850746 46.3807463 71.1137313 87.761194"></polygon>
                    </g>
                    <g transform="translate(70.657164, 18.685090)">
                        <polygon id="Path" fill="#CC0070" fill-rule="nonzero" points="37.6119403 1.54313433 0.661343284 0.375074627 0.661343284 69.0785075"></polygon>
                    </g>
                    <g transform="translate(71.109552, 22.567582)">
                        <polygon id="Path" fill="#1879A5" fill-rule="nonzero" points="55.3731343 45.0622388 34.9425373 7.10542736e-15 0.207910448 65.2577612"></polygon>
                    </g>
                    <g transform="translate(14.271851, 31.682522)">
                        <polygon id="Path" fill="#EA4893" fill-rule="nonzero" points="8.70298507 56.0062687 57.1158209 56.0804478 0.0167164179 0.270597015"></polygon>
                    </g>
                    <g transform="translate(48.057612, 87.763284)">
                        <polygon id="Path" fill="#70C2EE" fill-rule="nonzero" points="23.3298507 54.6292537 23.3298507 0 0.152537313 52.458209"></polygon>
                    </g>
                    <g transform="translate(70.948657, 87.685552)">
                        <polygon id="Path" fill="#4EB2E6" fill-rule="nonzero" points="41.7910448 50.3279104 0.369850746 0.0773134328 0.43880597 57.908806"></polygon>
                    </g>
                    <g transform="translate(71.142985, 64.799836)">
                        <polygon id="Path" fill="#1A88BA" fill-rule="nonzero" points="57.4626866 0.642537313 0.244477612 22.9850746 56.9486567 22.9631343"></polygon>
                    </g>
                    <g transform="translate(21.238209, 87.465522)">
                        <polygon id="Path" fill="#00A9E2" fill-rule="nonzero" points="50.1492537 0.297761194 0.130597015 12.3408955 1.77089552 18.8059701"></polygon>
                    </g>
                    <g transform="translate(8.700896, 87.548060)">
                        <polygon id="Path" fill="#E9EDF8" fill-rule="nonzero" points="62.6865672 0.215223881 2.86268657 13.8432836 0.061641791 25.0746269"></polygon>
                    </g>
                    <g transform="translate(21.238209, 87.260224)">
                        <polygon id="Path" fill="#F193BD" fill-rule="nonzero" points="50.1492537 0.437761194 1.73641791 0.428358209 0.130597015 12.5467164"></polygon>
                    </g>
                    <g transform="translate(5.497194, 87.069552)">
                        <polygon id="Path" fill="#C8DFF5" fill-rule="nonzero" points="65.8208955 0.619552239 0.552686567 26.908209 43.358209 56.4179104"></polygon>
                    </g>
                </g>
            </g>
        </g>
        <path d="M25.9,38.986376 C25.9,45.6697548 20.5271277,51.1 13.9832447,51.1 L11.9167553,51.1 C5.37287234,51.1 0,45.6697548 0,38.986376 L0,12.0440054 C0,5.43024523 5.37287234,0 11.9167553,0 L13.9832447,0 C20.5271277,0 25.9,5.43024523 25.9,12.0440054 L25.9,38.986376 Z M18.9,39.06 L18.9,11.97 C18.9,9.24 16.7552326,7 13.9877907,7 L11.9122093,7 C9.14476744,7 7,9.24 7,11.97 L7,39.06 C7,41.79 9.14476744,44.1 11.9122093,44.1 L13.9877907,44.1 C16.7552326,44.1 18.9,41.79 18.9,39.06 Z M61.6,48.2360955 C61.6,49.4925562 60.62,50.4 59.43,50.4 L51.38,50.4 C50.54,50.4 49.56,49.7717697 49.35,49.0039326 L39.9,16.9641854 C39.34,15.2191011 38.29,8.65758427 38.29,8.65758427 L36.61,8.65758427 C36.61,8.65758427 37.24,15.2191011 37.24,16.9641854 L37.24,48.2360955 C37.24,49.4925562 36.26,50.4 35.07,50.4 L32.27,50.4 C31.08,50.4 30.1,49.4925562 30.1,48.2360955 L30.1,2.72429775 C30.1,1.60744382 31.08,0.7 32.27,0.7 L40.32,0.7 C41.16,0.7 42.14,1.25842697 42.35,2.02626404 L51.8,34.0660112 C52.36,35.8808989 53.41,42.4424157 53.41,42.4424157 L55.09,42.4424157 C55.09,42.4424157 54.46,35.8808989 54.46,34.0660112 L54.46,2.79410112 C54.46,1.60744382 55.44,0.7 56.63,0.7 L59.43,0.7 C60.62,0.7 61.6,1.60744382 61.6,2.79410112 L61.6,48.2360955 Z M93.1,5.65603933 C93.1,6.77289326 92.1151961,7.75014045 90.9193627,7.75014045 L82.3375,7.75014045 L82.3375,48.2360955 C82.3375,49.4925562 81.3526961,50.4 80.1568627,50.4 L77.3431373,50.4 C76.1473039,50.4 75.1625,49.4925562 75.1625,48.2360955 L75.1625,7.75014045 L66.5806373,7.75014045 C65.3848039,7.75014045 64.4,6.77289326 64.4,5.65603933 L64.4,2.72429775 C64.4,1.60744382 65.3848039,0.7 66.5806373,0.7 L90.9193627,0.7 C92.1151961,0.7 93.1,1.60744382 93.1,2.72429775 L93.1,5.65603933 Z M125.779442,47.4682584 C126.479154,48.9341292 125.429586,50.4 123.820248,50.4 L120.741513,50.4 C119.97183,50.4 119.062204,49.7717697 118.782319,49.1435393 L112.694822,34.7640449 L107.237066,34.7640449 L107.237066,48.2360955 C107.237066,49.4925562 106.257468,50.4 105.067957,50.4 L102.199137,50.4 C101.079597,50.4 100.1,49.4925562 100.1,48.2360955 L100.1,2.72429775 C100.1,1.60744382 101.079597,0.7 102.199137,0.7 L113.604448,0.7 C120.321686,0.7 125.709471,6.00505618 125.709471,12.7061798 L125.709471,22.6880618 C125.709471,27.1554775 123.260478,31.0644663 119.761916,33.088764 L125.779442,47.4682584 Z M118.3,22.3657343 L118.3,12.5657343 C118.3,9.89300699 116.15679,7.7 113.391358,7.7 L107.1,7.7 L107.1,27.3 L113.391358,27.3 C116.15679,27.3 118.3,25.0384615 118.3,22.3657343 Z M159.6,48.2360955 C159.6,49.4925562 158.615196,50.4 157.419363,50.4 L154.535294,50.4 C153.409804,50.4 152.425,49.4925562 152.425,48.2360955 L152.425,34.7640449 L138.075,34.7640449 L138.075,48.2360955 C138.075,49.4925562 137.090196,50.4 135.964706,50.4 L133.080637,50.4 C131.884804,50.4 130.9,49.4925562 130.9,48.2360955 L130.9,30.9946629 L130.970343,30.5758427 L138.497059,2.23567416 C138.708088,1.32823034 139.622549,0.7 140.607353,0.7 L149.892647,0.7 C150.877451,0.7 151.791912,1.32823034 152.002941,2.23567416 L159.529657,30.5758427 L159.6,30.9946629 L159.6,48.2360955 Z M151.2,27.3 L146.080233,7.7 L144.419767,7.7 L139.3,27.3 L151.2,27.3 Z M191.8,38.3240169 C191.8,44.9553371 186.498361,50.4 179.888525,50.4 L168.665574,50.4 C167.563934,50.4 166.6,49.4925562 166.6,48.2360955 L166.6,2.72429775 C166.6,1.60744382 167.563934,0.7 168.665574,0.7 L179.888525,0.7 C186.498361,0.7 191.8,6.00505618 191.8,12.7061798 L191.8,38.3240169 Z M184.8,38.4202358 L184.8,12.6797642 C184.8,9.94440079 182.65679,7.7 179.891358,7.7 L173.6,7.7 L173.6,43.4 L179.891358,43.4 C182.65679,43.4 184.8,41.2257367 184.8,38.4202358 Z M224.7,48.2360955 C224.7,49.4925562 223.738692,50.4 222.57139,50.4 L201.559946,50.4 C200.461308,50.4 199.5,49.4925562 199.5,48.2360955 L199.5,2.72429775 C199.5,1.60744382 200.461308,0.7 201.559946,0.7 L222.57139,0.7 C223.738692,0.7 224.7,1.60744382 224.7,2.72429775 L224.7,5.65603933 C224.7,6.77289326 223.738692,7.75014045 222.57139,7.75014045 L206.503815,7.75014045 L206.503815,21.9900281 L221.129428,21.9900281 C222.29673,21.9900281 223.258038,22.8974719 223.258038,24.1539326 L223.258038,26.9460674 C223.258038,28.0629213 222.29673,29.1099719 221.129428,29.1099719 L206.503815,29.1099719 L206.503815,43.2800562 L222.57139,43.2800562 C223.738692,43.2800562 224.7,44.2573034 224.7,45.4439607 L224.7,48.2360955 Z" id="ONTRADE" fill="#FFFFFF"></path>
        <path d="M106.4,73.0062241 C106.4,74.8360996 104.918841,76.3 103.113043,76.3 L102.686957,76.3 C101.956522,76.3 101.266667,76.0560166 100.718841,75.6493776 L100.718841,75.8526971 C100.718841,75.9746888 100.597101,76.0763485 100.495652,76.0763485 L99.6028986,76.0763485 C99.5014493,76.0763485 99.4,75.9746888 99.4,75.8526971 L99.4,61.8033195 C99.4,61.6813278 99.5014493,61.6 99.6028986,61.6 L100.495652,61.6 C100.597101,61.6 100.718841,61.6813278 100.718841,61.8033195 L100.718841,66.4186722 C101.266667,66.0120332 101.956522,65.7477178 102.686957,65.7477178 L103.113043,65.7477178 C104.918841,65.7477178 106.4,67.2319502 106.4,69.0414938 L106.4,73.0062241 Z M105,72.9799486 L105,69.1200514 C105,68.0709512 104.16,67.2 103.105116,67.2 L102.694884,67.2 C101.64,67.2 100.8,68.0709512 100.8,69.1200514 L100.8,72.9799486 C100.8,74.0290488 101.64,74.9 102.694884,74.9 L103.105116,74.9 C104.16,74.9 105,74.0290488 105,72.9799486 Z M116.181581,66.0720478 C116.181581,66.0720478 113.6071,75.3844544 112.979178,77.4980568 C112.351256,79.6325859 110.865173,79.8 109.169784,79.8 L108.730238,79.8 C108.604654,79.8 108.5,79.6953662 108.5,79.5698057 L108.5,78.6699552 C108.5,78.5443946 108.604654,78.4397608 108.730238,78.4397608 L109.169784,78.4397608 C111.409373,78.4397608 111.367511,78.167713 112.058226,75.8866966 L109.086061,66.0720478 C109.044199,65.9046338 109.127922,65.8 109.295368,65.8 L110.258182,65.8 C110.320974,65.8 110.446559,65.883707 110.467489,65.9464873 L112.707078,73.6893871 L114.842014,65.9464873 C114.862944,65.883707 114.988529,65.8 115.072252,65.8 L115.972274,65.8 C116.139719,65.8 116.244373,65.9046338 116.181581,66.0720478 Z M135.8,76.0728933 C135.8,76.1967697 135.698844,76.3 135.577457,76.3 L134.707514,76.3 C134.586127,76.3 134.484971,76.1967697 134.484971,76.0728933 L134.484971,71.406882 L130.115029,71.406882 L130.115029,76.0728933 C130.115029,76.1967697 130.013873,76.3 129.892486,76.3 L129.022543,76.3 C128.901156,76.3 128.8,76.1967697 128.8,76.0728933 L128.8,70.6016854 L131.086127,61.7445225 C131.106358,61.6825843 131.227746,61.6 131.308671,61.6 L133.291329,61.6 C133.372254,61.6 133.493642,61.6825843 133.513873,61.7445225 L135.8,70.6016854 L135.8,76.0728933 Z M134.4,70 L132.471429,63 L132.128571,63 L130.2,70 L134.4,70 Z M145.6,73.0225434 C145.6,74.8433526 144.123121,76.3 142.322543,76.3 L141.877457,76.3 C140.076879,76.3 138.6,74.8433526 138.6,73.0225434 L138.6,69.0774566 C138.6,67.2768786 140.076879,65.8 141.877457,65.8 L142.322543,65.8 C144.123121,65.8 145.6,67.2768786 145.6,69.0774566 C145.6,69.1988439 145.498844,69.3 145.377457,69.3 L144.507514,69.3 C144.386127,69.3 144.284971,69.1988439 144.284971,69.0774566 C144.284971,68.0052023 143.394798,67.1150289 142.322543,67.1150289 L141.877457,67.1150289 C140.805202,67.1150289 139.915029,68.0052023 139.915029,69.0774566 L139.915029,73.0225434 C139.915029,74.0947977 140.805202,74.9849711 141.877457,74.9849711 L142.322543,74.9849711 C143.394798,74.9849711 144.284971,74.0947977 144.284971,73.0225434 C144.284971,72.9213873 144.386127,72.8 144.507514,72.8 L145.377457,72.8 C145.498844,72.8 145.6,72.9213873 145.6,73.0225434 Z M155.4,73.0062241 C155.4,74.8360996 153.924878,76.3 152.101463,76.3 C150.257561,76.3 148.761951,74.8360996 148.761951,73.0062241 L148.761951,67.740249 L147.225366,67.740249 C147.102439,67.740249 147,67.6182573 147,67.5165975 L147,66.6219917 C147,66.520332 147.102439,66.4186722 147.225366,66.4186722 L148.761951,66.4186722 L148.761951,61.8033195 C148.761951,61.6813278 148.86439,61.6 148.987317,61.6 L149.868293,61.6 C149.99122,61.6 150.114146,61.6813278 150.114146,61.8033195 L150.114146,66.4186722 L154.293659,66.4186722 C154.416585,66.4186722 154.519024,66.520332 154.519024,66.6219917 L154.519024,67.5165975 C154.519024,67.6182573 154.416585,67.740249 154.293659,67.740249 L150.114146,67.740249 L150.114146,73.0062241 C150.114146,74.0838174 150.995122,74.9784232 152.101463,74.9784232 C153.187317,74.9784232 154.08878,74.0838174 154.08878,73.0062241 L154.08878,72.5589212 C154.08878,72.4369295 154.170732,72.3556017 154.293659,72.3556017 L155.174634,72.3556017 C155.297561,72.3556017 155.4,72.4369295 155.4,72.5589212 L155.4,73.0062241 Z M163.1,63.4861111 C163.1,63.6027778 162.984404,63.7 162.868807,63.7 L161.231193,63.7 C161.115596,63.7 161,63.6027778 161,63.4861111 L161,61.8138889 C161,61.6972222 161.115596,61.6 161.231193,61.6 L162.868807,61.6 C162.984404,61.6 163.1,61.6972222 163.1,61.8138889 L163.1,63.4861111 Z M165.9,76.0671371 C165.9,76.1941532 165.797561,76.3 165.674634,76.3 L157.725366,76.3 C157.602439,76.3 157.5,76.1941532 157.5,76.0671371 L157.5,75.1568548 C157.5,75.0298387 157.602439,74.9451613 157.725366,74.9451613 L161.474634,74.9451613 L161.474634,67.1548387 L158.606341,67.1548387 C158.483415,67.1548387 158.380976,67.0489919 158.380976,66.9219758 L158.380976,66.0116935 C158.380976,65.8846774 158.483415,65.8 158.606341,65.8 L162.580976,65.8 C162.703902,65.8 162.785854,65.8846774 162.785854,66.0116935 L162.785854,74.9451613 L165.674634,74.9451613 C165.797561,74.9451613 165.9,75.0298387 165.9,75.1568548 L165.9,76.0671371 Z M175.687783,66.0752016 L172.242661,76.1306452 C172.242661,76.2153226 172.118884,76.3 172.036366,76.3 L170.963634,76.3 C170.881116,76.3 170.757339,76.2153226 170.757339,76.1306452 L167.312217,66.0752016 C167.270958,65.9058468 167.332847,65.8 167.518512,65.8 L168.467468,65.8 C168.529356,65.8 168.673762,65.8846774 168.694392,65.9270161 L171.5,74.3947581 L174.305608,65.9270161 C174.326238,65.8846774 174.470644,65.8 174.532532,65.8 L175.481488,65.8 C175.667153,65.8 175.729042,65.9058468 175.687783,66.0752016 Z M184.8,73.0225434 C184.8,74.8433526 183.323121,76.3 181.522543,76.3 L181.077457,76.3 C179.276879,76.3 177.8,74.8433526 177.8,73.0225434 L177.8,69.0774566 C177.8,67.2768786 179.276879,65.8 181.077457,65.8 L181.522543,65.8 C183.323121,65.8 184.8,67.2768786 184.8,69.0774566 L184.8,73.0225434 Z M183.4,72.9799486 L183.4,69.1200514 C183.4,68.0709512 182.544444,67.2 181.513889,67.2 L181.086111,67.2 C180.055556,67.2 179.2,68.0709512 179.2,69.1200514 L179.2,72.9799486 C179.2,74.0290488 180.055556,74.9 181.086111,74.9 L181.513889,74.9 C182.544444,74.9 183.4,74.0290488 183.4,72.9799486 Z M194.6,72.9553371 C194.6,74.7928371 193.18427,76.3 191.414607,76.3 L187.796629,76.3 C187.698315,76.3 187.6,76.1967697 187.6,76.0728933 L187.6,61.8064607 C187.6,61.6825843 187.698315,61.6 187.796629,61.6 L191.198315,61.6 C192.948315,61.6 194.383708,63.0865169 194.383708,64.9240169 L194.383708,66.2660112 C194.383708,67.3189607 193.931461,68.2480337 193.223596,68.8674157 C194.049438,69.4661517 194.6,70.477809 194.6,71.6133427 L194.6,72.9553371 Z M193.2,65.8027027 L193.2,64.3972973 C193.2,63.2297297 192.36,62.3 191.305116,62.3 L189,62.3 L189,67.9 L191.305116,67.9 C192.36,67.9 193.2,66.9702703 193.2,65.8027027 Z M193.9,72.7892308 L193.9,71.3892308 C193.9,70.2476923 192.95022,69.3 191.784581,69.3 L189,69.3 L189,74.9 L191.784581,74.9 C192.95022,74.9 193.9,73.9523077 193.9,72.7892308 Z M205.1,75.8549133 C205.1,75.9763006 205.001028,76.0774566 204.882262,76.0774566 L204.446787,76.0774566 C203.912339,76.0774566 203.417481,75.7739884 203.14036,75.2884393 C202.447558,75.9156069 201.497429,76.3 200.606684,76.3 L200.171208,76.3 C198.607455,76.3 197.4,75.167052 197.4,73.6699422 L197.4,73.2450867 C197.4,69.5630058 202.962211,70.5947977 202.962211,68.8751445 C202.962211,67.8635838 202.170437,67.1150289 201.042159,67.1150289 L200.824422,67.1150289 C199.755527,67.1150289 198.90437,68.0052023 198.90437,69.0774566 L198.90437,69.5225434 C198.90437,69.6236994 198.785604,69.7450867 198.686632,69.7450867 L197.835476,69.7450867 C197.736504,69.7450867 197.617738,69.6236994 197.617738,69.5225434 L197.617738,69.0774566 C197.617738,67.2768786 199.062725,65.8 200.824422,65.8 L201.042159,65.8 C202.724679,65.8 204.248843,66.9936416 204.248843,68.8751445 L204.248843,74.5398844 C204.248843,74.6612717 204.347815,74.782659 204.446787,74.782659 L204.882262,74.782659 C205.001028,74.782659 205.1,74.8635838 205.1,74.9849711 L205.1,75.8549133 Z M203,72.9507177 L203,70.7 C202.65,70.8808612 202.280556,70.9813397 201.911111,71.1019139 C200.880556,71.4033493 198.8,71.7248804 198.8,73.1717703 L198.8,73.5937799 C198.8,74.2971292 199.305556,74.9 200.258333,74.9 L200.686111,74.9 C201.852778,74.9 203,73.8952153 203,72.9507177 Z M214.2,76.0726378 C214.2,76.1966535 214.098551,76.3 213.976812,76.3 L213.104348,76.3 C212.982609,76.3 212.881159,76.1966535 212.881159,76.0726378 L212.881159,69.1484252 C212.881159,68.0529528 212.008696,67.1435039 210.913043,67.1435039 L210.466667,67.1435039 C209.391304,67.1435039 208.498551,68.0529528 208.498551,69.1484252 L208.498551,76.0726378 C208.498551,76.1966535 208.417391,76.3 208.295652,76.3 L207.423188,76.3 C207.301449,76.3 207.2,76.1966535 207.2,76.0726378 L207.2,66.2547244 C207.2,66.1307087 207.301449,66.0480315 207.423188,66.0480315 L208.295652,66.0480315 C208.417391,66.0480315 208.498551,66.1307087 208.498551,66.2547244 L208.498551,66.4820866 C209.046377,66.0687008 209.736232,65.8 210.466667,65.8 L210.913043,65.8 C212.73913,65.8 214.2,67.3088583 214.2,69.1484252 L214.2,76.0726378 Z M224.620248,75.9490169 C224.781097,76.1141854 224.680566,76.3 224.479504,76.3 L223.353557,76.3 C223.313345,76.3 223.192708,76.2380618 223.172602,76.2174157 L219.332319,71.2830056 L218.306903,72.3359551 L218.306903,76.0728933 C218.306903,76.1967697 218.206372,76.3 218.085734,76.3 L217.221168,76.3 C217.100531,76.3 217,76.1967697 217,76.0728933 L217,61.8064607 C217,61.6825843 217.100531,61.6 217.221168,61.6 L218.085734,61.6 C218.206372,61.6 218.306903,61.6825843 218.306903,61.8064607 L218.306903,70.4571629 L222.529203,66.1214888 C222.54931,66.1008427 222.649841,66.0595506 222.669947,66.0595506 L223.916531,66.0595506 C224.157805,66.0595506 224.23823,66.2453652 224.07738,66.4311798 L220.257203,70.3332865 L224.620248,75.9490169 Z" id="byActivoBank" fill="#FFFFFF"></path>
    </g>
</svg>