<?xml version="1.0" encoding="UTF-8"?>
<svg width="245px" height="38px" viewBox="0 0 245 38" version="1.1" xmlns="http://www.w3.org/2000/svg" xmlns:xlink="http://www.w3.org/1999/xlink">
    <!-- Generator: Sketch 58 (84663) - https://sketch.com -->
    <title>Logos / AB / orange</title>
    <desc>Created with Sketch.</desc>
    <g id="Logos-/-AB-/-orange" stroke="none" stroke-width="1" fill="none" fill-rule="evenodd">
        <g id="Group-2-Copy-13" fill-rule="nonzero">
            <g id="lgooab-02">
                <path d="M19.7675896,37.308652 L17.6447883,37.308652 C16.7820456,37.2827381 16.0961913,36.5756718 16.0965798,35.7125407 L16.0965798,25.7369707 L5.58631922,25.7369707 L5.58631922,35.7045603 C5.58670771,36.5676913 4.9008534,37.2747576 4.03811075,37.3006515 L1.89934853,37.3006515 C1.0178517,37.3006515 0.303257329,36.5860571 0.303257329,35.7045603 L0.303257329,22.9358306 L0.351140065,22.6245928 L5.88159609,1.65993485 C6.08478441,0.976389639 6.71674576,0.510562455 7.42980456,0.518623933 L14.245114,0.518623933 C14.9581728,0.510562455 15.5901342,0.976389639 15.7933225,1.65993485 L21.3237785,22.6245928 L21.3716813,22.9358306 L21.3716813,35.7045603 C21.373797,36.1306377 21.205483,36.5398817 20.904197,36.8411677 C20.602911,37.1424537 20.193667,37.3107677 19.7675896,37.308652 Z M11.4519544,5.75390879 L10.2070033,5.75390879 L6.38436482,20.5257329 L15.2745928,20.5257329 L11.4519544,5.75390879 Z" id="Shape" fill="#FF7900"></path>
                <path d="M36.7659609,37.8752443 L35.6327362,37.8752443 C30.6994478,37.844482 26.7239638,33.8225637 26.7503566,28.8892508 L26.7503566,19.3845277 C26.7503566,14.4789978 30.7272063,10.5022801 35.6327362,10.5022801 L36.7659609,10.5022801 C39.1216794,10.5022801 41.3809139,11.4380857 43.0466584,13.1038302 C44.7124029,14.7695747 45.6483404,17.0288092 45.6483404,19.3845277 C45.648597,20.2476587 44.9627426,20.954725 44.1,20.9806189 L41.9851792,20.9806189 C41.5647314,20.9853651 41.1608077,20.8171216 40.868049,20.5153085 C40.5752902,20.2134953 40.4194241,19.804636 40.4369707,19.3845277 C40.4282009,17.3620231 38.7884798,15.7258666 36.7659609,15.7214984 L35.6327362,15.7214984 C33.6120192,15.7302037 31.9748293,17.3638344 31.9617264,19.3845277 L31.9617264,28.8892508 C31.9701128,30.9210621 33.6012041,32.5734285 35.6327362,32.6081433 L36.7659609,32.6081433 C38.7993042,32.5776657 40.4328445,30.9228183 40.4369707,28.8892508 C40.4365822,28.0261198 41.1224365,27.3190535 41.9851792,27.2931596 L44.1,27.2931596 C44.9627426,27.3190535 45.648597,28.0261198 45.6483404,28.8892508 C45.6747332,33.8225637 41.6992492,37.844482 36.7659609,37.8752443 Z" id="Path" fill="#FF7900"></path>
                <path d="M62.4789902,37.8752443 C60.1014487,37.8710214 57.8231993,36.9213985 56.146518,35.235735 C54.4698367,33.5500715 53.5323996,31.266781 53.5408795,28.8892508 L53.5408795,17.32557 L50.8594463,17.32557 C49.9967036,17.2996762 49.3108493,16.5926099 49.3112376,15.7294788 L49.3112376,13.6625407 C49.3108493,12.7994097 49.9967036,12.0923434 50.8594463,12.0664495 L53.5408795,12.0664495 L53.5408795,2.03501629 C53.546904,1.6221689 53.7201545,1.22942708 54.0209985,0.946633676 C54.3218426,0.663840267 54.7245401,0.515190987 55.1369707,0.534690554 L57.2517915,0.534690554 C58.0972047,0.532987899 58.7971592,1.19112475 58.8478827,2.03501629 L58.8478827,12.0504886 L67.7301303,12.0504886 C68.6116271,12.0504886 69.3262215,12.765083 69.3262215,13.6465798 L69.3262215,15.7135179 C69.3262215,16.5950147 68.6116271,17.3096091 67.7301303,17.3096091 L58.8159609,17.3096091 L58.8159609,28.8892508 C58.8159608,30.1979252 59.5141303,31.4071902 60.6474755,32.0615274 C61.7808208,32.7158647 63.1771597,32.7158647 64.3105049,32.0615274 C65.4438502,31.4071902 66.1420196,30.1979252 66.1420195,28.8892508 L66.1420195,27.859772 C66.1420195,26.9782752 66.8566139,26.2636808 67.7381107,26.2636808 L69.8529316,26.2636808 C70.7344284,26.2636808 71.4490264,26.9782752 71.4490264,27.859772 L71.4490264,28.8892508 C71.4511403,31.2703682 70.5072754,33.5548023 68.8250677,35.2400032 C67.1428601,36.925204 64.8601076,37.8731287 62.4789902,37.8752443 Z" id="Path" fill="#FF7900"></path>
                <path d="M110.864495,36.2711726 C110.627761,36.8700552 110.063158,37.2755716 109.420033,37.3086319 L105.804886,37.3086319 C105.162451,37.2736076 104.598798,36.868774 104.360423,36.2711726 L96.2043974,13.1278502 C96.0087847,12.6426523 96.0728267,12.0913343 96.3744526,11.6638965 C96.6760785,11.2364587 97.1740467,10.9913452 97.6967427,11.0130293 L100.489902,11.0130293 C101.139152,11.0546762 101.71275,11.4503668 101.982248,12.0425081 L107.61645,30.397557 L113.809283,12.0425081 C114.068168,11.4380371 114.652474,11.0371043 115.309609,11.0130293 L117.528176,11.0130293 C118.050771,10.9927662 118.548273,11.2377096 118.850881,11.6642587 C119.15349,12.0908078 119.220297,12.6413006 119.028502,13.1278502 L110.864495,36.2711726 Z" id="Path" fill="#FF7900"></path>
                <path d="M132.236156,37.8752443 L131.094951,37.8752443 C126.16351,37.8400999 122.190582,33.8207675 122.212612,28.8892508 L122.212612,19.3845277 C122.217104,14.4808215 126.191245,10.50668 131.094951,10.5022801 L132.236156,10.5022801 C137.141686,10.5022801 141.118536,14.4789978 141.118536,19.3845277 L141.118536,28.8892508 C141.144929,33.8225637 137.169445,37.844482 132.236156,37.8752443 Z M135.899186,19.3845277 C135.890444,17.3651247 134.255559,15.7302405 132.236156,15.7214984 L131.094951,15.7214984 C129.075548,15.7302405 127.440664,17.3651247 127.431922,19.3845277 L127.431922,28.8892508 C127.435972,30.9197628 129.064733,32.5733634 131.094951,32.6081433 L132.236156,32.6081433 C134.266375,32.5733634 135.895136,30.9197628 135.899186,28.8892508 L135.899186,19.3845277 Z" id="Shape" fill="#FF7900"></path>
                <path d="M191.634691,37.3086319 L190.549349,37.3086319 C189.26577,37.3033509 188.038056,36.7829381 187.141694,35.8641694 C185.35642,37.1236884 183.236854,37.8237285 181.052606,37.8752443 L180.015147,37.8752443 C175.625896,37.8752443 172.170358,34.6830619 172.170358,30.4933225 L172.170358,29.4079805 C172.170358,24.2446254 176.296254,22.6405537 179.759772,21.6110749 C180.637622,21.3477199 185.84886,20.5736156 185.84886,18.6662866 C185.84886,16.7589577 184.508143,15.7214984 182.185831,15.7214984 L181.619218,15.7214984 C179.596699,15.7258666 177.956978,17.3620231 177.948208,19.3845277 C177.948208,20.2660245 177.233614,20.9806189 176.352117,20.9806189 L174.285179,20.9806189 C173.403682,20.9806189 172.689088,20.2660245 172.689088,19.3845277 C172.693305,17.0204135 173.638138,14.7551577 175.315054,13.0887224 C176.99197,11.4222872 179.263104,10.4916749 181.627199,10.5021905 L182.193811,10.5021905 C186.790554,10.5021905 191.076059,13.6944625 191.076059,18.9216612 L191.076059,31.5228013 C191.097209,31.818743 191.346016,32.0465243 191.642671,32.0415309 C192.505414,32.0674248 193.191268,32.7744911 193.190902,33.6376221 L193.190902,35.7045603 C193.195497,36.5738052 192.503676,37.2869128 191.634691,37.3086319 Z M185.84886,24.3483713 C183.454723,25.5294788 181.667101,25.585342 179.703909,26.4631922 C178.404304,26.8830871 177.486975,28.0462976 177.381596,29.4079805 L177.381596,30.2060261 C177.397333,30.8783598 177.687864,31.5148828 178.185487,31.9672673 C178.68311,32.4196518 179.34436,32.648384 180.015147,32.6001629 L181.052606,32.6001629 C183.630293,32.6001629 185.840879,31.0998371 185.840879,28.8812704 L185.84886,24.3483713 Z" id="Shape" fill="#000000"></path>
                <path d="M215.639902,37.3086319 L213.572964,37.3086319 C212.691467,37.3086319 211.976873,36.5940375 211.976873,35.7125407 L211.976873,19.3845277 C211.98339,18.4068837 211.596256,17.4677369 210.902694,16.7786783 C210.209132,16.0896198 209.267483,15.7086126 208.289902,15.7214984 L207.252443,15.7214984 C205.221931,15.7255485 203.56833,17.3543095 203.53355,19.3845277 L203.53355,35.7045603 C203.551097,36.1246686 203.395231,36.5335279 203.102472,36.835341 C202.809713,37.1371542 202.40579,37.3053977 201.985342,37.3006515 L199.870521,37.3006515 C198.989024,37.3006515 198.27443,36.5860571 198.27443,35.7045603 L198.27443,12.5612378 C198.320088,11.7073488 199.015638,11.0326658 199.870521,11.0130293 L201.985342,11.0130293 C202.412346,11.008443 202.823381,11.1751565 203.126547,11.4758958 C204.39778,10.8079099 205.816593,10.4703586 207.252443,10.4942997 L208.289902,10.4942997 C213.205042,10.4898542 217.198053,14.4614545 217.220033,19.3765472 L217.220033,35.6965798 C217.237761,36.123738 217.078065,36.5392134 216.778797,36.8445276 C216.479528,37.1498419 216.06733,37.3178146 215.639902,37.3086319 L215.639902,37.3086319 Z" id="Path" fill="#000000"></path>
                <path d="M242.605863,37.3086319 L239.868567,37.3086319 C239.410532,37.2499709 238.988677,37.0291337 238.679479,36.6861564 L230.108469,26.0003257 L228.711889,27.3410423 L228.711889,35.7045603 C228.729436,36.1246686 228.57357,36.5335279 228.280811,36.835341 C227.988052,37.1371542 227.584129,37.3053977 227.163681,37.3006515 L225.04886,37.3006515 C224.186117,37.2747576 223.500263,36.5676913 223.500651,35.7045603 L223.500651,2.03501629 C223.526529,1.19872014 224.212164,0.534352371 225.04886,0.534352371 L227.163681,0.534352371 C227.568574,0.526143093 227.960061,0.679922998 228.250889,0.961756714 C228.541717,1.24359043 228.707716,1.63005457 228.711889,2.03501629 L228.711889,19.9032573 L237.187134,11.4838762 C237.497115,11.1986349 237.89932,11.0343524 238.320358,11.0210098 L241.265147,11.0210098 C241.934621,10.9505873 242.569716,11.3323268 242.821639,11.956578 C243.073562,12.5808292 242.881319,13.29645 242.350489,13.7104235 L233.827362,22.22557 L243.842834,34.7229642 C244.273997,35.1862321 244.377897,35.866093 244.104781,36.4369926 C243.831666,37.0078923 243.237127,37.3536237 242.605863,37.3086319 Z" id="Path" fill="#000000"></path>
                <path d="M93.6586319,37.3086319 L76.8996743,37.3086319 C76.0181774,37.3086319 75.3035831,36.5940375 75.3035831,35.7125407 L75.3035831,33.6456026 C75.3035831,32.7641058 76.0181774,32.0495114 76.8996743,32.0495114 L82.6216612,32.0495114 L82.6216612,16.2881107 L79.0065147,16.2881107 C78.1250178,16.2881107 77.4104235,15.5735164 77.4104235,14.6920195 L77.4104235,12.5692182 C77.4363173,11.7064756 78.1433836,11.0206213 79.0065147,11.0210096 L86.2846906,11.0210096 C87.1395738,11.0406463 87.8351234,11.7153293 87.8807818,12.5692182 L87.8807818,32.0415309 L93.6586319,32.0415309 C94.5213746,32.0674248 95.2072289,32.7744911 95.2068406,33.6376221 L95.2068406,35.7045603 C95.2072289,36.5676913 94.5213746,37.2747576 93.6586319,37.3006515 M86.7954397,7.86074919 L82.6057003,7.86074919 C81.7242035,7.86074919 81.0096091,7.14615481 81.0096091,6.26465798 L81.0096091,2.02703583 C81.0603326,1.18314429 81.7602871,0.525187062 82.6057003,0.526710098 L86.7954397,0.526710098 C87.2003327,0.518162637 87.5918196,0.671942542 87.882648,0.953776258 C88.1734764,1.23560997 88.3394754,1.62207411 88.3436484,2.02703583 L88.3436484,6.26465798 C88.3440367,7.12778904 87.6581824,7.83485534 86.7954397,7.86074919" id="Shape" fill="#FF7900"></path>
                <path d="M158.013029,37.3086319 L148.987134,37.3086319 C148.124391,37.2827381 147.438537,36.5756718 147.438925,35.7125407 L147.438925,2.03501629 C147.460633,1.19688438 148.148733,0.530065374 148.987134,0.534399104 L157.406515,0.534399104 C159.773189,0.515513969 162.049297,1.44336031 163.728081,3.11165232 C165.406865,4.77994433 166.348964,7.05019002 166.344625,9.41693811 L166.344625,12.5692182 C166.358476,14.8073254 165.526127,16.9680124 164.014332,18.6184039 C165.848621,20.3281688 166.896641,22.718693 166.911238,25.2262215 L166.911238,28.4184039 C166.863582,33.3115707 162.906237,37.2653671 158.013029,37.3086319 L158.013029,37.3086319 Z M161.109446,9.37703583 C161.115872,8.40358442 160.73201,7.46814051 160.043661,6.77979142 C159.355312,6.09144233 158.419868,5.70758088 157.446417,5.71392712 L152.745928,5.71392712 L152.745928,16.2482085 L157.446417,16.2482085 C158.425662,16.2418865 159.362165,15.8462587 160.04935,15.1485932 C160.736536,14.4509277 161.117945,13.5085447 161.109446,12.529316 L161.109446,9.37703583 Z M161.684074,25.1863192 C161.681937,24.216278 161.293473,23.28704 160.60456,22.6041175 C159.915647,21.921195 158.983052,21.5408611 158.013029,21.5471525 L152.745928,21.5471525 L152.745928,32.0335855 L158.013029,32.0335855 C158.987943,32.0378171 159.92416,31.6524214 160.613535,30.9630465 C161.30291,30.2736715 161.688306,29.3374548 161.684074,28.3625407 L161.684074,25.1863192 Z" id="Shape" fill="#000000"></path>
            </g>
        </g>
    </g>
</svg>