<svg enable-background="new 0 0 48 48" height="48" viewBox="0 0 48 48" width="48" xmlns="http://www.w3.org/2000/svg"><g fill="#fff"><path d="m20.708 23.514c1.626-1.542 2.652-4.172 2.652-6.574 0-4.672-3.836-8.94-8.55-8.94h-12.56c-1.04 0-2 .996-2 2.036v27.934c0 1.04 1.024 2.032 2.062 2.032h12.496c6.158 0 10.293-3.876 10.293-8.941.003-3.061-1.681-6.067-4.393-7.547zm-16.458-11.514h10.558c2.638 0 4.786 2.406 4.786 5s-2.146 5-4.786 5h-10.558zm10.558 24h-10.558v-10h10.558c3.25 0 6.53 1.75 6.53 5 0 4.368-4.996 5-6.53 5z"/><path d="m47.75 27.941c0-8.067-3.796-12.246-11.292-12.246-5.708 0-10.353 4.986-10.353 11.17 0 .258.021.487.039.737-.008.063-.039.106-.039.168 0 .137.047.246.074.377.62 5.726 5.23 9.894 11.219 9.894 2.945 0 6.996-1.431 9.035-4.147.627-.832.457-2.013-.375-2.637-.83-.622-2.013-.453-2.635.378-1.09 1.454-3.792 2.813-6.021 2.813-3.334 0-5.959-2.45-7.014-4.45h15.483c1.037.002 1.879-1.018 1.879-2.057zm-11.292-8.451c4.808 0 7.004 2.51 7.44 6.51h-13.944c.414-4 3.155-6.51 6.504-6.51z"/><path d="m31.75 14h11.292c1.042 0 1.882-.96 1.882-2s-.842-2-1.882-2h-11.292c-1.04 0-1.882.96-1.882 2s.842 2 1.882 2z"/></g></svg>