<svg enable-background="new 0 0 48 48" height="48" viewBox="0 0 48 48" width="48" xmlns="http://www.w3.org/2000/svg"><path d="m47.95 25.036c-5.042-1.588-10.923-1.776-16.782-.492-.922-2.276-1.96-4.508-3.118-6.692 5.742-2.126 10.644-5.292 13.746-9.894 3.841 4.258 6.204 9.876 6.204 16.042 0 .35-.04.689-.05 1.036zm-7.71-18.652c-2.854 4.47-7.616 7.516-13.242 9.552-2.994-5.272-6.654-10.196-10.86-14.588 2.468-.858 5.104-1.348 7.862-1.348 6.266 0 11.96 2.434 16.24 6.384zm-26.414-4.09c4.188 4.254 7.84 9.144 10.84 14.418-7.652 2.322-16.518 3.036-24.27 3.056 1.388-7.754 6.504-14.212 13.43-17.474zm-13.826 21.706c0-.692.044-1.372.104-2.046 8.132-.004 17.506-.762 25.617-3.302 1.123 2.118 2.147 4.286 3.053 6.495-8.215 2.377-16.109 7.729-21.241 16.27-4.627-4.381-7.533-10.562-7.533-17.417zm9.198 18.855c4.866-8.291 12.474-13.457 20.36-15.699 2.312 6.132 3.77 12.496 4.213 18.742-2.985 1.34-6.289 2.102-9.771 2.102-5.586 0-10.72-1.934-14.802-5.145zm26.76 1.922c-.431-6.147-1.804-12.289-3.996-18.203 5.5-1.148 11.009-.918 15.694.644.033.013.068.005.102.013-1.018 7.503-5.504 13.91-11.8 17.546z" fill="#fff"/></svg>