<svg enable-background="new 0 0 48 48" height="48" viewBox="0 0 48 48" width="48" xmlns="http://www.w3.org/2000/svg"><path d="m47 9h-46c-.552 0-1 .45-1 1v28c0 .55.448 1 1 1h46c.55 0 1-.45 1-1v-28c0-.55-.45-1-1-1zm-4.502 23.686c.479.276.643.887.37 1.369-.185.321-.522.502-.868.502-.168 0-.34-.043-.498-.133l-13.784-7.916-3.098 2.452c-.022.019-.052-.071-.078-.056-.164.109-.344.104-.538.104h-.006c-.194 0-.376.006-.54-.104-.024-.016-.054.033-.078.016l-3.1-2.428-13.782 7.926c-.158.086-.328.132-.498.132-.346 0-.684-.176-.868-.498-.276-.478-.11-1.088.37-1.368l13.088-7.516-13.21-10.432c-.434-.346-.506-.972-.166-1.404.344-.434.972-.508 1.406-.166l17.38 13.729 17.378-13.729c.435-.342 1.062-.268 1.406.166.344.432.271 1.06-.164 1.404l-13.21 10.434z" fill="#8F7B9F"/></svg>