<svg enable-background="new 0 0 48 48" height="48" viewBox="0 0 48 48" width="48" xmlns="http://www.w3.org/2000/svg"><g fill="#8F7B9F"><path d="m14 14h3.38c1.9-1.262 4.174-2 6.62-2 2.445 0 4.718.738 6.622 2h17.378v-7c0-3.86-3.141-7-7-7h-27zm20-9c0-.55.45-1 1-1h6c.55 0 1 .45 1 1v6c0 .55-.45 1-1 1h-6c-.55 0-1-.45-1-1z"/><path d="m28.5 24c0 2.484-2.016 4.5-4.5 4.5-2.485 0-4.5-2.016-4.5-4.5 0-2.485 2.015-4.5 4.5-4.5 2.484 0 4.5 2.015 4.5 4.5z"/><path d="m36 6h4v4h-4z"/><path d="m32.918 16c1.91 2.126 3.082 4.926 3.082 8 0 6.618-5.382 12-12 12s-12-5.382-12-12c0-3.074 1.172-5.876 3.082-8h-15.082v25c0 3.859 3.14 7 7 7h34c3.859 0 7-3.141 7-7v-25z"/><path d="m8 0h4v14h-4z"/><path d="m24 34c5.514 0 10-4.484 10-10 0-5.514-4.486-10-10-10s-10 4.486-10 10c0 5.516 4.486 10 10 10zm0-16.5c3.584 0 6.5 2.916 6.5 6.5s-2.916 6.5-6.5 6.5-6.5-2.916-6.5-6.5 2.916-6.5 6.5-6.5z"/><path d="m6 14v-13.898c-3.382.49-6 3.382-6 6.898v7z"/></g></svg>