<svg width="48" height="48" viewBox="0 0 48 48" fill="none" xmlns="http://www.w3.org/2000/svg">
<path d="M14 14H17.38C19.28 12.738 21.554 12 24 12C26.445 12 28.718 12.738 30.622 14H48V7C48 3.14 44.859 0 41 0H14V14ZM34 5C34 4.45 34.45 4 35 4H41C41.55 4 42 4.45 42 5V11C42 11.55 41.55 12 41 12H35C34.45 12 34 11.55 34 11V5Z" fill="#8F7B9F"/>
<path d="M28.5 24C28.5 26.484 26.484 28.5 24 28.5C21.515 28.5 19.5 26.484 19.5 24C19.5 21.515 21.515 19.5 24 19.5C26.484 19.5 28.5 21.515 28.5 24Z" fill="#8F7B9F"/>
<path d="M36 6H40V10H36V6Z" fill="#8F7B9F"/>
<path d="M32.918 16C34.828 18.126 36 20.926 36 24C36 30.618 30.618 36 24 36C17.382 36 12 30.618 12 24C12 20.926 13.172 18.124 15.082 16H0V41C0 44.859 3.14 48 7 48H41C44.859 48 48 44.859 48 41V16H32.918Z" fill="#8F7B9F"/>
<path d="M8 0H12V14H8V0Z" fill="#8F7B9F"/>
<path d="M24 34C29.514 34 34 29.516 34 24C34 18.486 29.514 14 24 14C18.486 14 14 18.486 14 24C14 29.516 18.486 34 24 34ZM24 17.5C27.584 17.5 30.5 20.416 30.5 24C30.5 27.584 27.584 30.5 24 30.5C20.416 30.5 17.5 27.584 17.5 24C17.5 20.416 20.416 17.5 24 17.5Z" fill="#8F7B9F"/>
<path d="M6 14V0.10199C2.618 0.59199 0 3.48399 0 6.99999V14H6Z" fill="#8F7B9F"/>
</svg>
