<svg version="1.1" id="Layer_1" xmlns="http://www.w3.org/2000/svg" xmlns:xlink="http://www.w3.org/1999/xlink" x="0" y="0" width="48" height="48" viewBox="0 0 48 48" enable-background="new 0 0 48 48" xml:space="preserve"><g id="icomoon-ignore"><line fill="#8F7B9F" stroke="#8F7B9F" x1="0" y1="0" x2="0" y2="0"/></g><path fill="#8F7B9F" d="M11,16.028H1c-0.552,0-1,0.45-1,1v30c0,0.551,0.448,1,1,1h10c0.552,0,1-0.449,1-1v-30	C12,16.478,11.552,16.028,11,16.028z"/><path fill="#8F7B9F" d="M6.412-0.03C2.876-0.03,0,2.884,0,6.462c0,3.582,2.876,6.496,6.412,6.496s6.412-2.914,6.412-6.496	C12.824,2.882,9.948-0.03,6.412-0.03z"/><path fill="#8F7B9F" d="M36,15.818c-4.876,0-8.195,1.204-10,2.102v-0.89c0-0.552-0.45-1-1-1h-8c-0.552,0-1,0.448-1,1v30	c0,0.55,0.448,1,1,1h8c0.55,0,1-0.45,1-1V30.555c0-2.57,2.641-4.492,5-4.492s5,1.922,5,4.492V47.03c0,0.55,0.45,1,1,1h10	c0.55,0,1-0.45,1-1V27.809C48,21.196,42.618,15.818,36,15.818z"/></svg>