<svg width="48" height="48" viewBox="0 0 48 48" fill="none" xmlns="http://www.w3.org/2000/svg">
<path fill-rule="evenodd" clip-rule="evenodd" d="M8 0C3.58173 0 0 3.58167 0 8V40C0 44.4183 3.58173 48 8 48H40C44.4183 48 48 44.4183 48 40V8C48 3.58167 44.4183 0 40 0H8ZM11.5625 20.0157H17.1875C17.498 20.0157 17.75 20.2689 17.75 20.5782V37.4532C17.75 37.7632 17.498 38.0157 17.1875 38.0157H11.5625C11.252 38.0157 11 37.7632 11 37.4532V20.5782C11 20.2689 11.252 20.0157 11.5625 20.0157ZM14.6068 10.9832C12.6177 10.9832 11 12.6222 11 14.6349C11 16.6498 12.6177 18.2888 14.6068 18.2888C16.5958 18.2888 18.2135 16.6498 18.2135 14.6349C18.2135 12.6211 16.5958 10.9832 14.6068 10.9832ZM25.625 21.08C26.6403 20.5748 28.5073 19.8976 31.25 19.8976C34.9727 19.8976 38 22.9227 38 26.6426V37.4543C38 37.7638 37.7469 38.0168 37.4375 38.0168H31.8125C31.5031 38.0168 31.25 37.7638 31.25 37.4543V28.1871C31.25 26.7416 29.7645 25.6604 28.4375 25.6604C27.1106 25.6604 25.625 26.7416 25.625 28.1871V37.4543C25.625 37.7638 25.3719 38.0168 25.0625 38.0168H20.5625C20.252 38.0168 20 37.7638 20 37.4543V20.5793C20 20.2689 20.252 20.0168 20.5625 20.0168H25.0625C25.3719 20.0168 25.625 20.2689 25.625 20.5793V21.08Z" fill="#8F7B9F"/>
</svg>
