<svg width="48" height="48" viewBox="0 0 48 48" fill="none" xmlns="http://www.w3.org/2000/svg">
<path fill-rule="evenodd" clip-rule="evenodd" d="M0 6C0 2.68628 2.68628 0 6 0H42C45.3137 0 48 2.68628 48 6V10V38V42C48 45.3137 45.3137 48 42 48H6C2.68628 48 0 45.3137 0 42V38V10V6ZM42.868 34.0551C43.141 33.573 42.977 32.962 42.498 32.686L29.41 25.17L42.62 14.736C43.055 14.392 43.128 13.764 42.784 13.332C42.44 12.8979 41.813 12.824 41.378 13.166L24 26.895L6.62 13.166C6.18597 12.824 5.55798 12.8979 5.21399 13.332C4.87402 13.764 4.94598 14.39 5.38 14.736L18.59 25.168L5.50201 32.684C5.02197 32.964 4.85602 33.574 5.13202 34.052C5.31598 34.374 5.65399 34.55 6 34.55C6.16998 34.55 6.34003 34.504 6.49799 34.418L20.28 26.4919L23.38 28.92C23.3921 28.9286 23.4057 28.9204 23.4193 28.9122C23.4327 28.9042 23.4461 28.896 23.458 28.9041C23.5378 28.9575 23.6218 28.9835 23.7093 28.9962C23.8018 29.0096 23.8983 29.0081 23.998 29.0081H24.004H24.028C24.2128 29.0083 24.3848 29.0084 24.542 28.9041C24.5551 28.8965 24.5692 28.9155 24.5828 28.934C24.5962 28.952 24.6091 28.9694 24.62 28.96L27.718 26.5081L41.502 34.424C41.66 34.514 41.832 34.557 42 34.557C42.346 34.557 42.683 34.376 42.868 34.0551Z" fill="#8F7B9F"/>
</svg>
