<svg width="140" height="142" viewBox="0 0 140 142" fill="none" xmlns="http://www.w3.org/2000/svg">
<path d="M7.596 27.288C12.528 27.288 14.148 22.896 14.148 14.04C14.148 4.53601 12.384 0.864014 7.596 0.864014C2.772 0.864014 1.044 4.53601 1.044 14.04C1.044 22.896 2.664 27.288 7.596 27.288ZM7.596 23.832C5.94 23.832 5.148 21.6 5.148 14.04C5.148 6.76801 5.76 4.42801 7.596 4.42801C9.396 4.42801 10.044 6.76801 10.044 14.04C10.044 21.6 9.216 23.832 7.596 23.832Z" fill="#ffffff"/>
<path d="M27.8328 7.88401C27.5808 3.74401 26.2128 0.864014 21.9648 0.864014C18.3288 0.864014 16.3848 3.24001 16.3848 6.91201C16.3848 14.364 24.2688 15.516 24.2688 21.168C24.2688 22.896 23.4768 23.94 22.1088 23.94C20.5248 23.94 19.9848 22.752 19.7688 20.052L16.1328 20.268C16.3848 24.876 17.8968 27.288 22.0368 27.288C25.9248 27.288 28.1568 24.84 28.1568 20.844C28.1568 13.176 20.1648 12.06 20.1648 6.55201C20.1648 5.14801 20.7048 4.28401 22.0368 4.28401C23.5848 4.28401 24.1968 5.83201 24.3048 8.10001L27.8328 7.88401Z" fill="#ffffff"/>
<path d="M39.5713 17.892C39.4273 21.564 38.8153 23.724 37.1953 23.724C35.3593 23.724 34.7833 21.636 34.7833 14.004C34.7833 6.98401 35.3593 4.53601 37.1953 4.53601C38.6353 4.53601 39.2833 6.33601 39.4273 9.57601H43.0993C42.9553 4.46401 41.6953 0.864014 37.0513 0.864014C31.5073 0.864014 30.6793 6.91201 30.6793 14.004C30.6793 22.428 31.7953 27.288 37.1233 27.288C41.6593 27.288 43.0993 23.472 43.2433 17.892H39.5713Z" fill="#ffffff"/>
<path d="M58.9584 27L54.5304 1.15201H49.2744L44.9544 27H48.9504L49.8144 20.52H54.0984L54.9984 27H58.9584ZM51.8664 5.18401H52.0104L53.6304 17.028H50.2824L51.8664 5.18401Z" fill="#ffffff"/>
<path d="M74.3721 27L70.8441 14.22C72.6801 13.248 73.8321 11.268 73.8321 8.02801C73.8321 2.98801 71.4561 1.15201 66.8841 1.15201H61.7001V27H65.6241V16.02H67.3521L70.1241 27H74.3721ZM65.6241 12.672V4.53601H66.4881C68.3601 4.53601 69.7281 4.89601 69.7281 8.46001C69.7281 11.628 68.7921 12.672 66.8481 12.672H65.6241Z" fill="#ffffff"/>
<path d="M14.4 65L9.972 39.152H4.716L0.395996 65H4.392L5.256 58.52H9.54L10.44 65H14.4ZM7.308 43.184H7.452L9.072 55.028H5.724L7.308 43.184Z" fill="#ffffff"/>
<path d="M27.7976 65V61.364H21.0656V39.152H17.1416V65H27.7976Z" fill="#ffffff"/>
<path d="M36.3904 65L41.0344 39.152H36.8944L34.2664 57.584H34.1944L31.4584 39.152H27.3544L32.1424 65H36.3904Z" fill="#ffffff"/>
<path d="M54.4154 65V61.364H47.4314V53.408H52.6154V49.88H47.4314V42.788H54.0194V39.152H43.5074V65H54.4154Z" fill="#ffffff"/>
<path d="M68.1021 45.884C67.8501 41.744 66.4822 38.864 62.2342 38.864C58.5982 38.864 56.6542 41.24 56.6542 44.912C56.6542 52.364 64.5382 53.516 64.5382 59.168C64.5382 60.896 63.7462 61.94 62.3782 61.94C60.7942 61.94 60.2542 60.752 60.0382 58.052L56.4022 58.268C56.6542 62.876 58.1662 65.288 62.3062 65.288C66.1942 65.288 68.4262 62.84 68.4262 58.844C68.4262 51.176 60.4342 50.06 60.4342 44.552C60.4342 43.148 60.9742 42.284 62.3062 42.284C63.8542 42.284 64.4662 43.832 64.5742 46.1L68.1021 45.884Z" fill="#ffffff"/>
<path d="M12.564 103V99.364H5.58V91.408H10.764V87.88H5.58V80.788H12.168V77.152H1.656V103H12.564Z" fill="#ffffff"/>
<path d="M27.6907 103L23.1547 89.608L27.4747 77.152H23.3707L20.7427 85.288H20.6707L18.2947 77.152H14.1187L18.2947 89.68L13.7587 103H17.8627L20.6707 93.928H20.7427L23.4787 103H27.6907Z" fill="#ffffff"/>
<path d="M33.8091 103V92.416H34.9971C39.6771 92.416 42.2691 89.68 42.2691 84.676C42.2691 79.42 39.7491 77.152 34.8531 77.152H29.8851V103H33.8091ZM33.8091 88.924V80.788H34.9971C37.0491 80.788 38.1651 81.688 38.1651 84.712C38.1651 87.376 37.1931 88.924 35.1411 88.924H33.8091Z" fill="#ffffff"/>
<path d="M56.2084 103V99.364H49.2244V91.408H54.4084V87.88H49.2244V80.788H55.8124V77.152H45.3004V103H56.2084Z" fill="#ffffff"/>
<path d="M71.9111 103L68.3831 90.22C70.2191 89.248 71.3711 87.268 71.3711 84.028C71.3711 78.988 68.9951 77.152 64.4231 77.152H59.2391V103H63.1631V92.02H64.8911L67.6631 103H71.9111ZM63.1631 88.672V80.536H64.0271C65.8991 80.536 67.2671 80.896 67.2671 84.46C67.2671 87.628 66.3311 88.672 64.3871 88.672H63.1631Z" fill="#ffffff"/>
<path d="M78.7551 103V77.152H74.7951V103H78.7551Z" fill="#ffffff"/>
<path d="M93.7004 103V99.364H86.7164V91.408H91.9004V87.88H86.7164V80.788H93.3044V77.152H82.7924V103H93.7004Z" fill="#ffffff"/>
<path d="M108.971 103V77.152H105.551V91.696H105.479L101.015 77.152H96.7312V103H100.115V85.72H100.187L105.623 103H108.971Z" fill="#ffffff"/>
<path d="M121.27 93.892C121.126 97.564 120.514 99.724 118.894 99.724C117.058 99.724 116.482 97.636 116.482 90.004C116.482 82.984 117.058 80.536 118.894 80.536C120.334 80.536 120.982 82.336 121.126 85.576H124.798C124.654 80.464 123.394 76.864 118.75 76.864C113.206 76.864 112.378 82.912 112.378 90.004C112.378 98.428 113.494 103.288 118.822 103.288C123.358 103.288 124.798 99.472 124.942 93.892H121.27Z" fill="#ffffff"/>
<path d="M139.173 103V99.364H132.189V91.408H137.373V87.88H132.189V80.788H138.777V77.152H128.265V103H139.173Z" fill="#ffffff"/>
<path d="M6.372 141C12.96 141 14.616 136.32 14.616 127.824C14.616 118.248 12.024 115.152 5.904 115.152H1.656V141H6.372ZM5.724 137.292V118.86H6.336C9.18 118.86 10.512 120.696 10.512 127.824C10.512 134.52 9.468 137.292 6.624 137.292H5.724Z" fill="#ffffff"/>
<path d="M28.9285 141V137.364H21.9445V129.408H27.1285V125.88H21.9445V118.788H28.5325V115.152H18.0205V141H28.9285Z" fill="#ffffff"/>
<path d="M42.6153 121.884C42.3633 117.744 40.9953 114.864 36.7473 114.864C33.1113 114.864 31.1673 117.24 31.1673 120.912C31.1673 128.364 39.0513 129.516 39.0513 135.168C39.0513 136.896 38.2593 137.94 36.8913 137.94C35.3073 137.94 34.7673 136.752 34.5513 134.052L30.9153 134.268C31.1673 138.876 32.6793 141.288 36.8193 141.288C40.7073 141.288 42.9393 138.84 42.9393 134.844C42.9393 127.176 34.9473 126.06 34.9473 120.552C34.9473 119.148 35.4873 118.284 36.8193 118.284C38.3673 118.284 38.9793 119.832 39.0873 122.1L42.6153 121.884Z" fill="#ffffff"/>
<path d="M50.0338 141V115.152H46.0738V141H50.0338Z" fill="#ffffff"/>
<path d="M66.2752 141V128.184H59.9032V131.532H62.4592C62.5312 132.072 62.5312 132.792 62.5312 133.368C62.5312 135.672 61.8472 137.724 60.1192 137.724C57.9232 137.724 57.5632 135.348 57.5632 128.004C57.5632 120.948 58.2112 118.536 60.1192 118.536C61.8112 118.536 62.3872 120.516 62.5672 123.576H66.2392C66.1312 118.824 65.0512 114.864 60.1192 114.864C54.7192 114.864 53.4592 120.624 53.4592 128.004C53.4592 138.12 55.3312 141.288 59.0032 141.288C60.5512 141.288 61.8112 140.784 62.9632 139.236H63.0352V141H66.2752Z" fill="#ffffff"/>
<path d="M82.2187 141V115.152H78.7987V129.696H78.7267L74.2626 115.152H69.9787V141H73.3626V123.72H73.4347L78.8707 141H82.2187Z" fill="#ffffff"/>
</svg>
