<svg width="143" height="65" viewBox="0 0 143 65" fill="none" xmlns="http://www.w3.org/2000/svg">
<path d="M10.908 23.976C10.908 23.184 10.584 22.5 9.432 22.5H3.924V14.544H7.632C8.784 14.544 9.108 13.86 9.108 13.068V12.492C9.108 11.7 8.784 11.016 7.632 11.016H3.924V3.924H9.036C10.188 3.924 10.512 3.24 10.512 2.448V1.764C10.512 0.971999 10.188 0.288002 9.036 0.288002H1.476C0.684 0.288002 0 0.612 0 1.764V24.66C0 25.812 0.684 26.136 1.476 26.136H9.432C10.584 26.136 10.908 25.452 10.908 24.66V23.976Z" fill="white"/>
<path d="M21.7868 12.744L25.6388 1.692C25.9988 0.684001 25.3508 0.288002 24.6308 0.288002H23.4788C22.6148 0.288002 21.8947 0.540001 21.5347 1.692L19.3748 8.424H19.3027L17.3587 1.692C17.0347 0.540001 16.3148 0.288002 15.4508 0.288002H14.2268C13.5068 0.288002 12.8947 0.684001 13.2188 1.692L16.9268 12.816L12.8588 24.732C12.5348 25.74 13.1467 26.136 13.8667 26.136H15.0188C15.8828 26.136 16.5667 25.884 16.9268 24.732L19.3027 17.064H19.3748L21.6788 24.732C22.0388 25.884 22.7227 26.136 23.5868 26.136H24.8468C25.5667 26.136 26.1788 25.74 25.8548 24.732L21.7868 12.744Z" fill="white"/>
<path d="M33.2331 15.552H34.4211C39.1011 15.552 41.6931 12.816 41.6931 7.812C41.6931 2.556 39.1731 0.288002 34.2771 0.288002H30.7851C29.9931 0.288002 29.3091 0.612 29.3091 1.764V24.66C29.3091 25.812 29.9931 26.136 30.7851 26.136H31.7571C32.5491 26.136 33.2331 25.812 33.2331 24.66V15.552ZM33.2331 3.924H34.4211C36.4731 3.924 37.5891 4.824 37.5891 7.848C37.5891 10.512 36.6171 12.06 34.5651 12.06H33.2331V3.924Z" fill="white"/>
<path d="M56.1724 23.976C56.1724 23.184 55.8484 22.5 54.6964 22.5H49.1884V14.544H52.8964C54.0484 14.544 54.3724 13.86 54.3724 13.068V12.492C54.3724 11.7 54.0484 11.016 52.8964 11.016H49.1884V3.924H54.3004C55.4524 3.924 55.7764 3.24 55.7764 2.448V1.764C55.7764 0.971999 55.4524 0.288002 54.3004 0.288002H46.7404C45.9484 0.288002 45.2644 0.612 45.2644 1.764V24.66C45.2644 25.812 45.9484 26.136 46.7404 26.136H54.6964C55.8484 26.136 56.1724 25.452 56.1724 24.66V23.976Z" fill="white"/>
<path d="M68.8871 13.356C70.7231 12.384 71.8751 10.404 71.8751 7.164C71.8751 2.124 69.4991 0.288002 64.9271 0.288002H61.2191C60.4271 0.288002 59.7431 0.612 59.7431 1.764V24.66C59.7431 25.812 60.4271 26.136 61.2191 26.136H62.1911C62.9831 26.136 63.6671 25.812 63.6671 24.66V15.156H65.3951L67.8071 24.696C68.0951 25.848 68.7791 26.136 69.6431 26.136H70.9391C71.6951 26.136 72.3071 25.74 72.0191 24.696L68.8871 13.356ZM63.6671 3.672H64.5311C66.4031 3.672 67.7711 4.032 67.7711 7.596C67.7711 10.764 66.8351 11.808 64.8911 11.808H63.6671V3.672Z" fill="white"/>
<path d="M79.7991 1.764C79.7991 0.612 79.1151 0.288002 78.3231 0.288002H77.3151C76.5231 0.288002 75.8391 0.612 75.8391 1.764V24.66C75.8391 25.812 76.5231 26.136 77.3151 26.136H78.3231C79.1151 26.136 79.7991 25.812 79.7991 24.66V1.764Z" fill="white"/>
<path d="M95.2844 23.976C95.2844 23.184 94.9604 22.5 93.8084 22.5H88.3004V14.544H92.0084C93.1604 14.544 93.4844 13.86 93.4844 13.068V12.492C93.4844 11.7 93.1604 11.016 92.0084 11.016H88.3004V3.924H93.4124C94.5644 3.924 94.8884 3.24 94.8884 2.448V1.764C94.8884 0.971999 94.5644 0.288002 93.4124 0.288002H85.8524C85.0604 0.288002 84.3764 0.612 84.3764 1.764V24.66C84.3764 25.812 85.0604 26.136 85.8524 26.136H93.8084C94.9604 26.136 95.2844 25.452 95.2844 24.66V23.976Z" fill="white"/>
<path d="M111.095 1.764C111.095 0.612 110.411 0.288002 109.619 0.288002H109.151C108.359 0.288002 107.675 0.612 107.675 1.764V14.832H107.603L103.571 1.692C103.211 0.540001 102.527 0.288002 101.663 0.288002H100.331C99.5392 0.288002 98.8552 0.612 98.8552 1.764V24.66C98.8552 25.812 99.5392 26.136 100.331 26.136H100.763C101.555 26.136 102.239 25.812 102.239 24.66V8.856H102.311L107.315 24.732C107.675 25.884 108.359 26.136 109.223 26.136H109.619C110.411 26.136 111.095 25.812 111.095 24.66V1.764Z" fill="white"/>
<path d="M121.558 22.86C119.722 22.86 119.146 20.772 119.146 13.14C119.146 6.12 119.722 3.672 121.558 3.672C122.746 3.672 123.43 4.932 123.682 7.236C123.79 8.064 124.474 8.712 125.338 8.712H126.022C127.174 8.712 127.462 8.028 127.39 7.236C127.03 2.916 125.59 0 121.414 0C115.87 0 115.042 6.048 115.042 13.14C115.042 21.564 116.158 26.424 121.486 26.424C125.626 26.424 127.174 23.256 127.534 18.504C127.606 17.712 127.318 17.028 126.166 17.028H125.446C124.618 17.028 123.934 17.676 123.826 18.504C123.61 21.276 122.962 22.86 121.558 22.86Z" fill="white"/>
<path d="M142.377 23.976C142.377 23.184 142.053 22.5 140.901 22.5H135.393V14.544H139.101C140.253 14.544 140.577 13.86 140.577 13.068V12.492C140.577 11.7 140.253 11.016 139.101 11.016H135.393V3.924H140.505C141.657 3.924 141.981 3.24 141.981 2.448V1.764C141.981 0.971999 141.657 0.288002 140.505 0.288002H132.945C132.153 0.288002 131.469 0.612 131.469 1.764V24.66C131.469 25.812 132.153 26.136 132.945 26.136H140.901C142.053 26.136 142.377 25.452 142.377 24.66V23.976Z" fill="white"/>
<path d="M12.96 50.96C12.96 41.384 10.368 38.288 4.248 38.288H1.476C0.684 38.288 0 38.612 0 39.764V62.66C0 63.812 0.684 64.136 1.476 64.136H4.716C11.304 64.136 12.96 59.456 12.96 50.96ZM4.068 41.996H4.68C7.524 41.996 8.856 43.832 8.856 50.96C8.856 57.656 7.812 60.428 4.968 60.428H4.068V41.996Z" fill="white"/>
<path d="M27.8125 61.976C27.8125 61.184 27.4885 60.5 26.3365 60.5H20.8285V52.544H24.5365C25.6885 52.544 26.0125 51.86 26.0125 51.068V50.492C26.0125 49.7 25.6885 49.016 24.5365 49.016H20.8285V41.924H25.9405C27.0925 41.924 27.4165 41.24 27.4165 40.448V39.764C27.4165 38.972 27.0925 38.288 25.9405 38.288H18.3805C17.5885 38.288 16.9045 38.612 16.9045 39.764V62.66C16.9045 63.812 17.5885 64.136 18.3805 64.136H26.3365C27.4885 64.136 27.8125 63.452 27.8125 62.66V61.976Z" fill="white"/>
<path d="M36.1353 38C32.4993 38 30.5553 40.376 30.5553 44.048C30.5553 51.5 38.4393 52.652 38.4393 58.304C38.4393 60.032 37.6473 61.076 36.2793 61.076C35.0193 61.076 34.4073 60.32 34.1193 58.664C33.9753 57.836 33.5793 57.224 32.3913 57.296L31.7073 57.332C30.5553 57.404 30.3393 58.088 30.4473 58.88C30.9153 62.516 32.5353 64.424 36.2073 64.424C40.0953 64.424 42.3273 61.976 42.3273 57.98C42.3273 50.312 34.3353 49.196 34.3353 43.688C34.3353 42.284 34.8753 41.42 36.2073 41.42C37.3953 41.42 38.0433 42.32 38.2953 43.76C38.4753 44.588 38.8353 45.2 40.0953 45.128L40.5993 45.092C41.7513 45.02 41.9673 44.336 41.8593 43.544C41.3553 40.232 39.8433 38 36.1353 38Z" fill="white"/>
<path d="M49.9978 39.764C49.9978 38.612 49.3138 38.288 48.5218 38.288H47.5138C46.7218 38.288 46.0378 38.612 46.0378 39.764V62.66C46.0378 63.812 46.7218 64.136 47.5138 64.136H48.5218C49.3138 64.136 49.9978 63.812 49.9978 62.66V39.764Z" fill="white"/>
<path d="M66.7792 52.796C66.7792 51.644 66.0952 51.32 65.3032 51.32H61.8832C60.7312 51.32 60.4072 52.004 60.4072 52.796V53.192C60.4072 53.984 60.7312 54.668 61.8832 54.668H62.9632C63.0352 55.208 63.0352 55.928 63.0352 56.504C63.0352 58.808 62.3512 60.86 60.6232 60.86C58.4272 60.86 58.0672 58.484 58.0672 51.14C58.0672 44.084 58.7152 41.672 60.6232 41.672C62.0272 41.672 62.6752 43.04 62.9272 45.236C63.0352 46.064 63.3952 46.712 64.6192 46.712H65.3032C66.4552 46.712 66.7432 46.028 66.6712 45.236C66.3472 41.168 65.0512 38 60.6232 38C55.2232 38 53.9632 43.76 53.9632 51.14C53.9632 61.256 55.8352 64.424 59.5072 64.424C61.0552 64.424 62.3152 63.92 63.5032 62.372V62.66C63.5032 63.848 64.1872 64.136 65.0152 64.136H65.3032C66.0952 64.136 66.7792 63.812 66.7792 62.66V52.796Z" fill="white"/>
<path d="M83.2627 39.764C83.2627 38.612 82.5787 38.288 81.7867 38.288H81.3187C80.5267 38.288 79.8427 38.612 79.8427 39.764V52.832H79.7707L75.7387 39.692C75.3787 38.54 74.6947 38.288 73.8307 38.288H72.4987C71.7067 38.288 71.0227 38.612 71.0227 39.764V62.66C71.0227 63.812 71.7067 64.136 72.4987 64.136H72.9307C73.7227 64.136 74.4067 63.812 74.4067 62.66V46.856H74.4787L79.4827 62.732C79.8427 63.884 80.5267 64.136 81.3907 64.136H81.7867C82.5787 64.136 83.2627 63.812 83.2627 62.66V39.764Z" fill="white"/>
</svg>
