<svg width="77" height="66" viewBox="0 0 77 66" fill="none" xmlns="http://www.w3.org/2000/svg">
<path d="M14.148 14.04C14.148 4.53601 12.384 0.864014 7.59599 0.864014C2.77199 0.864014 1.04399 4.53601 1.04399 14.04C1.04399 22.896 2.66399 27.288 7.59599 27.288C12.528 27.288 14.148 22.896 14.148 14.04ZM5.14799 14.04C5.14799 6.76801 5.75999 4.42801 7.59599 4.42801C9.39599 4.42801 10.044 6.76801 10.044 14.04C10.044 21.6 9.21599 23.832 7.59599 23.832C5.93999 23.832 5.14799 21.6 5.14799 14.04Z" fill="white"/>
<path d="M22.4688 0.864014C18.8328 0.864014 16.8888 3.24001 16.8888 6.91201C16.8888 14.364 24.7728 15.516 24.7728 21.168C24.7728 22.896 23.9808 23.94 22.6128 23.94C21.3528 23.94 20.7408 23.184 20.4528 21.528C20.3088 20.7 19.9128 20.088 18.7248 20.16L18.0408 20.196C16.8888 20.268 16.6728 20.952 16.7808 21.744C17.2488 25.38 18.8688 27.288 22.5408 27.288C26.4288 27.288 28.6608 24.84 28.6608 20.844C28.6608 13.176 20.6688 12.06 20.6688 6.55201C20.6688 5.14801 21.2088 4.28401 22.5408 4.28401C23.7288 4.28401 24.3768 5.18401 24.6288 6.62401C24.8088 7.45201 25.1688 8.06401 26.4288 7.99201L26.9328 7.95601C28.0848 7.88401 28.3008 7.20001 28.1928 6.40801C27.6888 3.09601 26.1768 0.864014 22.4688 0.864014Z" fill="white"/>
<path d="M38.2753 23.724C36.4393 23.724 35.8633 21.636 35.8633 14.004C35.8633 6.98401 36.4393 4.53601 38.2753 4.53601C39.4633 4.53601 40.1473 5.79601 40.3993 8.10001C40.5073 8.92801 41.1913 9.57601 42.0553 9.57601H42.7393C43.8913 9.57601 44.1793 8.89201 44.1073 8.10001C43.7473 3.78001 42.3073 0.864014 38.1313 0.864014C32.5873 0.864014 31.7593 6.91201 31.7593 14.004C31.7593 22.428 32.8753 27.288 38.2033 27.288C42.3433 27.288 43.8913 24.12 44.2513 19.368C44.3233 18.576 44.0353 17.892 42.8833 17.892H42.1633C41.3353 17.892 40.6513 18.54 40.5433 19.368C40.3273 22.14 39.6793 23.724 38.2753 23.724Z" fill="white"/>
<path d="M56.2944 2.59201C56.0784 1.40401 55.3944 1.15201 54.5664 1.15201H52.2624C51.4344 1.15201 50.7144 1.40401 50.5344 2.59201L46.7184 25.56C46.5384 26.676 47.1864 27 47.9424 27H48.9864C49.8144 27 50.4984 26.712 50.6424 25.524L51.3264 20.52H55.6104L56.2944 25.524C56.4384 26.712 57.1584 27 57.9864 27H58.9944C59.7504 27 60.3984 26.676 60.2184 25.56L56.2944 2.59201ZM55.1424 17.028H51.7944L53.3784 5.18401H53.5224L55.1424 17.028Z" fill="white"/>
<path d="M73.0041 14.22C74.8401 13.248 75.9921 11.268 75.9921 8.02801C75.9921 2.98801 73.6161 1.15201 69.0441 1.15201H65.3361C64.5441 1.15201 63.8601 1.47601 63.8601 2.62801V25.524C63.8601 26.676 64.5441 27 65.3361 27H66.3081C67.1001 27 67.784 26.676 67.784 25.524V16.02H69.5121L71.924 25.56C72.212 26.712 72.8961 27 73.7601 27H75.0561C75.8121 27 76.4241 26.604 76.1361 25.56L73.0041 14.22ZM67.784 4.53601H68.648C70.52 4.53601 71.8881 4.89601 71.8881 8.46001C71.8881 11.628 70.952 12.672 69.008 12.672H67.784V4.53601Z" fill="white"/>
<path d="M10.116 40.592C9.89999 39.404 9.21599 39.152 8.38799 39.152H6.08399C5.25599 39.152 4.53599 39.404 4.35599 40.592L0.539989 63.56C0.359989 64.676 1.00799 65 1.76399 65H2.80799C3.63599 65 4.31999 64.712 4.46399 63.524L5.14799 58.52H9.43199L10.116 63.524C10.26 64.712 10.98 65 11.808 65H12.816C13.572 65 14.22 64.676 14.04 63.56L10.116 40.592ZM8.96399 55.028H5.61599L7.19999 43.184H7.34399L8.96399 55.028Z" fill="white"/>
<path d="M28.3376 62.84C28.3376 62.048 28.0136 61.364 26.8616 61.364H21.6056V40.628C21.6056 39.476 20.9216 39.152 20.1296 39.152H19.1576C18.3656 39.152 17.6816 39.476 17.6816 40.628V63.524C17.6816 64.676 18.3656 65 19.1576 65H26.8616C28.0136 65 28.3376 64.316 28.3376 63.524V62.84Z" fill="white"/>
<path d="M41.7184 40.592C41.8264 39.476 41.2504 39.152 40.4944 39.152H39.3064C38.4784 39.152 37.7944 39.404 37.6144 40.628L35.2024 57.584H35.1304L32.6104 40.628C32.5024 39.404 31.7464 39.152 30.9184 39.152H29.7664C29.0104 39.152 28.4344 39.476 28.5424 40.592L32.8264 63.56C33.0424 64.748 33.6904 65 34.5544 65H35.8504C36.7144 65 37.3624 64.748 37.5784 63.56L41.7184 40.592Z" fill="white"/>
<path d="M56.0354 62.84C56.0354 62.048 55.7114 61.364 54.5594 61.364H49.0514V53.408H52.7594C53.9114 53.408 54.2354 52.724 54.2354 51.932V51.356C54.2354 50.564 53.9114 49.88 52.7594 49.88H49.0514V42.788H54.1634C55.3154 42.788 55.6394 42.104 55.6394 41.312V40.628C55.6394 39.836 55.3154 39.152 54.1634 39.152H46.6034C45.8114 39.152 45.1274 39.476 45.1274 40.628V63.524C45.1274 64.676 45.8114 65 46.6034 65H54.5594C55.7114 65 56.0354 64.316 56.0354 63.524V62.84Z" fill="white"/>
<path d="M64.3581 38.864C60.7221 38.864 58.7781 41.24 58.7781 44.912C58.7781 52.364 66.6621 53.516 66.6621 59.168C66.6621 60.896 65.8701 61.94 64.5021 61.94C63.2421 61.94 62.6301 61.184 62.3421 59.528C62.1981 58.7 61.8021 58.088 60.6141 58.16L59.9301 58.196C58.7781 58.268 58.5621 58.952 58.6701 59.744C59.1381 63.38 60.7581 65.288 64.4301 65.288C68.3181 65.288 70.5501 62.84 70.5501 58.844C70.5501 51.176 62.5581 50.06 62.5581 44.552C62.5581 43.148 63.0981 42.284 64.4301 42.284C65.6181 42.284 66.2661 43.184 66.5181 44.624C66.6981 45.452 67.0581 46.064 68.3181 45.992L68.8221 45.956C69.9741 45.884 70.1901 45.2 70.0821 44.408C69.5781 41.096 68.0661 38.864 64.3581 38.864Z" fill="white"/>
</svg>
