<svg width="48" height="48" viewBox="0 0 48 48" fill="none" xmlns="http://www.w3.org/2000/svg">
<path fill-rule="evenodd" clip-rule="evenodd" d="M8 0C3.58173 0 0 3.58167 0 8V40C0 44.4183 3.58173 48 8 48H40C44.4183 48 48 44.4183 48 40V8C48 3.58167 44.4183 0 40 0H8ZM34.6925 16.5997C35.8492 16.4528 36.9587 16.15 38 15.6932C37.2195 16.8552 36.2623 17.865 35.123 18.6735C35.1353 18.9167 35.144 19.1617 35.144 19.4155C35.144 27 29.369 35.75 18.806 35.75C15.5563 35.75 12.5427 34.8137 10 33.174C10.4515 33.2317 10.903 33.2528 11.3738 33.2528C14.0582 33.2528 16.538 32.3323 18.491 30.8044C15.9815 30.7502 13.871 29.079 13.1273 26.8058C13.4755 26.8827 13.8465 26.9038 14.214 26.9038C14.7425 26.9038 15.2518 26.8425 15.719 26.7147C13.1097 26.181 11.12 23.864 11.12 21.0745V21.0115C11.8865 21.4332 12.7913 21.701 13.7135 21.7185C12.1875 20.6982 11.1638 18.936 11.1638 16.948C11.1638 15.8893 11.4542 14.9058 11.9495 14.0465C14.7863 17.5308 19.009 19.818 23.7812 20.0508C23.6868 19.6343 23.6483 19.1968 23.6483 18.7417C23.6483 15.5795 26.2067 13 29.3848 13C31.0228 13 32.5242 13.6947 33.5778 14.8165C34.8832 14.5558 36.1083 14.0885 37.2178 13.427C36.7908 14.7727 35.8825 15.8893 34.6925 16.5997Z" fill="#8F7B9F"/>
</svg>
