<svg version="1.1" width="48" height="48" viewBox="0 0 48 48" enable-background="new 0 0 48 48" xml:space="preserve"><path d="m46.736 10.17c-.305-.332-.795-.42-1.196-.21-.25.126-.72.294-1.282.46.706-.938 1.271-1.984 1.524-2.926.108-.406-.05-.836-.394-1.078-.345-.24-.803-.24-1.146 0-.542.378-3.158 1.516-4.812 1.882-3.714-3.254-8.121-3.594-12.611-.972-3.676 2.148-4.475 6.51-4.318 9.172-8.412-.812-13.642-5.256-16.588-8.934-.205-.258-.543-.394-.851-.374-.328.024-.622.206-.79.488-1.394 2.353-1.78 4.95-1.114 7.516.366 1.398 1.002 2.634 1.74 3.632-.356-.172-.694-.39-1.018-.652-.296-.244-.708-.294-1.06-.13-.348.168-.568.52-.568.902 0 4.582 2.88 7.418 5.402 8.888-.448-.048-.908-.148-1.362-.288-.376-.118-.784-.008-1.042.29s-.322.704-.16 1.055c1.446 3.201 4.186 5.373 7.578 6.168-2.932 1.723-6.834 2.541-10.552 2.117-.472-.058-.918.118-1.066.572-.144.456.046.716.46.952 4.928 2.77 9.912 3.716 14.81 3.716h.002c7.34 0 14.208-2.708 19.342-8.458 4.813-5.39 7.34-11.804 6.832-18.046 1.27-.942 3.172-2.674 4.348-4.532.24-.38.198-.876-.108-1.21z" fill="#8F7B9F"/></svg>