<?xml version="1.0" encoding="UTF-8"?>
<svg width="233px" height="139px" viewBox="0 0 233 139" version="1.1" xmlns="http://www.w3.org/2000/svg" xmlns:xlink="http://www.w3.org/1999/xlink">
    <!-- Generator: Sketch 52.6 (67491) - http://www.bohemiancoding.com/sketch -->
    <title>Group 6</title>
    <desc>Created with Sketch.</desc>
    <g id="Diversos" stroke="none" stroke-width="1" fill="none" fill-rule="evenodd">
        <g id="404----1" transform="translate(-861.000000, -245.000000)">
            <g id="Group-6" transform="translate(861.000000, 245.000000)">
                <g id="Group-4" opacity="0.79859561" transform="translate(0.000000, 6.000000)" fill="#E0119D">
                    <path d="M181,9.09075586 L182.305943,9.09075586 C182.305943,9.09075586 183.176571,10.1470469 185.30475,11.0195514 C185.30475,11.0195514 186.900903,17.6325645 189.270971,18 L189.270971,17.2192511 L189.948102,17.7244578 L189.948102,16.8832274 L190.625234,17.4030378 L190.625234,16.8832274 L191.205653,17.2192511 C191.205653,17.2192511 191.205653,13.2699046 190.818731,12.443278 C190.818731,12.443278 192.850198,12.9483468 195.316978,12.9483468 C195.316978,12.9483468 199.863618,14.3720735 194.011036,11.846178 C194.011036,11.846178 189.85139,8.95298475 185.59496,8.81521365 C185.59496,8.81521365 182.934682,7.43750258 181.967341,8.26412922 L181.870629,8.49379366 L181,9.09075586 Z" id="Path"></path>
                    <path d="M0.5,46.0907559 L1.8059428,46.0907559 C1.8059428,46.0907559 2.67657133,47.1470469 4.80475023,48.0195514 C4.80475023,48.0195514 6.40090254,54.6325645 8.77097107,55 L8.77097107,54.2192511 L9.44810241,54.7244578 L9.44810241,53.8832274 L10.1252338,54.4030378 L10.1252338,53.8832274 L10.7056528,54.2192511 C10.7056528,54.2192511 10.7056528,50.2699046 10.3187309,49.443278 C10.3187309,49.443278 12.3501975,49.9483468 14.8169784,49.9483468 C14.8169784,49.9483468 19.3636182,51.3720735 13.5110356,48.846178 C13.5110356,48.846178 9.35139009,45.9529848 5.09495974,45.8152136 C5.09495974,45.8152136 2.43468171,44.4375026 1.46734085,45.2641292 L1.37062853,45.4937937 L0.5,46.0907559 Z" id="Path-Copy-3"></path>
                    <path d="M37.5,10.2528425 L38.2194481,9.63582072 C38.2194481,9.63582072 38.527794,8.78141718 39.7097609,9.20861895 L41.0459007,9.08900246 C41.0459007,9.08900246 41.4055862,8.21181482 40.3777923,6.74038953 C40.3777923,6.74038953 39.6069275,3.70241534 42.1251114,0 C42.1251114,0 41.9195217,0.664583554 42.1251114,0.806984144 C42.330701,0.949384734 43.1529053,0.189962387 43.1529053,0.189962387 L43.1529053,0.806984144 L43.9237701,0.617164157 L43.9237701,1.32916711 L44.4067168,1.28160531 C44.4067168,1.28160531 44.7460515,1.70894948 44.1293597,2.65819181 C44.1293597,2.65819181 44.7675586,2.8005924 44.4998373,3.84481593 L45.7224288,1.51898709 L45.7224288,3.27521357 L46.5447102,1.80378827 L46.5447102,2.8005924 L47.4697479,1.94618886 L47.4697479,2.70561121 L47.9322667,2.75317301 L47.2641583,3.98721652 L47.6752604,4.12961711 L47.6752604,4.65180007 L48.1377793,4.65180007 L47.7780167,5.50620361 L48.1377793,5.9374638 L47.8808501,6.26562596 L48.1377793,6.40802655 L48.1377793,6.78780892 C48.1377793,6.78780892 48.2919522,9.30360015 47.1613249,9.58840133 L47.2640812,9.82564071 C47.2640812,9.82564071 48.600221,10.0156031 50.2961235,10.8700066 C50.2961235,10.8700066 56.0519393,12.6262331 48.9599836,11.2022272 C48.9599836,11.2022272 47.6751833,11.9616496 46.6473894,11.439609 C46.6473894,11.439609 44.5403848,13.1958355 39.1956712,10.4902243 L37.5,10.2528425 Z" id="Path"></path>
                    <path d="M207,40.9424743 L208.247043,39.8626863 C208.247043,39.8626863 208.78151,38.3674801 210.830252,39.1150832 L213.146228,38.9057543 C213.146228,38.9057543 213.769683,37.3706759 211.988173,34.7956817 C211.988173,34.7956817 210.652008,29.4792268 215.01686,23 C215.01686,23 214.660504,24.1630212 215.01686,24.4122223 C215.373215,24.6614233 216.798369,23.3324342 216.798369,23.3324342 L216.798369,24.4122223 L218.134535,24.0800373 L218.134535,25.3260424 L218.971643,25.2428093 C218.971643,25.2428093 219.559823,25.9906616 218.49089,27.6518357 C218.49089,27.6518357 219.597102,27.9010367 219.133051,29.7284279 L221.25221,25.6582274 L221.25221,28.7316237 L222.677498,26.1566295 L222.677498,27.9010367 L224.280896,26.4058305 L224.280896,27.7348196 L225.082596,27.8180528 L223.924541,29.9776289 L224.637118,30.2268299 L224.637118,31.1406501 L225.438817,31.1406501 L224.815229,32.6358563 L225.438817,33.3905617 L224.993473,33.9648454 L225.438817,34.2140465 L225.438817,34.8786656 C225.438817,34.8786656 225.706051,39.2813003 223.746297,39.7797023 L223.924407,40.1948712 C223.924407,40.1948712 226.240383,40.5273054 229.179947,42.0225116 C229.179947,42.0225116 239.156695,45.0959079 226.863972,42.6038976 C226.863972,42.6038976 224.636984,43.9328867 222.855475,43.0193157 C222.855475,43.0193157 219.203334,46.0927121 209.939163,41.3578925 L207,40.9424743 Z" id="Path-Copy"></path>
                </g>
                <g id="Group-2-Copy-2" transform="translate(73.000000, 0.000000)">
                    <path d="M2.48057491,32 L7.94569549,20 L12.465384,14 L18.4101242,9.00514045 L25.5281159,6 L31.511371,5 L37.2653534,2.24177668 L45.6132788,2.24177668 L53.142944,0.578368524 L57.7668317,1.54895483 L63.9942982,3.88135786 L69.7202237,5.48413738 L78.2274151,9.00514045 C79.7260671,9.68093928 80.4555878,11.6081905 81.691528,12.8162556 C87.0233857,18.0372501 89.6599428,16.7695506 93.1886414,24 C95.3560147,28.4435268 98.8288006,38.4397719 98.1123136,51.4892678 C97.4435923,63.7553155 94.8780826,68.6858233 90,76 C86.2921796,81.5618841 81.15615,86.7951235 77.0781447,90.6465788 L65.9099104,99 L52.3633253,105 L46.9717603,104.240474 L38.4933304,103.04437 L27.3459863,101.477473 L27.3459863,99.9828113 L13.6255549,85.7738121 L10.0781862,80.5898268 C4.57317747,71.3618835 1.46128677,62.6081905 0.5,51 C-0.0194531011,44.7383949 0.766976746,38.2915077 2.48057491,32 Z" id="Path-2" fill="#FFFFFF"></path>
                    <path d="M49.4357469,104.583072 L52.6893746,105 C52.6893746,105 69.8632844,98.960495 79.1772404,87.9893231 C79.1772404,87.9893231 98.9763722,70.2586461 98.1123136,47 C98.1123136,47 100.969395,21.9190093 82.6096393,13.6995646 C82.6096393,13.6995646 76.389342,4.50684282 64.5070463,4.13756342 C64.5070463,4.13756342 53.6309005,-2.04933312 45.2227163,2.41775639 L44.3884528,3.59706802 L50.1150758,4.68703787 C50.1150758,4.68703787 56.9322003,6.50365427 59.5541713,14.5622838 C59.5541713,14.5622838 70.5426133,54.5516691 43,103.010656 L44.2513952,103.427584 C44.2513952,103.427584 57.066169,87.28815 65.0599045,58.7907603 C65.6507733,59.6744201 69.6761351,46.687183 66.9409427,14 C66.9409427,14 76.9128109,13.8713739 81.9779821,26.7306356 C81.9779821,26.7306356 93.9317862,73.6529438 51.3307169,103.278682 L49.4357469,104.583072 Z" id="Path" fill="#E0119D" opacity="0.2"></path>
                    <polygon id="Path" fill="#FFFFFF" points="30.3927636 118.680365 28.1115471 130.680253 29.3308213 133.125301 43.4029656 135.232566 45.4720979 133.812286 47 122.121139"></polygon>
                    <path d="M28.5007656,129.610377 L38.9871911,131.035937 C38.9871911,131.035937 42.6747676,131.835554 43.1078924,126.732654 L44.0403138,120 L47.9254937,121.713278 L46.3787065,130.607156 C47.5379808,129.71466 47.2136767,137.774847 36.4697753,134.448196 L29.4602839,133.125301 C29.9475493,133.808943 27.4119379,132.235074 28.5007656,129.610377 Z" id="Path" fill="#E0119D" opacity="0.2"></path>
                    <path d="M43.9918963,138.198141 C44.0636261,137.675888 43.6511797,137.185479 43.0713638,137.096314 L29.1796906,135.013669 C28.6058521,134.924504 28.0798335,135.281165 28.0081037,135.803418 C27.9363739,136.325672 28.3488203,136.81608 28.9286362,136.905245 L42.8203094,138.98789 C43.4001254,139.070686 43.9201665,138.720394 43.9918963,138.198141 Z" id="Path" fill="#E0119D"></path>
                    <polygon id="Path" fill="#E0119D" points="37.5103687 126 38 126.554202 33.4896313 131 33 130.445798"></polygon>
                    <path d="M98.9754977,44.9727266 C98.6531203,34.0786017 94.9577202,21.8562155 86.2296509,14.6788396 C84.8207423,13.5233119 82.8625981,12.8025961 81.644728,11.4802912 C80.3193987,10.0388597 78.8149709,8.77611804 77.1851741,7.68015359 C73.859911,5.45248672 69.9495926,4.26717734 65.955695,4.10635647 C65.1258717,4.0706185 64.2363489,3.21290719 63.5259246,2.80192052 C62.6781915,2.30754525 61.7826987,1.89655858 60.8752661,1.52130988 C58.9947313,0.746987171 56.9828576,0.300262531 54.9650139,0.0917910316 C53.0844791,-0.0988114817 51.1800645,0.0203150891 49.3234096,0.330044173 C48.4338868,0.478952387 47.5622738,0.7112492 46.6906609,0.95545867 C45.4668208,1.30092573 44.0997018,0.901851713 42.8340721,0.842288428 C38.8580843,0.657642243 34.935826,1.73573771 31.4374343,3.55837424 C29.8315173,4.39821657 27.6823347,4.26717734 25.9092591,4.72581464 C24.2615524,5.15467029 22.6854852,5.79795377 21.1750874,6.56036383 C16.2200275,9.05606548 12.1067308,12.9931987 8.89489677,17.4544887 C0.590693977,28.9680718 -1.42117974,43.9482381 0.895161513,57.6775754 C2.57271794,67.624644 6.51288605,77.1130754 12.3037392,85.3208961 L29.1688527,118.348738 C29.1509428,118.533384 29.1628827,118.712074 29.2046724,118.878851 C29.1210931,118.974152 29.0613936,119.093279 29.0375137,119.248143 C28.7031965,121.618762 28.3688792,123.989381 28.0345619,126.36 C27.897253,127.342794 27.7539741,128.331545 27.6166652,129.314339 C27.3241376,131.387141 27.8793431,132.888136 29.7956976,133.906668 C31.0314776,134.561864 33.079171,134.740554 34.4224102,134.931157 C36.5536829,135.228973 38.6849557,135.532746 40.8162284,135.830562 C42.6191538,136.086684 44.2847703,136.22368 45.7832282,134.937113 C47.048858,133.847105 47.0966176,132.149551 47.3115358,130.630687 C47.6160034,128.486409 47.914501,126.336174 48.2189685,124.191896 C48.3204577,123.459268 48.4279168,122.726639 48.529406,121.988055 C48.5532858,121.839146 48.529406,121.708107 48.4756764,121.594937 C48.5771656,121.416247 48.648805,121.219688 48.6786548,120.999304 C48.6965646,120.874221 48.6965646,120.755095 48.6846247,120.641924 L71.3167116,96.4592305 C71.9793762,95.9767679 72.6360709,95.4823926 73.2748557,94.9761047 C77.4180022,91.682255 80.9940032,87.7987288 84.5640343,83.9211589 C94.3129654,73.3427194 99.3993643,59.2857841 98.9754977,44.9727266 Z M68.3377057,5.82177909 C70.6122573,6.14342083 72.7853197,6.94156885 74.8151033,8.00179533 C76.5642991,8.9131136 78.1284264,10.1520299 79.5612148,11.4922039 C80.0268711,11.9270158 80.4805874,12.6298626 81.0119131,13.0765872 C86.0983119,19.3486012 88.0922758,28.4856092 88.7071808,36.205011 C89.8892313,51.0064874 86.6953071,66.9277536 79.3821163,79.8768118 C73.5494735,90.2050855 63.9318813,100.170023 52.2964455,103.767646 L45.0787739,102.75507 C61.6812095,80.1031523 70.027202,52.4717442 68.3257658,24.4472184 C67.9436889,18.1811608 67.2213247,11.6708937 65.454219,5.58948227 C66.4213512,5.61330759 67.3765435,5.68478353 68.3377057,5.82177909 Z M40.6669796,105.131645 L52.9591101,106.85898 L43.2818185,118.741856 L38.8401744,118.116441 L40.6669796,105.131645 Z M38.2491492,118.033052 L34.6612082,117.526765 L28.6494669,103.440048 L40.0819244,105.048256 L38.2491492,118.033052 Z M45.9802366,2.62323066 C46.2309746,2.61727433 46.4936525,2.58153636 46.7742402,2.4862351 C47.9861404,2.08716109 49.2338603,1.83699529 50.49949,1.66426177 C54.8217351,1.05671626 59.1439801,2.08120476 62.9289295,4.17783241 C63.3050364,4.38630391 63.9259114,4.94619879 64.4870868,5.29166585 C65.7646565,9.50874645 66.4094113,13.9759929 66.9228271,18.3360254 C68.2362165,29.4564907 67.8780194,40.755646 66.0213644,51.7867664 C62.9229595,70.2156469 55.2276918,87.5902573 44.1116417,102.624031 L38.643166,101.855664 C28.7270763,75.0700547 28.4703683,45.5862284 38.3685482,18.7708373 C40.4043018,13.2552771 42.7684026,7.59676499 45.9802366,2.62323066 Z M39.5147789,2.48027878 C41.0908462,2.28371993 42.6907932,2.28371993 44.2728304,2.44454081 C44.5414783,2.47432245 44.7862463,2.51006042 45.0250444,2.54579839 C42.8101923,6.07790121 41.0430866,9.94355844 39.4311996,13.761565 C35.1925339,23.7979786 32.4045665,34.4478941 31.0314776,45.2407614 C28.6076772,64.306969 31.0852072,83.6888621 37.6879737,101.712712 L32.9179823,101.039647 C22.08252,94.6485066 15.7424313,82.1402167 12.8649146,70.4777254 C9.25309387,55.8251572 10.7037921,39.8741094 16.4647955,25.9779949 C20.5303326,16.1738781 28.1241111,4.54116845 39.5147789,2.48027878 Z M5.84425146,70.1024767 C0.286226441,55.4558648 -0.412257906,38.635193 6.5307959,24.3340482 C9.16354459,18.9137892 12.9783437,13.9998182 17.8319144,10.3783704 C20.2437749,8.5795592 22.9302532,7.18577832 25.8077699,6.29828537 C26.8465415,5.97664363 27.9271027,5.78604112 29.001694,5.6371329 C29.3598911,5.58948227 29.7956976,5.60139493 30.2135942,5.57756962 C24.3511017,9.78273757 19.9990069,16.4657382 16.9961212,22.6603199 C10.6978222,35.6748977 8.72773812,50.9111861 10.9187104,65.140855 C12.9365541,78.2745595 19.246793,92.9747783 30.858349,100.753743 L29.9747962,100.62866 C29.2225822,100.128329 28.5002181,99.5565213 27.7838239,99.0442771 C24.4705007,96.6736583 21.467615,93.8860966 18.7214372,90.8960196 C13.1514723,84.8324772 8.76355783,77.7801842 5.84425146,70.1024767 Z M15.0917066,88.9959508 C18.0229529,92.5995296 21.342246,95.8993356 24.9958565,98.8179366 C25.3839033,99.1276657 25.7719502,99.4254821 26.1719369,99.7232985 L26.4226749,100.307019 C25.9570187,100.491665 25.5868817,100.93839 25.5033023,101.510197 C25.3898733,102.320258 25.8973192,103.064799 26.6375932,103.172013 L27.7062145,103.320921 L33.7179559,117.407638 L30.6553707,116.978782 C30.2553839,116.925175 29.867337,117.091953 29.5867493,117.395725 L15.0917066,88.9959508 Z M30.0762853,122.297784 L32.2672576,122.607513 L29.7121183,124.870918 C29.8315173,124.013206 29.9509164,123.155495 30.0762853,122.297784 Z M45.7115888,131.565831 C45.442941,133.483769 44.3444699,134.871593 42.1534976,134.561864 C41.7594808,134.508257 41.365464,134.448694 40.9714472,134.395087 L44.696697,130.93446 L44.1892511,130.392434 L40.0222248,134.264048 C39.0312129,134.127052 38.0461708,133.9841 37.0551589,133.847105 C36.5656228,133.775629 36.0701168,133.710109 35.5805808,133.638633 L39.5625386,130.112487 L39.0312129,129.570461 L34.5955388,133.501638 C33.6582563,133.370598 32.715004,133.239559 31.7777216,133.10852 C30.3568731,132.906005 29.5091399,132.155507 29.1807926,131.089325 L33.3060292,127.438095 L32.7747035,126.896069 L29.0315438,130.213744 C29.0196039,129.951666 29.0315438,129.677675 29.0673635,129.391771 C29.2225822,128.271981 29.3837709,127.158148 29.5389897,126.038358 L33.2403597,122.756421 L36.4701036,123.209102 L33.5090076,125.954969 L33.9866037,126.467214 L37.3655963,123.334185 L42.8758617,124.108508 L40.0222248,126.782899 L40.5893703,127.396401 L43.9385131,124.257416 L46.5055924,124.614795 L42.4281154,128.408977 L42.9355613,128.951003 L46.547382,125.59759 C46.2787342,127.575091 45.9921765,129.570461 45.7115888,131.565831 Z M46.7742402,124.037032 L32.8463429,122.083356 L30.1538947,121.708107 C30.237474,121.118431 30.3210534,120.522798 30.4046327,119.933121 L47.0249782,122.268002 C46.9413988,122.857679 46.8578195,123.447355 46.7742402,124.037032 Z M48.3682173,119.796126 C48.1771788,119.557873 47.9204709,119.391095 47.6160034,119.349401 L44.2191009,118.872895 L53.962062,106.912587 C54.5172675,106.787504 54.9709839,106.299085 55.0605331,105.655802 C55.0665031,105.620064 55.0605331,105.590282 55.0665031,105.554544 L55.1918721,105.39968 C59.7170954,103.475786 64.09904,101.254075 68.2123367,98.5856398 L48.3682173,119.796126 Z M82.7909587,83.6412115 C79.423906,87.3103098 76.0031236,90.8960196 72.0928053,93.9992668 C66.7317887,98.2580417 60.642438,101.480415 54.3441389,104.136938 C54.2784695,104.1012 54.20683,104.071418 54.1351906,104.047593 C64.0214306,100.438058 72.2719038,92.3791454 77.9851476,83.778207 C86.0744321,71.5975152 89.674313,56.4327027 89.7638623,41.91713 C89.8175918,33.1434581 88.3310739,22.028949 83.005877,14.2380713 C83.5192928,14.5537567 84.0267387,14.8932675 84.5162747,15.2506472 C94.0562575,22.1540319 97.4292802,35.6451161 97.5128595,46.7477125 C97.6143487,60.5485257 92.0802035,73.5333219 82.7909587,83.6412115 Z" id="Shape" fill="#E0119D"></path>
                    <path d="M38.7545474,103.410881 C38.7545474,103.410881 27.2698011,77.9438254 31.6589947,45 C32.3538116,45 36.8675804,13.7206281 45.9492858,2.01783962 L40.2123295,2.01783962 C40.2123295,2.01783962 10.1035609,32.790307 36.6052501,102.864321 L38.7545474,103.410881 Z" id="Path" fill="#D10074" opacity="0.2"></path>
                    <path d="M22.7091,7.24661373 C22.7091,7.24661373 20.7100945,10.6833255 20,18 C20,18 23.0432621,10.9262027 32,5 C32,5 24.332173,5.65576833 22.7091,7.24661373 Z" id="Path" fill="#D10074" opacity="0.2"></path>
                </g>
            </g>
        </g>
    </g>
</svg>