<?xml version="1.0" encoding="UTF-8"?>
<svg width="89px" height="61px" viewBox="0 0 89 61" version="1.1" xmlns="http://www.w3.org/2000/svg" xmlns:xlink="http://www.w3.org/1999/xlink">
    <!-- Generator: Sketch 52.6 (67491) - http://www.bohemiancoding.com/sketch -->
    <title>Group 4 Copy</title>
    <desc>Created with Sketch.</desc>
    <g id="Diversos" stroke="none" stroke-width="1" fill="none" fill-rule="evenodd" opacity="0.299037388">
        <g id="404----1" transform="translate(-471.000000, -338.000000)" fill="#E0119D">
            <g id="Group-4-Copy" transform="translate(471.000000, 338.000000)">
                <path d="M42,48.5270582 L43.7956714,48.5270582 C43.7956714,48.5270582 44.9927856,50.0058657 47.9190316,51.2273719 C47.9190316,51.2273719 50.113741,60.4855902 53.3725852,61 L53.3725852,59.9069516 L54.3036408,60.6142409 L54.3036408,59.4365184 L55.2346964,60.1642529 L55.2346964,59.4365184 L56.0327726,59.9069516 C56.0327726,59.9069516 56.0327726,54.3778664 55.500755,53.2205892 C55.500755,53.2205892 58.2940216,53.9276856 61.6858453,53.9276856 C61.6858453,53.9276856 67.9374751,55.9209028 59.8901739,52.3846492 C59.8901739,52.3846492 54.1706614,48.3341787 48.3180696,48.1412991 C48.3180696,48.1412991 44.6601873,46.2125036 43.3300937,47.3697809 L43.1971142,47.6913111 L42,48.5270582 Z" id="Path-Copy-3"></path>
                <path d="M68,29.6704566 L69.0072273,28.847761 C69.0072273,28.847761 69.4389115,27.7085562 71.0936652,28.2781586 L72.964261,28.1186699 C72.964261,28.1186699 73.4678207,26.9490864 72.0289092,24.987186 C72.0289092,24.987186 70.9496985,20.9365538 74.4751559,16 C74.4751559,16 74.1873304,16.8861114 74.4751559,17.0759789 C74.7629814,17.2658463 75.9140675,16.2532832 75.9140675,16.2532832 L75.9140675,17.0759789 L76.9932781,16.8228855 L76.9932781,17.7722228 L77.6694036,17.7088071 C77.6694036,17.7088071 78.1444721,18.2785993 77.2811036,19.5442558 C77.2811036,19.5442558 78.1745821,19.7341232 77.7997722,21.1264212 L79.5114003,18.0253161 L79.5114003,20.3669514 L80.6625943,18.405051 L80.6625943,19.7341232 L81.9576471,18.5949185 L81.9576471,19.6074816 L82.6051734,19.6708973 L81.6698216,21.3162887 L82.2453646,21.5061561 L82.2453646,22.2024001 L82.892891,22.2024001 L82.3892234,23.3416048 L82.892891,23.9166184 L82.5331901,24.3541679 L82.892891,24.5440354 L82.892891,25.0504119 C82.892891,25.0504119 83.1087331,28.4048002 81.5258549,28.7845351 L81.6697137,29.1008543 C81.6697137,29.1008543 83.5403095,29.3541375 85.9145729,30.4933422 C85.9145729,30.4933422 93.972715,32.8349775 84.0439771,30.936303 C84.0439771,30.936303 82.2452567,31.9488661 80.8063451,31.252812 C80.8063451,31.252812 77.8565387,33.5944473 70.3739396,29.9869657 L68,29.6704566 Z" id="Path"></path>
                <path d="M0,13.6704566 L1.00722729,12.847761 C1.00722729,12.847761 1.43891155,11.7085562 3.09366522,12.2781586 L4.96426102,12.1186699 C4.96426102,12.1186699 5.46782071,10.9490864 4.02890916,8.98718604 C4.02890916,8.98718604 2.94969852,4.93655379 6.47515592,0 C6.47515592,0 6.18733044,0.886111405 6.47515592,1.07597886 C6.7629814,1.26584631 7.91406747,0.253283183 7.91406747,0.253283183 L7.91406747,1.07597886 L8.99327811,0.822885543 L8.99327811,1.77222281 L9.66940357,1.70880708 C9.66940357,1.70880708 10.1444721,2.27859931 9.28110358,3.54425575 C9.28110358,3.54425575 10.1745821,3.7341232 9.79977222,5.12642124 L11.5114003,2.02531612 L11.5114003,4.36695143 L12.6625943,2.40505103 L12.6625943,3.7341232 L13.9576471,2.59491848 L13.9576471,3.60748161 L14.6051734,3.67089734 L13.6698216,5.31628869 L14.2453646,5.50615615 L14.2453646,6.2024001 L14.892891,6.2024001 L14.3892234,7.34160482 L14.892891,7.9166184 L14.5331901,8.35416795 L14.892891,8.5440354 L14.892891,9.0504119 C14.892891,9.0504119 15.1087331,12.4048002 13.5258549,12.7845351 L13.6697137,13.1008543 C13.6697137,13.1008543 15.5403095,13.3541375 17.9145729,14.4933422 C17.9145729,14.4933422 25.972715,16.8349775 16.0439771,14.936303 C16.0439771,14.936303 14.2452567,15.9488661 12.8063451,15.252812 C12.8063451,15.252812 9.8565387,17.5944473 2.37393965,13.9869657 L0,13.6704566 Z" id="Path-Copy-4"></path>
            </g>
        </g>
    </g>
</svg>