<?xml version="1.0" encoding="UTF-8"?>
<svg width="1440px" height="225px" viewBox="0 0 1440 225" version="1.1" xmlns="http://www.w3.org/2000/svg" xmlns:xlink="http://www.w3.org/1999/xlink">
    <!-- Generator: Sketch 52.6 (67491) - http://www.bohemiancoding.com/sketch -->
    <title>Group</title>
    <desc>Created with Sketch.</desc>
    <g id="Diversos" stroke="none" stroke-width="1" fill="none" fill-rule="evenodd">
        <g id="404----1" transform="translate(0.000000, -675.000000)">
            <g id="Group" transform="translate(0.000000, 675.000000)">
                <path d="M642.7584,69.6802658 C652.0512,71.8307792 935.8656,-1.21353025 962.2848,0.0153345589 C985.3056,1.09790594 1269.4656,57.2306949 1440,104.132368 L1440,225 L0,225 L0,49.3162203 C103.2,30.2249278 236.4288,4.14080927 255.1104,3.1606433 C298.0608,0.878465794 633.4656,67.5297523 642.7584,69.6802658 Z" id="Path" fill="#009EFF"></path>
                <path d="M642.879177,70.108108 L1048.84319,132 L828.453947,85.5553601 C850.498631,77.8978735 1049.78412,42.7998355 962.450298,0.117799296 C956.497465,-2.79233954 718.518562,48.9875549 642.879177,70.108108 Z" id="Path" fill="#FFFFFF"></path>
                <path d="M0,49.0008028 C103.185302,29.9972595 236.395127,4.03303135 255.074066,3.0573705 C256.667439,2.96999789 258.663955,2.98455999 261.025218,3.08649471 C303.547161,21.9735412 344.34135,35.1231194 350.215714,50.5589477 C357.088335,68.6305165 203.087871,102.094227 0,131 L2.1824764e-13,49.0008028 Z" id="Path" fill="#FFFFFF"></path>
                <path d="M446.6688,107.190324 C470.5152,103.005386 799.0848,169.230195 811.296,168.584099 C823.5264,167.938003 931.0656,137.65961 931.0656,137.65961 C950.2656,136.308682 1125.4656,170.067182 1135.0656,169.538559 C1144.6656,169.009935 1233.4656,141.110348 1233.4656,141.110348 C1253.952,140.023733 1368.4608,169.832238 1440,189.714365 L1440,225 L0,225 L0,124.649592 C50.0544,140.904772 151.008,173.385765 158.016,173.003981 C167.3664,172.504725 412.1856,113.240129 446.6688,107.190324 Z" id="Path" fill="#80CFFF"></path>
                <path d="M475.031711,202.32332 C418.307994,207.675308 402.754097,216.498068 403.67581,225 L345.300691,225 C240.763144,197.656737 157.943445,173.361336 157.943445,173.361336 C167.294985,172.865512 422.225272,108.291661 446.631448,108 C539.839614,133.782874 686.718325,182.373676 475.031711,202.32332 Z" id="Path" fill="#E6F5FF"></path>
                <path d="M931.86293,174.405388 C924.652992,179.922689 1032.80206,205 1032.80206,205 L811.928021,168.90276 C824.175301,168.257118 912.636429,139.349978 931.86293,138 C1027.99543,165.454446 939.072867,168.888086 931.86293,174.405388 Z" id="Path" fill="#E6F5FF"></path>
                <path d="M1229.69912,164.579211 C1184.27125,170.765614 1246.43571,189 1246.43571,189 L1136.45244,169.584439 C1146.0162,169.052911 1208.18066,142.402654 1234.48101,141.000009 C1234.48101,140.985245 1275.12699,158.392808 1229.69912,164.579211 Z" id="Path" fill="#E6F5FF"></path>
            </g>
        </g>
    </g>
</svg>