<?xml version="1.0" encoding="UTF-8"?>
<svg width="71px" height="71px" viewBox="0 0 71 71" version="1.1" xmlns="http://www.w3.org/2000/svg" xmlns:xlink="http://www.w3.org/1999/xlink">
    <!-- Generator: Sketch 52.5 (67469) - http://www.bohemiancoding.com/sketch -->
    <title>poodle</title>
    <desc>Created with Sketch.</desc>
    <g id="Homepage" stroke="none" stroke-width="1" fill="none" fill-rule="evenodd">
        <g id="01---Homepage---Não-Cliente-" transform="translate(-1154.000000, -6039.000000)">
            <g id="Seguros" transform="translate(0.000000, 5400.000000)">
                <g id="Group-22" transform="translate(1131.000000, 556.000000)">
                    <g id="poodle" transform="translate(24.000000, 84.000000)">
                        <path d="M7.46348588,53.237485 C4.61538462,53.237485 2.30769231,55.5420118 2.30769231,58.3862062 C2.30769231,61.2304006 4.61538462,63.5349273 7.46348588,63.5349273 C10.3115871,63.5349273 12.6192795,61.2304006 12.6192795,58.3862062 C12.6192795,55.5420118 10.3115871,53.237485 7.46348588,53.237485 Z" id="Shape"></path>
                        <ellipse id="Oval" transform="translate(54.213717, 58.388804) rotate(-45.000000) translate(-54.213717, -58.388804) " cx="54.2137171" cy="58.3888039" rx="5.15574413" ry="5.14867178"></ellipse>
                        <path d="M5.68159688,67.0208887 L13.3349562,67.0208887 C12.9552093,65.9269678 12.0204479,65.1101735 10.8812074,64.8768037 C10.2531646,65.2122728 9.56669912,65.4602282 8.83641675,65.5914987 C8.80720545,65.5914987 8.79259981,65.6060843 8.76338851,65.6060843 C8.64654333,65.6206699 8.52969815,65.6498411 8.42745862,65.6644267 C8.39824732,65.6644267 8.35443038,65.6790123 8.32521908,65.6790123 C8.22297955,65.693598 8.10613437,65.7081836 8.00389484,65.7081836 C7.97468354,65.7081836 7.9308666,65.7081836 7.90165531,65.7227692 C7.75559883,65.7373548 7.60954236,65.7373548 7.47809153,65.7373548 C7.46348588,65.7373548 7.46348588,65.7373548 7.44888023,65.7373548 C7.3466407,65.7373548 7.24440117,65.7373548 7.14216164,65.7227692 C7.09834469,65.7227692 7.05452775,65.7227692 7.01071081,65.7081836 C6.93768257,65.7081836 6.87925998,65.693598 6.80623174,65.693598 C6.7624148,65.693598 6.70399221,65.6790123 6.66017527,65.6790123 C6.60175268,65.6790123 6.54333009,65.6644267 6.4849075,65.6498411 C6.36806232,65.6352555 6.26582278,65.6206699 6.1489776,65.5914987 C6.11976631,65.5914987 6.09055501,65.5769131 6.06134372,65.5769131 C5.98831548,65.5623274 5.91528724,65.5477418 5.84225901,65.5331562 C5.81304771,65.5331562 5.79844206,65.5185706 5.76923077,65.5185706 C5.69620253,65.503985 5.60856865,65.4748138 5.53554041,65.4602282 C5.53554041,65.4602282 5.53554041,65.4602282 5.52093476,65.4602282 C5.43330088,65.4310569 5.34566699,65.4164713 5.25803311,65.3873001 L5.2872444,66.6124915 C5.27263875,66.8458613 5.46251217,67.0208887 5.68159688,67.0208887 Z" id="Shape"></path>
                        <path d="M53.9386563,67.0208887 L59.7663096,67.0208887 C59.4157741,65.9998958 58.5686465,65.2268584 57.5316456,64.9351461 C57.0350536,65.1831015 56.5092502,65.3873001 55.93963,65.5185706 C55.93963,65.5185706 55.93963,65.5185706 55.9250243,65.5185706 C55.7935735,65.5477418 55.6767283,65.5769131 55.5452775,65.6060843 C55.5160662,65.6060843 55.4868549,65.6206699 55.4722493,65.6206699 C55.3700097,65.6352555 55.2677702,65.6498411 55.150925,65.6644267 C55.1071081,65.6644267 55.0778968,65.6790123 55.0340798,65.6790123 C54.9318403,65.693598 54.8296008,65.693598 54.7273612,65.7081836 C54.6835443,65.7081836 54.654333,65.7081836 54.6105161,65.7227692 C54.4790652,65.7373548 54.3330088,65.7373548 54.1869523,65.7373548 C54.0701071,65.7373548 53.9386563,65.7373548 53.8218111,65.7227692 C53.7049659,65.7227692 53.5881207,65.7081836 53.4712756,65.693598 L53.5004869,66.6124915 C53.5296981,66.8458613 53.7195716,67.0208887 53.9386563,67.0208887 Z" id="Shape"></path>
                        <path d="M18.1402142,51.1809137 C19.2794547,50.7141741 20.1996105,49.8390373 20.7254138,48.7305308 L26.9474197,35.6909934 C27.2103213,35.1513257 27.8675755,34.9179559 28.4079844,35.180497 C28.9483934,35.443038 29.1820837,36.0993905 28.9191821,36.6390582 L27.721519,39.1477835 C28.7000974,39.0602698 29.8977605,39.1040267 31.3291139,39.279054 C32.0593963,39.3665677 32.775073,39.4832526 33.4177215,39.5999375 C31.8257059,37.0328697 30.9201558,34.0282336 30.9201558,30.8631557 C30.9201558,30.3526593 30.9493671,29.8421628 30.993184,29.3316664 L20.0243427,31.0527687 C19.308666,31.1694536 18.6368062,31.417409 18.023369,31.8112205 C16.3875365,32.8613846 15.4819864,34.7137574 15.6426485,36.6390582 C16.3583252,44.7194874 16.0954236,46.0467781 16.0077897,46.4843465 C15.7740993,47.6366099 14.7809153,49.0076574 12.969815,50.6704173 C12.3855891,51.2100849 11.7867575,51.7059957 11.2609542,52.1289785 C11.8305745,52.4790332 12.3563778,52.9020159 12.8237585,53.3979268 L18.1402142,51.1809137 Z" id="Shape"></path>
                        <path d="M52.3028238,51.2975986 C52.3612463,51.283013 52.4342746,51.2684274 52.5073028,51.2538417 C52.5511198,51.2392561 52.5949367,51.2392561 52.624148,51.2246705 C52.6825706,51.2100849 52.7409932,51.1954993 52.7994158,51.1809137 C52.872444,51.1663281 52.9308666,51.1517425 53.0038948,51.1371568 C53.0623174,51.1225712 53.12074,51.1225712 53.1937683,51.1079856 C53.2667965,51.0934 53.3544304,51.0934 53.4274586,51.0788144 C53.4712756,51.0788144 53.5150925,51.0642288 53.5443038,51.0642288 C53.617332,51.0642288 53.6903603,51.0496432 53.7779942,51.0496432 C53.8072055,51.0496432 53.8510224,51.0496432 53.8802337,51.0496432 C53.9970789,51.0496432 54.0993184,51.0350576 54.2161636,51.0350576 C54.2161636,51.0350576 54.2161636,51.0350576 54.2161636,51.0350576 C54.2161636,51.0350576 54.2161636,51.0350576 54.2161636,51.0350576 C54.2161636,51.0350576 54.2161636,51.0350576 54.2307692,51.0350576 C54.3330088,51.0350576 54.4206426,51.0350576 54.5228822,51.0350576 L54.7857838,47.1698703 C53.8510224,47.5053394 52.8870497,47.7387092 51.9230769,47.8845653 L52.0399221,51.355941 C52.1129503,51.3267698 52.1859786,51.3121842 52.2590068,51.2975986 C52.2590068,51.3121842 52.2736125,51.3121842 52.3028238,51.2975986 Z" id="Shape"></path>
                        <path d="M53.3106134,34.8596135 C49.1187926,34.8596135 45.8471276,29.7400636 45.8471276,23.1911236 C45.8471276,19.5009637 48.1110029,15.7087045 50.0097371,13.1708079 C50.7984421,12.1206439 52.0107108,11.5080481 53.3252191,11.5080481 C54.2599805,11.5080481 55.150925,11.814346 55.8519961,12.3831849 L58.4371957,10.4287128 C59.3427459,9.74318904 59.8539435,8.70761056 59.8685492,7.5699328 C59.8685492,6.43225504 59.3573515,5.39667656 58.4518014,4.71115278 C53.9532619,1.28353389 47.7166504,1.35646195 43.3057449,4.90076574 C40.5890944,7.08860759 39.7419669,10.8079387 41.2609542,13.9438454 L41.6699124,14.7898109 C41.8597858,15.1836224 41.8013632,15.6649476 41.4946446,16.0004167 L36.835443,21.1783091 C34.4401168,23.8328906 33.1256086,27.2750951 33.1256086,30.8485701 C33.1256086,37.3099964 37.4780915,43.042142 43.714703,44.7778299 L45.993184,45.4195968 C49.1626095,46.3093192 52.5511198,45.9884357 55.5014606,44.5444601 C60.4089581,42.137834 63.3446933,37.0474553 62.9649464,31.5924363 L62.9649464,31.490337 C62.7604674,28.6169714 62.0155794,25.8602907 60.788705,23.3223941 C60.7302824,29.798406 57.473223,34.8596135 53.3106134,34.8596135 Z" id="Shape"></path>
                        <path d="M60.3213242,11.6684899 C60.1460565,11.8435172 59.9561831,12.003959 59.751704,12.1644007 L57.2541383,14.0605303 C57.8821811,14.9648383 58.510224,15.9712455 59.0652386,17.0651664 L62.7604674,17.0651664 C64.3962999,17.0651664 65.8568647,16.102516 66.4849075,14.6001979 L66.5725414,14.3959994 C65.842259,14.220972 64.8928919,13.9730166 63.9289192,13.6375475 C62.2638754,13.054123 61.0808179,12.4123561 60.3213242,11.6684899 Z" id="Shape"></path>
                        <path d="M53.3106134,13.69589 C52.6971762,13.69589 52.127556,13.9876022 51.7624148,14.483513 C50.0681597,16.7588686 48.0379747,20.1135594 48.0379747,23.2057092 C48.0379747,28.3398448 50.4625122,32.6863572 53.3106134,32.6863572 C56.1733204,32.6863572 58.5832522,28.3398448 58.5832522,23.2057092 C58.5832522,20.128145 56.5530672,16.7588686 54.8588121,14.483513 C54.4936709,13.9876022 53.9240506,13.69589 53.3106134,13.69589 Z" id="Shape"></path>
                        <path d="M53.8802337,51.0996432 C54.0541467,51.0996432 54.2063206,51.0496432 54.3802337,51.0496432 C54.3802337,51.0496432 54.3802337,51.0496432 54.3802337,51.0496432 C54.2063206,51.0496432 54.0541467,51.0496432 53.8802337,51.0996432 Z" id="Shape" fill="#000000" fill-rule="nonzero"></path>
                        <path d="M57.5316456,64.9351461 C58.5686465,65.2268584 59.4157741,65.9998958 59.7663096,67.0208887 L53.9386563,67.0208887 C53.7049659,67.0208887 53.5296981,66.8458613 53.5150925,66.6124915 L53.4858812,65.693598 C52.7117819,65.6206699 51.9668939,65.4164713 51.2804284,65.1247591 L51.3242454,66.670834 C51.3534567,68.0856384 52.5219085,69.2087305 53.9240506,69.2087305 L61.0808179,69.2087305 C61.285297,69.2087305 61.489776,69.1649737 61.6504382,69.0628744 C62.0593963,68.814919 62.2638754,68.362765 62.1762415,67.910611 L62.0155794,67.0792311 C61.7234664,65.5477418 60.788705,64.2350367 59.503408,63.432828 C58.962999,64.0454238 58.2911392,64.5559202 57.5316456,64.9351461 Z" id="Shape" fill="#303133" fill-rule="nonzero"></path>
                        <path d="M7.46348588,51.0496432 C7.46348588,51.0496432 7.46348588,51.0496432 7.46348588,51.0496432 C7.62348588,51.0496432 7.80348588,51.0496432 7.96348588,51.0996432 C7.78348588,51.0496432 7.62348588,51.0496432 7.46348588,51.0496432 Z" id="Shape" fill="#000000" fill-rule="nonzero"></path>
                        <path d="M14.7955209,58.7695213 C14.7955209,58.6518742 14.8455209,58.5195213 14.8455209,58.3871683 C14.8455209,58.3430507 14.8455209,58.3136389 14.8455209,58.2695213 C14.8455209,58.3136389 14.8455209,58.3430507 14.8455209,58.3871683 C14.8455209,58.5195213 14.8455209,58.6371683 14.7955209,58.7695213 Z" id="Shape" fill="#000000" fill-rule="nonzero"></path>
                        <path d="M10.8812074,64.8913893 C12.0204479,65.1247591 12.969815,65.9415534 13.3349562,67.0354743 L5.68159688,67.0354743 C5.46251217,67.0354743 5.27263875,66.8458613 5.25803311,66.6270771 L5.22882181,65.4018857 C4.4255112,65.1539303 3.68062317,64.7601188 3.00876339,64.2642079 L3.05258033,66.6854196 C3.08179163,68.0856384 4.25024343,69.2379018 5.66699124,69.2379018 L14.6494645,69.2379018 C14.8539435,69.2379018 15.0584226,69.1941449 15.2336904,69.0920456 C15.6426485,68.8440902 15.8471276,68.3919362 15.7594937,67.9397823 L15.5988315,67.1084024 C15.292113,65.4893994 14.2697176,64.1183518 12.8821811,63.3453144 C12.3271665,63.9579101 11.6407011,64.4829921 10.8812074,64.8913893 Z" id="Shape" fill="#303133" fill-rule="nonzero"></path>
                        <path d="M15.1752678,14.1918008 C15.3419344,14.2418008 15.5086011,14.2418008 15.6752678,14.2918008 C15.5086011,14.2418008 15.3419344,14.2418008 15.1752678,14.1918008 Z" id="Shape" fill="#000000" fill-rule="nonzero"></path>
                        <path d="M16.24148,14.3814138 C16.4337877,14.4314138 16.5876339,14.5314138 16.74148,14.5814138 C16.5876339,14.5314138 16.3953262,14.4314138 16.24148,14.3814138 Z" id="Shape" fill="#000000" fill-rule="nonzero"></path>
                        <path d="M21.737147,22.651456 C21.687147,22.807706 21.637147,22.995206 21.587147,23.151456 C21.637147,22.995206 21.687147,22.838956 21.737147,22.651456 Z" id="Shape" fill="#000000" fill-rule="nonzero"></path>
                        <path d="M16.5920156,14.483513 C16.6920156,14.533513 16.7420156,14.533513 16.8420156,14.583513 C16.7420156,14.533513 16.6420156,14.533513 16.5920156,14.483513 Z" id="Shape" fill="#000000" fill-rule="nonzero"></path>
                        <path d="M15.540409,14.2355576 C15.7070756,14.2855576 15.8737423,14.3355576 16.040409,14.3855576 C15.8459645,14.3355576 15.6792978,14.2855576 15.540409,14.2355576 Z" id="Shape" fill="#000000" fill-rule="nonzero"></path>
                        <path d="M21.7455696,22.2868156 C21.6955696,22.4534823 21.6955696,22.620149 21.6455696,22.7868156 C21.6955696,22.620149 21.7455696,22.4534823 21.7455696,22.2868156 Z" id="Shape" fill="#000000" fill-rule="nonzero"></path>
                        <path d="M21.7495131,22.986925 C21.6995131,23.161925 21.5995131,23.336925 21.4995131,23.486925 C21.5995131,23.336925 21.6495131,23.161925 21.7495131,22.986925 Z" id="Shape" fill="#000000" fill-rule="nonzero"></path>
                        <path d="M21.7539922,21.1892595 C21.7539922,21.0464023 21.7039922,20.9035452 21.7039922,20.7844976 C21.7539922,20.9511642 21.7539922,21.1178309 21.8039922,21.2844976 C21.7539922,21.2606881 21.7539922,21.2368785 21.7539922,21.1892595 Z" id="Shape" fill="#000000" fill-rule="nonzero"></path>
                        <path d="M15.8909445,14.3084857 C16.0471945,14.3584857 16.2346945,14.4084857 16.3909445,14.5084857 C16.2346945,14.4084857 16.0471945,14.3584857 15.8909445,14.3084857 Z" id="Shape" fill="#000000" fill-rule="nonzero"></path>
                        <path d="M21.7185979,21.1491379 C21.7185979,21.3241379 21.7185979,21.4741379 21.7685979,21.6491379 C21.7185979,21.4991379 21.7185979,21.3241379 21.7185979,21.1491379 Z" id="Shape" fill="#000000" fill-rule="nonzero"></path>
                        <path d="M21.4995131,19.6905767 C21.5495131,19.8723948 21.5995131,20.0087585 21.6495131,20.1905767 C21.5995131,20.054213 21.5495131,19.8723948 21.4995131,19.6905767 Z" id="Shape" fill="#000000" fill-rule="nonzero"></path>
                        <path d="M21.5725414,20.0260457 C21.7225414,20.2594155 21.8725414,20.4927853 21.9225414,20.7261551 C21.8725414,20.4927853 21.7725414,20.2594155 21.5725414,20.0260457 Z" id="Shape" fill="#000000" fill-rule="nonzero"></path>
                        <path d="M21.7539922,21.5283638 C21.7539922,21.6874547 21.7539922,21.8692729 21.7039922,22.0283638 C21.7539922,21.8465456 21.7539922,21.6874547 21.7539922,21.5283638 Z" id="Shape" fill="#000000" fill-rule="nonzero"></path>
                        <path d="M21.4118793,19.3842788 C21.4618793,19.4842788 21.4618793,19.5342788 21.4618793,19.6342788 C21.4618793,19.5342788 21.4618793,19.4342788 21.4118793,19.3842788 Z" id="Shape" fill="#000000" fill-rule="nonzero"></path>
                        <path d="M21.3096397,19.0779809 C21.3096397,19.0779809 21.3096397,19.1279809 21.3096397,19.1279809 C21.3596397,19.0779809 21.3596397,19.0779809 21.3096397,19.0779809 Z" id="Shape" fill="#000000" fill-rule="nonzero"></path>
                        <path d="M21.7893866,21.8638329 C21.7893866,22.0304996 21.7393866,22.1971662 21.6893866,22.3638329 C21.7393866,22.1971662 21.7393866,22.0304996 21.7893866,21.8638329 Z" id="Shape" fill="#000000" fill-rule="nonzero"></path>
                        <path d="M7.27361246,19.6947205 C7.27361246,19.6447205 7.32361246,19.5947205 7.32361246,19.5447205 C7.32361246,19.5947205 7.32361246,19.6447205 7.27361246,19.6947205 Z" id="Shape" fill="#000000" fill-rule="nonzero"></path>
                        <path d="M21.5764849,23.4244934 C21.5264849,23.5744934 21.4764849,23.7744934 21.4264849,23.9244934 C21.4764849,23.7744934 21.5264849,23.6244934 21.5764849,23.4244934 Z" id="Shape" fill="#000000" fill-rule="nonzero"></path>
                        <path d="M7.11295034,20.5094155 C7.11295034,20.4094155 7.16295034,20.3594155 7.16295034,20.2594155 C7.16295034,20.3594155 7.16295034,20.4094155 7.11295034,20.5094155 Z" id="Shape" fill="#000000" fill-rule="nonzero"></path>
                        <path d="M7.18597858,20.0947752 C7.18597858,20.0447752 7.23597858,19.9447752 7.23597858,19.8947752 C7.23597858,19.9947752 7.18597858,20.0447752 7.18597858,20.0947752 Z" id="Shape" fill="#000000" fill-rule="nonzero"></path>
                        <path d="M7.39045764,19.2946658 C7.39045764,19.2446658 7.39045764,19.2446658 7.44045764,19.1946658 C7.39045764,19.1946658 7.39045764,19.2446658 7.39045764,19.2946658 Z" id="Shape" fill="#000000" fill-rule="nonzero"></path>
                        <path d="M15.3393379,28.7919987 C15.1726712,28.7919987 15.0060045,28.8419987 14.8393379,28.8419987 C15.0060045,28.8419987 15.1726712,28.8419987 15.3393379,28.7919987 Z" id="Shape" fill="#000000" fill-rule="nonzero"></path>
                        <path d="M7.50730282,18.8591967 C7.55730282,18.8591967 7.55730282,18.8591967 7.50730282,18.8591967 C7.55730282,18.8591967 7.55730282,18.8591967 7.50730282,18.8591967 Z" id="Shape" fill="#000000" fill-rule="nonzero"></path>
                        <path d="M14.3719572,28.8565844 C14.5310481,28.8565844 14.7128662,28.8565844 14.8719572,28.8065844 C14.7128662,28.8565844 14.5537753,28.8565844 14.3719572,28.8565844 C14.3719572,28.8565844 14.3719572,28.8565844 14.3719572,28.8565844 Z" id="Shape" fill="#000000" fill-rule="nonzero"></path>
                        <path d="M7.0691334,20.8886415 C7.0691334,20.7886415 7.0691334,20.7386415 7.1191334,20.6386415 C7.0691334,20.7386415 7.0691334,20.7886415 7.0691334,20.8886415 Z" id="Shape" fill="#000000" fill-rule="nonzero"></path>
                        <path d="M14.0652386,14.148044 C14.24381,14.148044 14.3866671,14.148044 14.5652386,14.148044 C14.3866671,14.148044 14.24381,14.148044 14.0652386,14.148044 Z" id="Shape" fill="#000000" fill-rule="nonzero"></path>
                        <path d="M12.2395326,14.5043418 C12.2895326,14.5043418 12.3395326,14.4543418 12.3895326,14.4543418 C12.3395326,14.4543418 12.2895326,14.4543418 12.2395326,14.5043418 Z" id="Shape" fill="#000000" fill-rule="nonzero"></path>
                        <path d="M14.459591,14.148044 C14.6381625,14.148044 14.7810196,14.148044 14.959591,14.148044 C14.7810196,14.148044 14.6024482,14.148044 14.459591,14.148044 Z" id="Shape" fill="#000000" fill-rule="nonzero"></path>
                        <path d="M13.6854917,14.2126296 C13.8393379,14.2126296 14.0316456,14.1626296 14.1854917,14.1626296 C14.0316456,14.2126296 13.8777994,14.2126296 13.6854917,14.2126296 Z" id="Shape" fill="#000000" fill-rule="nonzero"></path>
                        <path d="M15.0580879,14.1626296 C14.9955879,14.1626296 14.9018379,14.1626296 14.8393379,14.1626296 C14.9955879,14.1626296 15.1518379,14.2126296 15.3393379,14.2126296 C15.2455879,14.2126296 15.1518379,14.2126296 15.0580879,14.1626296 Z" id="Shape" fill="#000000" fill-rule="nonzero"></path>
                        <path d="M12.5900682,14.4376569 C12.6900682,14.3876569 12.8400682,14.3876569 12.9400682,14.3376569 C12.8400682,14.3876569 12.7400682,14.3876569 12.5900682,14.4376569 Z" id="Shape" fill="#000000" fill-rule="nonzero"></path>
                        <path d="M12.9552093,14.3501433 C13.1052093,14.3001433 13.3052093,14.3001433 13.4552093,14.2501433 C13.2552093,14.3001433 13.1052093,14.3501433 12.9552093,14.3501433 Z" id="Shape" fill="#000000" fill-rule="nonzero"></path>
                        <path d="M13.3203505,14.2918008 C13.4870172,14.2418008 13.6536839,14.2418008 13.8203505,14.1918008 C13.6536839,14.2418008 13.4870172,14.2918008 13.3203505,14.2918008 Z" id="Shape" fill="#000000" fill-rule="nonzero"></path>
                        <path d="M7.0399221,21.1970386 C7.0399221,21.1470386 7.0399221,21.0970386 7.0399221,21.0470386 C7.0399221,21.0970386 7.0399221,21.1470386 7.0399221,21.1970386 Z" id="Shape" fill="#000000" fill-rule="nonzero"></path>
                        <path d="M21.4742454,23.7599625 C21.4242454,23.9099625 21.3742454,24.0099625 21.3242454,24.1099625 C21.3742454,24.0099625 21.4242454,23.8599625 21.4742454,23.7599625 Z" id="Shape" fill="#000000" fill-rule="nonzero"></path>
                        <path d="M21.0967381,24.5329999 C21.0967381,24.5329999 21.0967381,24.5829999 21.0467381,24.5829999 C21.0967381,24.5829999 21.0967381,24.5329999 21.0967381,24.5329999 Z" id="Shape" fill="#000000" fill-rule="nonzero"></path>
                        <path d="M69.1723466,13.3750065 C69.0847128,12.9228525 68.7195716,12.5873834 68.2814021,12.4998698 C68.2667965,12.4998698 66.4264849,12.1789863 64.6153846,11.551805 C63.5199611,11.172579 62.7896787,10.8079387 62.322298,10.4870553 C61.8695229,10.1807574 61.6796495,9.62650414 61.8257059,9.1014221 C61.9571568,8.64926811 62.0155794,8.16794291 62.030185,7.67203209 C62.0740019,5.76131687 61.1246349,3.96728656 59.5764362,2.84419441 C54.2891918,-1.0647497 47.0447907,-0.933479189 41.9036027,3.1942491 C38.412853,6.02385789 37.3174294,10.83711 39.2891918,14.8919102 L39.3768257,15.0815232 L35.1996105,19.7051623 C33.3008763,21.8054904 32.0009737,24.3288014 31.3583252,27.0417253 L19.6738072,28.8795124 C19.104187,28.9670261 18.5491723,29.1274678 18.023369,29.346252 L17.570594,28.106475 C16.9133398,28.4273584 16.1830574,28.6461426 15.4381694,28.7628275 L16.1100292,30.513101 C14.255112,32.0591759 13.2473223,34.4074595 13.466407,36.8432568 C14.0944499,43.8589363 13.9483934,45.6237954 13.8607595,46.0613638 C13.6562804,47.0969422 11.6260954,49.1680992 8.88023369,51.2100849 C9.74196689,51.3851123 10.5452775,51.6914101 11.2755599,52.1289785 C11.8013632,51.7059957 12.4001947,51.2100849 12.9844206,50.6704173 C14.7955209,49.0076574 15.788705,47.6366099 16.0223953,46.4843465 C16.1100292,46.0467781 16.3729309,44.7194874 15.6572541,36.6390582 C15.4819864,34.7137574 16.4021422,32.8613846 18.0379747,31.8112205 C18.6514119,31.417409 19.3232717,31.1694536 20.0389484,31.0527687 L31.0077897,29.3316664 C30.9639727,29.8421628 30.9347614,30.3526593 30.9347614,30.8631557 C30.9347614,34.0282336 31.8403116,37.0328697 33.4323272,39.5999375 C32.7896787,39.4832526 32.0740019,39.3665677 31.3437196,39.279054 C29.9123661,39.1040267 28.714703,39.0602698 27.7361246,39.1477835 L28.9337877,36.6390582 C29.1966894,36.0993905 28.962999,35.443038 28.4225901,35.180497 C27.8821811,34.9179559 27.224927,35.1513257 26.9620253,35.6909934 L20.7400195,48.7305308 C20.2142162,49.8390373 19.2940604,50.6995885 18.1548199,51.1809137 L12.8383642,53.3687555 C13.3495618,53.9084232 13.7731256,54.5356045 14.1090555,55.2065427 L19.0019474,53.1937282 C20.6377799,52.52279 21.9668939,51.2684274 22.7263875,49.66401 L26.4946446,41.7731937 C26.4946446,41.7586081 27.0204479,40.9418138 31.0808179,41.423139 C32.9795521,41.6565088 34.8198637,42.0794916 35.5063291,42.2399333 C37.5365141,44.3986039 40.150925,46.0321925 43.1450828,46.8635724 L45.4235638,47.5053394 C46.7964946,47.8845653 48.2132425,48.0741783 49.6153846,48.0741783 C49.6592016,48.0741783 49.7030185,48.0741783 49.7468354,48.0741783 L49.8928919,52.4644476 C50.5355404,51.9831224 51.2658228,51.6184821 52.0545278,51.3705266 L51.9376826,47.8991509 C52.916261,47.7532948 53.865628,47.519925 54.8003895,47.1844559 L54.5374878,51.0496432 C55.2969815,51.0788144 56.0272639,51.2246705 56.6991237,51.4726259 L57.0496592,46.1926343 C62.4245375,43.2900974 65.593963,37.5579518 65.1703992,31.417409 L65.1703992,31.3153097 C64.8636806,26.939626 63.4177215,22.8118977 60.9493671,19.2384227 L62.7896787,19.2384227 C65.30185,19.2384227 67.5657254,17.7361046 68.5296981,15.4315779 L69.1139241,14.0313591 C69.1869523,13.8271605 69.2161636,13.5937907 69.1723466,13.3750065 Z M62.9649464,31.4757514 L62.9649464,31.5778507 C63.3446933,37.0328697 60.4089581,42.1086628 55.5014606,44.5298745 C52.5365141,45.9738501 49.1626095,46.2947336 45.993184,45.4050112 L43.714703,44.7632443 C37.4780915,43.0275564 33.1256086,37.3099964 33.1256086,30.8339845 C33.1256086,27.2605095 34.4401168,23.8183049 36.835443,21.1637235 L41.4946446,15.9858311 C41.7867575,15.650362 41.8597858,15.1836224 41.6699124,14.7752253 L41.2609542,13.9292598 C39.7419669,10.7933531 40.5890944,7.07402198 43.3057449,4.88618013 C47.7166504,1.34187633 53.9532619,1.26894827 58.4518014,4.69656717 C59.3573515,5.38209095 59.8685492,6.43225504 59.8685492,7.55534719 C59.8685492,8.69302495 59.3427459,9.72860343 58.4371957,10.4141272 L55.8519961,12.3685993 C55.1363194,11.814346 54.2599805,11.4934625 53.3252191,11.4934625 C52.0107108,11.4934625 50.7984421,12.1060582 50.0097371,13.1562223 C48.1110029,15.6941189 45.8471276,19.5009637 45.8471276,23.176538 C45.8471276,29.7108923 49.1333982,34.8450279 53.3106134,34.8450279 C57.473223,34.8450279 60.744888,29.7838204 60.7740993,23.2932229 C62.0155794,25.8457051 62.7604674,28.6023858 62.9649464,31.4757514 Z M58.5832522,23.1911236 C58.5832522,28.3252592 56.1587147,32.6717716 53.3106134,32.6717716 C50.4479065,32.6717716 48.0379747,28.3252592 48.0379747,23.1911236 C48.0379747,20.1135594 50.0681597,16.744283 51.7624148,14.4689274 C52.127556,13.9730166 52.6971762,13.6813044 53.3106134,13.6813044 C53.9240506,13.6813044 54.4936709,13.9730166 54.8588121,14.4689274 C56.5676728,16.7588686 58.5832522,20.1135594 58.5832522,23.1911236 Z M66.4849075,14.5856123 C65.8568647,16.0879304 64.3962999,17.0505808 62.7604674,17.0505808 L59.0652386,17.0505808 C58.510224,15.9712455 57.8821811,14.9502526 57.2541383,14.0459447 L59.751704,12.1644007 C59.9561831,12.003959 60.1460565,11.8435172 60.3213242,11.6684899 C61.0662123,12.3977705 62.2638754,13.054123 63.9289192,13.6229619 C64.8928919,13.958431 65.842259,14.2063864 66.5725414,14.3814138 L66.4849075,14.5856123 Z" id="Shape" stroke="#303133" stroke-width="0.5" fill="#303133" fill-rule="nonzero"></path>
                        <path d="M61.5628043,58.7654321 C61.5628043,58.6487472 61.6128043,58.5174767 61.6128043,58.3862062 C61.6128043,58.2695213 61.6128043,58.1528364 61.5628043,58.0361515 C61.5628043,58.1528364 61.6128043,58.2695213 61.6128043,58.3862062 C61.5628043,58.5174767 61.5628043,58.6341616 61.5628043,58.7654321 Z" id="Shape" fill="#000000" fill-rule="nonzero"></path>
                        <path d="M53.5004869,65.693598 C53.6671535,65.743598 53.8338202,65.743598 54.0004869,65.793598 C53.8338202,65.743598 53.6671535,65.743598 53.5004869,65.693598 Z" id="Shape" fill="#000000" fill-rule="nonzero"></path>
                        <path d="M46.9195229,57.9632234 C46.8695229,58.1245137 46.8695229,58.269675 46.8695229,58.4309654 C46.8695229,58.4470944 46.8695229,58.4470944 46.8695229,58.4632234 C46.8695229,58.4470944 46.8695229,58.4470944 46.8695229,58.4309654 C46.8695229,58.269675 46.8695229,58.1245137 46.9195229,57.9632234 Z" id="Shape" fill="#000000" fill-rule="nonzero"></path>
                        <path d="M49.8636806,52.4790332 C48.5053554,53.4708548 47.4975657,54.9294161 47.0886076,56.6213471 C47.4975657,54.9440017 48.5053554,53.4854404 49.8636806,52.4790332 Z" id="Shape" fill="#000000" fill-rule="nonzero"></path>
                        <path d="M61.1830574,56.0525082 C60.4673807,53.9230088 58.8023369,52.2310778 56.684518,51.4726259 C58.8023369,52.2310778 60.4673807,53.9230088 61.1830574,56.0525082 Z" id="Shape" fill="#000000" fill-rule="nonzero"></path>
                        <path d="M59.5472249,63.4474137 C60.4089581,62.5431057 61.0516066,61.4200135 61.3583252,60.1656509 C61.037001,61.4200135 60.4089581,62.5431057 59.5472249,63.4474137 C59.5326193,63.4474137 59.5472249,63.4474137 59.5472249,63.4474137 Z" id="Shape" fill="#000000" fill-rule="nonzero"></path>
                        <path d="M57.5316456,64.9351461 C57.0350536,65.1831015 56.5092502,65.3873001 55.9542356,65.5185706 C56.5092502,65.3873001 57.0350536,65.1976871 57.5316456,64.9351461 C57.5316456,64.9351461 57.5316456,64.9351461 57.5316456,64.9351461 Z" id="Shape" fill="#000000" fill-rule="nonzero"></path>
                        <path d="M47.3661149,61.0553732 C48.0817916,62.8785748 49.4985394,64.3517216 51.2950341,65.1247591 C49.5131451,64.3517216 48.0817916,62.8785748 47.3661149,61.0553732 Z" id="Shape" fill="#000000" fill-rule="nonzero"></path>
                        <path d="M54.2161636,51.0496432 C54.2161636,51.0496432 54.2661636,51.0496432 54.2161636,51.0496432 C54.2661636,51.0496432 54.2161636,51.0496432 54.2161636,51.0496432 C54.2161636,51.0496432 54.2161636,51.0496432 54.2161636,51.0496432 Z" id="Shape" fill="#000000" fill-rule="nonzero"></path>
                        <path d="M52.5107108,51.3267698 C52.3440441,51.3767698 52.1773775,51.4767698 52.0107108,51.5267698 C52.1773775,51.4767698 52.3440441,51.3767698 52.5107108,51.3267698 Z" id="Shape" fill="#000000" fill-rule="nonzero"></path>
                        <path d="M54.5228822,51.0642288 C54.4206426,51.0642288 54.3330088,51.0642288 54.2307692,51.0642288 C54.2307692,51.0642288 54.2307692,51.0642288 54.2161636,51.0642288 C54.0993184,51.0642288 53.9824732,51.0642288 53.8802337,51.0788144 C53.8510224,51.0788144 53.8072055,51.0788144 53.7779942,51.0788144 C53.7049659,51.0788144 53.617332,51.0934 53.5443038,51.0934 C53.5004869,51.0934 53.4566699,51.1079856 53.4274586,51.1079856 C53.3544304,51.1225712 53.2667965,51.1225712 53.1937683,51.1371568 C53.1353457,51.1517425 53.0769231,51.1517425 53.0038948,51.1663281 C52.9308666,51.1809137 52.872444,51.1954993 52.7994158,51.2100849 C52.7409932,51.2246705 52.6825706,51.2392561 52.624148,51.2538417 C52.5803311,51.2684274 52.5365141,51.2684274 52.5073028,51.283013 C52.4342746,51.2975986 52.375852,51.3121842 52.3028238,51.3267698 C52.2736125,51.3267698 52.2590068,51.3413554 52.2297955,51.3413554 C52.1567673,51.355941 52.083739,51.3851123 52.0253165,51.3996979 C51.2366115,51.6476533 50.5209348,52.0122936 49.8636806,52.4936188 C48.5053554,53.500026 47.4975657,54.9440017 47.0886076,56.6359327 C47.0886076,56.6505183 47.0886076,56.6651039 47.0740019,56.6796895 C47.0447907,56.7963744 47.0155794,56.9130593 47.0009737,57.0297442 C47.0009737,57.0589155 46.9863681,57.1026723 46.9863681,57.1318435 C46.9717624,57.2339428 46.9571568,57.3360421 46.9425511,57.4381414 C46.9425511,57.4818982 46.9279455,57.5256551 46.9279455,57.5548263 C46.9133398,57.6569256 46.9133398,57.7590248 46.8987342,57.8611241 C46.8987342,57.904881 46.8987342,57.9340522 46.8841285,57.977809 C46.8695229,58.1236652 46.8695229,58.2549357 46.8695229,58.4007918 C46.8695229,58.4153774 46.8695229,58.4153774 46.8695229,58.429963 C46.8695229,58.5320623 46.8695229,58.6341616 46.8841285,58.7362609 C46.8841285,58.7800177 46.8841285,58.8091889 46.8841285,58.8529458 C46.8841285,58.9258738 46.8987342,58.9988019 46.8987342,59.07173 C46.8987342,59.1154868 46.9133398,59.1592436 46.9133398,59.2030005 C46.9279455,59.2905141 46.9279455,59.3780278 46.9425511,59.4655415 C46.9571568,59.5238839 46.9571568,59.5822264 46.9717624,59.6405688 C46.9863681,59.6989113 46.9863681,59.7718393 47.0009737,59.8301818 C47.0155794,59.8885242 47.030185,59.9468667 47.030185,60.0052091 C47.0447907,60.048966 47.0447907,60.0927228 47.0593963,60.1364797 C47.0740019,60.1948221 47.0886076,60.2677502 47.1032132,60.3260926 C47.1032132,60.3406782 47.1178189,60.3552638 47.1178189,60.3698495 C47.1616358,60.5302912 47.2054528,60.6907329 47.2638754,60.8365891 C47.2638754,60.8365891 47.2638754,60.8365891 47.2638754,60.8511747 C47.2930867,60.9386883 47.322298,61.0116164 47.3515093,61.0991301 C47.3515093,61.0991301 47.3515093,61.0991301 47.3515093,61.0991301 C48.067186,62.9223316 49.4839338,64.3808928 51.2804284,65.1685159 C51.9668939,65.4602282 52.7117819,65.6644267 53.4858812,65.7373548 C53.6027264,65.7519404 53.7195716,65.7519404 53.8364167,65.766526 C53.9532619,65.766526 54.0701071,65.7811116 54.2015579,65.7811116 C54.3476144,65.7811116 54.4790652,65.7811116 54.6251217,65.766526 C54.6689387,65.766526 54.69815,65.766526 54.7419669,65.7519404 C54.8442064,65.7373548 54.946446,65.7373548 55.0486855,65.7227692 C55.0925024,65.7227692 55.1217137,65.7081836 55.1655307,65.7081836 C55.2677702,65.693598 55.3846154,65.6790123 55.4868549,65.6644267 C55.5160662,65.6644267 55.5452775,65.6498411 55.5598832,65.6498411 C55.691334,65.6206699 55.8081792,65.6060843 55.93963,65.5623274 C55.93963,65.5623274 55.93963,65.5623274 55.9542356,65.5623274 C56.5092502,65.4310569 57.0350536,65.2268584 57.5316456,64.978903 C57.5316456,64.978903 57.5316456,64.978903 57.5316456,64.978903 C58.2765336,64.599677 58.962999,64.0891806 59.5326193,63.4911705 C59.5326193,63.4911705 59.5326193,63.4911705 59.5326193,63.4911705 C60.3943525,62.5868625 61.037001,61.4637704 61.3437196,60.2094077 C61.3437196,60.2094077 61.3437196,60.2094077 61.3437196,60.2094077 C61.3729309,60.0927228 61.4021422,59.9906235 61.4167478,59.8739386 C61.4167478,59.859353 61.4313535,59.8301818 61.4313535,59.8155962 C61.4459591,59.7280825 61.4605648,59.6259832 61.4751704,59.5384696 C61.4751704,59.4947127 61.489776,59.4509559 61.489776,59.407199 C61.5043817,59.334271 61.5043817,59.2613429 61.5189873,59.1884149 C61.533593,59.1009012 61.533593,59.0279731 61.533593,58.9404594 C61.533593,58.8967026 61.533593,58.8675314 61.5481986,58.8237745 C61.5481986,58.7070896 61.5628043,58.5758191 61.5628043,58.4445486 C61.5628043,58.3278637 61.5628043,58.2111788 61.5481986,58.0944939 C61.5481986,58.0653227 61.5481986,58.0361515 61.5481986,57.9923946 C61.5481986,57.904881 61.533593,57.8319529 61.533593,57.7444392 C61.533593,57.7006824 61.533593,57.6715112 61.5189873,57.6277543 C61.5043817,57.5548263 61.5043817,57.4673126 61.489776,57.3943845 C61.489776,57.3652133 61.4751704,57.3214565 61.4751704,57.2922853 C61.4605648,57.190186 61.4459591,57.0880867 61.4167478,56.9859874 C61.4021422,56.9422306 61.4021422,56.8984737 61.3875365,56.8547169 C61.3729309,56.7963744 61.3583252,56.738032 61.3437196,56.6796895 C61.3291139,56.6213471 61.3145083,56.5630046 61.2999026,56.5046622 C61.285297,56.4609053 61.2706913,56.4171485 61.2706913,56.3733917 C61.2560857,56.3150492 61.2268744,56.2421212 61.2122687,56.1837787 C61.1976631,56.1546075 61.1976631,56.1400219 61.1830574,56.1108507 C60.4673807,53.9813513 58.8023369,52.2894202 56.684518,51.5309684 C55.9980526,51.2392561 55.2677702,51.0934 54.5228822,51.0642288 Z M59.3719572,58.3862062 C59.3719572,61.2304006 57.0642648,63.5349273 54.2161636,63.5349273 C51.3680623,63.5349273 49.06037,61.2304006 49.06037,58.3862062 C49.06037,55.5420118 51.3680623,53.237485 54.2161636,53.237485 C57.0642648,53.237485 59.3719572,55.5420118 59.3719572,58.3862062 Z" id="Shape" stroke="#E0119D" stroke-width="0.25" fill="#E0119D" fill-rule="nonzero"></path>
                        <path d="M54.7307692,51.0907896 C54.5557692,51.0907896 54.4057692,51.0907896 54.2307692,51.0907896 C54.3807692,51.0407896 54.5557692,51.0407896 54.7307692,51.0907896 Z" id="Shape" fill="#000000" fill-rule="nonzero"></path>
                        <path d="M12.8967868,63.3307288 C13.4079844,62.7618899 13.8315482,62.1201229 14.1528724,61.4054279 C13.8461538,62.1055373 13.4079844,62.7618899 12.8967868,63.3307288 C12.8967868,63.3307288 12.8967868,63.3307288 12.8967868,63.3307288 Z" id="Shape" fill="#000000" fill-rule="nonzero"></path>
                        <path d="M0.321324245,60.1364797 C0.730282376,61.7992395 1.70886076,63.2432151 3.03797468,64.2496223 C1.70886076,63.2432151 0.730282376,61.7992395 0.321324245,60.1364797 Z" id="Shape" fill="#000000" fill-rule="nonzero"></path>
                        <path d="M7.46348588,51.0496432 C7.46348588,51.0496432 7.46348588,51.0496432 7.46348588,51.0496432 C3.40311587,51.0496432 0.11684518,54.3314059 0.11684518,58.3862062 C0.11684518,58.5320623 0.11684518,58.6633328 0.131450828,58.8091889 C0.11684518,58.6633328 0.11684518,58.5320623 0.11684518,58.3862062 C0.11684518,54.3459916 3.40311587,51.0496432 7.46348588,51.0496432 Z" id="Shape" fill="#000000" fill-rule="nonzero"></path>
                        <path d="M14.5798442,55.9504089 C14.4369871,55.7024535 14.2703204,55.4544981 14.0798442,55.2211283 C14.2703204,55.4544981 14.4369871,55.7024535 14.5798442,55.9504089 Z" id="Shape" fill="#000000" fill-rule="nonzero"></path>
                        <path d="M8.88023369,51.4996432 C8.5443038,51.2496432 8.17916261,51.0996432 7.82862707,51.0496432 C8.17916261,51.1496432 8.52969815,51.2996432 8.88023369,51.4996432 C8.88023369,51.4996432 8.88023369,51.4996432 8.88023369,51.4996432 Z" id="Shape" fill="#000000" fill-rule="nonzero"></path>
                        <path d="M10.8812074,64.8768037 C10.2531646,65.2122728 9.56669912,65.4602282 8.83641675,65.5914987 C9.56669912,65.4602282 10.2531646,65.2122728 10.8812074,64.8768037 C10.8812074,64.8913893 10.8812074,64.8768037 10.8812074,64.8768037 Z" id="Shape" fill="#000000" fill-rule="nonzero"></path>
                        <path d="M7.93427459,65.7227692 C7.77298426,65.7727692 7.61169394,65.7727692 7.46653265,65.7727692 C7.45040362,65.7727692 7.45040362,65.7727692 7.43427459,65.7727692 C7.45040362,65.7727692 7.45040362,65.7727692 7.46653265,65.7727692 C7.62782297,65.7227692 7.77298426,65.7227692 7.93427459,65.7227692 Z" id="Shape" fill="#000000" fill-rule="nonzero"></path>
                        <path d="M5.24342746,65.3873001 C5.41009413,65.4873001 5.57676079,65.5873001 5.74342746,65.6373001 C5.57676079,65.5873001 5.41009413,65.4873001 5.24342746,65.3873001 Z" id="Shape" fill="#000000" fill-rule="nonzero"></path>
                        <path d="M12.8237585,53.3687555 C12.3709834,52.8728447 11.8451801,52.449862 11.2755599,52.0998073 C11.2755599,52.0998073 11.2755599,52.0998073 11.2755599,52.0998073 C11.8451801,52.4644476 12.3563778,52.8874303 12.8237585,53.3687555 Z" id="Shape" fill="#000000" fill-rule="nonzero"></path>
                        <path d="M12.8237585,53.3687555 C12.3709834,52.8874303 11.8451801,52.449862 11.2755599,52.0998073 C11.2755599,52.0998073 11.2755599,52.0998073 11.2755599,52.0998073 C10.5452775,51.6622389 9.74196689,51.3413554 8.88023369,51.1809137 C8.88023369,51.1809137 8.88023369,51.1809137 8.88023369,51.1809137 C8.5443038,51.1079856 8.17916261,51.0642288 7.82862707,51.0496432 C7.71178189,51.0496432 7.58033106,51.0350576 7.46348588,51.0350576 C3.41772152,51.0350576 0.11684518,54.3314059 0.11684518,58.3716206 C0.11684518,58.5174767 0.11684518,58.6487472 0.131450828,58.7946033 C0.131450828,58.8237745 0.131450828,58.8529458 0.131450828,58.882117 C0.146056475,58.9988019 0.146056475,59.1009012 0.160662123,59.2175861 C0.160662123,59.2467573 0.17526777,59.2905141 0.17526777,59.3196854 C0.189873418,59.4217847 0.204479065,59.5384696 0.219084713,59.6405688 C0.219084713,59.6697401 0.23369036,59.6989113 0.23369036,59.7280825 C0.262901655,59.8447674 0.277507303,59.9614523 0.306718598,60.0781372 C0.306718598,60.0927228 0.306718598,60.1073084 0.321324245,60.121894 C0.730282376,61.7846539 1.70886076,63.2286295 3.03797468,64.2350367 C3.69522882,64.7309475 4.44011685,65.1247591 5.25803311,65.3727145 C5.34566699,65.4018857 5.43330088,65.4310569 5.52093476,65.4456425 C5.52093476,65.4456425 5.52093476,65.4456425 5.53554041,65.4456425 C5.60856865,65.4602282 5.69620253,65.4893994 5.76923077,65.503985 C5.79844206,65.503985 5.81304771,65.5185706 5.84225901,65.5185706 C5.91528724,65.5331562 5.98831548,65.5477418 6.06134372,65.5623274 C6.09055501,65.5623274 6.11976631,65.5769131 6.1489776,65.5769131 C6.26582278,65.5914987 6.36806232,65.6206699 6.4849075,65.6352555 C6.54333009,65.6498411 6.60175268,65.6498411 6.66017527,65.6644267 C6.70399221,65.6644267 6.7624148,65.6790123 6.80623174,65.6790123 C6.87925998,65.6790123 6.93768257,65.693598 7.01071081,65.693598 C7.05452775,65.693598 7.09834469,65.693598 7.14216164,65.7081836 C7.24440117,65.7081836 7.3466407,65.7227692 7.44888023,65.7227692 C7.46348588,65.7227692 7.46348588,65.7227692 7.47809153,65.7227692 C7.624148,65.7227692 7.77020448,65.7227692 7.90165531,65.7081836 C7.9308666,65.7081836 7.97468354,65.7081836 8.00389484,65.693598 C8.10613437,65.6790123 8.22297955,65.6790123 8.32521908,65.6644267 C8.35443038,65.6644267 8.39824732,65.6498411 8.42745862,65.6498411 C8.5443038,65.6352555 8.66114898,65.6206699 8.76338851,65.5914987 C8.79259981,65.5914987 8.80720545,65.5769131 8.83641675,65.5769131 C9.56669912,65.4456425 10.2385589,65.1976871 10.8812074,64.8622181 C10.8812074,64.8622181 10.8812074,64.8622181 10.8812074,64.8622181 C11.6407011,64.4684065 12.3271665,63.9287389 12.8967868,63.3015575 C12.8967868,63.3015575 12.8967868,63.3015575 12.8967868,63.3015575 C13.4079844,62.7327187 13.8461538,62.0909517 14.1674781,61.3762567 C14.1674781,61.3616711 14.1820837,61.3616711 14.1820837,61.3470855 C14.2259007,61.2595718 14.255112,61.1720581 14.2989289,61.0845445 C14.3135346,61.0699588 14.3135346,61.0407876 14.3281402,61.026202 C14.3573515,60.9386883 14.3865628,60.8657603 14.4157741,60.7782466 C14.4303797,60.7490754 14.4303797,60.7199042 14.4449854,60.6907329 C14.4741967,60.6178049 14.4888023,60.5448768 14.5180136,60.4573631 C14.5326193,60.4136063 14.5472249,60.3844351 14.5472249,60.3406782 C14.5618306,60.2677502 14.5910419,60.2094077 14.6056475,60.1364797 C14.6202532,60.0927228 14.6348588,60.0343804 14.6348588,59.9906235 C14.6494645,59.9322811 14.6640701,59.859353 14.6786758,59.8010106 C14.6932814,59.7426681 14.707887,59.6843257 14.707887,59.6113976 C14.7224927,59.5530552 14.7224927,59.5092983 14.7370983,59.4509559 C14.751704,59.3780278 14.751704,59.3050998 14.7663096,59.2175861 C14.7663096,59.1738292 14.7809153,59.1300724 14.7809153,59.0863156 C14.7955209,58.9842163 14.7955209,58.882117 14.8101266,58.7800177 C14.8101266,58.7654321 14.8101266,58.7508465 14.8101266,58.7216753 C14.8101266,58.6049904 14.8247322,58.4737199 14.8247322,58.3424493 C14.8247322,58.2986925 14.8247322,58.2695213 14.8247322,58.2257644 C14.8247322,58.1236652 14.8247322,58.0361515 14.8101266,57.9486378 C14.8101266,57.8902954 14.7955209,57.8465385 14.7955209,57.7881961 C14.7955209,57.715268 14.7809153,57.6277543 14.7809153,57.5548263 C14.7809153,57.4964838 14.7663096,57.452727 14.7663096,57.3943845 C14.751704,57.3068709 14.751704,57.2339428 14.7370983,57.1464291 C14.7224927,57.1026723 14.7224927,57.0589155 14.707887,57.000573 C14.6932814,56.9130593 14.6786758,56.8255457 14.6494645,56.738032 C14.6348588,56.6942751 14.6348588,56.6651039 14.6202532,56.6213471 C14.5910419,56.5338334 14.5764362,56.4317341 14.5472249,56.3442205 C14.5326193,56.3150492 14.5326193,56.285878 14.5180136,56.2567068 C14.4888023,56.1546075 14.4449854,56.0379226 14.4157741,55.9358233 C14.4157741,55.9212377 14.4011685,55.9066521 14.4011685,55.8920665 C14.3135346,55.6441111 14.211295,55.3961556 14.0944499,55.1627859 C13.75852,54.5356045 13.3349562,53.9230088 12.8237585,53.3687555 Z M7.46348588,63.5349273 C4.61538462,63.5349273 2.30769231,61.2304006 2.30769231,58.3862062 C2.30769231,55.5420118 4.61538462,53.237485 7.46348588,53.237485 C10.3115871,53.237485 12.6192795,55.5420118 12.6192795,58.3862062 C12.6192795,61.2304006 10.3115871,63.5349273 7.46348588,63.5349273 Z" id="Shape" stroke="#E0119D" stroke-width="0.25" fill="#E0119D" fill-rule="nonzero"></path>
                        <path d="M7.0691334,20.8323436 C7.1191334,20.6656769 7.1691334,20.4990103 7.2191334,20.3323436 C7.1691334,20.4990103 7.1191334,20.6656769 7.0691334,20.8323436 Z" id="Shape" fill="#000000" fill-rule="nonzero"></path>
                        <path d="M13.1012658,14.3355576 C13.2679325,14.2855576 13.4345992,14.2355576 13.6012658,14.2355576 C13.4345992,14.2355576 13.2679325,14.2855576 13.1012658,14.3355576 Z" id="Shape" fill="#000000" fill-rule="nonzero"></path>
                        <path d="M7.0399221,21.2115695 C7.0399221,21.0376565 7.0899221,20.8637434 7.1399221,20.7115695 C7.0899221,20.8854826 7.0399221,21.0593956 7.0399221,21.2115695 Z" id="Shape" fill="#000000" fill-rule="nonzero"></path>
                        <path d="M13.4956183,14.2418008 C13.6384754,14.1918008 13.8170469,14.1918008 13.9956183,14.1918008 C13.8170469,14.1918008 13.6384754,14.1918008 13.4956183,14.2418008 Z" id="Shape" fill="#000000" fill-rule="nonzero"></path>
                        <path d="M7.28821811,19.7238371 C7.38821811,19.5647461 7.48821811,19.382928 7.63821811,19.2238371 C7.48821811,19.382928 7.38821811,19.5420189 7.28821811,19.7238371 Z" id="Shape" fill="#000000" fill-rule="nonzero"></path>
                        <path d="M7.39045764,19.3591967 C7.54045764,19.1852837 7.64045764,19.0331098 7.79045764,18.8591967 C7.69045764,19.0331098 7.54045764,19.1852837 7.39045764,19.3591967 Z" id="Shape" fill="#000000" fill-rule="nonzero"></path>
                        <path d="M12.2833496,14.6668282 C12.4500162,14.5668282 12.6166829,14.4668282 12.7833496,14.3668282 C12.6166829,14.4668282 12.4500162,14.5668282 12.2833496,14.6668282 Z" id="Shape" fill="#000000" fill-rule="nonzero"></path>
                        <path d="M15.1432814,28.8065844 C14.9932814,28.8065844 14.8432814,28.8065844 14.6932814,28.8065844 C14.8932814,28.8565844 15.0432814,28.8065844 15.1432814,28.8065844 Z" id="Shape" fill="#000000" fill-rule="nonzero"></path>
                        <path d="M12.6923077,14.4793145 C12.8687783,14.4293145 13.0452489,14.3293145 13.1923077,14.2793145 C13.0452489,14.3793145 12.8687783,14.4293145 12.6923077,14.4793145 Z" id="Shape" fill="#000000" fill-rule="nonzero"></path>
                        <path d="M13.8753651,14.198044 C14.0292113,14.198044 14.1830574,14.148044 14.3753651,14.148044 C14.221519,14.198044 14.0676728,14.198044 13.8753651,14.198044 Z" id="Shape" fill="#000000" fill-rule="nonzero"></path>
                        <path d="M7.12755599,20.4531177 C7.17755599,20.286451 7.22755599,20.1197843 7.32755599,19.9531177 C7.27755599,20.1197843 7.17755599,20.286451 7.12755599,20.4531177 Z" id="Shape" fill="#000000" fill-rule="nonzero"></path>
                        <path d="M7.20058423,20.0738918 C7.30058423,19.9148008 7.35058423,19.7557099 7.45058423,19.5738918 C7.35058423,19.7557099 7.30058423,19.9148008 7.20058423,20.0738918 Z" id="Shape" fill="#000000" fill-rule="nonzero"></path>
                        <path d="M16.4313535,14.4397562 C16.5813535,14.4897562 16.7813535,14.5397562 16.9313535,14.5897562 C16.7813535,14.5397562 16.6313535,14.4897562 16.4313535,14.4397562 Z" id="Shape" fill="#000000" fill-rule="nonzero"></path>
                        <path d="M21.7185979,21.0907954 C21.7185979,21.1407954 21.7185979,21.2407954 21.7185979,21.2907954 C21.7185979,21.2407954 21.7185979,21.1407954 21.7185979,21.0907954 Z" id="Shape" fill="#000000" fill-rule="nonzero"></path>
                        <path d="M21.3096397,19.0779809 C20.5647517,16.9193103 18.8266796,15.2273793 16.6504382,14.5126843 C18.8266796,15.2273793 20.5647517,16.9193103 21.3096397,19.0779809 Z" id="Shape" fill="#000000" fill-rule="nonzero"></path>
                        <path d="M17.570594,28.0918894 C19.104187,27.3480231 20.345667,26.0936605 21.0467381,24.5475856 C20.345667,26.0936605 19.104187,27.3480231 17.570594,28.0918894 Z" id="Shape" fill="#000000" fill-rule="nonzero"></path>
                        <path d="M21.7185979,21.5908501 C21.7185979,21.5408501 21.7185979,21.4908501 21.7185979,21.4408501 C21.7185979,21.5408501 21.7185979,21.6408501 21.7185979,21.6908501 C21.7185979,21.6908501 21.7185979,21.6408501 21.7185979,21.5908501 Z" id="Shape" fill="#000000" fill-rule="nonzero"></path>
                        <path d="M12.2395326,14.4689274 C10.0778968,15.12528 8.32521908,16.7588686 7.52190847,18.8446111 C8.32521908,16.7588686 10.0778968,15.12528 12.2395326,14.4689274 Z" id="Shape" fill="#000000" fill-rule="nonzero"></path>
                        <path d="M21.6893866,20.7261551 C21.6893866,20.7761551 21.6893866,20.8761551 21.6893866,20.9261551 C21.6893866,20.8761551 21.6893866,20.7761551 21.6893866,20.7261551 Z" id="Shape" fill="#000000" fill-rule="nonzero"></path>
                        <path d="M7.02531646,21.484607 C7.02531646,21.3533365 7.02531646,21.2220659 7.0399221,21.0907954 C7.02531646,21.2220659 7.02531646,21.3533365 7.02531646,21.484607 C7.02531646,25.5394072 10.3115871,28.82117 14.3719572,28.82117 C14.3719572,28.82117 14.3719572,28.82117 14.3719572,28.82117 C10.3261928,28.82117 7.02531646,25.5394072 7.02531646,21.484607 Z" id="Shape" fill="#000000" fill-rule="nonzero"></path>
                        <path d="M21.6225414,22.8848258 C21.6225414,22.9848258 21.5725414,23.0848258 21.5725414,23.2348258 C21.5725414,23.1348258 21.6225414,23.0348258 21.6225414,22.8848258 Z" id="Shape" fill="#000000" fill-rule="nonzero"></path>
                        <path d="M14.5389484,14.148044 C14.4620253,14.148044 14.3466407,14.148044 14.2697176,14.148044 C14.4235638,14.148044 14.5774099,14.148044 14.7697176,14.148044 C14.6927945,14.148044 14.6158715,14.148044 14.5389484,14.148044 Z" id="Shape" fill="#000000" fill-rule="nonzero"></path>
                        <path d="M21.7185979,21.8492473 C21.7185979,21.8992473 21.7185979,21.8992473 21.7185979,21.9492473 C21.7185979,21.8992473 21.7185979,21.8492473 21.7185979,21.8492473 Z" id="Shape" fill="#000000" fill-rule="nonzero"></path>
                        <path d="M21.680964,22.5493567 C21.680964,22.6493567 21.630964,22.7993567 21.630964,22.8993567 C21.630964,22.7993567 21.680964,22.6493567 21.680964,22.5493567 Z" id="Shape" fill="#000000" fill-rule="nonzero"></path>
                        <path d="M21.7247809,22.2138876 C21.7247809,22.3138876 21.7247809,22.3638876 21.6747809,22.4638876 C21.7247809,22.4138876 21.7247809,22.3138876 21.7247809,22.2138876 Z" id="Shape" fill="#000000" fill-rule="nonzero"></path>
                        <path d="M21.5613437,23.8620618 C21.4224548,24.0954316 21.2557882,24.3142158 21.0613437,24.5329999 C21.2557882,24.3142158 21.4224548,24.0954316 21.5613437,23.8620618 Z" id="Shape" fill="#000000" fill-rule="nonzero"></path>
                        <path d="M21.5680623,23.5849351 C21.5180623,23.7516018 21.4680623,23.9182685 21.3680623,24.0849351 C21.4180623,23.9182685 21.4680623,23.7516018 21.5680623,23.5849351 Z" id="Shape" fill="#000000" fill-rule="nonzero"></path>
                        <path d="M21.5433301,19.8510184 C21.5933301,20.0328366 21.6433301,20.2146548 21.6933301,20.3510184 C21.6433301,20.2146548 21.5933301,20.0328366 21.5433301,19.8510184 Z" id="Shape" fill="#000000" fill-rule="nonzero"></path>
                        <path d="M15.788705,14.2793145 C15.888705,14.2793145 15.988705,14.3293145 16.138705,14.3293145 C16.038705,14.3293145 15.888705,14.3293145 15.788705,14.2793145 Z" id="Shape" fill="#000000" fill-rule="nonzero"></path>
                        <path d="M16.1246349,14.3522425 C16.2746349,14.4022425 16.3746349,14.4022425 16.5246349,14.4522425 C16.3746349,14.4522425 16.2746349,14.4022425 16.1246349,14.3522425 Z" id="Shape" fill="#000000" fill-rule="nonzero"></path>
                        <path d="M14.6640701,14.148044 C14.8179163,14.148044 14.9717624,14.148044 15.1640701,14.198044 C14.9717624,14.198044 14.8179163,14.198044 14.6640701,14.148044 Z" id="Shape" fill="#000000" fill-rule="nonzero"></path>
                        <path d="M21.6056962,23.2786373 C21.5556962,23.4286373 21.5056962,23.6286373 21.4556962,23.7786373 C21.5056962,23.6286373 21.5556962,23.4786373 21.6056962,23.2786373 Z" id="Shape" fill="#000000" fill-rule="nonzero"></path>
                        <path d="M15.0730282,14.1772152 C15.1730282,14.1772152 15.3230282,14.1772152 15.4230282,14.2272152 C15.3230282,14.2272152 15.1730282,14.1772152 15.0730282,14.1772152 Z" id="Shape" fill="#000000" fill-rule="nonzero"></path>
                        <path d="M15.4381694,14.220972 C15.5381694,14.220972 15.6381694,14.270972 15.7881694,14.270972 C15.6381694,14.270972 15.5381694,14.270972 15.4381694,14.220972 Z" id="Shape" fill="#000000" fill-rule="nonzero"></path>
                        <path d="M21.4410906,19.4572069 C21.5410906,19.6336774 21.5910906,19.7807363 21.6910906,19.9572069 C21.5910906,19.7807363 21.4910906,19.6042657 21.4410906,19.4572069 Z" id="Shape" fill="#000000" fill-rule="nonzero"></path>
                        <path d="M15.0146056,28.8982419 C15.1870194,28.8482419 15.3421919,28.7982419 15.5146056,28.7482419 C15.3421919,28.7982419 15.1697781,28.8982419 15.0146056,28.8982419 Z" id="Shape" fill="#000000" fill-rule="nonzero"></path>
                        <path d="M21.3242454,19.0925665 C21.4242454,19.2425665 21.5242454,19.4175665 21.6242454,19.5925665 C21.5242454,19.4175665 21.4242454,19.2425665 21.3242454,19.0925665 Z" id="Shape" fill="#000000" fill-rule="nonzero"></path>
                        <path d="M17.570594,28.0918894 C19.104187,27.3480231 20.345667,26.0936605 21.0467381,24.5475856 C21.0467381,24.5475856 21.0467381,24.5329999 21.0613437,24.5329999 C21.1635833,24.3142158 21.2512171,24.0954316 21.3242454,23.8620618 C21.338851,23.8328906 21.3534567,23.7891337 21.3680623,23.7599625 C21.382668,23.70162 21.3972736,23.6432776 21.4264849,23.5849351 C21.4410906,23.5411783 21.4556962,23.4828359 21.4703019,23.439079 C21.4849075,23.3953222 21.4995131,23.3369797 21.5141188,23.2932229 C21.5433301,23.1911236 21.5579357,23.1036099 21.587147,23.0015107 C21.587147,22.9723394 21.6017527,22.9431682 21.6017527,22.8994114 C21.6163583,22.8264833 21.630964,22.7389696 21.6455696,22.6660416 C21.6455696,22.6368703 21.6601753,22.5931135 21.6601753,22.5639423 C21.6747809,22.4764286 21.6893866,22.3889149 21.6893866,22.3014013 C21.6893866,22.27223 21.6893866,22.2576444 21.7039922,22.2284732 C21.7185979,22.1117883 21.7185979,21.9951034 21.7332035,21.8784185 C21.7332035,21.8638329 21.7332035,21.8638329 21.7332035,21.8492473 C21.7332035,21.747148 21.7478092,21.6304631 21.7478092,21.5283638 C21.7478092,21.4991926 21.7478092,21.4700214 21.7478092,21.4554357 C21.7478092,21.3533365 21.7478092,21.2658228 21.7332035,21.1637235 C21.7332035,21.1491379 21.7332035,21.1199667 21.7332035,21.105381 C21.7332035,21.0032818 21.7185979,20.9011825 21.7039922,20.7990832 C21.7039922,20.7844976 21.7039922,20.7553264 21.7039922,20.7407407 C21.6747809,20.5073709 21.6455696,20.2594155 21.6017527,20.0406313 C21.587147,19.9822889 21.5725414,19.9239464 21.5579357,19.8801896 C21.5433301,19.8218472 21.5287244,19.7780903 21.5141188,19.7197479 C21.4995131,19.6322342 21.4703019,19.5593061 21.4410906,19.4717925 C21.4410906,19.4426212 21.4264849,19.4280356 21.4264849,19.3988644 C21.3972736,19.2967651 21.3680623,19.2092514 21.338851,19.1071522 C21.338851,19.1071522 21.338851,19.0925665 21.338851,19.0925665 C20.5793574,16.9484815 18.8558909,15.2419649 16.6796495,14.5272699 C16.6504382,14.5126843 16.6358325,14.5126843 16.6066212,14.4980987 C16.5628043,14.483513 16.5043817,14.4689274 16.4605648,14.4543418 C16.4021422,14.4397562 16.3291139,14.410585 16.2706913,14.3959994 C16.2268744,14.3814138 16.1976631,14.3814138 16.1538462,14.3668282 C16.0808179,14.3522425 15.993184,14.3230713 15.9201558,14.3084857 C15.8909445,14.3084857 15.8617332,14.2939001 15.8179163,14.2939001 C15.7302824,14.2793145 15.6426485,14.2647289 15.5550146,14.2501433 C15.5258033,14.2501433 15.496592,14.2355576 15.4527751,14.2355576 C15.3651412,14.220972 15.2775073,14.2063864 15.1898734,14.2063864 C15.1606621,14.2063864 15.1168452,14.1918008 15.0876339,14.1918008 C15.0146056,14.1918008 14.9415774,14.1772152 14.8539435,14.1772152 C14.7955209,14.1772152 14.7370983,14.1772152 14.6640701,14.1626296 C14.5910419,14.1626296 14.5326193,14.1626296 14.459591,14.1626296 C14.4011685,14.1626296 14.3427459,14.1626296 14.2697176,14.1626296 C14.1966894,14.1626296 14.1382668,14.1626296 14.0652386,14.1626296 C14.006816,14.1626296 13.9337877,14.1626296 13.8753651,14.1772152 C13.8169426,14.1772152 13.7439143,14.1918008 13.6854917,14.1918008 C13.6124635,14.1918008 13.5540409,14.2063864 13.4810127,14.2063864 C13.4225901,14.2063864 13.3641675,14.220972 13.3057449,14.2355576 C13.2327167,14.2501433 13.1596884,14.2647289 13.0866602,14.2647289 C13.0428432,14.2793145 12.9844206,14.2793145 12.9406037,14.2939001 C12.8529698,14.3084857 12.7653359,14.3230713 12.6923077,14.3522425 C12.6630964,14.3668282 12.6192795,14.3668282 12.5900682,14.3814138 C12.4878286,14.410585 12.3855891,14.4397562 12.2833496,14.4689274 C12.2687439,14.4689274 12.2541383,14.483513 12.2395326,14.483513 C10.0778968,15.12528 8.32521908,16.7588686 7.52190847,18.8446111 C7.52190847,18.8446111 7.52190847,18.8446111 7.52190847,18.8591967 C7.47809153,18.9758816 7.43427459,19.0779809 7.40506329,19.1946658 C7.40506329,19.2092514 7.40506329,19.2092514 7.39045764,19.2238371 C7.36124635,19.3259363 7.31742941,19.4426212 7.28821811,19.5447205 C7.28821811,19.5593061 7.27361246,19.5738918 7.27361246,19.5884774 C7.24440117,19.6905767 7.21518987,19.7926759 7.20058423,19.9093608 C7.20058423,19.9239464 7.18597858,19.9531177 7.18597858,19.9677033 C7.17137293,20.0698026 7.14216164,20.1719019 7.12755599,20.2740011 C7.12755599,20.3031724 7.11295034,20.317758 7.11295034,20.3469292 C7.09834469,20.4490285 7.08373905,20.5511278 7.0691334,20.6532271 C7.0691334,20.6823983 7.0691334,20.6969839 7.05452775,20.7261551 C7.0399221,20.84284 7.0399221,20.9595249 7.02531646,21.0616242 C7.02531646,21.0762098 7.02531646,21.0907954 7.02531646,21.105381 C7.02531646,21.2366516 7.01071081,21.3679221 7.01071081,21.4991926 C7.01071081,25.5394072 10.3115871,28.8357556 14.3573515,28.8357556 C14.459591,28.8357556 14.5764362,28.8357556 14.6786758,28.82117 C14.7224927,28.82117 14.7663096,28.82117 14.8101266,28.82117 C14.8685492,28.82117 14.9269718,28.8065844 14.9853944,28.8065844 C15.1314508,28.7919987 15.2629017,28.7774131 15.4089581,28.7628275 C16.1830574,28.6461426 16.9133398,28.4127728 17.570594,28.0918894 Z M14.3719572,26.6333281 C11.5238559,26.6333281 9.21616358,24.3288014 9.21616358,21.484607 C9.21616358,18.6404126 11.5384615,16.3358858 14.3719572,16.3358858 C17.2200584,16.3358858 19.5277507,18.6404126 19.5277507,21.484607 C19.5277507,24.3288014 17.2200584,26.6333281 14.3719572,26.6333281 Z" id="Shape" stroke="#E0119D" stroke-width="0.25" fill="#E0119D" fill-rule="nonzero"></path>
                    </g>
                </g>
            </g>
        </g>
    </g>
</svg>