<?xml version="1.0" encoding="UTF-8"?>
<svg width="71px" height="71px" viewBox="0 0 71 71" version="1.1" xmlns="http://www.w3.org/2000/svg" xmlns:xlink="http://www.w3.org/1999/xlink">
    <!-- Generator: Sketch 52.5 (67469) - http://www.bohemiancoding.com/sketch -->
    <title>car</title>
    <desc>Created with Sketch.</desc>
    <g id="Homepage" stroke="none" stroke-width="1" fill="none" fill-rule="evenodd">
        <g id="01---Homepage---Não-Cliente-" transform="translate(-955.000000, -5983.000000)" fill-rule="nonzero" stroke-width="0.25">
            <g id="Seguros" transform="translate(0.000000, 5400.000000)">
                <g id="Group-26" transform="translate(931.000000, 500.000000)">
                    <g id="car" transform="translate(24.000000, 84.000000)">
                        <path d="M68.9745614,18.5938012 C67.1275439,18.5938012 65.6249318,17.0913255 65.6249318,15.2441715 C65.6249318,14.6777583 65.1659064,14.2187329 64.5994932,14.2187329 C64.0330799,14.2187329 63.5740546,14.6777583 63.5740546,15.2441715 C63.5740546,17.0911891 62.0715789,18.5938012 60.224425,18.5938012 C59.6580117,18.5938012 59.1989864,19.0528265 59.1989864,19.6192398 C59.1989864,20.185653 59.6580117,20.6446784 60.224425,20.6446784 C62.0714425,20.6446784 63.5740546,22.1472904 63.5740546,23.994308 C63.5740546,24.5607212 64.0330799,25.0197466 64.5994932,25.0197466 C65.1659064,25.0197466 65.6249318,24.5607212 65.6249318,23.994308 C65.6249318,22.1472904 67.1274074,20.6446784 68.9745614,20.6446784 C69.5409747,20.6446784 70,20.185653 70,19.6192398 C70,19.0528265 69.5409747,18.5938012 68.9745614,18.5938012 Z M64.5996296,20.8314815 C64.2623197,20.3663158 63.8524172,19.9565497 63.3873879,19.6192398 C63.8525536,19.2819298 64.2624561,18.8720273 64.5996296,18.4069981 C64.9369396,18.8721637 65.3468421,19.2819298 65.8118713,19.6192398 C65.3467057,19.9565497 64.9369396,20.3664522 64.5996296,20.8314815 Z" id="Shape" stroke="#E0119D" fill="#E0119D"></path>
                        <path d="M9.91189084,18.5938012 C8.06500975,18.5938012 6.56226121,17.0913255 6.56226121,15.2441715 C6.56226121,14.6777583 6.10309942,14.2187329 5.53682261,14.2187329 C4.97054581,14.2187329 4.51138402,14.6777583 4.51138402,15.2441715 C4.51138402,17.0911891 3.00863548,18.5938012 1.16175439,18.5938012 C0.595477583,18.5938012 0.136315789,19.0528265 0.136315789,19.6192398 C0.136315789,20.185653 0.595477583,20.6446784 1.16175439,20.6446784 C3.00863548,20.6446784 4.51138402,22.1472904 4.51138402,23.994308 C4.51138402,24.5607212 4.97054581,25.0197466 5.53682261,25.0197466 C6.10309942,25.0197466 6.56226121,24.5607212 6.56226121,23.994308 C6.56226121,22.1472904 8.06500975,20.6446784 9.91189084,20.6446784 C10.4781676,20.6446784 10.9373294,20.185653 10.9373294,19.6192398 C10.9373294,19.0528265 10.4781676,18.5938012 9.91189084,18.5938012 Z M5.53682261,20.8314815 C5.19951267,20.3663158 4.78974659,19.9565497 4.3245809,19.6192398 C4.78988304,19.2819298 5.19964912,18.8720273 5.53682261,18.4069981 C5.87413255,18.8721637 6.28389864,19.2819298 6.74906433,19.6192398 C6.28403509,19.9565497 5.87413255,20.3664522 5.53682261,20.8314815 Z" id="Shape" stroke="#E0119D" fill="#E0119D"></path>
                        <path d="M40.5369591,5.46873294 C38.0868226,5.46873294 36.0935283,3.47557505 36.0935283,1.02530214 C36.0936647,0.459025341 35.6346394,0 35.0682261,0 C34.5019493,0 34.0427875,0.459025341 34.0427875,1.0254386 C34.0427875,3.47557505 32.0493567,5.4688694 29.5993567,5.4688694 C29.0330799,5.4688694 28.5739181,5.92789474 28.5739181,6.49430799 C28.5739181,7.06072125 29.0330799,7.51974659 29.5993567,7.51974659 C32.0493567,7.51974659 34.0427875,9.51304094 34.0427875,11.9631774 C34.0427875,12.5295906 34.5019493,12.988616 35.0682261,12.988616 C35.6346394,12.988616 36.0936647,12.5295906 36.0936647,11.9631774 C36.0936647,9.51304094 38.0869591,7.51974659 40.5370955,7.51974659 C41.1035088,7.51974659 41.5625341,7.06072125 41.5625341,6.49430799 C41.5625341,5.92789474 41.1033723,5.46873294 40.5369591,5.46873294 Z M35.0682261,8.4637232 C34.561306,7.67448343 33.8879142,7.00109162 33.098538,6.49417154 C33.8879142,5.98725146 34.561306,5.31385965 35.0682261,4.52461988 C35.5751462,5.31385965 36.248538,5.98725146 37.0377778,6.49417154 C36.248538,7.00109162 35.5751462,7.67448343 35.0682261,8.4637232 Z" id="Shape" stroke="#E0119D" fill="#E0119D"></path>
                        <path d="M56.4169981,34.5905068 L52.4282261,23.2889864 C52.1298051,22.4432554 51.3266472,21.8750682 50.429883,21.8750682 L19.4331189,21.8750682 C18.5362183,21.8750682 17.7331969,22.4432554 17.4347758,23.2888499 L13.4460039,34.5905068 C13.214308,35.2469786 13.7178168,35.9572125 14.4129045,35.9572125 L55.4500975,35.9572125 C55.782768,35.9572125 56.0948343,35.795653 56.2869591,35.5241131 C56.4792203,35.2524366 56.5277973,34.904347 56.4169981,34.5905068 Z M15.8621637,33.9063353 L19.368577,23.971384 C19.3778558,23.9450487 19.4050097,23.925809 19.4329825,23.925809 L50.429883,23.925809 C50.4578558,23.925809 50.4850097,23.9450487 50.494425,23.9715205 L54.0008382,33.9063353 L15.8621637,33.9063353 Z" id="Shape" stroke="#303133" fill="#303133"></path>
                        <path d="M54.6191033,48.1252047 C50.9774659,48.1252047 48.1249318,50.0169786 48.1249318,52.4319103 C48.1249318,54.8468421 50.9774659,56.738616 54.6191033,56.738616 C58.2607407,56.738616 61.1132749,54.8468421 61.1132749,52.4319103 C61.1132749,50.0169786 58.2607407,48.1252047 54.6191033,48.1252047 Z M54.6191033,54.6877388 C52.0759064,54.6877388 50.1756725,53.4967836 50.1756725,52.4319103 C50.1756725,51.367037 52.07577,50.1760819 54.6191033,50.1760819 C57.1623002,50.1760819 59.0625341,51.367037 59.0625341,52.4319103 C59.0625341,53.4967836 57.1623002,54.6877388 54.6191033,54.6877388 Z" id="Shape" stroke="#303133" fill="#303133"></path>
                        <path d="M15.2438986,48.1252047 C11.6022612,48.1252047 8.7497271,50.0169786 8.7497271,52.4319103 C8.7497271,54.8468421 11.6022612,56.738616 15.2438986,56.738616 C18.8855361,56.738616 21.7380702,54.8468421 21.7380702,52.4319103 C21.7380702,50.0169786 18.8855361,48.1252047 15.2438986,48.1252047 Z M15.2438986,54.6877388 C12.7008382,54.6877388 10.8004678,53.4967836 10.8004678,52.4319103 C10.8004678,51.367037 12.7007018,50.1760819 15.2438986,50.1760819 C17.7870955,50.1760819 19.6873294,51.367037 19.6873294,52.4319103 C19.6873294,53.4967836 17.7870955,54.6877388 15.2438986,54.6877388 Z" id="Shape" stroke="#303133" fill="#303133"></path>
                        <path d="M67.7441715,32.8126706 L62.2754386,32.8126706 C61.8049513,32.8126706 61.3947758,33.132924 61.2807018,33.5893567 L60.5603704,36.4705458 L55.5224172,22.1968226 C54.7618324,20.0418324 52.7153216,18.5938012 50.429883,18.5938012 L19.4331189,18.5938012 C17.1476803,18.5938012 15.1011696,20.0418324 14.3405848,22.1969591 L9.30276803,36.4706823 L8.58243665,33.5893567 C8.46822612,33.1327875 8.05805068,32.8126706 7.58769981,32.8126706 L2.11883041,32.8126706 C1.55255361,32.8126706 1.09339181,33.2716959 1.09339181,33.8381092 L1.09339181,38.2131774 C1.09339181,38.7795906 1.55255361,39.238616 2.11883041,39.238616 L7.78255361,39.238616 L4.28678363,44.1326121 C3.62881092,45.0538012 3.28099415,46.1394152 3.28099415,47.2715595 L3.28099415,60.0882456 C3.28099415,61.8641715 4.14296296,63.4423782 5.47023392,64.427154 C5.46982456,64.4391618 5.46846004,64.4510331 5.46846004,64.4631774 L5.46846004,67.7444444 C5.46846004,68.9130214 6.41912281,69.8635478 7.58756335,69.8635478 L14.1500975,69.8635478 C15.3186745,69.8635478 16.2692008,68.912885 16.2692008,67.7444444 L16.2692008,65.488616 L53.5935283,65.488616 L53.5935283,67.7444444 C53.5935283,68.9130214 54.544191,69.8635478 55.7126316,69.8635478 L62.2751657,69.8635478 C63.4437427,69.8635478 64.394269,68.912885 64.394269,67.7444444 L64.394269,64.4631774 C64.394269,64.4510331 64.3929045,64.4391618 64.3924951,64.427154 C65.7197661,63.4423782 66.5817349,61.8641715 66.5817349,60.0882456 L66.5817349,47.2715595 C66.5817349,46.1392788 66.2337817,45.0536647 65.575809,44.1326121 L62.080039,39.238616 L67.7438986,39.238616 C68.3103119,39.238616 68.7693372,38.7795906 68.7693372,38.2131774 L68.7693372,33.8381092 C68.7694737,33.2715595 68.3105848,32.8126706 67.7441715,32.8126706 Z M3.14426901,37.1876023 L3.14426901,34.8634113 L6.78699805,34.8634113 L7.3680117,37.1876023 L3.14426901,37.1876023 Z M14.2185965,67.7444444 C14.2185965,67.7821053 14.1880312,67.812807 14.1502339,67.812807 L7.58769981,67.812807 C7.55003899,67.812807 7.51933723,67.7821053 7.51933723,67.7444444 L7.51933723,65.488616 L8.68150097,65.488616 L14.2185965,65.488616 L14.2185965,67.7444444 Z M62.3436647,67.7444444 C62.3436647,67.7821053 62.312963,67.812807 62.2753021,67.812807 L55.712768,67.812807 C55.6751072,67.812807 55.6444055,67.7821053 55.6444055,67.7444444 L55.6444055,65.488616 L61.181501,65.488616 L62.3436647,65.488616 L62.3436647,67.7444444 Z M61.1816374,63.4377388 L8.68136452,63.4377388 C7.1919883,63.4377388 5.92707602,62.4604678 5.49288499,61.1135478 L64.3699805,61.1135478 C63.9357895,62.4604678 62.6710136,63.4377388 61.1816374,63.4377388 Z M43.7498635,52.3635478 L43.7498635,54.6877388 L26.1131384,54.6877388 L26.1131384,52.3635478 L43.7498635,52.3635478 Z M26.2742885,50.3126706 C26.7084795,48.9657505 27.9732554,47.9884795 29.462768,47.9884795 L40.4003704,47.9884795 C41.8897466,47.9884795 43.1546589,48.9657505 43.5888499,50.3126706 L26.2742885,50.3126706 Z M43.7498635,56.7384795 L43.7498635,59.0626706 L26.1131384,59.0626706 L26.1131384,56.7384795 L43.7498635,56.7384795 Z M63.9074074,45.3245224 C64.3155361,45.895848 64.5312671,46.5691033 64.5312671,47.271423 L64.5312671,59.062807 L45.8007407,59.062807 L45.8007407,51.3381092 C45.8007407,48.3603119 43.3780312,45.9377388 40.4003704,45.9377388 L29.462768,45.9377388 C26.4849708,45.9377388 24.0623977,48.3604483 24.0623977,51.3381092 L24.0623977,59.062807 L5.33173489,59.062807 L5.33173489,47.271423 C5.33173489,46.5691033 5.54746589,45.895848 5.95559454,45.3245224 L10.3028265,39.2384795 L48.0564327,39.2384795 C48.622846,39.2384795 49.0818713,38.7794542 49.0818713,38.2130409 C49.0818713,37.6466277 48.622846,37.1876023 48.0564327,37.1876023 L11.224425,37.1876023 L16.274386,22.8793567 C16.7462378,21.542807 18.0155166,20.6445419 19.4331189,20.6445419 L50.4300195,20.6445419 C51.8474854,20.6445419 53.1167641,21.5426706 53.5887524,22.8793567 L58.638577,37.1876023 L52.431501,37.1876023 C51.8650877,37.1876023 51.4060624,37.6466277 51.4060624,38.2130409 C51.4060624,38.7794542 51.8650877,39.2384795 52.431501,39.2384795 L59.5601754,39.2384795 L63.9074074,45.3245224 Z M66.7187329,37.1876023 L62.4948538,37.1876023 L63.0758674,34.8634113 L66.7187329,34.8634113 L66.7187329,37.1876023 Z" id="Shape" stroke="#303133" fill="#303133"></path>
                        <path d="M18.5251657,44.8439376 L11.9626316,44.8439376 C11.3963548,44.8439376 10.937193,45.302963 10.937193,45.8693762 C10.937193,46.4357895 11.3963548,46.8948148 11.9626316,46.8948148 L18.5251657,46.8948148 C19.0914425,46.8948148 19.5506043,46.4357895 19.5506043,45.8693762 C19.5506043,45.302963 19.0914425,44.8439376 18.5251657,44.8439376 Z" id="Shape" stroke="#303133" fill="#303133"></path>
                        <path d="M57.9003704,44.8439376 L51.3378363,44.8439376 C50.771423,44.8439376 50.3123977,45.302963 50.3123977,45.8693762 C50.3123977,46.4357895 50.771423,46.8948148 51.3378363,46.8948148 L57.9003704,46.8948148 C58.4667836,46.8948148 58.925809,46.4357895 58.925809,45.8693762 C58.925809,45.302963 58.4667836,44.8439376 57.9003704,44.8439376 Z" id="Shape" stroke="#303133" fill="#303133"></path>
                    </g>
                </g>
            </g>
        </g>
    </g>
</svg>