<?xml version="1.0" encoding="UTF-8"?>
<svg width="488px" height="440px" viewBox="0 0 488 440" version="1.1" xmlns="http://www.w3.org/2000/svg" xmlns:xlink="http://www.w3.org/1999/xlink">
    <!-- Generator: Sketch 52.6 (67491) - http://www.bohemiancoding.com/sketch -->
    <title>Group</title>
    <desc>Created with Sketch.</desc>
    <g id="Seguros" stroke="none" stroke-width="1" fill="none" fill-rule="evenodd">
        <g id="02---Seguros" transform="translate(-331.000000, -1721.000000)" fill="#FFFFFF">
            <g id="Proteja-o-seu-gadget" transform="translate(331.000000, 1473.000000)">
                <g id="Group-10" transform="translate(0.000000, 248.000000)">
                    <g id="Group">
                        <g transform="translate(65.842580, 258.617339) scale(-1, 1) rotate(-16.000000) translate(-65.842580, -258.617339) translate(-340.657420, -96.882661)" id="Path">
                            <path d="M0,265.095534 C0,478.233507 301.556553,711 467.907502,711 C634.258451,711 813,478.233507 813,265.095534 C813,51.9575613 742.812576,-92.348412 497.156591,69.2399116 C349.170746,166.589442 0,51.9575613 0,265.095534 Z" opacity="0.1"></path>
                            <path d="M200,377.499016 C200,464.732701 323.515784,560 391.65215,560 C459.788517,560 533,464.732701 533,377.499016 C533,290.265331 504.251645,231.203393 403.632405,297.338698 C343.018276,337.182176 200,290.265331 200,377.499016 Z" opacity="0.104864211"></path>
                        </g>
                    </g>
                </g>
            </g>
        </g>
    </g>
</svg>