<?xml version="1.0" encoding="UTF-8"?>
<svg width="70px" height="59px" viewBox="0 0 70 59" version="1.1" xmlns="http://www.w3.org/2000/svg" xmlns:xlink="http://www.w3.org/1999/xlink">
    <!-- Generator: Sketch 52.5 (67469) - http://www.bohemiancoding.com/sketch -->
    <title>house (3)</title>
    <desc>Created with Sketch.</desc>
    <g id="Homepage" stroke="none" stroke-width="1" fill="none" fill-rule="evenodd">
        <g id="01---Homepage---Não-Cliente-" transform="translate(-355.000000, -6051.000000)">
            <g id="Seguros" transform="translate(0.000000, 5400.000000)">
                <g id="Group-58" transform="translate(331.000000, 556.000000)">
                    <g id="house-(3)" transform="translate(24.000000, 95.000000)">
                        <polygon id="Shape" points="37.4946004 5.26133909 34.924406 5.26133909 34.924406 10.0842333 37.4946004 8.05831533"></polygon>
                        <path d="M16.6609071,27.1987041 L2.26781857,38.5529158 L2.26781857,41.712743 L16.7667387,30.2980562 C17.174946,29.9805616 17.7645788,29.9805616 18.1727862,30.2980562 L30.2526998,39.8077754 L30.2526998,36.6479482 L18.2786177,27.2138229 C17.7948164,26.8358531 17.1295896,26.8358531 16.6609071,27.1987041 Z" id="Shape"></path>
                        <path d="M39.762419,56.2116631 L44.7516199,56.2116631 L44.7516199,50.012959 C44.7213823,50.012959 44.7062635,50.012959 44.6760259,50.012959 C44.3736501,50.012959 44.0863931,49.8920086 43.87473,49.6803456 C43.663067,49.4686825 43.5421166,49.1814255 43.5421166,48.8790497 C43.5421166,48.5766739 43.663067,48.2894168 43.87473,48.0777538 C44.0863931,47.8660907 44.3736501,47.7451404 44.6760259,47.7451404 C44.7062635,47.7451404 44.7213823,47.7451404 44.7516199,47.7451404 L44.7516199,41.5464363 L39.762419,41.5464363 L39.762419,56.2116631 Z" id="Shape"></path>
                        <rect id="Rectangle-path" x="39.762419" y="28.2419006" width="4.98920086" height="3.77969762"></rect>
                        <rect id="Rectangle-path" x="11.9438445" y="43.9654428" width="11.0367171" height="2.57019438"></rect>
                        <rect id="Rectangle-path" x="11.9438445" y="53.6414687" width="11.0367171" height="2.57019438"></rect>
                        <path d="M9.67602592,42.8315335 C9.67602592,42.2116631 10.1900648,41.6976242 10.8099352,41.6976242 L24.1144708,41.6976242 C24.7343413,41.6976242 25.2483801,42.2116631 25.2483801,42.8315335 L25.2483801,56.2116631 L26.8509719,56.2116631 L30.237581,56.2116631 L30.237581,42.6803456 L17.462203,32.6112311 L4.68682505,42.6954644 L4.68682505,56.2267819 L8.70842333,56.2267819 L9.67602592,56.2267819 L9.67602592,42.8315335 Z" id="Shape"></path>
                        <rect id="Rectangle-path" x="11.9438445" y="48.8034557" width="11.0367171" height="2.57019438"></rect>
                        <rect id="Rectangle-path" x="53.0669546" y="24.6133909" width="4.98920086" height="1.36069114"></rect>
                        <rect id="Rectangle-path" x="39.762419" y="24.6133909" width="4.98920086" height="1.36069114"></rect>
                        <rect id="Rectangle-path" x="53.0669546" y="45.174946" width="4.98920086" height="3.77969762"></rect>
                        <rect id="Rectangle-path" x="53.0669546" y="41.5464363" width="4.98920086" height="1.36069114"></rect>
                        <path d="M48.1079914,2.57019438 L30.0863931,16.7818575 L30.0863931,19.9416847 L48.2138229,5.66954644 C48.425486,5.50323974 48.6673866,5.42764579 48.9092873,5.42764579 C49.1511879,5.42764579 49.4082073,5.50323974 49.6047516,5.66954644 L67.7321814,19.9416847 L67.7321814,16.7818575 L49.7105832,2.57019438 C49.2419006,2.20734341 48.5766739,2.20734341 48.1079914,2.57019438 Z" id="Shape"></path>
                        <rect id="Rectangle-path" x="53.0669546" y="28.2419006" width="4.98920086" height="3.77969762"></rect>
                        <path d="M32.5053996,20.924406 L32.5053996,56.2267819 L37.4946004,56.2267819 L37.4946004,40.412527 C37.4946004,39.7926566 38.0086393,39.2786177 38.6285097,39.2786177 L45.8855292,39.2786177 C46.5053996,39.2786177 47.0194384,39.7926566 47.0194384,40.412527 L47.0194384,56.2116631 L65.3131749,56.2116631 L65.3131749,20.924406 L48.9092873,7.99784017 L32.5053996,20.924406 Z M47.0194384,33.1555076 C47.0194384,33.775378 46.5053996,34.2894168 45.8855292,34.2894168 L38.6285097,34.2894168 C38.0086393,34.2894168 37.4946004,33.775378 37.4946004,33.1555076 L37.4946004,23.4794816 C37.4946004,22.8596112 38.0086393,22.3455724 38.6285097,22.3455724 L45.8855292,22.3455724 C46.5053996,22.3455724 47.0194384,22.8596112 47.0194384,23.4794816 L47.0194384,33.1555076 Z M50.7991361,23.4794816 C50.7991361,22.8596112 51.3131749,22.3455724 51.9330454,22.3455724 L59.1900648,22.3455724 C59.8099352,22.3455724 60.3239741,22.8596112 60.3239741,23.4794816 L60.3239741,33.1555076 C60.3239741,33.775378 59.8099352,34.2894168 59.1900648,34.2894168 L51.9330454,34.2894168 C51.3131749,34.2894168 50.7991361,33.775378 50.7991361,33.1555076 L50.7991361,23.4794816 Z M50.7991361,40.412527 C50.7991361,39.7926566 51.3131749,39.2786177 51.9330454,39.2786177 L59.1900648,39.2786177 C59.8099352,39.2786177 60.3239741,39.7926566 60.3239741,40.412527 L60.3239741,50.0885529 C60.3239741,50.7084233 59.8099352,51.2224622 59.1900648,51.2224622 L51.9330454,51.2224622 C51.3131749,51.2224622 50.7991361,50.7084233 50.7991361,50.0885529 L50.7991361,40.412527 Z" id="Shape"></path>
                        <path d="M68.8660907,23.4038877 C69.0323974,23.4038877 69.1987041,23.3736501 69.3650108,23.2829374 C69.7580994,23.0863931 70,22.6933045 70,22.2699784 L70,16.2224622 C70,15.87473 69.8336933,15.5421166 69.5615551,15.3304536 L51.1015119,0.786177106 C49.8012959,-0.226781857 48.0021598,-0.226781857 46.7019438,0.786177106 L39.7473002,6.25917927 L39.7473002,4.12742981 C39.7473002,3.5075594 39.2332613,2.99352052 38.6133909,2.99352052 L33.775378,2.99352052 C33.1555076,2.99352052 32.6414687,3.5075594 32.6414687,4.12742981 L32.6414687,11.8531317 L28.2419006,15.3304536 C27.9697624,15.5421166 27.8034557,15.87473 27.8034557,16.2224622 L27.8034557,22.2699784 C27.8034557,22.7084233 28.0453564,23.1015119 28.4384449,23.2829374 C28.8315335,23.4794816 29.300216,23.4190065 29.6328294,23.1468683 L30.2224622,22.6933045 L30.2224622,33.7451404 L19.6393089,25.4146868 C18.3390929,24.4017279 16.5399568,24.4017279 15.2397408,25.4146868 L0.438444924,37.1015119 C0.166306695,37.3282937 0,37.6457883 0,37.9935205 L0,44.0410367 C0,44.4794816 0.241900648,44.8725702 0.634989201,45.0539957 C0.786177106,45.1295896 0.967602592,45.174946 1.13390929,45.174946 C1.39092873,45.174946 1.63282937,45.0993521 1.82937365,44.9330454 L2.41900648,44.4794816 L2.41900648,56.2116631 L1.13390929,56.2116631 C0.514038877,56.2116631 0,56.7257019 0,57.3455724 C0,57.9654428 0.514038877,58.4794816 1.13390929,58.4794816 L8.70842333,58.4794816 L8.70842333,56.2116631 L4.68682505,56.2116631 L4.68682505,42.6803456 L17.462203,32.6112311 L30.237581,42.6803456 L30.237581,56.2116631 L26.8509719,56.2116631 L26.8509719,58.4794816 L68.8660907,58.4794816 C69.4859611,58.4794816 70,57.9654428 70,57.3455724 C70,56.7257019 69.4859611,56.2116631 68.8660907,56.2116631 L67.5809935,56.2116631 L67.5809935,22.7084233 L68.1706263,23.161987 C68.3671706,23.3282937 68.6090713,23.4038877 68.8660907,23.4038877 Z M30.237581,39.8077754 L18.1576674,30.2980562 C17.74946,29.9805616 17.1598272,29.9805616 16.7516199,30.2980562 L2.26781857,41.712743 L2.26781857,38.5529158 L16.6609071,27.2138229 C17.1295896,26.8509719 17.7796976,26.8509719 18.2483801,27.2138229 L30.2224622,36.6479482 L30.2224622,39.8077754 L30.237581,39.8077754 Z M34.924406,5.26133909 L37.4946004,5.26133909 L37.4946004,8.04319654 L34.924406,10.0691145 L34.924406,5.26133909 Z M44.7516199,47.7451404 C44.7213823,47.7451404 44.7062635,47.7451404 44.6760259,47.7451404 C44.3736501,47.7451404 44.0863931,47.8660907 43.87473,48.0777538 C43.663067,48.2894168 43.5421166,48.5766739 43.5421166,48.8790497 C43.5421166,49.1814255 43.663067,49.4686825 43.87473,49.6803456 C44.0863931,49.8920086 44.3736501,50.012959 44.6760259,50.012959 C44.7062635,50.012959 44.7213823,50.012959 44.7516199,50.012959 L44.7516199,56.2116631 L39.762419,56.2116631 L39.762419,41.5464363 L44.7516199,41.5464363 L44.7516199,47.7451404 Z M65.3131749,56.2116631 L47.0194384,56.2116631 L47.0194384,40.412527 C47.0194384,39.7926566 46.5053996,39.2786177 45.8855292,39.2786177 L38.6285097,39.2786177 C38.0086393,39.2786177 37.4946004,39.7926566 37.4946004,40.412527 L37.4946004,56.2116631 L32.5053996,56.2116631 L32.5053996,20.924406 L48.9092873,7.99784017 L65.3131749,20.924406 L65.3131749,56.2116631 Z M67.7321814,19.9416847 L49.6047516,5.65442765 C49.3930886,5.48812095 49.1511879,5.412527 48.9092873,5.412527 C48.6673866,5.412527 48.4103672,5.48812095 48.2138229,5.65442765 L30.0863931,19.9416847 L30.0863931,16.7818575 L48.1079914,2.57019438 C48.5766739,2.20734341 49.2267819,2.20734341 49.6954644,2.57019438 L67.7321814,16.7818575 L67.7321814,19.9416847 Z" id="Shape" fill="#303133" fill-rule="nonzero"></path>
                        <path d="M24.1144708,41.6976242 L10.8099352,41.6976242 C10.1900648,41.6976242 9.67602592,42.2116631 9.67602592,42.8315335 L9.67602592,56.2116631 L25.2483801,56.2116631 L25.2483801,42.8315335 C25.2483801,42.2116631 24.7343413,41.6976242 24.1144708,41.6976242 Z M22.9805616,56.2116631 L11.9438445,56.2116631 L11.9438445,53.6414687 L22.9805616,53.6414687 L22.9805616,56.2116631 Z M22.9805616,51.3736501 L11.9438445,51.3736501 L11.9438445,48.8034557 L22.9805616,48.8034557 L22.9805616,51.3736501 Z M22.9805616,46.5356371 L11.9438445,46.5356371 L11.9438445,43.9654428 L22.9805616,43.9654428 L22.9805616,46.5356371 Z" id="Shape" fill="#E0119D" fill-rule="nonzero"></path>
                        <path d="M51.9330454,51.2224622 L59.1900648,51.2224622 C59.8099352,51.2224622 60.3239741,50.7084233 60.3239741,50.0885529 L60.3239741,40.412527 C60.3239741,39.7926566 59.8099352,39.2786177 59.1900648,39.2786177 L51.9330454,39.2786177 C51.3131749,39.2786177 50.7991361,39.7926566 50.7991361,40.412527 L50.7991361,50.0885529 C50.7991361,50.7235421 51.3131749,51.2224622 51.9330454,51.2224622 Z M53.0669546,41.5464363 L58.0561555,41.5464363 L58.0561555,42.9071274 L53.0669546,42.9071274 L53.0669546,41.5464363 Z M53.0669546,45.174946 L58.0561555,45.174946 L58.0561555,48.9546436 L53.0669546,48.9546436 L53.0669546,45.174946 Z" id="Shape" fill="#303133" fill-rule="nonzero"></path>
                        <path d="M51.9330454,34.2894168 L59.1900648,34.2894168 C59.8099352,34.2894168 60.3239741,33.775378 60.3239741,33.1555076 L60.3239741,23.4794816 C60.3239741,22.8596112 59.8099352,22.3455724 59.1900648,22.3455724 L51.9330454,22.3455724 C51.3131749,22.3455724 50.7991361,22.8596112 50.7991361,23.4794816 L50.7991361,33.1555076 C50.7991361,33.7904968 51.3131749,34.2894168 51.9330454,34.2894168 Z M53.0669546,24.6133909 L58.0561555,24.6133909 L58.0561555,25.9740821 L53.0669546,25.9740821 L53.0669546,24.6133909 Z M53.0669546,28.2419006 L58.0561555,28.2419006 L58.0561555,32.0215983 L53.0669546,32.0215983 L53.0669546,28.2419006 Z" id="Shape" fill="#E0119D" fill-rule="nonzero"></path>
                        <path d="M45.8855292,22.3455724 L38.6285097,22.3455724 C38.0086393,22.3455724 37.4946004,22.8596112 37.4946004,23.4794816 L37.4946004,33.1555076 C37.4946004,33.775378 38.0086393,34.2894168 38.6285097,34.2894168 L45.8855292,34.2894168 C46.5053996,34.2894168 47.0194384,33.775378 47.0194384,33.1555076 L47.0194384,23.4794816 C47.0194384,22.8596112 46.5053996,22.3455724 45.8855292,22.3455724 Z M44.7516199,32.0215983 L39.762419,32.0215983 L39.762419,28.2419006 L44.7516199,28.2419006 L44.7516199,32.0215983 Z M44.7516199,25.9740821 L39.762419,25.9740821 L39.762419,24.6133909 L44.7516199,24.6133909 L44.7516199,25.9740821 Z" id="Shape" fill="#303133" fill-rule="nonzero"></path>
                        <polygon id="Shape" fill="#303133" fill-rule="nonzero" points="25.2483801 56.2116631 9.67602592 56.2116631 8.70842333 56.2116631 8.70842333 58.4794816 26.8509719 58.4794816 26.8509719 56.2116631"></polygon>
                    </g>
                </g>
            </g>
        </g>
    </g>
</svg>