<?xml version="1.0" encoding="UTF-8"?>
<svg width="70px" height="61px" viewBox="0 0 70 61" version="1.1" xmlns="http://www.w3.org/2000/svg" xmlns:xlink="http://www.w3.org/1999/xlink">
    <!-- Generator: Sketch 52.5 (67469) - http://www.bohemiancoding.com/sketch -->
    <title>responsive</title>
    <desc>Created with Sketch.</desc>
    <g id="Homepage" stroke="none" stroke-width="1" fill="none" fill-rule="evenodd">
        <g id="01---Homepage---Não-Cliente-" transform="translate(-755.000000, -6018.000000)" fill-rule="nonzero">
            <g id="Seguros" transform="translate(0.000000, 5400.000000)">
                <g id="Group-27" transform="translate(731.000000, 524.000000)">
                    <g id="responsive" transform="translate(24.000000, 94.000000)">
                        <path d="M66.2307692,30.1 L65.0688259,30.1 L65.0688259,5.78846154 C65.0650496,2.59323077 62.4660729,0.0037625 59.2591093,0 L10.4574899,0 C7.25052632,0.0037625 4.6515496,2.59323077 4.64777328,5.78846154 L4.64777328,23.1538462 L3.48582996,23.1538462 C1.56063512,23.1538462 0,24.7087716 0,26.6269231 L0,56.7269231 C0,58.6450745 1.56063512,60.2 3.48582996,60.2 L47.6396761,60.2 C48.2813593,60.2 48.8016194,59.6816433 48.8016194,59.0423077 C48.7978431,55.8470769 46.1988664,53.2576087 42.9919028,53.2538462 L39.5060729,53.2538462 L39.5060729,46.3076923 L53.4493927,46.3076923 L53.4493927,56.7269231 C53.4493927,58.6450745 55.0100278,60.2 56.9352227,60.2 L66.2307692,60.2 C68.1559641,60.2 69.7165992,58.6450745 69.7165992,56.7269231 L69.7165992,33.5730769 C69.7165992,31.6549255 68.1559641,30.1 66.2307692,30.1 Z M25.562753,56.7269231 C25.562753,57.3662587 25.0424929,57.8846154 24.4008097,57.8846154 L3.48582996,57.8846154 C2.84414676,57.8846154 2.32388664,57.3662587 2.32388664,56.7269231 L2.32388664,55.5692308 L25.562753,55.5692308 L25.562753,56.7269231 Z M25.562753,53.2538462 L2.32388664,53.2538462 L2.32388664,26.6269231 C2.32388664,25.9875875 2.84414676,25.4692308 3.48582996,25.4692308 L24.4008097,25.4692308 C25.0424929,25.4692308 25.562753,25.9875875 25.562753,26.6269231 L25.562753,53.2538462 Z M42.9919028,55.5692308 C44.4687328,55.5709673 45.7847788,56.4979894 46.2790405,57.8846154 L27.6728421,57.8846154 C27.8105324,57.5138644 27.8827181,57.122275 27.8866397,56.7269231 L27.8866397,55.5692308 L42.9919028,55.5692308 Z M27.8866397,53.2538462 L27.8866397,46.3076923 L30.2105263,46.3076923 L30.2105263,53.2538462 L27.8866397,53.2538462 Z M32.534413,53.2538462 L32.534413,46.3076923 L37.1821862,46.3076923 L37.1821862,53.2538462 L32.534413,53.2538462 Z M53.4493927,43.9923077 L27.8866397,43.9923077 L27.8866397,37.0461538 L53.4493927,37.0461538 L53.4493927,43.9923077 Z M53.4493927,33.5730769 L53.4493927,34.7307692 L27.8866397,34.7307692 L27.8866397,26.6269231 C27.8827181,26.0775981 27.746335,25.5372452 27.4892551,25.0513038 C27.5066842,25.0350962 27.5299231,25.0304654 27.5461903,25.0131 L39.0494291,13.5519462 C39.4953249,13.0920529 39.4825435,12.3590889 39.0209615,11.9149692 C38.5707085,11.4817029 37.8568396,11.4817029 37.4064413,11.9149692 L25.9032024,23.3761231 C25.8753158,23.4050654 25.8636964,23.4421115 25.8392955,23.4722115 C25.3884615,23.2638269 24.8976857,23.1552933 24.4008097,23.1538462 L6.97165992,23.1538462 L6.97165992,5.78846154 C6.97165992,3.8703101 8.53229504,2.31538462 10.4574899,2.31538462 L59.2591093,2.31538462 C61.1843041,2.31538462 62.7449393,3.8703101 62.7449393,5.78846154 L62.7449393,30.1 L56.9352227,30.1 C55.0100278,30.1 53.4493927,31.6549255 53.4493927,33.5730769 Z M67.3927126,56.7269231 C67.3927126,57.3662587 66.8724524,57.8846154 66.2307692,57.8846154 L56.9352227,57.8846154 C56.2935395,57.8846154 55.7732794,57.3662587 55.7732794,56.7269231 L55.7732794,55.5692308 L67.3927126,55.5692308 L67.3927126,56.7269231 Z M67.3927126,53.2538462 L55.7732794,53.2538462 L55.7732794,33.5730769 C55.7732794,32.9337413 56.2935395,32.4153846 56.9352227,32.4153846 L66.2307692,32.4153846 C66.8724524,32.4153846 67.3927126,32.9337413 67.3927126,33.5730769 L67.3927126,53.2538462 Z" id="Shape" fill="#303133"></path>
                        <path d="M13.8840607,37.2452769 C13.4303219,36.7933428 12.6948117,36.7933428 12.2410729,37.2452769 L7.31210931,42.1562077 C6.85052733,42.6004721 6.83774595,43.3332913 7.2836417,43.7931846 C7.72953745,44.2530779 8.46504757,44.2658125 8.92662955,43.8215481 C8.93636083,43.8122865 8.94580162,43.8027356 8.95509717,43.7931846 L13.8840607,38.8822538 C14.0914676,38.5240928 13.6746204,37.843225 13.8840607,37.2452769 Z" id="Shape" fill="#E0119D"></path>
                        <path d="M20.827253,37.2452769 C20.377,36.8120106 19.6631311,36.8120106 19.2127328,37.2452769 L14.2837692,42.1562077 C13.8221872,42.6003274 13.8094059,43.3332913 14.2553016,43.7931846 C14.7010521,44.2530779 15.4367075,44.2658125 15.8982895,43.8215481 C15.9080207,43.8122865 15.9174615,43.8027356 15.9267571,43.7931846 L20.8557206,38.8822538 C21.3014712,38.4223606 21.288835,37.6893966 20.827253,37.2452769 Z" id="Shape" fill="#E0119D"></path>
                        <path d="M46.1088158,11.9161269 C45.6585628,11.4828606 44.9446938,11.4828606 44.4942955,11.9161269 L32.9910567,23.3772808 C32.5294747,23.8214005 32.5166933,24.5543644 32.9624438,25.0142577 C33.4081943,25.474151 34.1438497,25.4868856 34.6054317,25.0427659 C34.615163,25.0335043 34.6246037,25.0239534 34.6340445,25.0142577 L46.1372834,13.5531038 C46.5831791,13.0932106 46.5703978,12.3602466 46.1088158,11.9161269 Z" id="Shape" fill="#E0119D"></path>
                        <path d="M64.0190101,40.37915 C63.5687571,39.9457389 62.8547429,39.9457389 62.4044899,40.37915 L59.1185142,43.6531038 C58.6569322,44.0973683 58.6441508,44.8301875 59.0900466,45.2900808 C59.5359423,45.749974 60.2714524,45.7627087 60.7330344,45.3184442 C60.7426204,45.3091827 60.7522065,45.2996317 60.761502,45.2900808 L64.0474777,42.0161269 C64.4933735,41.5562337 64.4805921,40.8234144 64.0190101,40.37915 Z" id="Shape" fill="#303133"></path>
                        <path d="M34.8815385,39.3615385 L34.869919,39.3615385 C34.2282358,39.3647221 33.7105901,39.8856837 33.7137854,40.5250192 C33.7169808,41.1643548 34.2398553,41.6801067 34.8815385,41.6769231 C35.5232217,41.6769231 36.0434818,41.1585663 36.0434818,40.5192308 C36.0434818,39.8798952 35.5232217,39.3615385 34.8815385,39.3615385 Z" id="Shape" fill="#303133"></path>
                        <path d="M37.1821862,4.63076923 L32.534413,4.63076923 C31.8927298,4.63076923 31.3724696,5.14912596 31.3724696,5.78846154 C31.3724696,6.42779712 31.8927298,6.94615385 32.534413,6.94615385 L37.1821862,6.94615385 C37.8238694,6.94615385 38.3441296,6.42779712 38.3441296,5.78846154 C38.3441296,5.14912596 37.8238694,4.63076923 37.1821862,4.63076923 Z" id="Shape" fill="#303133"></path>
                    </g>
                </g>
            </g>
        </g>
    </g>
</svg>