<?xml version="1.0" encoding="UTF-8"?>
<svg width="72px" height="53px" viewBox="0 0 72 53" version="1.1" xmlns="http://www.w3.org/2000/svg" xmlns:xlink="http://www.w3.org/1999/xlink">
    <!-- Generator: Sketch 52.5 (67469) - http://www.bohemiancoding.com/sketch -->
    <title>heart</title>
    <desc>Created with Sketch.</desc>
    <g id="Homepage" stroke="none" stroke-width="1" fill="none" fill-rule="evenodd">
        <g id="01---Homepage---Não-Cliente-" transform="translate(-554.000000, -5969.000000)">
            <g id="Seguros" transform="translate(0.000000, 5400.000000)">
                <g id="Group-29" transform="translate(531.000000, 467.000000)">
                    <g id="heart" transform="translate(24.000000, 103.000000)">
                        <path d="M52.406995,25.9456311 L50.2122859,22.2485437 L47.6185386,26.0116505 C47.3525133,26.3417476 46.9534753,26.5398058 46.5544372,26.4737864 C46.1553992,26.407767 45.8228675,26.1436893 45.6898548,25.7475728 L42.4310442,15.2504854 L36.312461,36.0466019 C36.1794484,36.5087379 35.7804103,36.838835 35.3148659,36.838835 C35.2483596,36.838835 35.2483596,36.838835 35.2483596,36.838835 C34.8493216,36.838835 34.3837772,36.5747573 34.2507645,36.1786408 L27.2675989,18.4194175 L22.8116742,27.1339806 C22.6121552,27.5300971 22.2131172,27.7281553 21.8140792,27.7281553 L12.0376473,27.7281553 C12.17066,27.9262136 12.3036727,28.1242718 12.4366854,28.3223301 C19.5528636,38.4893204 32.4550934,46.807767 35.3148659,48.5902913 C38.1081322,46.807767 51.0768683,38.5553398 58.1265402,28.3223301 C58.5255782,27.7281553 58.9246163,27.1339806 59.3236543,26.4737864 L58.974496,26.4737864 L53.3380838,26.4737864 C52.9390458,26.4737864 52.6065141,26.2757282 52.406995,25.9456311 Z" id="Shape"></path>
                        <path d="M62.1169205,11.9495146 C60.7202874,7.26213592 56.0648437,2.24466019 49.2146908,2.24466019 C47.3525133,2.24466019 45.4238295,2.57475728 43.4951456,3.30097087 C38.5736766,5.08349515 35.9799293,7.13009709 35.9799293,7.13009709 C35.5808913,7.46019417 35.0488406,7.46019417 34.6498026,7.13009709 C34.5832962,7.13009709 31.989549,5.08349515 27.1345863,3.30097087 C25.2059024,2.6407767 23.2772186,2.24466019 21.4150411,2.24466019 C14.4983819,2.24466019 9.90944449,7.26213592 8.51281138,11.9495146 C7.31569728,16.1087379 8.04726701,20.7300971 10.7075206,25.5495146 L21.2820284,25.5495146 L26.5360292,15.3165049 C26.7355482,14.9203883 27.0680799,14.7223301 27.5336243,14.7223301 C27.9326623,14.7223301 28.3317004,14.9864078 28.464713,15.3825243 L35.1818533,32.415534 L41.3669428,11.223301 C41.4999555,10.761165 41.9654998,10.431068 42.4310442,10.431068 C42.8965886,10.4970874 43.362133,10.761165 43.4951456,11.223301 L47.1529943,23.0407767 L49.4142098,19.7398058 C49.6137288,19.4097087 49.9462605,19.2776699 50.3452985,19.2776699 C50.7443366,19.2776699 51.0768683,19.4757282 51.2763873,19.8058252 L54.0031472,24.4271845 L58.974496,24.4271845 L60.5207684,24.4271845 C62.6489712,20.0038835 63.2475283,15.7786408 62.1169205,11.9495146 Z" id="Shape"></path>
                        <path d="M10.7075206,29.5106796 C17.6241798,39.4135922 32.6546124,50.1747573 35.3813723,50.8349515 L35.3813723,50.9009709 C35.3813723,50.9009709 35.4478786,50.9009709 35.514385,50.8349515 C35.5808913,50.8349515 35.6473976,50.8349515 35.713904,50.8349515 L35.713904,50.768932 C38.0416258,49.6466019 52.4735014,40.4038835 60.055224,29.4446602 C60.7867937,28.4543689 61.3853508,27.4640777 61.9174015,26.4737864 L59.3236543,26.4737864 C58.9246163,27.1339806 58.5255782,27.7281553 58.1265402,28.3223301 C51.0768683,38.5553398 38.1081322,46.807767 35.3148659,48.5902913 C32.4550934,46.807767 19.5528636,38.4893204 12.4366854,28.3223301 C12.3036727,28.1242718 12.17066,27.9262136 12.0376473,27.7281553 L9.51040646,27.7281553 C9.84293816,28.3223301 10.2419762,28.9165049 10.7075206,29.5106796 Z" id="Shape" stroke="#303133" stroke-width="0.5" fill="#303133" fill-rule="nonzero"></path>
                        <path d="M62.8484902,24.4271845 C65.3092248,18.8815534 65.0431994,14.392233 64.1121107,11.3553398 C62.5159586,5.94174757 57.1289451,0.0660194175 49.1481844,0.0660194175 C47.0199816,0.0660194175 44.8917787,0.462135922 42.6970696,1.25436893 C38.9062082,2.6407767 36.3789674,4.1592233 35.2483596,4.95145631 C34.1177518,4.1592233 31.6570173,2.6407767 27.7996497,1.25436893 C25.6049405,0.462135922 23.4102313,0.0660194175 21.3485348,0.0660194175 C13.3677741,0.0660194175 7.98076067,5.94174757 6.38460853,11.3553398 C5.45351979,14.5902913 5.12098809,19.4757282 8.24678602,25.5990291 L10.7241471,25.5825243 L10.7075206,25.5495146 C8.04726701,20.7300971 7.31569728,16.1087379 8.51281138,11.9495146 C9.90944449,7.26213592 14.4983819,2.24466019 21.4150411,2.24466019 C23.2772186,2.24466019 25.2059024,2.6407767 27.1345863,3.30097087 C31.989549,5.08349515 34.5832962,7.13009709 34.6498026,7.13009709 C35.0488406,7.46019417 35.5808913,7.46019417 35.9799293,7.13009709 C35.9799293,7.13009709 38.5736766,5.08349515 43.4951456,3.30097087 C45.4238295,2.57475728 47.3525133,2.24466019 49.2146908,2.24466019 C56.0648437,2.24466019 60.7202874,7.26213592 62.1169205,11.9495146 C63.2475283,15.7786408 62.6489712,20.0038835 60.5207684,24.4271845 L62.8484902,24.4271845 Z" id="Shape" stroke="#303133" stroke-width="0.5" fill="#303133" fill-rule="nonzero"></path>
                        <path d="M68.7675544,24.4271845 L65.8911553,24.4271845 L62.8484902,24.4271845 L60.5207684,24.4271845 L58.974496,24.4271845 L54.0031472,24.4271845 L51.2763873,19.8058252 C51.0768683,19.4757282 50.7443366,19.2776699 50.3452985,19.2776699 C49.9462605,19.2776699 49.6137288,19.4097087 49.4142098,19.7398058 L47.1529943,23.0407767 L43.4951456,11.223301 C43.362133,10.761165 42.8965886,10.4970874 42.4310442,10.431068 C41.9654998,10.431068 41.4999555,10.761165 41.3669428,11.223301 L35.1818533,32.415534 L28.464713,15.3825243 C28.3317004,14.9864078 27.9326623,14.7223301 27.5336243,14.7223301 C27.0680799,14.7223301 26.7355482,14.9203883 26.5360292,15.3165049 L21.2820284,25.5495146 L14.5482616,25.5495146 L8.23015944,25.5990291 C8.23015944,25.5990291 8.23015944,25.5990291 8.23015944,25.615534 L7.11617826,25.615534 L1.06410142,25.615534 C0.465544372,25.615534 0,26.0776699 0,26.6718447 C0,27.2660194 0.465544372,27.7281553 1.06410142,27.7281553 L7.13280485,27.7281553 L9.51040646,27.7281553 L12.0376473,27.7281553 L14.5482616,27.7281553 L21.8140792,27.7281553 C22.2131172,27.7281553 22.6121552,27.5300971 22.8116742,27.1339806 L27.2675989,18.4194175 L34.2507645,36.1786408 C34.3837772,36.5747573 34.8493216,36.838835 35.2483596,36.838835 C35.2483596,36.838835 35.2483596,36.838835 35.3148659,36.838835 C35.7804103,36.838835 36.1794484,36.5087379 36.312461,36.0466019 L42.4310442,15.2504854 L45.6898548,25.7475728 C45.8228675,26.1436893 46.1553992,26.407767 46.5544372,26.4737864 C46.9534753,26.5398058 47.3525133,26.3417476 47.6185386,26.0116505 L50.2122859,22.2485437 L52.406995,25.9456311 C52.6065141,26.2757282 52.9390458,26.4737864 53.3380838,26.4737864 L58.974496,26.4737864 L59.3236543,26.4737864 L61.9174015,26.4737864 L65.8911553,26.4737864 L68.9005671,26.4737864 C69.4991241,26.4737864 69.9646685,26.0116505 69.9646685,25.4174757 C69.9646685,24.823301 69.3661115,24.4271845 68.7675544,24.4271845 Z" id="Shape" stroke="#E0119D" stroke-width="0.5" fill="#E0119D" fill-rule="nonzero"></path>
                    </g>
                </g>
            </g>
        </g>
    </g>
</svg>