<?xml version="1.0" encoding="UTF-8"?>
<svg width="70px" height="70px" viewBox="0 0 70 70" version="1.1" xmlns="http://www.w3.org/2000/svg" xmlns:xlink="http://www.w3.org/1999/xlink">
    <!-- Generator: Sketch 52.5 (67469) - http://www.bohemiancoding.com/sketch -->
    <title>suitcase</title>
    <desc>Created with Sketch.</desc>
    <g id="Homepage" stroke="none" stroke-width="1" fill="none" fill-rule="evenodd">
        <g id="01---Homepage---Não-Cliente-" transform="translate(-155.000000, -5984.000000)" fill-rule="nonzero">
            <g id="Seguros" transform="translate(0.000000, 5400.000000)">
                <g id="Group-59" transform="translate(131.000000, 500.000000)">
                    <g id="suitcase" transform="translate(24.000000, 84.000000)">
                        <path d="M31.4385965,15.1370565 L5.8220078,15.1370565 C2.61169591,15.1370565 0,17.7488889 0,20.9590643 L0,58.2196686 C0,61.4298441 2.61169591,64.0416764 5.8220078,64.0416764 L20.9590643,64.0416764 L20.9590643,61.712846 L5.8220078,61.712846 C3.89612086,61.712846 2.32883041,60.1455556 2.32883041,58.2196686 L2.32883041,20.9590643 C2.32883041,19.0331774 3.89612086,17.4658869 5.8220078,17.4658869 L31.4385965,17.4658869 C33.3644834,17.4658869 34.9317739,19.0331774 34.9317739,20.9590643 L34.9317739,22.1234113 L37.2606043,22.1234113 L37.2606043,20.9590643 C37.2606043,17.7488889 34.6487719,15.1370565 31.4385965,15.1370565 Z" id="Shape" fill="#303133"></path>
                        <path d="M25.6165887,0 L11.6438791,0 C9.7179922,0 8.15070175,1.56729045 8.15070175,3.49317739 C8.15070175,5.41906433 9.7179922,6.98635478 11.6438791,6.98635478 L25.6165887,6.98635478 C27.5424756,6.98635478 29.1097661,5.41906433 29.1097661,3.49317739 C29.1097661,1.56729045 27.5424756,0 25.6165887,0 Z M25.6165887,4.65752437 L11.6438791,4.65752437 C11.0022807,4.65752437 10.4795322,4.13477583 10.4795322,3.49317739 C10.4795322,2.85157895 11.0022807,2.32883041 11.6438791,2.32883041 L25.6165887,2.32883041 C26.2581871,2.32883041 26.7809357,2.85157895 26.7809357,3.49317739 C26.7810721,4.13477583 26.2581871,4.65752437 25.6165887,4.65752437 Z" id="Shape" fill="#303133"></path>
                        <polygon id="Rectangle-path" fill="#303133" points="12.8083626 5.8220078 15.137193 5.8220078 15.137193 16.30154 12.8083626 16.30154"></polygon>
                        <polygon id="Rectangle-path" fill="#303133" points="22.1234113 5.8220078 24.4522417 5.8220078 24.4522417 16.30154 22.1234113 16.30154"></polygon>
                        <polygon id="Rectangle-path" fill="#303133" points="6.98635478 34.9317739 9.31518519 34.9317739 9.31518519 55.8908382 6.98635478 55.8908382"></polygon>
                        <polygon id="Rectangle-path" fill="#303133" points="20.9590643 22.1234113 23.2878947 22.1234113 23.2878947 31.4385965 20.9590643 31.4385965"></polygon>
                        <path d="M5.23976608,61.712846 C2.99253411,61.712846 1.16434698,63.5408967 1.16434698,65.7882651 C1.16434698,68.0356335 2.99253411,69.8635478 5.23976608,69.8635478 C7.48699805,69.8635478 9.31518519,68.0354971 9.31518519,65.7881287 C9.31518519,63.5407602 7.48699805,61.712846 5.23976608,61.712846 Z M5.23976608,67.5347173 C4.27682261,67.5347173 3.49317739,66.7510721 3.49317739,65.7881287 C3.49317739,64.8251852 4.27682261,64.04154 5.23976608,64.04154 C6.20270955,64.04154 6.98635478,64.8251852 6.98635478,65.7881287 C6.98635478,66.7510721 6.20270955,67.5347173 5.23976608,67.5347173 Z" id="Shape" fill="#303133"></path>
                        <polygon id="Rectangle-path" fill="#303133" points="13.9727096 22.1234113 16.30154 22.1234113 16.30154 55.8908382 13.9727096 55.8908382"></polygon>
                        <polygon id="Rectangle-path" fill="#303133" points="6.98635478 22.1234113 9.31518519 22.1234113 9.31518519 27.9454191 6.98635478 27.9454191"></polygon>
                        <polygon id="Rectangle-path" fill="#303133" points="27.9454191 22.1234113 30.2742495 22.1234113 30.2742495 31.4385965 27.9454191 31.4385965"></polygon>
                        <path d="M32.0208382,61.712846 C29.7736062,61.712846 27.9454191,63.5408967 27.9454191,65.7882651 C27.9454191,68.0356335 29.7734698,69.8635478 32.0208382,69.8635478 C34.2680702,69.8635478 36.0962573,68.0354971 36.0962573,65.7881287 C36.0962573,63.5407602 34.2680702,61.712846 32.0208382,61.712846 Z M32.0208382,67.5347173 C31.0578947,67.5347173 30.2742495,66.7510721 30.2742495,65.7881287 C30.2742495,64.8251852 31.0578947,64.04154 32.0208382,64.04154 C32.9837817,64.04154 33.7674269,64.8251852 33.7674269,65.7881287 C33.7674269,66.7510721 32.9837817,67.5347173 32.0208382,67.5347173 Z" id="Shape" fill="#303133"></path>
                        <path d="M64.04154,29.1097661 L23.2878947,29.1097661 C20.0775828,29.1097661 17.4658869,31.7215984 17.4658869,34.9317739 L17.4658869,58.2196686 C17.4658869,61.4298441 20.0775828,64.0416764 23.2878947,64.0416764 L64.0416764,64.0416764 C67.2518519,64.0416764 69.8636842,61.4299805 69.8636842,58.2196686 L69.8636842,34.9317739 C69.8635478,31.7215984 67.2518519,29.1097661 64.04154,29.1097661 Z M67.5347173,58.2196686 C67.5347173,60.1455556 65.9674269,61.712846 64.04154,61.712846 L23.2878947,61.712846 C21.3620078,61.712846 19.7947173,60.1455556 19.7947173,58.2196686 L19.7947173,34.9317739 C19.7947173,33.0058869 21.3620078,31.4385965 23.2878947,31.4385965 L64.0416764,31.4385965 C65.9675634,31.4385965 67.5348538,33.0058869 67.5348538,34.9317739 L67.5348538,58.2196686 L67.5347173,58.2196686 Z" id="Shape" fill="#303133"></path>
                        <path d="M48.9044834,24.4522417 L38.4249513,24.4522417 C37.7810331,24.4522417 37.2606043,24.9738986 37.2606043,25.6165887 L37.2606043,30.2741131 L39.5894347,30.2741131 L39.5894347,26.7809357 L47.7401365,26.7809357 L47.7401365,30.2741131 L50.0689669,30.2741131 L50.0689669,25.6165887 C50.0688304,24.9738986 49.5484016,24.4522417 48.9044834,24.4522417 Z" id="Shape" fill="#303133"></path>
                        <path d="M48.9044834,19.7947173 L38.4249513,19.7947173 C35.2147758,19.7947173 32.6029435,22.4064133 32.6029435,25.6167251 L32.6029435,30.2742495 L34.9317739,30.2742495 L34.9317739,25.6167251 C34.9317739,23.6908382 36.4990643,22.1235478 38.4249513,22.1235478 L48.9044834,22.1235478 C50.8303704,22.1235478 52.3976608,23.6908382 52.3976608,25.6167251 L52.3976608,30.2742495 L54.7264912,30.2742495 L54.7264912,25.6167251 C54.7264912,22.4064133 52.1146589,19.7947173 48.9044834,19.7947173 Z" id="Shape" fill="#303133"></path>
                        <path d="M48.6867057,42.4059454 L42.8646979,34.2552437 C42.4280507,33.6427096 41.4068421,33.6427096 40.9701949,34.2552437 L35.1481871,42.4059454 C34.894386,42.7611306 34.8605458,43.2268421 35.0596296,43.615731 C35.2599415,44.0035283 35.6593372,44.2468226 36.0959844,44.2468226 L47.7398635,44.2468226 C48.1765107,44.2468226 48.5759064,44.0035283 48.7749903,43.615731 C48.974347,43.2269786 48.9406433,42.7611306 48.6867057,42.4059454 Z M38.3586355,41.9181287 L41.9181287,36.9357115 L45.4765302,41.9181287 L38.3586355,41.9181287 Z" id="Shape" fill="#E0119D"></path>
                        <path d="M22.705653,61.712846 C20.4584211,61.712846 18.6302339,63.5408967 18.6302339,65.7882651 C18.6302339,68.0356335 20.4584211,69.8635478 22.705653,69.8635478 C24.952885,69.8635478 26.7810721,68.0354971 26.7810721,65.7881287 C26.7810721,63.5407602 24.952885,61.712846 22.705653,61.712846 Z M22.705653,67.5347173 C21.7427096,67.5347173 20.9590643,66.7510721 20.9590643,65.7881287 C20.9590643,64.8251852 21.7427096,64.04154 22.705653,64.04154 C23.6685965,64.04154 24.4522417,64.8251852 24.4522417,65.7881287 C24.4522417,66.7510721 23.6685965,67.5347173 22.705653,67.5347173 Z" id="Shape" fill="#303133"></path>
                        <path d="M64.6237817,61.712846 C62.3765497,61.712846 60.5483626,63.5408967 60.5483626,65.7882651 C60.5483626,68.0356335 62.3765497,69.8635478 64.6237817,69.8635478 C66.8710136,69.8635478 68.6992008,68.0354971 68.6992008,65.7881287 C68.6992008,63.5407602 66.8710136,61.712846 64.6237817,61.712846 Z M64.6237817,67.5347173 C63.6608382,67.5347173 62.877193,66.7510721 62.877193,65.7881287 C62.877193,64.8251852 63.6608382,64.04154 64.6237817,64.04154 C65.5867251,64.04154 66.3703704,64.8251852 66.3703704,65.7881287 C66.3703704,66.7510721 65.5867251,67.5347173 64.6237817,67.5347173 Z" id="Shape" fill="#303133"></path>
                        <polygon id="Rectangle-path" fill="#303133" points="27.9454191 53.5620078 30.2742495 53.5620078 30.2742495 62.877193 27.9454191 62.877193"></polygon>
                        <path d="M29.1097661,29.1097661 L24.4522417,29.1097661 C23.8095517,29.1097661 23.2878947,29.631423 23.2878947,30.2741131 L23.2878947,44.2468226 L25.6167251,44.2468226 L25.6167251,31.4385965 L27.9454191,31.4385965 L27.9454191,46.575653 L30.2742495,46.575653 L30.2742495,30.2742495 C30.2742495,29.631423 29.7525926,29.1097661 29.1097661,29.1097661 Z" id="Shape" fill="#303133"></path>
                        <polygon id="Rectangle-path" fill="#303133" points="23.2878947 50.0688304 25.6167251 50.0688304 25.6167251 62.877193 23.2878947 62.877193"></polygon>
                        <polygon id="Rectangle-path" fill="#303133" points="61.712846 54.7264912 64.0416764 54.7264912 64.0416764 62.877193 61.712846 62.877193"></polygon>
                        <path d="M62.877193,29.1097661 L58.2196686,29.1097661 C57.5757505,29.1097661 57.0553216,29.631423 57.0553216,30.2741131 L57.0553216,46.575653 L59.3840156,46.575653 L59.3840156,31.4385965 L61.712846,31.4385965 L61.712846,48.9044834 L64.0416764,48.9044834 L64.0416764,30.2742495 C64.04154,29.631423 63.5211111,29.1097661 62.877193,29.1097661 Z" id="Shape" fill="#303133"></path>
                        <polygon id="Rectangle-path" fill="#303133" points="57.0551852 55.8908382 59.3840156 55.8908382 59.3840156 62.877193 57.0551852 62.877193"></polygon>
                        <path d="M33.1898246,47.8973294 L19.217115,39.7466277 L18.0433528,41.7598441 L31.0729045,49.3598246 L29.794347,51.9157115 L19.2287135,45.5766862 L18.0305263,47.5736647 L29.6744055,54.5600195 C29.8583431,54.6694542 30.0645224,54.7264912 30.2741131,54.7264912 C30.3835478,54.7264912 30.4929825,54.711345 30.6000975,54.679961 C30.9109357,54.5890838 31.1706043,54.3725341 31.3161988,54.0825731 L33.6450292,49.4250487 C33.9187524,48.8754191 33.7207602,48.2081676 33.1898246,47.8973294 Z" id="Shape" fill="#303133"></path>
                        <path d="M12.7256725,32.1698441 L10.3968421,26.3478363 C10.2804483,26.0567836 10.0510721,25.8250877 9.76111111,25.7051462 C9.47005848,25.5839766 9.14393762,25.5852047 8.85643275,25.7110136 L0.705730994,29.204191 C0.277134503,29.3869006 0,29.8084016 0,30.2742495 L0,37.2606043 C0,37.6553606 0.199083821,38.0221442 0.529844055,38.2374659 C0.721968811,38.3609552 0.943157895,38.4249513 1.16448343,38.4249513 C1.32522417,38.4249513 1.48582846,38.3923392 1.63838207,38.3237037 L12.1179142,33.6661793 C12.6895127,33.4122417 12.9573684,32.7520858 12.7256725,32.1698441 Z M2.32883041,35.468577 L2.32883041,31.0415205 L8.6771345,28.3214815 L10.1465887,31.9939571 L2.32883041,35.468577 Z" id="Shape" fill="#E0119D"></path>
                        <path d="M60.0395322,45.7920078 C56.3763353,44.59846 52.5921053,46.1099415 51.5976413,49.1582846 C51.0993177,50.6836842 51.3589864,52.337076 52.3288889,53.815809 C53.2453021,55.2130799 54.7019298,56.2924172 56.4287329,56.857193 C57.279922,57.1343275 58.1368421,57.2658674 58.9648343,57.2658674 C61.6976998,57.2658674 64.1079922,55.831345 64.8729435,53.4909162 C65.868499,50.4403899 63.7004094,46.9867836 60.0395322,45.7920078 Z M62.6570955,52.7690838 C62.0609357,54.5994542 59.5889669,55.4390448 57.1507018,54.6438012 C55.9234503,54.2420858 54.9022417,53.4946004 54.2746979,52.538616 C53.7006433,51.6630019 53.5352632,50.7198441 53.8089864,49.8814815 C53.8089864,49.8814815 53.8089864,49.8814815 53.8102144,49.8814815 C54.2538207,48.5203704 55.7350097,47.7075244 57.4675439,47.7075244 C58.0649318,47.7075244 58.691384,47.8030409 59.3142885,48.0067641 C61.7547368,48.8043275 63.2532554,50.9398051 62.6570955,52.7690838 Z" id="Shape" fill="#E0119D"></path>
                    </g>
                </g>
            </g>
        </g>
    </g>
</svg>