<?xml version="1.0" encoding="UTF-8"?>
<svg width="31px" height="32px" viewBox="0 0 31 32" version="1.1" xmlns="http://www.w3.org/2000/svg" xmlns:xlink="http://www.w3.org/1999/xlink">
    <!-- Generator: Sketch 52.6 (67491) - http://www.bohemiancoding.com/sketch -->
    <title>lovelorn</title>
    <desc>Created with Sketch.</desc>
    <g id="Suporte" stroke="none" stroke-width="1" fill="none" fill-rule="evenodd">
        <g id="Ajuda---03" transform="translate(-930.000000, -1424.000000)" fill="#AAB1B9">
            <g id="Perguntas" transform="translate(728.000000, 1424.000000)">
                <g id="Group-16" transform="translate(150.000000, 0.000000)">
                    <g id="Group-6">
                        <g id="lovelorn" transform="translate(52.000000, 0.000000)">
                            <path d="M16.7541818,0 C16.1778373,0 15.670993,0.294674464 15.3698049,0.74180117 L14.8627751,1.85225731 L15.62771,2.90445224 L15.6666647,2.95809747 L15.644714,3.0045692 L15.0889599,4.18220663 L15.4427059,2.99689669 L14.4678484,2.01225731 L14.3931542,1.93684211 L14.430996,1.80391423 L14.8185028,0.442635478 C14.5210865,0.168046784 14.1254177,0 13.6902996,0 C12.7651557,0 12.0151844,0.756584795 12.0151844,1.68988694 C12.0151844,3.52162183 14.3386176,5.36614425 15.0302805,5.87465107 C15.1446713,5.95873684 15.3001192,5.95867446 15.4145101,5.87452632 C16.1063585,5.36583236 18.4294207,3.52149708 18.4294207,1.68994932 C18.4293589,0.756584795 17.6793876,0 16.7541818,0 Z" id="Path"></path>
                            <path d="M15.9535694,27.0707524 L11.7148001,23.3089747 L11.5331969,21.9654737 L9.47181156,22.4868304 L9.47181156,25.1559922 L14.0670475,29.2340273 C14.6592212,29.759501 15.5616106,29.7013021 16.0826146,29.1039064 C16.603495,28.5066355 16.5458049,27.5962885 15.9535694,27.0707524 Z" id="Path"></path>
                            <path d="M8.35313066,22.7698402 L5.75447921,23.4271189 L5.75447921,30.4968733 C5.75447921,31.2925068 6.39383143,31.9375595 7.18257195,31.9375595 C7.97131248,31.9375595 8.6106647,31.2925068 8.6106647,30.4968733 L8.6106647,22.7047797 L8.35313066,22.7698402 Z" id="Path"></path>
                            <path d="M13.4108149,19.5243041 C13.4108149,19.5243041 8.35727346,8.30839766 8.35739713,8.30846004 C8.0591152,7.64768811 7.36881266,7.2545809 6.68487891,7.4274308 C5.73333235,7.66808577 5.13033787,7.82060039 4.27302466,8.03748928 C3.92849172,8.12463158 3.64393669,8.34420273 3.45540817,8.63837817 L3.46758925,9.12118519 L4.66455061,8.72283821 L2.37562017,10.1542924 L2.26648509,5.82518519 C2.25077954,5.20271345 1.73688627,4.70855361 1.12078322,4.72670565 C0.503690835,4.74254971 0.0161383879,5.26003899 0.0319057784,5.8825731 L0.19056901,12.1774035 C0.200771439,12.5812398 0.42435922,12.9488343 0.776744939,13.1408343 C1.12900699,13.3327719 1.55639603,13.319922 1.89678616,13.1070253 L5.84259109,10.6392827 L3.43419948,13.0972943 L3.99959956,21.904655 C4.02668237,22.3262066 4.40250276,22.6246862 4.77331469,22.5308694 C6.57388885,22.0754464 11.2196423,20.9004288 13.0214531,20.4447563 C13.3931307,20.3506901 13.5830813,19.9066823 13.4108149,19.5243041 Z" id="Path"></path>
                            <path d="M6.00855061,3.95477583 C5.67737357,2.6220039 4.33782554,1.81214815 3.01627089,2.14637037 C2.22944718,2.34535673 1.62670004,2.90520078 1.33763121,3.60701754 C2.45965109,3.70145809 3.35449687,4.6351345 3.38374384,5.79655361 L3.41509312,7.04043665 C3.68493191,7.06264327 3.95322488,7.03987524 4.21589106,6.9734425 C5.53726021,6.63922027 6.33978947,5.28773489 6.00855061,3.95477583 Z" id="Path"></path>
                            <path d="M29.7854663,30.3372476 L29.3016238,22.8458791 C29.2924107,22.7024717 29.262731,22.5611228 29.2136975,22.4262612 L28.2890482,19.8829162 C27.1865057,19.8778635 26.6856592,19.2189006 26.1272462,18.6414659 L23.3809378,15.8015127 C23.0762252,15.4865653 22.6324505,15.1280156 22.7393596,14.4276959 L23.3680766,10.308117 L23.7968877,14.3125458 C23.8266912,14.5911267 23.9483784,14.8516179 24.1423482,15.0522261 L27.4112065,18.432499 C27.8900405,18.9274698 28.6755657,18.9370136 29.1659625,18.4543938 C29.6565447,17.9715867 29.6662525,17.1790097 29.1876658,16.6841637 L26.2182643,13.6134737 L25.8355186,10.0391423 L26.872951,12.7539025 L28.2351918,14.1625263 L28.6440309,9.14520078 C28.6846551,8.64673684 28.5287126,8.17796491 28.2421789,7.81554776 C27.3186426,7.88977778 26.4517453,7.60065497 25.7728819,7.05403509 C23.4799941,7.15477583 21.5653382,8.96193372 21.3724196,11.3296842 L20.8600103,17.8430877 L21.6457828,23.0162963 L19.7376194,30.0375828 C19.5201531,30.8377076 19.9868679,31.6642807 20.7799985,31.8836023 C21.5733765,32.102924 22.3923533,31.6320936 22.6097578,30.8320312 L24.6018285,23.5020975 C24.6571071,23.2986199 24.66935,23.0856608 24.6376297,22.8771306 L23.9664336,18.462191 L24.6201929,18.5163977 L26.3437851,23.2572008 L26.8135296,30.5324912 C26.8648509,31.3271267 27.5197851,31.9371228 28.298014,31.9371228 C29.1626853,31.9371228 29.8412396,31.2011852 29.7854663,30.3372476 Z" id="Path"></path>
                            <ellipse id="Oval" cx="27.9606537" cy="4.28350877" rx="2.55332794" ry="2.57584405"></ellipse>
                        </g>
                    </g>
                </g>
            </g>
        </g>
    </g>
</svg>