<?xml version="1.0" encoding="UTF-8"?>
<svg width="30px" height="32px" viewBox="0 0 30 32" version="1.1" xmlns="http://www.w3.org/2000/svg" xmlns:xlink="http://www.w3.org/1999/xlink">
    <!-- Generator: Sketch 52.6 (67491) - http://www.bohemiancoding.com/sketch -->
    <title>in-love</title>
    <desc>Created with Sketch.</desc>
    <g id="Suporte" stroke="none" stroke-width="1" fill="none" fill-rule="evenodd">
        <g id="Ajuda---03" transform="translate(-769.000000, -1424.000000)" fill="#AAB1B9">
            <g id="Perguntas" transform="translate(728.000000, 1424.000000)">
                <g id="Group-14">
                    <g id="in-love" transform="translate(41.000000, 0.000000)">
                        <circle id="Oval" cx="14.490084" cy="7.70605042" r="2.62890276"></circle>
                        <path d="M24.6061128,24.090545 C20.7036783,19.2026699 20.9870876,19.5355822 20.8085522,19.3896327 L19.0060936,12.0604418 L24.1786267,5.03831933 C24.5941273,4.4742473 24.4736471,3.68013926 23.9096375,3.26470108 C23.3455654,2.84926291 22.5514574,2.96968067 22.1360192,3.53369028 L16.9076158,10.6317839 C16.8817719,10.6369028 16.855928,10.6423962 16.830084,10.6488259 C13.4838559,11.4717743 13.6914814,11.4143433 13.5354814,11.4747707 L7.12643457,4.95011285 C6.63552461,4.45040096 5.83242737,4.44315966 5.33259064,4.93413205 C4.83281633,5.42504202 4.82563745,6.22820168 5.31660984,6.72797599 L12.598982,14.1414406 L14.6132485,22.3319088 L14.0260168,24.4107227 L8.9012389,23.5036255 C8.07348379,23.3574886 7.28362065,23.9093878 7.13710924,24.7372053 C6.99066026,25.5649604 7.54287155,26.3548235 8.37068908,26.5013349 L14.8512749,27.6483938 C15.621599,27.7846675 16.3690132,27.3151068 16.581383,26.5632605 C18.0357599,21.4146363 17.9437455,21.775515 17.9651573,21.581623 L18.5917167,21.4274958 C18.6553277,21.5203217 18.3967635,21.1924658 21.4396062,25.0035726 L17.6144538,29.4462329 C17.0659256,30.0832797 17.1377143,31.0443745 17.7747611,31.5929028 C18.4118703,32.1415558 19.3730276,32.0695174 19.921431,31.4325954 L24.5701561,26.0333974 C25.0476447,25.4787515 25.0628139,24.6626074 24.6061128,24.090545 Z" id="Path"></path>
                        <path d="M28.7878367,5.46530612 C28.4335126,5.46530612 28.1293157,5.67811285 27.9947275,5.98255942 C27.8601393,5.67805042 27.5559424,5.46530612 27.2016182,5.46530612 C26.7226315,5.46530612 26.3342857,5.85365186 26.3342857,6.33263866 C26.3342857,7.2727587 27.5372149,8.21937095 27.8952845,8.48030732 C27.9545882,8.52356783 28.0348667,8.5235054 28.0941705,8.4802449 C28.4523649,8.21918367 29.6551068,7.27263385 29.6551068,6.33263866 C29.6551693,5.85365186 29.2668235,5.46530612 28.7878367,5.46530612 Z" id="Path"></path>
                        <path d="M6.23138535,11.7804034 C5.87706122,11.7804034 5.57286435,11.9932101 5.43827611,12.2976567 C5.30368788,11.9931477 4.999491,11.7804034 4.64516687,11.7804034 C4.16618007,11.7804034 3.77783433,12.1686867 3.77783433,12.6477359 C3.77783433,13.5878559 4.98076351,14.5344682 5.33883313,14.7954046 C5.39813685,14.8386651 5.47841537,14.8386026 5.53771909,14.7953421 C5.89597599,14.5342809 7.09865546,13.5877311 7.09865546,12.6477359 C7.09865546,12.1686242 6.71037215,11.7804034 6.23138535,11.7804034 Z" id="Path"></path>
                        <path d="M2.03636495,6.43070828 C1.75077071,6.43070828 1.50569028,6.60212725 1.39719568,6.84751981 C1.28876351,6.60212725 1.04355822,6.43070828 0.758026411,6.43070828 C0.372052821,6.43070828 0.0591164466,6.74358223 0.0591164466,7.12961825 C0.0591164466,7.88714526 1.02845138,8.64997839 1.31704202,8.86035054 C1.36479712,8.89518367 1.42953181,8.89512125 1.47734934,8.86028812 C1.7660024,8.64991597 2.73521248,7.88714526 2.73521248,7.12961825 C2.73521248,6.74358223 2.42233854,6.43070828 2.03636495,6.43070828 Z" id="Path"></path>
                        <path d="M7.41546218,0 C7.12986795,0 6.88478752,0.171418968 6.77629292,0.416811525 C6.66779832,0.171418968 6.42265546,0 6.13712365,0 C5.75115006,0 5.43821369,0.31287395 5.43821369,0.698909964 C5.43827611,1.45643697 6.40767347,2.21927011 6.69620168,2.42957983 C6.74395678,2.46441297 6.80869148,2.46435054 6.856509,2.42951741 C7.14516206,2.21914526 8.11437215,1.45637455 8.11437215,0.698847539 C8.11430972,0.31287395 7.80143577,0 7.41546218,0 Z" id="Path"></path>
                        <path d="M26.5158175,0.288403361 C26.2973301,0.288403361 26.1097431,0.419558223 26.0268427,0.607332533 C25.9438175,0.419558223 25.7562929,0.288403361 25.5378055,0.288403361 C25.242473,0.288403361 25.0030732,0.527803121 25.0030732,0.823135654 C25.0030732,1.40268908 25.7447443,1.98636255 25.9655414,2.14729412 C26.0021224,2.17394958 26.0516255,2.17394958 26.0881441,2.14723169 C26.309066,1.9862377 27.0505498,1.40268908 27.0505498,0.823135654 C27.0505498,0.527865546 26.8111501,0.288403361 26.5158175,0.288403361 Z" id="Path"></path>
                        <path d="M19.4103577,2.16720768 C19.1918703,2.16720768 19.0042833,2.29836255 18.921383,2.48613685 C18.8383577,2.29836255 18.6508331,2.16720768 18.4323457,2.16720768 C18.1370132,2.16720768 17.8976134,2.40660744 17.8976134,2.70193998 C17.8976759,3.28155582 18.6392845,3.86522929 18.8600816,4.02609844 C18.8966627,4.0527539 18.9461657,4.0527539 18.9826843,4.02603601 C19.2035438,3.86510444 19.94509,3.2814934 19.94509,2.70193998 C19.94509,2.40666987 19.7056903,2.16720768 19.4103577,2.16720768 Z" id="Path"></path>
                    </g>
                </g>
            </g>
        </g>
    </g>
</svg>